<svg xmlns="http://www.w3.org/2000/svg" width="607.5" height="360.73"><rect width="100%" height="100%" fill="none"/><g class="currentLayer"><g data-name="Layer 1"><path d="M467.23 275a3.86 3.86 0 00-2.78-1.18 3.35 3.35 0 000 6.7 3 3 0 002.88-2.29h-3v-2h5.39v1.46a5.34 5.34 0 01-5.46 5.11 5.57 5.57 0 010-11.14 6.21 6.21 0 014.41 1.68zm25.97 21.61a4.3 4.3 0 00-3.06-1.3 3.69 3.69 0 000 7.37 3.32 3.32 0 003.16-2.52H490V298h5.92v1.6a5.87 5.87 0 01-6 5.62 6.13 6.13 0 010-12.25 6.87 6.87 0 014.85 1.85z" fill="#fff"/><path d="M56.29 217.76c-3.53 0-5.65-2.32-5.65-6v-9.36h2v9.1c0 2.62 1.14 4.37 3.66 4.37s3.73-1.57 3.73-4.3v-9.17h2v9.25c0 3.8-2.18 6.1-5.72 6.1m21.25-.28l-8-11.72v11.72H67.7v-15.06h1.78l7.74 11.28v-11.28h1.84v15.06h-1.5m7.58-15.06h2v15.06h-2zm13.8 15.13h-1.78l-5.63-14.85 2-.43 4.55 12.53 4.46-12.38h2.1l-5.69 15.13m10.05-.07v-15.06h7.88v1.88H111v4.36h4.57l.3 1.88H111v5.06h6.1v1.88H109m17.07-13.25h-1.9v5.17h1.69c1.92 0 3.15-.89 3.15-2.59s-1-2.58-2.94-2.58zm6.07 12.95l-2 .46-4.46-6.51h-1.5v6.35h-2v-15.06h4c3 0 4.85 1.52 4.85 4.28a4.07 4.07 0 01-3.19 4.17l4.34 6.31zm7.86.48a8.61 8.61 0 01-4.09-1l.3-2.09a7.06 7.06 0 003.83 1.28 2.3 2.3 0 002.6-2.29c0-1.37-.59-1.94-2.79-3-2.75-1.29-3.79-2.23-3.79-4.39 0-2.42 1.8-4 4.44-4a6.36 6.36 0 013.33.85l-.32 2a5.1 5.1 0 00-3.07-1.11c-1.67 0-2.41.92-2.41 2s.55 1.7 2.77 2.75c2.84 1.33 3.81 2.34 3.81 4.61 0 2.6-1.88 4.24-4.61 4.24m9.86-15.09h2v15.06h-2zm13.01 1.88v13.18h-2v-13.18h-4.65v-1.88h11.13l.3 1.88h-4.79m14.14 7.2v6h-2v-6l-5.17-8.8 2-.44 4.19 7.36 4.09-7.2h2.2l-5.31 9.08m20.2-7.49c-2.9 0-4.68 2.31-4.68 5.94s1.8 5.94 4.68 5.94 4.68-2.32 4.68-5.94-1.8-5.94-4.68-5.94zm0 13.76c-4.11 0-6.71-3.15-6.71-7.8s2.65-7.84 6.75-7.84 6.71 3.15 6.71 7.8-2.62 7.84-6.75 7.84zm13.65-13.47v4.6h4.4l.3 1.88h-4.7v6.7h-2v-15.06h7.6v1.88h-5.61m18.78 13.36a8.6 8.6 0 01-4.08-1l.3-2.09a7.06 7.06 0 003.83 1.28 2.3 2.3 0 002.6-2.29c0-1.37-.6-1.94-2.8-3-2.75-1.29-3.78-2.23-3.78-4.39 0-2.42 1.8-4 4.44-4a6.29 6.29 0 013.32.85l-.31 2a5.12 5.12 0 00-3.07-1.11c-1.67 0-2.41.92-2.41 2s.55 1.7 2.77 2.75c2.83 1.33 3.81 2.34 3.81 4.61 0 2.6-1.89 4.23-4.62 4.23m14.38-12.7l-2.33 6.35h4.67l-2.34-6.35zm4.73 12.84l-1.67-4.63h-6l-1.65 4.52h-2l5.71-15.13h2l5.63 14.85-1.92.44zm15.79-.16l-8-11.72v11.72h-1.84v-15.06h1.78l7.74 11.28v-11.28h1.8v15.06h-1.5m15.6-13.18v4.6h4.4l.3 1.88h-4.7v6.7h-2v-15.06h7.6v1.88h-5.6m14.45-.07h-1.9v5.17h1.69c1.93 0 3.15-.89 3.15-2.59s-1-2.58-2.93-2.58zm6.07 12.95l-2 .46-4.46-6.51h-1.5v6.35h-2v-15.06h4c3 0 4.84 1.52 4.84 4.28a4.07 4.07 0 01-3.19 4.17l4.33 6.31zm9.64-12.38l-2.33 6.35h4.68l-2.35-6.35zm4.74 12.84l-1.72-4.63h-6l-1.65 4.52h-2l5.72-15.13h2l5.62 14.85zm16.16-.16l-8-11.72v11.72h-1.86v-15.06h1.78l7.74 11.28v-11.28h1.85v15.06h-1.51m13.19.29c-4.1 0-6.75-3.15-6.75-7.8s2.69-7.84 6.79-7.84a6.85 6.85 0 014.15 1.25l-.3 2.09a6.11 6.11 0 00-3.87-1.46c-3 0-4.72 2.32-4.72 5.94s1.78 5.92 4.72 5.92a6.87 6.87 0 004.11-1.51l.29 1.94a7.48 7.48 0 01-4.42 1.47m9.13-15.35h2v15.06h-2zm10.76 15.24a8.6 8.6 0 01-4.08-1l.3-2.09a7.06 7.06 0 003.82 1.28c1.53 0 2.61-.83 2.61-2.29s-.59-1.94-2.79-3c-2.75-1.29-3.79-2.23-3.79-4.39 0-2.42 1.8-4 4.44-4a6.29 6.29 0 013.32.85l-.32 2a5.07 5.07 0 00-3.06-1.11c-1.67 0-2.42.92-2.42 2s.55 1.7 2.78 2.75c2.83 1.33 3.81 2.34 3.81 4.61 0 2.6-1.89 4.23-4.62 4.23m14.94.27c-4.1 0-6.74-3.15-6.74-7.8s2.68-7.84 6.79-7.84a6.89 6.89 0 014.15 1.25l-.3 2.09a6.16 6.16 0 00-3.87-1.46c-3 0-4.72 2.32-4.72 5.94s1.77 5.92 4.72 5.92a6.87 6.87 0 004.1-1.51l.3 1.94a7.54 7.54 0 01-4.43 1.47M393.24 204c-2.9 0-4.68 2.31-4.68 5.94s1.8 5.94 4.68 5.94 4.67-2.32 4.67-5.94-1.8-5.94-4.67-5.94zm0 13.76c-4.11 0-6.71-3.15-6.71-7.8s2.65-7.84 6.75-7.84 6.71 3.15 6.71 7.8-2.63 7.84-6.75 7.84z" fill="#114a37"/><path d="M55.51 244.39c-3 0-4.95-2.3-4.95-5.71s2-5.74 5-5.74a5 5 0 013 .92l-.22 1.53a4.51 4.51 0 00-2.84-1.07c-2.17 0-3.45 1.69-3.45 4.35s1.3 4.33 3.45 4.33a5 5 0 003-1.1l.22 1.42a5.49 5.49 0 01-3.24 1.07m17.13-.2v-5.09h-5.4v5.09h-1.46v-11h1.46v4.57h5.41v-4.57h1.45v11h-1.46m12.39-9.3l-1.7 4.66h3.42L85 234.89zm3.48 9.41l-1.26-3.43h-4.38l-1.21 3.32h-1.47l4.19-11.09h1.46l4.12 10.9-1.41.32zm14.84-.11l-5.88-8.59v8.59h-1.35v-11h1.3l5.68 8.27v-8.27h1.35v11h-1.1m13.18.2c-3.39 0-5.2-2.3-5.2-5.71s1.89-5.74 5.08-5.74a5.36 5.36 0 013.25.95l-.23 1.53a4.7 4.7 0 00-3-1.1c-2.34 0-3.56 1.69-3.56 4.35s1.26 4.33 3.7 4.33a4.08 4.08 0 002.17-.54v-2.93h-2.46l-.2-1.37h4.11v5.16a6.65 6.65 0 01-3.62 1.07m10.81-.2v-11h5.77v1.37h-4.31v3.2h3.35l.22 1.38h-3.57v3.71h4.46v1.37h-5.92m24.54-9.7v9.66h-1.46v-9.66H147v-1.37h8.15l.22 1.37h-3.51m16.38 9.67v-5.09h-5.41v5.09h-1.46v-11h1.46v4.57h5.41v-4.57h1.45v11h-1.45m9.08 0v-11h5.76v1.37h-4.31v3.2h3.35l.22 1.38h-3.56v3.71h4.46v1.37h-5.92m30.61-.03h-1.23l-2.9-8.94-2.89 8.94h-1.21l-3.17-10.83L198 233l2.42 8.78 2.73-8.67h1.45l2.73 8.67 2.37-8.67h1.49l-3.22 11m13.6-9.79c-2.13 0-3.43 1.69-3.43 4.35s1.32 4.35 3.43 4.35 3.42-1.7 3.42-4.35-1.32-4.35-3.42-4.35zm0 10.07c-3 0-4.92-2.3-4.92-5.71s1.94-5.74 5-5.74 4.91 2.31 4.91 5.71-1.92 5.74-4.94 5.74zm14.73-9.91h-1.39v3.79h1.24c1.41 0 2.31-.66 2.31-1.9s-.73-1.89-2.16-1.89zm4.45 9.48l-1.47.34-3.28-4.77h-1.1v4.66h-1.46v-11h2.92c2.18 0 3.55 1.12 3.55 3.13a3 3 0 01-2.34 3.06l3.17 4.62zm6.43.23v-11h1.46v9.66h3.86l.2 1.37h-5.52m15.22-9.71h-1.69v8.32h1.64c2.57 0 4.13-1.35 4.13-4.16s-1.63-4.16-4.08-4.16zm-.11 9.68h-3v-11h3.1c3.72 0 5.63 2.27 5.63 5.5s-2 5.54-5.69 5.54zm21.98-9.67v3.38h3.22l.22 1.37h-3.44v4.91h-1.46v-11h5.57v1.37h-4.11m13.62-.07h-1.4v3.79h1.24c1.41 0 2.31-.66 2.31-1.9s-.72-1.89-2.15-1.89zm4.45 9.48l-1.47.34-3.27-4.77h-1.11v4.66H295v-11h3c2.19 0 3.55 1.12 3.55 3.13a3 3 0 01-2.34 3.06l3.18 4.62zm10.71-9.64c-2.13 0-3.43 1.69-3.43 4.35s1.32 4.35 3.43 4.35 3.42-1.7 3.42-4.35-1.32-4.35-3.42-4.35zm0 10.07c-3 0-4.91-2.3-4.91-5.71s1.93-5.74 4.94-5.74 4.92 2.31 4.92 5.71-1.93 5.74-5 5.74zm22.14-.2l-.66-8.78-3.38 8.83h-1.1l-3.38-8.84-.65 8.79h-1.37l.86-11h1.79l3.34 9 3.33-9h1.78l.84 11h-1.4m23.22 0v-5.09H353v5.09h-1.46v-11H353v4.57h5.41v-4.57h1.46v11h-1.46m9 0v-11h5.77v1.37h-4.31v3.2h3.35l.21 1.38h-3.56v3.71h4.46v1.37h-5.92m15.59-9.74h-1.4v3.79h1.24c1.41 0 2.31-.66 2.31-1.9s-.71-1.89-2.15-1.89zm4.45 9.48l-1.48.34-3.27-4.77h-1.1v4.66h-1.45v-11h2.91c2.18 0 3.55 1.12 3.55 3.13a3 3 0 01-2.34 3.06l3.18 4.62zm6.45.23v-11h5.76v1.37h-4.31v3.2h3.35l.22 1.38h-3.56v3.71h4.46v1.37h-5.92M50.63 225h349.21v.66H50.63z" fill="#898a89"/><path d="M310.54 100.23a.24.24 0 00-.14-.22.27.27 0 00-.25 0l-1.71 1.72a5 5 0 100 7.45.21.21 0 00.07-.15.19.19 0 00-.07-.16l-1-1a.22.22 0 00-.31 0 3.29 3.29 0 01-2.11.79 3.21 3.21 0 010-6.42 3.14 3.14 0 012.1.79l-1.34 1.34a.25.25 0 00-.06.25.24.24 0 00.22.14h4.35a.23.23 0 00.23-.23v-4.35z" fill="#fdbb2f"/><path d="M333 110a3 3 0 00-2.08.84l-4.92-2.47v-.74l4.94-2.47A3 3 0 10330 103v.37l-4.94 2.47a3 3 0 100 4.32l4.94 2.47v.37a3 3 0 103-3z" fill="#fdbb30"/><path d="M16.45 100H2.81A2.81 2.81 0 000 102.81v13.64a2.81 2.81 0 002.81 2.81h13.64a2.81 2.81 0 002.81-2.81v-13.64a2.81 2.81 0 00-2.81-2.81zm-6.82 6A3.61 3.61 0 116 109.63 3.61 3.61 0 019.63 106zm7.63 10.83a.41.41 0 01-.41.41H2.41a.41.41 0 01-.41-.41v-8.42h2.14a5.25 5.25 0 00-.13 1.2 5.62 5.62 0 0011.23 0 5.26 5.26 0 00-.12-1.2h2.14zm0-12a.4.4 0 01-.41.4h-2.41a.4.4 0 01-.4-.41v-2.4a.4.4 0 01.4-.41h2.41a.41.41 0 01.41.41v2.41zm32-3.63a1.21 1.21 0 00-1.2-1.2H31.2a1.2 1.2 0 00-1.2 1.2v16.86a1.22 1.22 0 001.2 1.2h9.1v-7.49h-2.41V109h2.41v-2.4c0-2.19 1.33-3.66 4-3.66a13.74 13.74 0 012 .13v2.51h-1.86a1.09 1.09 0 00-1.2 1.24V109h2.81l-.4 2.77h-2.41v7.49h4.82a1.22 1.22 0 001.2-1.2V101.2zm19.57 9.21a4.42 4.42 0 10-4.42 4.41 4.42 4.42 0 004.42-4.41zm10.43 0a4.42 4.42 0 10-4.41 4.41 4.42 4.42 0 004.41-4.41zm30-6.57a7.64 7.64 0 01-2.28.63 3.91 3.91 0 001.74-2.19 8 8 0 01-2.49 1 4.09 4.09 0 00-2.9-1.24 3.93 3.93 0 00-3.94 3.94 4.47 4.47 0 00.08.91 11.18 11.18 0 01-8.13-4 3.74 3.74 0 00-.54 1.92 3.91 3.91 0 001.77 3.19 4 4 0 01-1.79-.49 3.93 3.93 0 003.22 3.91 4 4 0 01-1.79.07 3.93 3.93 0 003.68 2.74 8 8 0 01-4.9 1.88A5.86 5.86 0 0190 116a11.45 11.45 0 0017.3-9.63v-.52a8 8 0 002-2zm20.37-.84c-9.63 0-9.63 0-9.63 6.82s0 6.82 9.63 6.82 9.63 0 9.63-6.82 0-6.82-9.63-6.82zm-2.41 10.43v-7.22l6 3.61-6 3.61zm23.18-7.02v12.45h4v-12.45zm10.43 5.22a2.18 2.18 0 012.23-2.4c1.21 0 2.18.8 2.18 2.81v6.82h4v-7.23c0-3.61-2-5.61-4.82-5.61a4.32 4.32 0 00-3.61 2.11l-.13-1.72h-3.95c0 .43.07 2.81.07 2.81v9.63h4v-7.22zm-8.44-7.22a2.21 2.21 0 10-2.39-2.21 2.23 2.23 0 002.39 2.21zm60.93 7.11l-3.84-3.85a5.09 5.09 0 10-4.39 2.51 5 5 0 002.58-.71l3.85 3.85a.82.82 0 00.6.25.85.85 0 00.6-.24l.6-.61a.85.85 0 000-1.2zm-11.62-6.43a3.39 3.39 0 113.39 3.39 3.39 3.39 0 01-3.39-3.39z" fill="#fff"/><path d="M259.63 117l-5.63-5.69a7.51 7.51 0 10-6.5 3.69 7.45 7.45 0 003.81-1l5.67 5.68a1.27 1.27 0 001.77 0l.88-.89a1.25 1.25 0 000-1.77zm-17.13-9.5a5 5 0 115 5 5 5 0 01-5-5z" fill="#00543c"/><path d="M279.63 117l-5.63-5.69a7.51 7.51 0 10-6.5 3.69 7.45 7.45 0 003.81-1l5.68 5.68a1.25 1.25 0 00.88.36 1.29 1.29 0 00.89-.36l.88-.89a1.27 1.27 0 000-1.77zm-17.13-9.5a5 5 0 115 5 5 5 0 01-5-5z" fill="#353535"/><path d="M234.72 112.74l-4.25-4.26a5.63 5.63 0 10-2 2l4.26 4.26a1 1 0 00.66.27.94.94 0 00.66-.27l.66-.67a.92.92 0 000-1.32zm-12.84-7.12a3.75 3.75 0 113.74 3.76 3.73 3.73 0 01-3.74-3.76z" fill="#00543c"/><path d="M260 174.06l1.09 1.09a.16.16 0 00.22 0l2.36-2.37 2.37 2.37a.16.16 0 00.22 0l1.08-1.09a.14.14 0 000-.22l-3.55-3.56a.17.17 0 00-.23 0l-3.56 3.56a.25.25 0 000 .11.21.21 0 000 .11zm-12.61-2.93L246.3 170a.18.18 0 00-.22 0l-2.36 2.37-2.37-2.37a.18.18 0 00-.22 0l-1.08 1.09a.16.16 0 000 .22l3.56 3.56a.16.16 0 00.22 0l3.56-3.56a.14.14 0 000-.11.15.15 0 000-.11zM221.13 170l-1.13 1.13a.16.16 0 000 .22l2.37 2.36-2.37 2.37a.16.16 0 000 .22l1.09 1.08a.14.14 0 00.22 0l3.56-3.55a.17.17 0 000-.23l-3.52-3.6a.18.18 0 00-.11 0 .21.21 0 00-.11 0zM204 170a.21.21 0 01.11 0l1.09 1.09a.16.16 0 010 .22l-2.37 2.36 2.37 2.37a.16.16 0 010 .22l-1.09 1.08a.14.14 0 01-.22 0l-3.56-3.55a.17.17 0 010-.23l3.56-3.56a.25.25 0 01.11 0z" fill="#fff"/><path data-name="up" d="M260 154.06l1.09 1.09a.16.16 0 00.22 0l2.36-2.37 2.37 2.37a.16.16 0 00.22 0l1.08-1.09a.14.14 0 000-.22l-3.55-3.56a.17.17 0 00-.23 0l-3.56 3.56a.25.25 0 000 .11.21.21 0 000 .11z" fill="#2a2a2a"/><path data-name="down" d="M247.39 151.13L246.3 150a.18.18 0 00-.22 0l-2.36 2.37-2.37-2.37a.18.18 0 00-.22 0l-1.08 1.09a.16.16 0 000 .22l3.56 3.56a.16.16 0 00.22 0l3.56-3.56a.14.14 0 000-.11.15.15 0 000-.11z" fill="#2a2a2a"/><path data-name="right" d="M221.13 150l-1.13 1.13a.16.16 0 000 .22l2.37 2.36-2.37 2.37a.16.16 0 000 .22l1.09 1.08a.14.14 0 00.22 0l3.56-3.55a.17.17 0 000-.23l-3.52-3.6a.18.18 0 00-.11 0 .21.21 0 00-.11 0z" fill="#2a2a2a"/><path data-name="left" d="M204 150a.21.21 0 01.11 0l1.09 1.09a.16.16 0 010 .22l-2.37 2.36 2.37 2.37a.16.16 0 010 .22l-1.09 1.08a.14.14 0 01-.22 0l-3.56-3.55a.17.17 0 010-.23l3.56-3.56a.25.25 0 01.11 0z" fill="#2a2a2a"/><path d="M260 134.06l1.09 1.09a.16.16 0 00.22 0l2.36-2.37 2.37 2.37a.16.16 0 00.22 0l1.08-1.09a.14.14 0 000-.22l-3.55-3.56a.17.17 0 00-.23 0l-3.56 3.56a.25.25 0 000 .11.21.21 0 000 .11zm-12.65-2.93L246.3 130a.18.18 0 00-.22 0l-2.36 2.37-2.37-2.37a.18.18 0 00-.22 0l-1.08 1.09a.16.16 0 000 .22l3.56 3.56a.16.16 0 00.22 0l3.56-3.56a.14.14 0 000-.11.15.15 0 000-.11zM221.13 130l-1.13 1.13a.16.16 0 000 .22l2.37 2.36-2.37 2.37a.16.16 0 000 .22l1.09 1.08a.14.14 0 00.22 0l3.56-3.55a.17.17 0 000-.23l-3.52-3.6a.18.18 0 00-.11 0 .21.21 0 00-.11 0zM204 130a.21.21 0 01.11 0l1.09 1.09a.16.16 0 010 .22l-2.37 2.36 2.37 2.37a.16.16 0 010 .22l-1.09 1.08a.14.14 0 01-.22 0l-3.56-3.55a.17.17 0 010-.23l3.56-3.56a.25.25 0 01.11 0z" fill="#fcbb30"/><path d="M87.11 143.38a.39.39 0 00.21-.08l2-2a.3.3 0 000-.4L85 136.69l4.26-4.26a.29.29 0 000-.39l-2-2a.28.28 0 00-.4 0l-6.41 6.41a.28.28 0 000 .4l6.41 6.41a.36.36 0 00.19.08zm72.89-6.47a.32.32 0 00.08.21l1.95 1.95a.3.3 0 00.4 0l4.25-4.26 4.26 4.26a.3.3 0 00.4 0l1.95-1.95a.28.28 0 000-.4l-6.4-6.41a.3.3 0 00-.41 0l-6.4 6.41a.27.27 0 00-.08.19zM102.23 130a.3.3 0 00-.2.08l-2 1.95a.28.28 0 000 .4l4.26 4.26-4.26 4.25a.28.28 0 000 .4l2 1.95a.28.28 0 00.4 0l6.41-6.4a.28.28 0 000-.4l-6.41-6.41a.36.36 0 00-.2-.08z" fill="#fff"/><path data-name="navigateright-4" d="M47.11 143.38a.33.33 0 00.2-.08l2-2a.3.3 0 000-.4L45 136.69l4.26-4.26a.29.29 0 000-.39l-2-2a.28.28 0 00-.4 0l-6.41 6.41a.28.28 0 000 .4l6.41 6.41a.36.36 0 00.19.08z" fill="#2a2a2a"/><path data-name="navigateright-5" d="M62.23 130a.32.32 0 00-.2.08l-2 1.95a.3.3 0 000 .4l4.26 4.26-4.26 4.25a.28.28 0 000 .4l2 1.95a.28.28 0 00.4 0l6.41-6.4a.28.28 0 000-.4l-6.41-6.41a.36.36 0 00-.2-.08z" fill="#2a2a2a"/><path data-name="navigateright-4" d="M7.11 143.38a.39.39 0 00.21-.08l1.95-2a.3.3 0 000-.4L5 136.69l4.26-4.26a.29.29 0 000-.39l-2-2a.27.27 0 00-.39 0l-6.36 6.45a.28.28 0 000 .4l6.41 6.41a.33.33 0 00.19.08z" fill="#fdbb30"/><path data-name="navigateright-5" d="M22.23 130a.32.32 0 00-.2.08l-2 1.95a.3.3 0 000 .4l4.26 4.26-4.26 4.25a.3.3 0 000 .4l2 1.95a.28.28 0 00.4 0l6.41-6.4a.28.28 0 000-.4l-6.41-6.41a.36.36 0 00-.2-.08z" fill="#fdbb30"/><path data-name="navigateright-4" d="M127.11 143.38a.39.39 0 00.21-.08l2-2a.3.3 0 000-.4l-4.32-4.21 4.26-4.26a.29.29 0 000-.39l-2-2a.28.28 0 00-.4 0l-6.41 6.41a.28.28 0 000 .4l6.41 6.41a.36.36 0 00.19.08z" fill="#00543c"/><path data-name="navigateright-5" d="M142.23 130a.3.3 0 00-.2.08l-1.95 1.92a.3.3 0 000 .4l4.26 4.26-4.26 4.25a.3.3 0 000 .4l1.95 1.95a.28.28 0 00.4 0l6.41-6.4a.28.28 0 000-.4l-6.41-6.41a.36.36 0 00-.19-.08z" fill="#00543c"/><path data-name="navigateright-4" d="M7.11 163.38a.39.39 0 00.21-.08l1.95-2a.3.3 0 000-.4L5 156.69l4.26-4.26a.29.29 0 000-.39l-2-2a.27.27 0 00-.39 0l-6.36 6.45a.28.28 0 000 .4l6.41 6.41a.33.33 0 00.19.08z" fill="#a8228e"/><path data-name="navigateright-5" d="M22.23 150a.32.32 0 00-.2.08l-2 1.95a.3.3 0 000 .4l4.26 4.26-4.26 4.25a.3.3 0 000 .4l2 1.95a.28.28 0 00.4 0l6.41-6.4a.28.28 0 000-.4l-6.41-6.41a.36.36 0 00-.2-.08z" fill="#a8228e"/><path data-name="navigateright-4" d="M47.11 163.38a.33.33 0 00.2-.08l2-2a.3.3 0 000-.4L45 156.69l4.26-4.26a.29.29 0 000-.39l-2-2a.28.28 0 00-.4 0l-6.41 6.41a.28.28 0 000 .4l6.41 6.41a.36.36 0 00.19.08z" fill="#007ea5"/><path data-name="navigateright-5" d="M62.23 150a.32.32 0 00-.2.08l-2 1.95a.3.3 0 000 .4l4.26 4.26-4.26 4.25a.28.28 0 000 .4l2 1.95a.28.28 0 00.4 0l6.41-6.4a.28.28 0 000-.4l-6.41-6.41a.36.36 0 00-.2-.08z" fill="#007ea5"/><path data-name="navigateright-4" d="M87.11 163.38a.39.39 0 00.21-.08l2-2a.3.3 0 000-.4L85 156.69l4.26-4.26a.29.29 0 000-.39l-2-2a.28.28 0 00-.4 0l-6.41 6.41a.28.28 0 000 .4l6.41 6.41a.36.36 0 00.19.08z" fill="#008575"/><path data-name="navigateright-5" d="M102.23 150a.3.3 0 00-.2.08l-2 1.95a.28.28 0 000 .4l4.26 4.26-4.26 4.25a.28.28 0 000 .4l2 1.95a.28.28 0 00.4 0l6.41-6.4a.28.28 0 000-.4l-6.41-6.41a.36.36 0 00-.2-.08z" fill="#008575"/><path data-name="navigateright-4" d="M127.11 163.38a.39.39 0 00.21-.08l2-2a.3.3 0 000-.4l-4.32-4.21 4.26-4.26a.29.29 0 000-.39l-2-2a.28.28 0 00-.4 0l-6.41 6.41a.28.28 0 000 .4l6.41 6.41a.36.36 0 00.19.08z" fill="#080"/><path data-name="navigateright-5" d="M142.23 150a.3.3 0 00-.2.08l-1.95 1.92a.3.3 0 000 .4l4.26 4.26-4.26 4.25a.3.3 0 000 .4l1.95 1.95a.28.28 0 00.4 0l6.41-6.4a.28.28 0 000-.4l-6.41-6.41a.36.36 0 00-.19-.08z" fill="#080"/><path data-name="navigateright-4" d="M7.11 183.38a.39.39 0 00.21-.08l1.95-2a.3.3 0 000-.4L5 176.69l4.26-4.26a.29.29 0 000-.39l-2-2a.27.27 0 00-.39 0l-6.36 6.45a.28.28 0 000 .4l6.41 6.41a.33.33 0 00.19.08z" fill="#bb3304"/><path data-name="navigateright-5" d="M22.23 170a.32.32 0 00-.2.08l-2 1.95a.3.3 0 000 .4l4.26 4.26-4.26 4.25a.3.3 0 000 .4l2 1.95a.28.28 0 00.4 0l6.41-6.4a.28.28 0 000-.4l-6.41-6.41a.36.36 0 00-.2-.08z" fill="#bb3304"/><path data-name="navigateright-4" d="M47.11 183.38a.33.33 0 00.2-.08l2-2a.3.3 0 000-.4L45 176.69l4.26-4.26a.29.29 0 000-.39l-2-2a.28.28 0 00-.4 0l-6.41 6.41a.28.28 0 000 .4l6.41 6.41a.36.36 0 00.19.08z" fill="#687e31"/><path data-name="navigateright-5" d="M62.23 170a.32.32 0 00-.2.08l-2 1.95a.3.3 0 000 .4l4.26 4.26-4.26 4.25a.28.28 0 000 .4l2 1.95a.28.28 0 00.4 0l6.41-6.4a.28.28 0 000-.4l-6.41-6.41a.36.36 0 00-.2-.08z" fill="#687e31"/><path data-name="navigateright-4" d="M87.11 183.38a.39.39 0 00.21-.08l2-2a.3.3 0 000-.4L85 176.69l4.26-4.26a.29.29 0 000-.39l-2-2a.28.28 0 00-.4 0l-6.41 6.41a.28.28 0 000 .4l6.41 6.41a.36.36 0 00.19.08z" fill="#c55500"/><path data-name="navigateright-5" d="M102.23 170a.3.3 0 00-.2.08l-2 1.95a.28.28 0 000 .4l4.26 4.26-4.26 4.25a.28.28 0 000 .4l2 1.95a.28.28 0 00.4 0l6.41-6.4a.28.28 0 000-.4l-6.41-6.41a.36.36 0 00-.2-.08z" fill="#c55500"/><path data-name="navigateright-4" d="M127.11 183.38a.39.39 0 00.21-.08l2-2a.3.3 0 000-.4l-4.32-4.21 4.26-4.26a.29.29 0 000-.39l-2-2a.28.28 0 00-.4 0l-6.41 6.41a.28.28 0 000 .4l6.41 6.41a.36.36 0 00.19.08z" fill="#ccaf74"/><path data-name="navigateright-5" d="M142.23 170a.3.3 0 00-.2.08l-1.95 1.92a.3.3 0 000 .4l4.26 4.26-4.26 4.25a.3.3 0 000 .4l1.95 1.95a.28.28 0 00.4 0l6.41-6.4a.28.28 0 000-.4l-6.41-6.41a.36.36 0 00-.19-.08z" fill="#ccaf74"/><path d="M167.11 183.38a.39.39 0 00.21-.08l2-2a.3.3 0 000-.4l-4.32-4.21 4.26-4.26a.29.29 0 000-.39l-2-2a.28.28 0 00-.4 0l-6.41 6.41a.28.28 0 000 .4l6.41 6.41a.36.36 0 00.19.08zM182.23 170a.3.3 0 00-.2.08l-1.95 1.92a.3.3 0 000 .4l4.26 4.26-4.26 4.25a.3.3 0 000 .4l1.95 1.95a.28.28 0 00.4 0l6.41-6.4a.28.28 0 000-.4l-6.41-6.41a.36.36 0 00-.19-.08z" fill="#ded5b4"/><path d="M.24 68.23l4.53 4.53a.82.82 0 001.16 0l7-7a.25.25 0 00.08-.18v-4.77a.81.81 0 00-.81-.81H7.42a.25.25 0 00-.18.08l-7 7a.82.82 0 000 1.15zm8.7-5.39a1.22 1.22 0 111.22 1.22 1.21 1.21 0 01-1.22-1.22zM51.1 60h-9.2a1.9 1.9 0 00-1.9 1.9v9.2a1.9 1.9 0 001.9 1.9h9.2a1.9 1.9 0 001.9-1.9v-9.2a1.9 1.9 0 00-1.9-1.9zm-4.6 4.06a2.44 2.44 0 11-2.44 2.44 2.44 2.44 0 012.44-2.44zm5.15 7.32a.27.27 0 01-.27.27h-9.76a.27.27 0 01-.27-.27v-5.69h1.44a4.28 4.28 0 00-.08.81 3.79 3.79 0 007.58 0 4.28 4.28 0 00-.08-.81h1.44v5.69zm0-8.13a.27.27 0 01-.27.27h-1.63a.27.27 0 01-.27-.27v-1.63a.27.27 0 01.27-.27h1.63a.27.27 0 01.27.27zM66.5 61.9c-6.5 0-6.5 0-6.5 4.6s0 4.6 6.5 4.6 6.5 0 6.5-4.6 0-4.6-6.5-4.6zm-1.62 7v-4.84l4.06 2.44-4.06 2.44zm27.31-7.32H80.81a.82.82 0 00-.81.82v8.12a.82.82 0 00.81.82h11.38a.82.82 0 00.81-.82v-8.08a.82.82 0 00-.81-.82zm-9.35 1.63a1.22 1.22 0 11-1.22 1.22 1.21 1.21 0 011.22-1.18zm8.53 6.5h-9.75l1.63-2.44 1.9 1.35 3-3.79 3.25 4.88zm20.09-7.08a2.67 2.67 0 001.18-1.48 5.53 5.53 0 01-1.68.65 2.76 2.76 0 00-2-.84 2.65 2.65 0 00-2.66 2.66 3 3 0 000 .61 7.58 7.58 0 01-5.49-2.73 2.55 2.55 0 00-.36 1.29 2.65 2.65 0 001.28 2.21 2.56 2.56 0 01-1.2-.33 2.66 2.66 0 002.14 2.62 2.83 2.83 0 01-.71.1 2.73 2.73 0 01-.5 0 2.66 2.66 0 002.48 1.85 5.39 5.39 0 01-3.3 1.26 4.49 4.49 0 01-.64 0 7.73 7.73 0 0011.67-6.5v-.35a5.34 5.34 0 001.33-1.41 5 5 0 01-1.54.43zM133 60.81v11.38a.82.82 0 01-.81.81h-3.25v-5h1.62l.27-1.88h-1.89V64.6a.89.89 0 01.2-.62.79.79 0 01.61-.22H131v-1.69a8.42 8.42 0 00-1.33-.09 2.78 2.78 0 00-2 .67 2.37 2.37 0 00-.69 1.8v1.62h-1.63v1.87H127V73h-6.14a.82.82 0 01-.81-.81V60.81a.82.82 0 01.81-.81h11.38a.82.82 0 01.81.81zm13 5.69a2.85 2.85 0 01-.4 1.49 3 3 0 01-2.6 1.49 2.94 2.94 0 01-1.49-.4A3 3 0 01140.4 68a3 3 0 010-3 3 3 0 011.09-1.09 2.94 2.94 0 011.49-.4 3 3 0 012.58 1.49 2.85 2.85 0 01.44 1.5zm7 0a2.85 2.85 0 01-.4 1.49 3 3 0 01-1.09 1.09 2.94 2.94 0 01-1.49.4 3 3 0 01-2.58-1.48 3 3 0 010-3 3 3 0 012.56-1.48 2.94 2.94 0 011.49.4A3 3 0 01152.6 65a2.85 2.85 0 01.4 1.5zm7.27-2H163v8.4h-2.71zm4.33 8.39v-8.4h2.66l.09 1.16a3.58 3.58 0 011.05-1 2.61 2.61 0 011.39-.38 3 3 0 012.35 1A4 4 0 01173 68v4.87h-2.71v-4.6a2.14 2.14 0 00-.41-1.43 1.35 1.35 0 00-1.06-.47 1.45 1.45 0 00-1.08.43 1.63 1.63 0 00-.43 1.2v4.87zm-3-9.75a1.58 1.58 0 01-1.15-.43 1.43 1.43 0 01-.44-1.06 1.38 1.38 0 01.45-1.06 1.7 1.7 0 011.19-.43 1.59 1.59 0 011.16.43 1.46 1.46 0 01.45 1.06 1.42 1.42 0 01-.45 1.07 1.68 1.68 0 01-1.19.42zm31.26.8l-6.16 6.17a.41.41 0 01-.3.12.45.45 0 01-.26-.12l-3.43-3.44a.45.45 0 01-.12-.31.42.42 0 01.12-.3l1-1a.38.38 0 01.3-.13.41.41 0 01.3.13l2.12 2.12 4.85-4.85a.44.44 0 01.3-.12.45.45 0 01.31.12l1 1a.41.41 0 010 .6zm-.35 3.67l-5 5a1.55 1.55 0 01-2.16 0l-5-5a1.5 1.5 0 01-.35-1.11 1.46 1.46 0 01.44-1.07l5-5a1.55 1.55 0 012.16 0l2.24 2.24-3.36 3.37-1.58-1.59a1.2 1.2 0 00-1.69 0l-1 1a1.12 1.12 0 00-.35.84 1.15 1.15 0 00.35.84l3.43 3.44a1.16 1.16 0 00.56.31h.24a1.18 1.18 0 00.84-.35l5.22-5.22a1.43 1.43 0 01.5 1.19 1.46 1.46 0 01-.44 1.08z" fill="#fff"/><path d="M24.06 91a2 2 0 10-2 2 2 2 0 002-2zM33 92.73A12.73 12.73 0 0020.27 80a.27.27 0 00-.27.27v1.9a.27.27 0 00.27.27 10.28 10.28 0 0110.29 10.29.27.27 0 00.27.27h1.9a.27.27 0 00.27-.27zm-4.06 0a8.68 8.68 0 00-8.67-8.67.27.27 0 00-.27.27v1.9a.27.27 0 00.27.27 6.23 6.23 0 016.23 6.23.27.27 0 00.27.27h1.9a.27.27 0 00.27-.27z" fill="#00543c"/><path d="M.24 88.23l4.53 4.53a.82.82 0 001.16 0l7-7a.25.25 0 00.08-.18v-4.77a.81.81 0 00-.81-.81H7.42a.25.25 0 00-.18.08l-7 7a.82.82 0 000 1.15zm8.7-5.39a1.22 1.22 0 111.22 1.22 1.22 1.22 0 01-1.22-1.22z" fill="#124a37"/><path d="M71.78 85.47l-5.25-5.25a.75.75 0 00-1.06 0l-5.25 5.25A.77.77 0 0060 86a.75.75 0 00.06.29.74.74 0 00.69.46h.75v4.5a.74.74 0 00.75.75h2.25v-3.75h3V92h2.25a.74.74 0 00.75-.75v-4.5h.75a.74.74 0 00.69-.46A.75.75 0 0072 86a.77.77 0 00-.22-.53z" style="isolation:isolate" fill="#6b6b6b" opacity=".8"/><path d="M91.78 85.47l-5.25-5.25a.75.75 0 00-1.06 0l-5.25 5.25A.77.77 0 0080 86a.75.75 0 00.06.29.74.74 0 00.69.46h.75v4.5a.74.74 0 00.75.75h2.25v-3.75h3V92h2.25a.74.74 0 00.75-.75v-4.5h.75a.74.74 0 00.69-.46A.75.75 0 0092 86a.77.77 0 00-.22-.53z" fill="#fff"/><path d="M193.58 110l-5.25-5.25a.73.73 0 00-1.06 0L182 110a.74.74 0 00-.22.52.72.72 0 00.06.29.75.75 0 00.69.46h.75v4.5a.74.74 0 00.75.75h2.25v-3.75h3v3.75h2.25a.74.74 0 00.75-.75v-4.5h.75a.74.74 0 00.69-.46.72.72 0 00.06-.29.74.74 0 00-.2-.52z" fill="#fdbb30"/><path d="M53.11 80H40.88a.87.87 0 00-.88.88v12.23a.87.87 0 00.88.88h12.23a.87.87 0 00.88-.88V80.88a.87.87 0 00-.88-.88zm-1.75 12.24h-1.74v-.88a7 7 0 00-7-7h-.88v-1.73h.88a8.73 8.73 0 018.73 8.73v.88zm-3.49 0h-1.75v-.88a3.5 3.5 0 00-3.5-3.49h-.87v-1.75h.87a5.25 5.25 0 015.25 5.24v.88zm-4.81 0a1.31 1.31 0 111.31-1.32 1.32 1.32 0 01-1.31 1.32z" fill="#fff"/><path d="M429 213.86a.72.72 0 00-1 .11.76.76 0 00-.11 1l4.22 4.3-4.22 4.3a.75.75 0 00.11 1 .71.71 0 001 .11l5.32-5.43-5.32-5.42m-22 5.42l4.21-4.3a.75.75 0 00-.11-1 .71.71 0 00-1-.11l-5.32 5.42 5.32 5.42a.71.71 0 001-.11.76.76 0 00.11-1l-4.21-4.29m17.36 8.72a.73.73 0 00-1-.12l-4.21 4.31-4.21-4.31a.7.7 0 00-1 .12.75.75 0 00-.11 1l5.31 5.43 5.32-5.43a.74.74 0 00-.11-1m.11-18.84l-5.31-5.43-5.31 5.43a.74.74 0 00.11 1 .71.71 0 001 .11l4.21-4.3 4.21 4.3a.72.72 0 001-.11.75.75 0 00.11-1" fill="#ffc232"/><path d="M429 220.79a1.3 1.3 0 00.36-1.08h-8.64v8.82a1.25 1.25 0 001.06-.37 1.52 1.52 0 00.5-1.12v-4.61l4.44 4.54a.72.72 0 001-.11.77.77 0 00.11-1l-4.45-4.54h4.52a1.43 1.43 0 001.1-.51m-9.63-1.08h-8.67a1.35 1.35 0 00.36 1.08 1.48 1.48 0 001.1.51h4.52l-4.45 4.54a.74.74 0 00.11 1 .72.72 0 001 .11l4.44-4.54V227a1.52 1.52 0 00.5 1.12 1.25 1.25 0 001.06.37v-8.82m-1.56-8.5v4.61l-4.44-4.53a.69.69 0 00-1 .11.75.75 0 00-.11 1l4.44 4.54h-4.52a1.44 1.44 0 00-1.09.52 1.28 1.28 0 00-.36 1.07h8.63v-8.81a1.2 1.2 0 00-1 .36 1.48 1.48 0 00-.5 1.12zm10.09 5.83h-4.52l4.45-4.53a.75.75 0 00-.11-1 .72.72 0 00-1-.11l-4.44 4.54v-4.62a1.52 1.52 0 00-.5-1.12 1.25 1.25 0 00-1.06-.37v8.82h8.64a1.3 1.3 0 00-.36-1.08 1.47 1.47 0 00-1.1-.51z" fill="#ffc232"/><path d="M415.18 106.27a.36.36 0 00.08-.35.32.32 0 00-.31-.19h-4.87l-2.15-5.52a.31.31 0 00-.59 0l-2.14 5.52h-4.88a.33.33 0 00-.31.19.36.36 0 00.08.35l3.71 3.7-.94 4.93a.35.35 0 00.14.32.32.32 0 00.35 0l4.28-2.76 4.28 2.76a.3.3 0 00.17 0 .29.29 0 00.18 0 .34.34 0 00.15-.32l-.94-4.93 3.71-3.7zm12.46 4v2.87a.31.31 0 01-.18.28.43.43 0 01-.14 0 .29.29 0 01-.2-.07l-7-5.41a.29.29 0 01-.13-.25.28.28 0 01.13-.24l7-5.42a.37.37 0 01.34 0 .32.32 0 01.18.29v2.86c4.77 0 7.48 2.7 7.63 7a.32.32 0 01-.24.3H435c-.1 0-.17-.06-.28-.16-1.15-1.43-3.85-2.07-7-2.07zm15.7 2.87a.26.26 0 01.07-.21l1.93-1.92a.3.3 0 01.23-.09h4.93a.32.32 0 00.32-.32v-2.86h-1.6a.33.33 0 01-.3-.2.37.37 0 01.08-.35l2.86-2.86a.32.32 0 01.46 0l2.86 2.86a.37.37 0 01.07.35.32.32 0 01-.3.2h-1.59v2.86a2.86 2.86 0 01-2.86 2.87h-6.84a.32.32 0 01-.32-.32zm-3.25-4.86a.36.36 0 01-.08-.35.33.33 0 01.31-.19h1.59v-2.87a2.87 2.87 0 012.86-2.86h6.84a.32.32 0 01.32.32.25.25 0 01-.07.21l-1.93 1.92a.3.3 0 01-.23.09h-4.93a.32.32 0 00-.32.32v2.87h1.6a.32.32 0 01.3.19.36.36 0 01-.08.35l-2.86 2.87a.34.34 0 01-.46 0l-2.86-2.87z"/><path d="M268 60a6 6 0 00-6 6c0 4.37 5.08 9.49 5.29 9.71a1 1 0 001.42 0c.21-.22 5.29-5.34 5.29-9.71a6 6 0 00-6-6zm-3 6a3 3 0 113 3 3 3 0 01-3-3zm-12-3v-2a1 1 0 00-1-1h-8a1 1 0 00-1 1v2zm0 3a1 1 0 111 1 1 1 0 01-1-1zm2-2h-14a1 1 0 00-1 1v7a1 1 0 001 1h1v-4h12v4h1a1 1 0 001-1v-7a1 1 0 00-1-1zm-12 6v5a1 1 0 001 1h8a1 1 0 001-1v-5zm-23-7c1 5 8 12 13 13 1 0 3-2 3-3a20.87 20.87 0 00-4-3c-.5 0-2 1.5-2.5 1.5a12.05 12.05 0 01-5-5c0-.5 1.5-2 1.5-2.5-.5-1-2-3.5-3-4-1 0-3 2-3 3zm-12 5.41l8-5V63a1 1 0 00-1-1h-14a1 1 0 00-1 1v.41zm.27 1a.5.5 0 01-.54 0L200 64.59V73a1 1 0 001 1h14a1 1 0 001-1v-8.41z" fill="#6b6b6b"/><path d="M268 80a6 6 0 00-6 6c0 4.37 5.08 9.49 5.29 9.71a1 1 0 001.42 0c.21-.22 5.29-5.34 5.29-9.71a6 6 0 00-6-6zm-3 6a3 3 0 113 3 3 3 0 01-3-3zm-12-3v-2a1 1 0 00-1-1h-8a1 1 0 00-1 1v2zm0 3a1 1 0 111 1 1 1 0 01-1-1zm2-2h-14a1 1 0 00-1 1v7a1 1 0 001 1h1v-4h12v4h1a1 1 0 001-1v-7a1 1 0 00-1-1zm-12 6v5a1 1 0 001 1h8a1 1 0 001-1v-5zm-23-7c1 5 8 12 13 13 1 0 3-2 3-3a20.87 20.87 0 00-4-3c-.5 0-2 1.5-2.5 1.5a12.05 12.05 0 01-5-5c0-.5 1.5-2 1.5-2.5-.5-1-2-3.5-3-4-1 0-3 2-3 3zm-12 5.41l8-5V83a1 1 0 00-1-1h-14a1 1 0 00-1 1v.41zm.27 1a.5.5 0 01-.54 0L200 84.59V93a1 1 0 001 1h14a1 1 0 001-1v-8.41z" fill="#fdbb30"/><path d="M304.67 60a4.67 4.67 0 00-4.67 4.67 4.48 4.48 0 00.6 2.28l3.81 6.91a.3.3 0 00.26.14.33.33 0 00.26-.14l3.81-6.86a4.66 4.66 0 00-4.07-7zm0 6.42a1.75 1.75 0 111.75-1.75 1.75 1.75 0 01-1.75 1.75z" fill="#2a2a2a"/><path d="M304.67 80a4.67 4.67 0 00-4.67 4.67 4.48 4.48 0 00.6 2.28l3.81 6.91a.3.3 0 00.26.14.33.33 0 00.26-.14l3.81-6.86a4.66 4.66 0 00-4.07-7zm0 6.42a1.75 1.75 0 111.75-1.75 1.75 1.75 0 01-1.75 1.75z" fill="#fff"/><path d="M330.88 60A10.9 10.9 0 00320 70.88c0 7.91 9.2 17.2 9.59 17.59a1.78 1.78 0 001.29.53 1.81 1.81 0 001.28-.52c.39-.4 9.59-9.69 9.59-17.6A10.9 10.9 0 00330.88 60zm-5.44 10.88a5.44 5.44 0 115.44 5.43 5.43 5.43 0 01-5.44-5.43z" fill="#00543c"/><path d="M379 69.42l-9.15-9.15a.91.91 0 00-1.29 0 3.52 3.52 0 00-.57 4.22l-5.32 5.31a9.52 9.52 0 00-3.88-.8c-2 0-4.22.87-4.22 2a.9.9 0 00.27.64l5.05 5-9 10.78-.89 1.85 1.83-.92 10.77-9 5 5a.85.85 0 00.64.27c1.08 0 2-2.26 2-4.21a9.57 9.57 0 00-.8-3.89l5.32-5.32a3.51 3.51 0 004.24-.5.89.89 0 000-1.28z" fill="#2a2a2a"/><path d="M301.13 130l-1.13 1.13a.16.16 0 000 .22l2.37 2.36-2.37 2.37a.16.16 0 000 .22l1.09 1.08a.14.14 0 00.22 0l3.56-3.55a.17.17 0 000-.23l-3.52-3.6a.17.17 0 00-.22 0z" fill="#00543c"/><path d="M311.13 130l-1.13 1.13a.16.16 0 000 .22l2.37 2.36-2.37 2.37a.16.16 0 000 .22l1.09 1.08a.14.14 0 00.22 0l3.56-3.55a.17.17 0 000-.23l-3.52-3.6a.17.17 0 00-.22 0z" fill="#a8228e"/><path d="M321.13 130l-1.13 1.13a.16.16 0 000 .22l2.37 2.36-2.37 2.37a.16.16 0 000 .22l1.09 1.08a.14.14 0 00.22 0l3.56-3.55a.17.17 0 000-.23l-3.52-3.6a.17.17 0 00-.22 0z" fill="#008575"/><path d="M331.13 130l-1.13 1.13a.16.16 0 000 .22l2.37 2.36-2.37 2.37a.16.16 0 000 .22l1.09 1.08a.14.14 0 00.22 0l3.56-3.55a.17.17 0 000-.23l-3.52-3.6a.17.17 0 00-.22 0z" fill="#007ea5"/><path d="M341.13 130l-1.13 1.13a.16.16 0 000 .22l2.37 2.36-2.37 2.37a.16.16 0 000 .22l1.09 1.08a.14.14 0 00.22 0l3.56-3.55a.17.17 0 000-.23l-3.52-3.6a.17.17 0 00-.22 0z" fill="#bb3304"/><path d="M351.13 130l-1.13 1.13a.16.16 0 000 .22l2.37 2.36-2.37 2.37a.16.16 0 000 .22l1.09 1.08a.14.14 0 00.22 0l3.56-3.55a.17.17 0 000-.23l-3.52-3.6a.17.17 0 00-.22 0z" fill="#c55500"/><path d="M361.13 130l-1.13 1.13a.16.16 0 000 .22l2.37 2.36-2.37 2.37a.16.16 0 000 .22l1.09 1.08a.14.14 0 00.22 0l3.56-3.55a.17.17 0 000-.23l-3.52-3.6a.17.17 0 00-.22 0z" fill="#ccaf74"/><path d="M371.13 130l-1.13 1.13a.16.16 0 000 .22l2.37 2.36-2.37 2.37a.16.16 0 000 .22l1.09 1.08a.14.14 0 00.22 0l3.56-3.55a.17.17 0 000-.23l-3.52-3.6a.17.17 0 00-.22 0z" fill="#687e31"/><path d="M304.06 140l1.09 1.09a.16.16 0 010 .22l-2.37 2.36 2.37 2.37a.16.16 0 010 .22l-1.09 1.08a.14.14 0 01-.22 0l-3.56-3.55a.17.17 0 010-.23l3.56-3.56a.19.19 0 01.23 0z" fill="#00543c"/><path d="M314.06 140l1.09 1.09a.16.16 0 010 .22l-2.37 2.36 2.37 2.37a.16.16 0 010 .22l-1.09 1.08a.14.14 0 01-.22 0l-3.56-3.55a.17.17 0 010-.23l3.56-3.56a.19.19 0 01.23 0z" fill="#a8228e"/><path d="M323.83 140l1.08 1.09a.16.16 0 010 .22l-2.36 2.36 2.36 2.37a.16.16 0 010 .22l-1.08 1.08a.15.15 0 01-.23 0l-3.6-3.51a.17.17 0 010-.23l3.6-3.6a.19.19 0 01.23 0z" fill="#008575"/><path d="M334.06 140l1.09 1.09a.16.16 0 010 .22l-2.37 2.36 2.37 2.37a.16.16 0 010 .22l-1.09 1.08a.14.14 0 01-.22 0l-3.56-3.55a.17.17 0 010-.23l3.56-3.56a.19.19 0 01.23 0z" fill="#007ea5"/><path d="M344.06 140l1.09 1.09a.16.16 0 010 .22l-2.37 2.36 2.37 2.37a.16.16 0 010 .22l-1.09 1.08a.14.14 0 01-.22 0l-3.56-3.55a.17.17 0 010-.23l3.56-3.56a.19.19 0 01.23 0z" fill="#bb3304"/><path d="M354.06 140l1.09 1.09a.16.16 0 010 .22l-2.37 2.36 2.37 2.37a.16.16 0 010 .22l-1.09 1.08a.14.14 0 01-.22 0l-3.56-3.55a.17.17 0 010-.23l3.56-3.56a.19.19 0 01.23 0z" fill="#c55500"/><path d="M364.06 140l1.09 1.09a.16.16 0 010 .22l-2.37 2.36 2.37 2.37a.16.16 0 010 .22l-1.09 1.08a.14.14 0 01-.22 0l-3.56-3.55a.17.17 0 010-.23l3.56-3.56a.19.19 0 01.23 0z" fill="#ccaf74"/><path d="M374.06 140l1.09 1.09a.16.16 0 010 .22l-2.37 2.36 2.37 2.37a.16.16 0 010 .22l-1.09 1.08a.14.14 0 01-.22 0l-3.56-3.55a.17.17 0 010-.23l3.56-3.56a.19.19 0 01.23 0z" fill="#687e31"/><path d="M374.25 168.75h6.87l-6.87-6.87zM365.5 160h10l7.5 7.5v15a2.5 2.5 0 01-2.5 2.5h-15a2.49 2.49 0 01-2.5-2.5v-20a2.49 2.49 0 012.5-2.5zm11.25 20v-2.5H365.5v2.5zm3.75-5v-2.5h-15v2.5z" fill="#fff"/><path d="M77.61 285.35c-4.48 0-7.17-2.85-7.17-7.36v-11.52H73v11.2c0 3.22 1.45 5.37 4.64 5.37s4.73-1.93 4.73-5.29v-11.28h2.52v11.38c0 4.68-2.76 7.5-7.25 7.5m27.25-.35l-10.2-14.42V285h-2.34v-18.53h2.26l9.82 13.88v-13.88h2.34V285h-1.91m10-18.53h2.52V285h-2.52v-18.53zm18 18.61h-2.26l-7.14-18.26 2.53-.54 5.77 15.42 5.67-15.23h2.65l-7.22 18.61" fill="#124a37"/><path data-name="Fill-13" d="M145.7 285v-18.53h10v2.31h-7.47v5.37H154l.38 2.31h-6.18v6.23h7.8V285h-10.3" fill="#124a37"/><path data-name="Fill-14" d="M167.88 268.7h-2.42v6.36h2.15c2.44 0 4-1.1 4-3.19s-1.26-3.17-3.73-3.17zm7.7 15.92l-2.55.57-5.66-8h-1.91V285h-2.52v-18.53h5c3.79 0 6.15 1.88 6.15 5.26a5 5 0 01-4 5.13l5.5 7.76z" fill="#124a37"/><path data-name="Fill-15" d="M185.84 285.21a11.19 11.19 0 01-5.18-1.2l.37-2.58a9.12 9.12 0 004.86 1.58c1.94 0 3.31-1 3.31-2.82s-.76-2.39-3.55-3.65c-3.49-1.58-4.81-2.74-4.81-5.39 0-3 2.29-4.89 5.64-4.89a8.31 8.31 0 014.22 1l-.4 2.53a6.6 6.6 0 00-3.9-1.37c-2.12 0-3.06 1.13-3.06 2.5s.7 2.09 3.52 3.38c3.59 1.64 4.83 2.87 4.83 5.67 0 3.19-2.39 5.2-5.85 5.2" fill="#124a37"/><path data-name="Fill-16" d="M198.72 266.47h2.53V285h-2.53v-18.53z" fill="#124a37"/><path data-name="Fill-17" d="M215.77 268.78V285h-2.52v-16.22h-5.91v-2.31h14.13l.37 2.31h-6.07" fill="#124a37"/><path data-name="Fill-18" d="M234.86 277.64V285h-2.52v-7.36l-6.55-10.82 2.52-.53 5.32 9 5.18-8.86h2.79l-6.74 11.17" fill="#124a37"/><path data-name="Fill-19" d="M264.42 268.43c-3.68 0-5.93 2.85-5.93 7.31s2.28 7.3 5.93 7.3 5.94-2.85 5.94-7.3-2.29-7.31-5.94-7.31zm0 16.92c-5.2 0-8.51-3.87-8.51-9.59s3.36-9.64 8.57-9.64S273 270 273 275.71s-3.33 9.64-8.56 9.64z" fill="#124a37"/><path data-name="Fill-20" d="M282.14 268.78v5.67h5.59l.37 2.31h-6V285h-2.52v-18.53h9.64v2.31h-7.12" fill="#124a37"/><path d="M75 318.22a11.13 11.13 0 01-5.17-1.22l.37-2.58a9.07 9.07 0 004.86 1.58c1.94 0 3.31-1 3.31-2.82s-.76-2.39-3.55-3.65c-3.49-1.59-4.8-2.74-4.8-5.4 0-3 2.28-4.89 5.64-4.89a8.16 8.16 0 014.21 1.05l-.4 2.53a6.57 6.57 0 00-3.9-1.37c-2.12 0-3.06 1.13-3.06 2.49s.7 2.1 3.52 3.39c3.6 1.64 4.83 2.87 4.83 5.66 0 3.2-2.39 5.21-5.85 5.21m18.28-15.81l-3 7.81h5.93zm6 15.78l-2.18-5.74h-7.63L87.39 318h-2.56l7.25-18.61h2.53l7.14 18.26-2.44.54zm20.11-.18l-10.18-14.42V318h-2.32v-18.52h2.26l9.84 13.88v-13.88h2.33V318h-1.9m19.49-16.22v5.66h5.58l.38 2.31h-6V318h-2.53v-18.52H146v2.31h-7.11m17.93-.08h-2.41v6.36h2.14c2.45 0 4-1.1 4-3.19s-1.26-3.17-3.73-3.17zm7.71 15.92l-2.55.56-5.67-8h-1.9V318h-2.51v-18.52h5c3.79 0 6.15 1.88 6.15 5.26a5 5 0 01-4.06 5.13l5.51 7.76zM176 302.41l-3 7.81h5.94l-3-7.81zm6 15.78l-2.17-5.74h-7.66l-2.12 5.55h-2.55l7.25-18.61h2.52l7.15 18.26-2.45.53zm19.71-.18l-10.21-14.42V318h-2.34v-18.52h2.26l9.83 13.88v-13.88h2.33V318h-1.9m16.46.35c-5.21 0-8.57-3.87-8.57-9.59s3.41-9.64 8.62-9.64a8.88 8.88 0 015.26 1.53l-.37 2.58a8 8 0 00-4.92-1.8c-3.76 0-6 2.84-6 7.3s2.26 7.28 6 7.28a8.8 8.8 0 005.21-1.86l.38 2.39a9.75 9.75 0 01-5.61 1.81m12-18.88h2.52V318h-2.52v-18.52zm14.07 18.74A11.1 11.1 0 01239 317l.37-2.58a9 9 0 004.86 1.59c1.94 0 3.31-1 3.31-2.82s-.76-2.39-3.55-3.65c-3.49-1.59-4.8-2.74-4.8-5.4 0-3 2.28-4.89 5.64-4.89a8.16 8.16 0 014.21 1.05l-.4 2.53a6.57 6.57 0 00-3.9-1.37c-2.12 0-3.06 1.13-3.06 2.49s.7 2.1 3.52 3.39c3.6 1.66 4.8 2.88 4.8 5.66 0 3.2-2.39 5.21-5.85 5.21m18.82.14c-5.21 0-8.57-3.87-8.57-9.59s3.41-9.64 8.62-9.64a8.94 8.94 0 015.27 1.53l-.38 2.58a8 8 0 00-4.91-1.8c-3.76 0-6 2.84-6 7.3s2.25 7.28 6 7.28a8.83 8.83 0 005.21-1.86l.37 2.39a9.75 9.75 0 01-5.61 1.81m17.69-16.92c-3.68 0-5.93 2.85-5.93 7.3s2.28 7.31 5.93 7.31 5.94-2.85 5.94-7.31-2.29-7.3-5.94-7.3zm0 16.92c-5.21 0-8.52-3.87-8.52-9.59s3.36-9.64 8.57-9.64 8.51 3.87 8.51 9.58-3.32 9.66-8.55 9.66z" fill="#124a37"/><path d="M6 360.73c-3.23 0-5.31-2.39-5.31-5.94s2.11-6 5.34-6a5.55 5.55 0 013.27.95l-.24 1.6a4.93 4.93 0 00-3-1.12c-2.33 0-3.72 1.77-3.72 4.53s1.4 4.51 3.72 4.51a5.52 5.52 0 003.23-1.14l.23 1.48A6.13 6.13 0 016 360.73m14.87-.21v-5.3h-5.8v5.3h-1.56V349h1.56v4.76h5.82V349h1.56v11.48h-1.56m10-9.67l-1.83 4.85h3.68zm3.73 9.79l-1.35-3.56h-4.74l-1.3 3.45h-1.58L30.14 349h1.57l4.43 11.32-1.52.33zm12.55-.11l-6.31-8.95v8.95h-1.45V349h1.4l6.1 8.6V349h1.44v11.48h-1.18m10.82.22c-3.64 0-5.59-2.39-5.59-5.94s2-6 5.46-6a6 6 0 013.5 1l-.25 1.6a5.21 5.21 0 00-3.27-1.15c-2.51 0-3.83 1.77-3.83 4.53s1.35 4.51 4 4.51a4.51 4.51 0 002.33-.56v-3.05h-2.66l-.22-1.43h4.41v5.38a7.31 7.31 0 01-3.87 1.14m8.23-.21V349h6.19v1.43h-4.64v3.33h3.6l.23 1.43h-3.83v3.86h4.8v1.43h-6.36m19.49-10.05v10.06h-1.56v-10.03h-3.67V349h8.76l.24 1.43h-3.77m14.14 10.06v-5.3H94v5.3h-1.53V349H94v4.76h5.81V349h1.56v11.48h-1.52m6.07 0V349h6.2v1.43h-4.63v3.33h3.59l.24 1.43h-3.83v3.86h4.79v1.43h-6.36m26.27 0h-1.31l-3.12-9.31-3.11 9.31h-1.3L120 349.25l1.53-.34 2.6 9.14 2.93-9h1.56l2.93 9 2.55-9h1.6l-3.47 11.48m11.22-10.27c-2.28 0-3.68 1.77-3.68 4.53s1.42 4.53 3.68 4.53 3.68-1.77 3.68-4.53-1.41-4.53-3.68-4.53zm0 10.49c-3.23 0-5.28-2.39-5.28-5.94s2.08-6 5.31-6 5.28 2.4 5.28 5.94-2.07 6-5.31 6zm12.42-10.32h-1.5v3.95h1.33c1.52 0 2.48-.69 2.48-2s-.78-2-2.31-2zm4.77 9.87l-1.58.35-3.51-5h-1.18v4.85h-1.56V349h3.13c2.34 0 3.81 1.17 3.81 3.26a3.12 3.12 0 01-2.52 3.18l3.42 4.81zm3.4.24V349h1.57v10.05h4.14l.22 1.43H164m12.92-10.07h-1.82v8.66h1.77c2.77 0 4.43-1.4 4.43-4.33s-1.75-4.33-4.38-4.33zm-.12 10.08h-3.26V349h3.33c4 0 6 2.36 6 5.72s-2.16 5.77-6.11 5.77zm16.75-10.06V354H197l.24 1.43h-3.7v5.12H192V349h6v1.43h-4.41m11.2 0h-1.49v3.95h1.33c1.51 0 2.48-.69 2.48-2s-.78-2-2.32-2zm4.78 9.87l-1.58.35-3.51-5h-1.18v4.85h-1.57V349h3.13c2.35 0 3.81 1.17 3.81 3.26a3.12 3.12 0 01-2.51 3.18l3.41 4.81zm7.91-10c-2.28 0-3.68 1.77-3.68 4.53s1.42 4.53 3.68 4.53 3.68-1.77 3.68-4.53-1.41-4.53-3.68-4.53zm0 10.49c-3.23 0-5.28-2.39-5.28-5.94s2.09-6 5.32-6 5.27 2.4 5.27 5.94-2.06 6-5.31 6zm20.13-.21l-.71-9.14-3.63 9.19H232l-3.63-9.19-.7 9.14h-1.47l.92-11.49h1.93l3.58 9.42 3.58-9.42h1.91l.9 11.48h-1.5m18.08 0v-5.3h-5.81v5.3h-1.57V349h1.57v4.76h5.81V349h1.56v11.48h-1.56m6.08 0V349h6.19v1.43h-4.63v3.33h3.6l.23 1.43h-3.83v3.86h4.8v1.43h-6.34m13.16-10.1h-1.49v3.95h1.33c1.51 0 2.48-.69 2.48-2s-.78-2-2.32-2zm4.78 9.87l-1.58.35-3.51-5h-1.18v4.85h-1.57V349h3.13c2.35 0 3.81 1.17 3.81 3.26a3.12 3.12 0 01-2.51 3.18l3.41 4.81zm3.32.24V349h6.19v1.43h-4.63v3.33h3.6l.23 1.43h-3.83v3.86h4.8v1.43H283M.69 334h288.62v.66H.69V334z" fill="#898a89"/><path data-name="Fill-13" d="M53.55 281.06a1.55 1.55 0 00-2.14.23 1.57 1.57 0 00-.23 2.14l9.06 9.06-9.06 9.07a1.55 1.55 0 00.23 2.14 1.57 1.57 0 002.14.23L65 292.49l-11.45-11.43" fill="#fdbb30"/><path data-name="Fill-14" d="M4.75 292.49l9.06-9.06a1.54 1.54 0 00-.24-2.14 1.57 1.57 0 00-2.14-.23L0 292.48l11.44 11.43a1.54 1.54 0 002.14-.23 1.58 1.58 0 00.23-2.15l-9.06-9.05" fill="#fdbb30"/><path data-name="Fill-15" d="M43.68 311.41a1.57 1.57 0 00-2.14-.23l-9 9.06-9.06-9.07a1.54 1.54 0 00-2.14.24 1.57 1.57 0 00-.23 2.14L32.48 325l11.43-11.43a1.55 1.55 0 00-.23-2.14" fill="#fdbb30"/><path data-name="Fill-16" d="M43.92 271.44L32.49 260l-11.43 11.44a1.54 1.54 0 00.23 2.14 1.57 1.57 0 002.14.23l9.06-9.06 9.06 9.06a1.55 1.55 0 002.14-.23 1.57 1.57 0 00.23-2.14" fill="#fdbb30"/><path data-name="Fill-17" d="M51.84 296.31a2.74 2.74 0 00.78-2.28H34v18.59a2.72 2.72 0 002.27-.78 3.11 3.11 0 001.08-2.36v-9.72l9.56 9.56a1.55 1.55 0 002.14-.23 1.58 1.58 0 00.24-2.14l-9.57-9.56h9.73a3.16 3.16 0 002.36-1.08" fill="#fdbb30"/><path data-name="Fill-18" d="M31 294H12.37a2.69 2.69 0 00.77 2.27 3.15 3.15 0 002.36 1.09h9.72l-9.56 9.55a1.55 1.55 0 00.23 2.14 1.58 1.58 0 002.14.24l9.57-9.57v9.73a3.16 3.16 0 001.08 2.36 2.72 2.72 0 002.27.78V294" fill="#fdbb30"/><path data-name="Fill-19" d="M28.68 273.14a3.16 3.16 0 00-1.08 2.36v9.72l-9.6-9.56a1.55 1.55 0 00-2.14.23 1.57 1.57 0 00-.23 2.14l9.56 9.57H15.5a3.13 3.13 0 00-2.35 1.08 2.68 2.68 0 00-.78 2.27H31v-18.59a2.72 2.72 0 00-2.27.78" fill="#fdbb30"/><path data-name="Fill-20" d="M51.84 288.68a3.16 3.16 0 00-2.36-1.08h-9.72l9.56-9.6a1.55 1.55 0 00-.23-2.14 1.57 1.57 0 00-2.14-.23l-9.56 9.56v-9.69a3.16 3.16 0 00-1.08-2.36 2.69 2.69 0 00-2.27-.77V291h18.58a2.72 2.72 0 00-.78-2.27" fill="#fdbb30"/><path d="M350.08 100.14l-3.64 3.65-3.65-3.65a.45.45 0 00-.66 0l-2 2a.45.45 0 000 .66l3.64 3.65-3.64 3.64a.45.45 0 000 .66l2 2a.45.45 0 00.66 0l3.65-3.64 3.64 3.65a.47.47 0 00.66 0l2-2a.45.45 0 000-.66l-3.64-3.64 3.64-3.65a.45.45 0 000-.66l-2-2a.45.45 0 00-.66 0z" fill="#fff"/><path d="M444.81 131a4.81 4.81 0 00-.87 9.54v1.84a.89.89 0 00.87.87.9.9 0 00.62-.25l2.45-2.38h1.31a4.81 4.81 0 000-9.62zm-14.83.76l-1.42-.35v-.1a1.31 1.31 0 10-2.62 0v.1l-1.42.35a.44.44 0 00-.33.43v.87a.44.44 0 00.44.44h5.25a.44.44 0 00.43-.44v-.87a.44.44 0 00-.33-.43zm-2.73.43a.88.88 0 11.87-.88.87.87 0 01-.87.88zm4.81.43h-.87v.44a1.32 1.32 0 01-1.31 1.32h-5.26a1.32 1.32 0 01-1.31-1.32v-.44h-.87a.44.44 0 00-.44.44v10.5a.44.44 0 00.44.44h9.62a.44.44 0 00.44-.44v-10.5a.44.44 0 00-.44-.44zM414 132h-10.5v1.75H414zm-13.12 0a.88.88 0 10.87.88.87.87 0 00-.87-.88zm0 3.5a.88.88 0 10.87.88.87.87 0 00-.87-.88zm13.12 0h-10.5v1.75H414zm-13.12 3.5a.88.88 0 10.87.88.87.87 0 00-.87-.88zm13.12 0h-10.5v1.75H414zm73-9a7 7 0 107 7 7 7 0 00-7-7zm0 5.5a1.53 1.53 0 111.53-1.53 1.52 1.52 0 01-1.53 1.53zm1.31 5.47a.44.44 0 01-.44.44h-1.75a.43.43 0 01-.43-.44v-4.37a.44.44 0 01.43-.44h1.75a.44.44 0 01.44.44v4.4zm-14.44-8.22l-2.63-2.62a.43.43 0 00-.61 0l-1.23 1.22 3.24 3.24 1.23-1.22a.44.44 0 000-.62zm-5.09-.78l-8.21 8.22a.47.47 0 00-.13.25l-.44 3.06a.46.46 0 00.43.5h.07l3.06-.44a.37.37 0 00.24-.12l8.23-8.21-3.25-3.23zm-7.91 11.15l.44-2.62 2.19 2.19-2.63.43z" fill="#007ea5"/><path d="M32.73 61h-10a.27.27 0 00-.27.27v9.21a.55.55 0 01-1.09 0v-7.86h-1.1a.27.27 0 00-.27.28v7.85a1.61 1.61 0 001.62 1.62h9.75A1.62 1.62 0 0033 70.75v-9.48a.27.27 0 00-.27-.27zm-1.35 4.88H26.5v-2.44h4.88z" fill="#fff"/><path d="M483 217.67a1.18 1.18 0 00-1.7.19 1.36 1.36 0 00-.18 1.78l7.17 7.53-7.17 7.53a1.33 1.33 0 00.18 1.78 1.21 1.21 0 001.7.19l9-9.5-9-9.5m-38.26 9.49l7.17-7.53a1.33 1.33 0 00-.19-1.77 1.19 1.19 0 00-1.69-.19l-9 9.49 9 9.49a1.18 1.18 0 001.69-.19 1.36 1.36 0 00.19-1.78l-7.17-7.53m30.5 15.85a1.21 1.21 0 00-1.7-.19l-7.16 7.53-7.16-7.53a1.19 1.19 0 00-1.7.19 1.36 1.36 0 00-.18 1.78l9 9.5 9-9.5a1.33 1.33 0 00-.18-1.78m.19-33.49l-9-9.5-9 9.5a1.34 1.34 0 00.19 1.78 1.2 1.2 0 001.69.19l7.17-7.53 7.16 7.53a1.18 1.18 0 001.69-.19 1.36 1.36 0 00.19-1.78" fill="#fcbb30"/><path d="M481.61 229.92a2.33 2.33 0 00.62-1.89h-14.7v15.44a2.06 2.06 0 001.79-.64 2.7 2.7 0 00.86-2v-8.08l7.56 7.94a1.17 1.17 0 001.69-.19 1.35 1.35 0 00.19-1.78l-7.57-7.94h7.7a2.4 2.4 0 001.86-.9M465.16 228h-14.7a2.34 2.34 0 00.62 1.89 2.41 2.41 0 001.86.89h7.69l-7.56 7.94a1.33 1.33 0 00.18 1.78 1.21 1.21 0 001.7.2l7.56-7.95v8.09a2.7 2.7 0 00.86 2 2.06 2.06 0 001.79.64V228m-1.8-16.73a2.71 2.71 0 00-.85 2v8.08l-7.56-8a1.18 1.18 0 00-1.69.2 1.35 1.35 0 00-.19 1.77l7.57 7.95h-7.7a2.4 2.4 0 00-1.86.9 2.33 2.33 0 00-.62 1.89h14.7v-15.4a2.06 2.06 0 00-1.79.64m16.38 12h-7.69l7.56-7.94a1.33 1.33 0 00-.18-1.78 1.2 1.2 0 00-1.69-.19l-7.57 7.95v-8.09a2.71 2.71 0 00-.85-2 2.08 2.08 0 00-1.8-.65v15.5h14.7a2.34 2.34 0 00-.61-1.89 2.47 2.47 0 00-1.87-.9z" fill="#fcbb30"/><path d="M494 109a1.5 1.5 0 00-1.5-1.5h-5.67c1.1-.42 1.84-.69 2.51-1 .5-.23 1.66-.78 1.66-2 0-1.64-2.86-4.5-4.5-4.5-1.12 0-2.32 1.24-4.5 3.7-2.18-2.46-3.38-3.7-4.5-3.7-1.64 0-4.5 2.86-4.5 4.5 0 1.21 1.16 1.76 1.66 2 .67.32 1.41.59 2.51 1h-5.67a1.5 1.5 0 00-1.5 1.5v3h24zm-22.5 13.5a1.5 1.5 0 001.5 1.5h18a1.5 1.5 0 001.5-1.5v-9h-21z" fill="#008575"/><path d="M395.85 65.15l-5-5a.48.48 0 00-.7 0 1.9 1.9 0 00-.31 2.3l-2.91 2.91a5.17 5.17 0 00-2.13-.44c-1.07 0-2.3.48-2.3 1.08a.49.49 0 00.15.35l2.76 2.76L380.5 75l-.5 1 1-.5 5.89-4.91 2.76 2.76a.49.49 0 00.35.15c.59 0 1.08-1.23 1.08-2.3a5.2 5.2 0 00-.44-2.13l2.91-2.91a1.9 1.9 0 002.3-.31.47.47 0 00.15-.35.45.45 0 00-.15-.35z" fill="#6b6b6b"/><path d="M461.38 65.25h-2.19v-4.37a.87.87 0 00-.88-.88h-2.62a.87.87 0 00-.88.88v4.37h-2.19a.86.86 0 00-.87.87 1 1 0 00.25.63l4.38 4.37a.85.85 0 00.62.26.83.83 0 00.61-.26l4.39-4.37a.89.89 0 00.26-.63.86.86 0 00-.88-.87zm.87 7h-10.5v-3.5H450v3.5a1.76 1.76 0 001.75 1.75h10.5a1.76 1.76 0 001.75-1.75v-3.5h-1.75z" fill="#00543c"/><path d="M410.47 164a1.48 1.48 0 00-1.47 1.51v15.14a1.49 1.49 0 001.47 1.51v-15.24a1.34 1.34 0 011.29-1.41h20.72A1.49 1.49 0 00431 164z" fill="#fff"/><path d="M434.53 167.63H414a1.49 1.49 0 00-1.47 1.52v15.13a1.48 1.48 0 001.47 1.51h20.54a1.48 1.48 0 001.47-1.51v-15.13a1.48 1.48 0 00-1.47-1.52zm-4.4 3a3 3 0 11-2.93 3 3 3 0 012.93-3zm-.81 12.1h-14.38l5-10.17a.74.74 0 01.61-.42.74.74 0 01.61.34l2.44 3.78.84-.87a.7.7 0 01.51-.22h.12a.72.72 0 01.54.4s3.31 6.34 3.66 7.15z" fill="#fff"/><path d="M38.72 215.23a1.12 1.12 0 00-1.55.16 1.14 1.14 0 00-.16 1.55l6.55 6.55-6.56 6.56a1.13 1.13 0 00.17 1.55 1.15 1.15 0 001.55.17L47 223.5l-8.27-8.27m-35.3 8.26l6.57-6.55a1.12 1.12 0 00-.17-1.55 1.13 1.13 0 00-1.54-.16L0 223.49l8.27 8.27a1.11 1.11 0 001.54-.17A1.14 1.14 0 0010 230l-6.55-6.55m28.16 13.68A1.14 1.14 0 0030 237l-6.55 6.55-6.51-6.55a1.12 1.12 0 00-1.55.17 1.14 1.14 0 00-.17 1.55l8.26 8.28 8.26-8.27a1.12 1.12 0 00-.16-1.55m.17-28.9L23.5 200l-8.26 8.27a1.24 1.24 0 001.7 1.73l6.55-6.55L30 210a1.12 1.12 0 001.55-.17 1.14 1.14 0 00.17-1.55" fill="#fdbb30"/><path d="M37.48 226.25a2 2 0 00.57-1.64H24.61v13.44a2 2 0 001.64-.57 2.24 2.24 0 00.78-1.7v-7l6.91 6.91a1.12 1.12 0 001.55-.16 1.14 1.14 0 00.17-1.55L28.74 227h7a2.25 2.25 0 001.7-.78m-15.1-1.64H8.94a2 2 0 00.57 1.64 2.24 2.24 0 001.7.78h7l-6.91 6.91a1.12 1.12 0 00.16 1.55 1.14 1.14 0 001.55.17l6.99-6.89v7a2.29 2.29 0 00.79 1.7 2 2 0 001.64.57v-13.4m-1.64-15.1a2.25 2.25 0 00-.78 1.7v7l-6.91-6.91a1.12 1.12 0 00-1.55.16 1.14 1.14 0 00-.17 1.55l6.86 6.99h-7a2.24 2.24 0 00-1.7.78 2 2 0 00-.57 1.64h13.41v-13.48a2 2 0 00-1.64.57m16.74 11.23a2.25 2.25 0 00-1.7-.78h-7l6.88-6.96a1.12 1.12 0 00-.16-1.55 1.14 1.14 0 00-1.55-.16L27 218.25v-7a2.27 2.27 0 00-.78-1.71 2 2 0 00-1.64-.56v13.44h13.47a2 2 0 00-.57-1.64" fill="#fdbb30"/><path d="M428.11 283a3.52 3.52 0 01-3.8-3.46v-4.24H423v-1.68a4 4 0 002.55-3.49.11.11 0 01.1-.1h1.9v3.31h2.59v2h-2.6v4a1.13 1.13 0 001.19 1.28h.06a3 3 0 001-.23l.63 1.85a3.42 3.42 0 01-2.25.76h-.1m11.93-6.5a6.49 6.49 0 004.13 6.05 6.12 6.12 0 010-1.86l.77-3.23a2.31 2.31 0 01-.2-1c0-.9.52-1.57 1.18-1.57a.81.81 0 01.82.91 13.29 13.29 0 01-.54 2.16 1 1 0 001 1.18c1.16 0 2.05-1.22 2.05-3a2.56 2.56 0 00-2.72-2.64 2.8 2.8 0 00-2.93 2.82 2.51 2.51 0 00.48 1.48.2.2 0 01.05.19l-.18.73c0 .12-.1.15-.22.09a2.92 2.92 0 01-1.32-2.52 3.94 3.94 0 014.29-3.93 3.82 3.82 0 014 3.75c0 2.24-1.41 4-3.37 4a1.75 1.75 0 01-1.49-.75l-.4 1.55a7.64 7.64 0 01-.81 1.7 6.42 6.42 0 001.92.29 6.5 6.5 0 10-6.5-6.5zm-27-2.9q-.09 1.9-2.65 5.2c-1.77 2.3-3.26 3.44-4.48 3.44-.76 0-1.4-.7-1.93-2.1l-1.05-3.84c-.38-1.4-.8-2.1-1.25-2.1a3.8 3.8 0 00-1 .61L400 274c.64-.56 1.28-1.12 1.9-1.69a4.28 4.28 0 011.93-1.17c1-.09 1.63.6 1.86 2.08s.43 2.59.53 3q.43 2 1 2c.28 0 .68-.43 1.23-1.29a5 5 0 00.87-2q.12-1.11-.87-1.11a2.45 2.45 0 00-1 .21q1-3.14 3.66-3.05c1.34 0 2 .91 1.89 2.6m28.65 35.62c-4.08 0-5.63-3-5.63-5.13v-6.28h-1.95v-2.49a5.89 5.89 0 003.79-5.18.15.15 0 01.14-.12h2.82v4.9h3.85v2.91h-3.87v6a1.68 1.68 0 001.77 1.89h.08a4.48 4.48 0 001.55-.33l.92 2.74a5.06 5.06 0 01-3.32 1.13h-.15m18.35-9.61a9.64 9.64 0 006.12 9 9.48 9.48 0 010-2.76l1.13-4.79a3.48 3.48 0 01-.29-1.43c0-1.34.78-2.34 1.75-2.34a1.21 1.21 0 011.22 1.36 19.57 19.57 0 01-.8 3.2 1.39 1.39 0 001.42 1.74c1.71 0 3-1.8 3-4.41a3.81 3.81 0 00-4-3.92 4.17 4.17 0 00-4.35 4.18 3.73 3.73 0 00.72 2.2.3.3 0 01.06.28c-.07.3-.23 1-.27 1.09s-.14.21-.32.13a4.32 4.32 0 01-1.95-3.73c0-3 2.2-5.83 6.36-5.83a5.65 5.65 0 015.94 5.56c0 3.32-2.1 6-5 6a2.58 2.58 0 01-2.21-1.1l-.6 2.29a11.06 11.06 0 01-1.19 2.52 9.63 9.63 0 10-6.78-9.2zm-40.75-4.3c-.08 1.88-1.39 4.44-3.93 7.71s-4.83 5.1-6.64 5.1c-1.13 0-2.08-1-2.85-3.11l-1.56-5.7c-.57-2.07-1.19-3.11-1.85-3.11a5.66 5.66 0 00-1.51.91L400 296c.95-.84 1.89-1.67 2.81-2.51a6.44 6.44 0 012.86-1.73c1.49-.14 2.42.88 2.76 3.08q.57 3.54.78 4.41c.43 2 .91 2.94 1.43 2.94s1-.63 1.81-1.91a7.47 7.47 0 001.3-2.91c.12-1.1-.32-1.65-1.3-1.65a3.59 3.59 0 00-1.45.28c.94-3.1 2.75-4.6 5.42-4.52q3 .09 2.8 3.85m8.93-222.2v3.37h-5.4v-.74h-3.61V78h4.06v2.16h-4.06v2.68l1.55.62v2.94l-9.28-3.73v-2.95l1.6.64v-4.6h-1.6v-2.63zm-.81-8.88h-5.83v-.58h-3.8v1.91h6.75a5.84 5.84 0 012.65.52c.69.34 1 .76 1 1.24v2.78c0 .45-.38.84-1.14 1.16a6.91 6.91 0 01-2.69.48h-12.91v-3h6.36v.69h3.78v-1.96H415a6.45 6.45 0 01-2.9-.58c-.77-.39-1.15-.84-1.15-1.35V63c0-.54.45-.83 1.36-1.12a9.86 9.86 0 013.11-.44h11.88v2.85z" fill="#fff"/><path d="M432 61.16s-1.3 0-1.3 1.18v17.37c0 1.94-.37 4.16-2.76 5.3-3.85 1.85-7.09 3.47-8.32 3.46s-4.46-1.61-8.31-3.46c-2.39-1.14-2.77-3.36-2.77-5.3V62.34c0-1.18-1.3-1.18-1.3-1.18h-5.9v5.23h1.06a.89.89 0 011 1v12c-.08 3.52.66 8.31 7.39 10.83 5.24 2 7.44 3.37 8.8 3.37s3.56-1.41 8.8-3.37c6.73-2.52 7.47-7.31 7.39-10.83v-12a.9.9 0 011-1h1.06v-5.23z" fill="#ffb819"/><path data-name="svg 104" d="M45.79 16.86a1.34 1.34 0 00-1.79.19 1.22 1.22 0 00-.19 1.71L51.38 26l-7.57 7.26A1.21 1.21 0 0044 35a1.36 1.36 0 001.79.18L55.35 26z" fill="#ffb71b"/><path data-name="svg 105" d="M5 26l7.58-7.25a1.2 1.2 0 00-.17-1.69 1.35 1.35 0 00-1.79-.19L1 26l9.56 9.14a1.33 1.33 0 001.79-.14 1.22 1.22 0 00.2-1.72z" fill="#ffb71b"/><path data-name="svg 106" d="M37.55 41.16a1.35 1.35 0 00-1.79-.16l-7.57 7.25L20.62 41a1.34 1.34 0 00-1.79.19 1.22 1.22 0 00-.19 1.71l9.54 9.1 9.55-9.16a1.2 1.2 0 00-.16-1.69z" fill="#ffb71b"/><path data-name="svg 107" d="M37.75 9.16L28.2 0l-9.55 9.16a1.2 1.2 0 00.16 1.69 1.35 1.35 0 001.79.19l7.6-7.23 7.57 7.25a1.34 1.34 0 001.79-.19 1.22 1.22 0 00.19-1.71z" fill="#ffb71b"/><path data-name="svg 108" d="M44.36 29.07a2.14 2.14 0 00.64-1.79H29.48v14.85a2.34 2.34 0 001.9-.63 2.41 2.41 0 00.9-1.88v-7.78l8 7.65a1.34 1.34 0 001.78-.21 1.22 1.22 0 00.19-1.71l-8-7.66h8.13a2.65 2.65 0 001.98-.84z" fill="#ffb71b"/><path data-name="svg 109" d="M26.91 27.28H11.37a2.13 2.13 0 00.63 1.79 2.71 2.71 0 002 .86h8.13l-8 7.65a1.21 1.21 0 00.19 1.7 1.36 1.36 0 001.79.18l8-7.65v7.79a2.49 2.49 0 00.89 1.9 2.34 2.34 0 001.9.63z" fill="#ffb71b"/><path data-name="svg 110" d="M25 10.53a2.46 2.46 0 00-.91 1.88v7.78l-8-7.65a1.33 1.33 0 00-1.79.19 1.22 1.22 0 00-.19 1.71l8 7.66H14a2.66 2.66 0 00-2 .9 2.11 2.11 0 00-.65 1.82h15.56V9.9a2.32 2.32 0 00-1.91.63z" fill="#ffb71b"/><path data-name="svg 111" d="M44.36 23a2.66 2.66 0 00-2-.86h-8.09l8-7.66a1.19 1.19 0 00-.16-1.68 1.36 1.36 0 00-1.79-.18l-8 7.65v-7.86a2.43 2.43 0 00-.9-1.89 2.34 2.34 0 00-1.9-.62v14.88H45a2.14 2.14 0 00-.64-1.78z" fill="#ffb71b"/><path data-name="svg 112" d="M69.64 19.91c-4.31 0-6.89-2.62-6.89-6.77V2.54h2.42v10.3c0 3 1.4 4.94 4.47 4.94s4.54-1.78 4.54-4.87V2.54h2.42V13c0 4.28-2.66 6.91-6.96 6.91z" fill="#fff"/><path data-name="svg 113" d="M95.56 19.58l-9.77-13.3v13.3h-2.25v-17h2.17l9.44 12.7V2.54h2.24v17z" fill="#fff"/><path data-name="svg 114" d="M104.8 19.58v-17h2.42v17z" fill="#fff"/><path data-name="svg 115" d="M121.62 19.66h-2.17l-6.86-16.8 2.41-.49 5.54 14.18 5.44-14h2.56z" fill="#fff"/><path data-name="svg 116" d="M133.9 19.58v-17h9.6v2.08h-7.17V9.6h5.57l.36 2.13h-5.93v5.73h7.42v2.12z" fill="#fff"/><path data-name="svg 117" d="M162.1 19.28l-2.45.52-5.45-7.36h-1.83v7.14H150v-17h4.85c3.63 0 5.9 1.73 5.9 4.84 0 2.57-1.57 4.1-3.89 4.72zm-7.41-14.69h-2.32v5.85h2.07c2.34 0 3.84-1 3.84-2.94s-1.21-2.91-3.59-2.91z" fill="#fff"/><path data-name="svg 118" d="M171.7 19.78a11 11 0 01-5-1.11l.36-2.37a9 9 0 004.67 1.46c1.85 0 3.17-.94 3.17-2.6s-.72-2.2-3.41-3.36c-3.35-1.46-4.61-2.52-4.61-5 0-2.75 2.19-4.5 5.41-4.5a8.19 8.19 0 014.05 1L176 5.63a6.44 6.44 0 00-3.74-1.26c-2 0-2.94 1-2.94 2.29s.67 1.93 3.38 3.12c3.45 1.5 4.64 2.64 4.64 5.21-.02 2.94-2.34 4.79-5.64 4.79z" fill="#fff"/><path data-name="svg 119" d="M183.69 19.58v-17h2.43v17z" fill="#fff"/><path data-name="svg 120" d="M199.56 4.66v14.92h-2.43V4.66h-5.67V2.54H205l.36 2.12z" fill="#fff"/><path data-name="svg 121" d="M216.74 12.82v6.76h-2.43v-6.76L208 2.86l2.42-.49 5.11 8.32 5-8.15h2.68z" fill="#fff"/><path data-name="svg 122" d="M241.38 19.91c-5 0-8.18-3.56-8.18-8.82s3.22-8.87 8.23-8.87 8.17 3.55 8.17 8.78-3.19 8.91-8.22 8.91zm0-15.57c-3.53 0-5.7 2.62-5.7 6.72s2.19 6.72 5.7 6.72 5.7-2.62 5.7-6.72-2.17-6.72-5.68-6.72z" fill="#fff"/><path data-name="svg 123" d="M258 4.66v5.22h5.37l.36 2.12H258v7.58h-2.42v-17h9.26v2.08z" fill="#fff"/><path data-name="svg 124" d="M280.93 19.78a11 11 0 01-5-1.11l.36-2.37a9 9 0 004.71 1.46c1.86 0 3.17-.94 3.17-2.6s-.72-2.2-3.41-3.36c-3.35-1.46-4.61-2.52-4.61-5 0-2.75 2.19-4.5 5.42-4.5a8.3 8.3 0 014.05 1l-.39 2.33a6.44 6.44 0 00-3.74-1.26c-2 0-2.94 1-2.94 2.29s.67 1.93 3.38 3.12c3.45 1.5 4.64 2.64 4.64 5.21-.02 2.94-2.32 4.79-5.64 4.79z" fill="#fff"/><path data-name="svg 125" d="M304.27 19.76l-2.09-5.29h-7.35l-2 5.11h-2.45l7-17.12h2.43l6.81 16.82zM298.5 5.28l-2.84 7.19h5.7z" fill="#fff"/><path data-name="svg 126" d="M323.47 19.58l-9.78-13.3v13.3h-2.24v-17h2.16l9.45 12.7V2.54h2.24v17z" fill="#fff"/><path data-name="svg 127" d="M342.45 4.66v5.22h5.37l.36 2.12h-5.73v7.58H340v-17h9.26v2.08z" fill="#fff"/><path data-name="svg 128" d="M367.48 19.28l-2.48.52-5.44-7.36h-1.84v7.14h-2.42v-17h4.85c3.64 0 5.91 1.73 5.91 4.84 0 2.57-1.58 4.1-3.9 4.72zm-7.4-14.65h-2.33v5.85h2.07c2.35 0 3.84-1 3.84-2.94s-1.21-2.95-3.58-2.95z" fill="#fff"/><path data-name="svg 129" d="M385 19.76l-2.09-5.29h-7.35l-2 5.11h-2.46l7-17.12h2.42l6.83 16.82zm-5.78-14.48l-2.84 7.19h5.7z" fill="#fff"/><path data-name="svg 130" d="M404.71 19.58l-9.78-13.3v13.3h-2.24v-17h2.16l9.44 12.7V2.54h2.25v17z" fill="#fff"/><path data-name="svg 131" d="M420.78 19.91c-5 0-8.23-3.56-8.23-8.82s3.28-8.87 8.28-8.87a9 9 0 015.06 1.4L425.53 6a7.86 7.86 0 00-4.73-1.66c-3.61 0-5.75 2.62-5.75 6.72s2.17 6.7 5.75 6.7a8.76 8.76 0 005-1.71l.36 2.2a9.73 9.73 0 01-5.38 1.66z" fill="#fff"/><path data-name="svg 132" d="M431.9 19.58v-17h2.42v17z" fill="#fff"/><path data-name="svg 133" d="M445 19.78a11.24 11.24 0 01-5-1.11l.37-2.37a8.9 8.9 0 004.63 1.46c1.86 0 3.17-.94 3.17-2.6s-.72-2.2-3.4-3.36c-3.35-1.46-4.62-2.52-4.62-5 0-2.75 2.2-4.5 5.42-4.5a8.19 8.19 0 014 1l-.39 2.33a6.44 6.44 0 00-3.74-1.26c-2 0-2.94 1-2.94 2.29s.67 1.93 3.38 3.12c3.46 1.5 4.64 2.64 4.64 5.21.13 2.94-2.16 4.79-5.52 4.79z" fill="#fff"/><path data-name="svg 134" d="M463.24 19.91c-5 0-8.22-3.56-8.22-8.82s3.27-8.87 8.28-8.87a8.91 8.91 0 015.05 1.4L468 6a7.85 7.85 0 00-4.72-1.66c-3.61 0-5.75 2.62-5.75 6.72s2.17 6.7 5.75 6.7a8.76 8.76 0 005-1.71l.36 2.2a9.74 9.74 0 01-5.4 1.66z" fill="#fff"/><path data-name="svg 135" d="M480.35 19.91c-5 0-8.18-3.56-8.18-8.82s3.23-8.87 8.23-8.87 8.18 3.55 8.18 8.82-3.2 8.87-8.23 8.87zm0-15.57c-3.53 0-5.7 2.62-5.7 6.72s2.2 6.72 5.7 6.72 5.71-2.62 5.71-6.72-2.18-6.72-5.69-6.72z" fill="#fff"/><path data-name="svg 136" d="M68.68 50.05c-3.67 0-6-2.61-6-6.46s2.4-6.5 6.06-6.5a6.49 6.49 0 013.71 1l-.27 1.74a5.73 5.73 0 00-3.46-1.21c-2.64 0-4.21 1.91-4.21 4.92s1.59 4.9 4.21 4.9a6.42 6.42 0 003.64-1.16l.26 1.61a7.07 7.07 0 01-3.94 1.16z" fill="#fff"/><path data-name="svg 137" d="M89.53 49.81v-5.75h-6.59v5.75h-1.78V37.28h1.78v5.18h6.59v-5.18h1.78v12.53z" fill="#fff"/><path data-name="svg 138" d="M108.92 49.94l-1.53-3.87H102l-1.47 3.74h-1.8l5.1-12.53h1.78l5 12.31zm-4.24-10.66l-2.07 5.27h4.17z" fill="#fff"/><path data-name="svg 139" d="M127 49.81l-7.16-9.71v9.71h-1.65V37.28h1.59l6.91 9.36v-9.36h1.65v12.53z" fill="#fff"/><path data-name="svg 140" d="M143 50.05c-4.13 0-6.34-2.61-6.34-6.46s2.3-6.5 6.19-6.5a7 7 0 014 1.07l-.28 1.74a6 6 0 00-3.71-1.25c-2.85 0-4.34 1.91-4.34 4.92s1.53 4.9 4.51 4.9a5.3 5.3 0 002.65-.61v-3.31h-3l-.24-1.55h5v5.85a8.66 8.66 0 01-4.44 1.2z" fill="#fff"/><path data-name="svg 141" d="M156.26 49.81V37.28h7v1.6H158v3.62h4.08l.27 1.56H158v4.22h5.44v1.55z" fill="#fff"/><path data-name="svg 142" d="M186.16 38.88v10.93h-1.77V38.88h-4.16v-1.6h9.94l.26 1.56z" fill="#fff"/><path data-name="svg 143" d="M206.09 49.81v-5.75h-6.59v5.75h-1.77V37.28h1.77v5.18h6.59v-5.18h1.78v12.53z" fill="#fff"/><path data-name="svg 144" d="M217.16 49.81V37.28h7v1.6h-5.25v3.62H223l.27 1.56h-4.35v4.22h5.44v1.55z" fill="#fff"/><path data-name="svg 145" d="M254.48 49.81H253l-3.53-10.11-3.53 10.11h-1.48l-3.85-12.25 1.74-.36 2.94 9.93 3.31-9.85h1.78l3.32 9.81 2.89-9.81h1.82z" fill="#fff"/><path data-name="svg 146" d="M271.08 50.05c-3.66 0-6-2.61-6-6.46s2.37-6.5 6-6.5 6 2.61 6 6.46-2.31 6.5-6 6.5zm0-11.4c-2.59 0-4.17 1.91-4.17 4.92s1.6 4.92 4.17 4.92 4.18-1.92 4.18-4.92-1.59-4.92-4.16-4.92z" fill="#fff"/><path data-name="svg 147" d="M294.49 49.56l-1.79.38-4-5.39h-1.34v5.26h-1.78V37.28h3.55c2.67 0 4.33 1.27 4.33 3.55a3.43 3.43 0 01-2.85 3.46zm-5.42-10.73h-1.7v4.29h1.51c1.72 0 2.81-.74 2.81-2.16s-.88-2.13-2.62-2.13z" fill="#fff"/><path data-name="svg 148" d="M302.33 49.81V37.28h1.77v11h4.71l.25 1.55z" fill="#fff"/><path data-name="svg 149" d="M320.75 49.81h-3.7V37.28h3.77c4.54 0 6.87 2.58 6.87 6.23s-2.46 6.3-6.94 6.3zm.13-11h-2.06v9.47h2c3.14 0 5-1.53 5-4.71s-1.95-4.71-4.94-4.71z" fill="#fff"/><path data-name="svg 150" d="M347.54 38.88v3.82h3.93l.26 1.56h-4.19v5.55h-1.78V37.28h6.79v1.6z" fill="#fff"/><path data-name="svg 151" d="M369.57 49.56l-1.8.38-4-5.39h-1.34v5.26h-1.77V37.28h3.55c2.66 0 4.33 1.27 4.33 3.55a3.45 3.45 0 01-2.86 3.46zm-5.43-10.73h-1.7v4.29H364c1.72 0 2.82-.74 2.82-2.16s-.94-2.13-2.68-2.13z" fill="#fff"/><path data-name="svg 152" d="M382.6 50.05c-3.66 0-6-2.61-6-6.46s2.36-6.5 6-6.5 6 2.61 6 6.46-2.31 6.5-6 6.5zm0-11.4c-2.59 0-4.18 1.91-4.18 4.92s1.61 4.92 4.18 4.92 4.18-1.92 4.18-4.92-1.59-4.92-4.16-4.92z" fill="#fff"/><path data-name="svg 153" d="M409.62 49.81l-.81-9.93-4.12 10h-1.35l-4.12-10-.79 9.93h-1.66l1-12.49H400l4.06 10.25 4.07-10.29h2.17l1 12.49z" fill="#fff"/><path data-name="svg 154" d="M437.92 49.81v-5.75h-6.6v5.75h-1.77V37.28h1.77v5.18h6.6v-5.18h1.77v12.53z" fill="#fff"/><path data-name="svg 155" d="M448.89 49.81V37.28h7v1.6h-5.25v3.62h4.08l.26 1.56h-4.34v4.22h5.44v1.55z" fill="#fff"/><path data-name="svg 156" d="M473.34 49.56l-1.8.38-4-5.39h-1.35v5.26h-1.77V37.28H468c2.67 0 4.33 1.27 4.33 3.55a3.43 3.43 0 01-2.86 3.46zm-5.42-10.73h-1.71v4.29h1.52c1.71 0 2.81-.74 2.81-2.16s-.89-2.13-2.62-2.13z" fill="#fff"/><path data-name="svg 157" d="M481.18 49.81V37.28h7v1.6H483v3.62h4l.27 1.56H483v4.22h5.45v1.55z" fill="#fff"/><path data-name="svg 158" fill="#fff" d="M62.73 28.05h425.69v.74H62.73z"/><path d="M453.3 159.25a1.49 1.49 0 00-1.47 1.51v19.13a1.5 1.5 0 001.47 1.52v-19.24a1.34 1.34 0 011.29-1.41h14.72a1.48 1.48 0 00-1.47-1.51z" fill="#fff"/><path d="M470.59 175.93a.64.64 0 01-.4.24l-5.2 1.15a.22.22 0 01-.11 0 .76.76 0 01-.8-.79l.33-5.29a.72.72 0 01.18-.44l6.9-7.93h-14.66a1.48 1.48 0 00-1.47 1.51v19.14a1.48 1.48 0 001.47 1.51h14.54a1.49 1.49 0 001.47-1.51v-10.16zm8.16-12.56l-2.87-2.37a.46.46 0 00-.63.05l-1.15 1.32 3.55 3 1.15-1.37a.42.42 0 00-.05-.63z" fill="#fff"/><path d="M473.26 163.28l-7.43 8.54a.41.41 0 00-.11.26l-.2 3.08a.47.47 0 00.48.47h.06l3.08-.67a.42.42 0 00.24-.14l7.45-8.53zm-6.9 11.44l.24-2.65 2.4 2zm66.81-66.39a1.5 1.5 0 00-1.5-1.5H526c1.11-.42 1.85-.69 2.51-1s1.67-.78 1.67-2c0-1.64-2.86-4.5-4.5-4.5-1.13 0-2.32 1.24-4.5 3.71-2.18-2.46-3.38-3.71-4.5-3.71-1.64 0-4.5 2.86-4.5 4.5 0 1.21 1.16 1.76 1.66 2 .67.32 1.41.59 2.51 1h-5.67a1.49 1.49 0 00-1.5 1.5v3h24zm-22.5 13.5a1.49 1.49 0 001.5 1.5h18a1.49 1.49 0 001.5-1.5v-9h-21zm29.14 48.74a1.69 1.69 0 00-3.33-.42h-.05v.82a.46.46 0 01-.46.47.47.47 0 01-.48-.47V169a1.7 1.7 0 10-3.39 0v.71a.47.47 0 01-.94 0V167a1.69 1.69 0 00-3.38 0v1.48a.47.47 0 01-.94 0v-10.53a1.7 1.7 0 10-3.39 0v16.22a.47.47 0 01-.46.42.45.45 0 01-.26-.09l-2.39-2c-1.1-.81-2.68-1.37-3.52-.62s-.06 1.62 1.47 3.59l5.82 7.82.05.05a2.58 2.58 0 001.71 1h9.99a3 3 0 002.94-3l.26-2.63.1-1.06.5-5.1v-.22l.18-2zm47.99 43.97a2.32 2.32 0 01.73 2.47l4.25-8.9-7.69 6.06.14.11a2.32 2.32 0 012.57.26z" fill="#fff"/><circle cx="586.32" cy="216.21" r="1.12" fill="#fff"/><path d="M584.86 218.1a2.31 2.31 0 01-.54-2.92L580.1 224l7.13-5.55a2.31 2.31 0 01-2.37-.35z" fill="#fff"/><path d="M586.45 201.3a14.83 14.83 0 1014.83 14.83 14.83 14.83 0 00-14.83-14.83zm0 27.5a12.67 12.67 0 1112.67-12.67 12.67 12.67 0 01-12.68 12.67z" fill="#fff"/><path d="M587.8 214.54a2.32 2.32 0 01.73 2.47l4.25-8.9-7.69 6.06.14.11a2.32 2.32 0 012.57.26z" fill="#fff"/><circle cx="586.32" cy="216.21" r="1.12" fill="#fff"/><path d="M584.86 218.1a2.31 2.31 0 01-.54-2.92L580.1 224l7.13-5.55a2.31 2.31 0 01-2.37-.35zm-394.27-76.65l-.55-.55 1.1-1.1.55.55a4.67 4.67 0 010 6.61l-1.1-1.11a3.1 3.1 0 000-4.4zm-1.67 3.36a1.13 1.13 0 01-.8-.33 1.17 1.17 0 010-1.66 1.13 1.13 0 01.8-.33 1.17 1.17 0 01.81.33 1.19 1.19 0 010 1.66 1.15 1.15 0 01-.81.33zm-1.67 1.04l-1.1 1.11a4.67 4.67 0 010-6.61l.55-.55 1.1 1.1-.55.55a3.12 3.12 0 000 4.4z" fill="#fff"/><path d="M184.5 137.6l1.09 1.09-.55.56a6.23 6.23 0 000 8.81l-1.1 1.1a7.8 7.8 0 010-11l.55-.55zm8.3 1.65l-.55-.55 1.1-1.1.55.55a7.8 7.8 0 010 11l-1.1-1.1a6.23 6.23 0 000-8.8z" fill="#fff"/><path fill="none" d="M164 136.13l6.94 2.94-6.81 2.68-7.38-2.75"/><path fill="#fff" d="M133.84 85.54l-7.06-3.75-7.25 3.75 7.25 3.56 7.06-3.56z"/><path fill="#fff" d="M126.69 91.31l-4.71-2.23v1.44l4.75 2.25v-.06l4.71-2.23v-1.44l-4.75 2.25v.02zm43.31-6.1a.76.76 0 00-.76-.76h-2.86c.56-.21.93-.35 1.27-.51s.84-.39.84-1a3.16 3.16 0 00-2.27-2.27c-.57 0-1.18.62-2.28 1.87-1.1-1.25-1.7-1.87-2.27-1.87a3.15 3.15 0 00-2.27 2.27c0 .61.58.89.84 1s.71.3 1.27.51h-2.87a.76.76 0 00-.76.76v1.51H170zM158.59 92a.76.76 0 00.76.75h9.09a.74.74 0 00.75-.75v-4.52h-10.6V92z"/><circle cx="108.69" cy="82.98" r="3.45" fill="#fff"/><path d="M103 93.77a1.61 1.61 0 01-.44-2.2l2.44-5.51a4.68 4.68 0 001.32 1.33 7.26 7.26 0 002.08.55l-3.22 5a1.61 1.61 0 01-2.18.83zm49.41-8.42l-5.93-3.95a1.21 1.21 0 00-1.2 0l-5.93 3.95a.5.5 0 00-.25.4.4.4 0 00.07.22.92.92 0 00.78.34h11.86a.91.91 0 00.78-.34.4.4 0 00.07-.22.51.51 0 00-.25-.4zm-12.92 7a.64.64 0 01.64-.64H152a.64.64 0 01.63.64v.83h-13.16z" fill="#fff"/><path fill="#fff" d="M141.6 85.57h1.35v5.44h-1.35zm7.94 0h1.35v5.44h-1.35zm-3.97 0h1.35v5.44h-1.35z"/><path data-name="navigateright-5" d="M173.26 154.13a.38.38 0 00-.1-.31.45.45 0 00-.3-.11h-16a.46.46 0 00-.26.1.47.47 0 000 .62l8 10a.33.33 0 00.51 0l8-10a.55.55 0 00.1-.31z" fill="#00543c"/><path data-name="navigateright-5" d="M196.15 154.13a.38.38 0 00-.1-.31.47.47 0 00-.31-.11h-16a.44.44 0 00-.26.1.45.45 0 000 .62l8 10a.33.33 0 00.51 0l8-10a.63.63 0 00.1-.31z" fill="#fdbb30"/><path d="M323.17 149.33a23.34 23.34 0 1023.33 23.34 23.34 23.34 0 00-23.33-23.34zm8.27 24.29s-9.56 7.94-11.13 9.07S319 182 319 182v-19c0-2.25 1.5-.56 1.5-.56l10.94 9.31a1.07 1.07 0 010 1.87zm211.88 27.2a15.31 15.31 0 1015.31 15.31 15.3 15.3 0 00-15.31-15.31zm5.43 15.93s-6.28 5.21-7.3 5.95-.86-.45-.86-.45v-12.47c0-1.47 1-.37 1-.37l7.18 6.11a.71.71 0 01-.02 1.23zm-46-56.25h-9a9.16 9.16 0 00-9.13 9.12v1.43a9.16 9.16 0 007.13 8.89V185s.5 1.94 2.5.06l5.22-4.89h3.28a9.16 9.16 0 009.13-9.13v-1.42a9.16 9.16 0 00-9.13-9.12zm67.08-6.01a15.31 15.31 0 1015.31 15.3 15.31 15.31 0 00-15.31-15.3zm3.08 24.84h-6.16v-11.16h6.16zM569.83 167a3.09 3.09 0 113.08-3.08 3.08 3.08 0 01-3.08 3.08z" fill="#fff"/><path d="M190.23 85v1.46h-2.32v-.32h-1.56v1h1.75v.93h-1.75v1.16l.67.26v1.27l-4-1.6v-1.29l.69.28v-2H183V85zm-.35-3.79h-2.51V81h-1.64v.83h2.91a2.56 2.56 0 011.15.22c.29.15.44.33.44.54v1.19c0 .2-.16.37-.49.5a2.93 2.93 0 01-1.16.21H183v-1.3h2.74v.3h1.63v-.89h-2.79a2.73 2.73 0 01-1.25-.25c-.32-.17-.49-.36-.49-.58v-1.12c0-.23.2-.36.58-.48a4.24 4.24 0 011.34-.2h5.12v1.24z" fill="#fcfcfc"/><path d="M191.88 79.88s-.56 0-.56.5v7.49a2.27 2.27 0 01-1.19 2.28 15.9 15.9 0 01-3.59 1.49 15.89 15.89 0 01-3.54-1.49 2.26 2.26 0 01-1.19-2.28v-7.49c0-.5-.56-.5-.56-.5h-2.54v2.25h.45s.46 0 .45.4 0 5.18 0 5.18a4.39 4.39 0 003.18 4.67c2.26.84 3.21 1.45 3.79 1.45s1.54-.6 3.79-1.45a4.41 4.41 0 003.19-4.67v-5.18a.38.38 0 01.44-.4h.46v-2.25z" fill="#fcfcfc"/><path d="M499.49 296h1.45v2h2v1.45h-2v2h-1.45v-2h-2V298h2zM440 276.5a6.49 6.49 0 004.13 6.05 6.12 6.12 0 010-1.86l.77-3.23a2.31 2.31 0 01-.2-1c0-.9.52-1.57 1.18-1.57a.81.81 0 01.82.91 13.29 13.29 0 01-.54 2.16 1 1 0 001 1.18c1.16 0 2.05-1.22 2.05-3a2.56 2.56 0 00-2.72-2.64 2.8 2.8 0 00-2.93 2.82 2.51 2.51 0 00.48 1.48.2.2 0 01.05.19l-.18.73c0 .12-.1.15-.22.09a2.92 2.92 0 01-1.32-2.52 3.94 3.94 0 014.29-3.93 3.82 3.82 0 014 3.75c0 2.24-1.41 4-3.37 4a1.75 1.75 0 01-1.49-.75l-.4 1.55a7.64 7.64 0 01-.81 1.7 6.42 6.42 0 001.92.29 6.5 6.5 0 10-6.5-6.5zm33.13-2.05h1.33v1.82h1.83v1.33h-1.83v1.82h-1.33v-1.82h-1.82v-1.33h1.82z" fill="#fff"/></g><path data-name="svg 161" d="M559.39 105.13l-2.62-2.62a.43.43 0 00-.61 0l-1.22 1.22 3.23 3.23 1.22-1.22a.43.43 0 000-.61z" fill="#4e4c4d"/><path data-name="svg 162" d="M554.32 104.35l-8.2 8.21a.37.37 0 00-.12.24l-.44 3.06a.45.45 0 00.41.49h.08l3.06-.43a.37.37 0 00.24-.12l8.21-8.2zm-7.89 11.12l.44-2.62 2.18 2.18z" fill="#4e4c4d"/><path data-name="svg 163" fill="#4e4c4d" d="M579.97 102.01h4v14.33h-4z"/><path data-name="svg 164" fill="#4e4c4d" d="M574.97 107.34h14.33v4h-14.33z"/><rect x="506.07" y="270.94" width="13.4" height="11.74" rx="1.51" ry="1.51" fill="none" stroke="#fff" stroke-miterlimit="10" stroke-width="1.5"/><path fill="none" stroke="#fff" stroke-linecap="round" stroke-miterlimit="10" d="M508.69 269.37v1.08m2.77-1.08v.92m2.93-.92v1.08m2.77-1.08v.92"/><path fill="#fff" d="M519.08 272.83h-12.82v-1.27l1.24-.56 10.31-.12 1.27.68v1.27z"/><text y="280.67" x="510.5" font-size="9" fill="#fff" font-family="Whitney-Black,Whitney">1</text><path d="M496.25 276.07a.88.88 0 00-1.73-.21v.42a.25.25 0 11-.49 0v-1a.89.89 0 00-1.77 0v.37a.25.25 0 01-.49 0v-1.4a.88.88 0 00-1.76 0v.75a.25.25 0 11-.49 0v-5.47a.88.88 0 10-1.76 0V278a.23.23 0 01-.24.21.33.33 0 01-.14 0l-1.24-1c-.57-.42-1.39-.71-1.83-.32s0 .84.77 1.86l3 4.07a1.34 1.34 0 00.89.52h5.19a1.53 1.53 0 001.53-1.55l.14-1.37v-.55l.26-2.65v-.11l.09-1zm39-7.32a7.25 7.25 0 107.25 7.25 7.26 7.26 0 00-7.25-7.25zm2.57 7.55s-3 2.46-3.46 2.81-.4-.21-.4-.21V273c0-.7.46-.18.46-.18l3.4 2.9a.33.33 0 010 .58zm19.67-2.62h4.07l-4.07-4.07zm-5.18-5.18h5.92l4.44 4.44v8.87a1.48 1.48 0 01-1.48 1.48h-8.88a1.48 1.48 0 01-1.48-1.48V270a1.48 1.48 0 011.48-1.5zm6.69 11.83v-1.48h-6.66v1.48zm2.22-2.95v-1.48h-8.88v1.48zm25.11-3.38a.91.91 0 00-.91-.92H582c.67-.25 1.13-.42 1.53-.61s1-.48 1-1.22a3.83 3.83 0 00-2.75-2.75c-.69 0-1.42.76-2.75 2.26-1.33-1.5-2.06-2.26-2.75-2.26a3.83 3.83 0 00-2.75 2.75c0 .74.71 1.07 1 1.22s.86.36 1.53.61h-3.47a.92.92 0 00-.91.92v1.83h14.66zm-13.75 8.25a.92.92 0 00.92.92h11a.92.92 0 00.92-.92v-5.08h-12.84z" fill="#fff"/><path d="M605.32 275.85v5.32c0 1.52-.18 1.7-1.66 1.7h-8.34c-1.48 0-1.65-.18-1.65-1.7v-7.8c0-1.52.17-1.7 1.65-1.7h4.1" fill="none" stroke="#fff" stroke-miterlimit="10" stroke-width="1.5"/><path d="M607.21 275a.32.32 0 01-.2-.08l-6.16-5.87s-.05 0-.06-.2a.29.29 0 01.29-.3h6.13a.29.29 0 01.29.3v5.85a.31.31 0 01-.29.3z" fill="#fff"/><path d="M598.64 279l-1.3-1.28a1 1 0 010-1.38l5.15-5.51a.94.94 0 011.35 0l1.3 1.28a1 1 0 010 1.39l-5.15 5.5a.94.94 0 01-1.35 0zm.78-6.81v-1.05h1.02l-1.02 1.05zm5.4 3.66l1.02-1.05v1.05M377.11 268h-17.78a2.87 2.87 0 00-2.86 2.86v13.49a2.87 2.87 0 002.86 2.86h17.78a2.87 2.87 0 002.86-2.86v-13.5a2.87 2.87 0 00-2.86-2.85zM358 274.86h3.31v3.3H358zm0 7h6.29v.7H358zm7.07 2.33H358v-.7h7.07zm.61-3.27H358v-.7h7.68zm0-2.79h-3.31v-3.3h3.31zm7.36 6.06h-6.29v-.7h6.29zm1.39-1.63h-7.68v-.7h7.68zm-.72-2.34v.7h-7v-.7zm-7-2.09v-3.3h3.3v3.3zm7.68 0h-3.31v-3.3h3.31zm3.94-5.65H358v-1.79h20.37z" fill="#fff"/><path d="M376.86 298.74h-17.78a2.87 2.87 0 00-2.86 2.86v13.49a2.87 2.87 0 002.86 2.86h17.78a2.87 2.87 0 002.86-2.86V301.6a2.87 2.87 0 00-2.86-2.86zm-19.07 6.87h3.31v3.3h-3.31zm0 7h6.29v.7h-6.29zm7.07 2.33h-7.07v-.7h7.07zm.61-3.27h-7.68V311h7.68zm0-2.79h-3.31v-3.3h3.31zm7.36 6.06h-6.29v-.7h6.29zm1.39-1.63h-7.68v-.7h7.68zm-.72-2.31v.7h-7v-.7zm-7-2.09v-3.3h3.3v3.3zm7.68 0h-3.31v-3.3h3.31zm3.94-5.65h-20.33v-1.79h20.37z" fill="#fdbb30"/><path fill="#fff" d="M356.25 332.73l10.38-3.66 10.37 3.66v2.49l-10.37-3.76-10.38 3.76v-2.49z"/><path fill="#231f20" d="M356.25 349.39l10.38-3.66 10.37 3.66v2.49l-10.37-3.76-10.38 3.76v-2.49z"/></g></svg>