<svg xmlns="http://www.w3.org/2000/svg" data-name="Layer 5" width="601.28" height="359.01"><rect id="backgroundrect" width="100%" height="100%" fill="none"/><defs><style>.cls-1{fill:#fff}.cls-4{fill:#00543c}.cls-5{fill:#fdbb30}.cls-6{fill:#fcfcfc}.cls-7{isolation:isolate}.cls-8{fill:#114a37}.cls-9{fill:#898a89}.cls-12{fill:#2a2a2a}.cls-13{fill:#fcbb30}.cls-14{fill:#a8228e}.cls-15{fill:#007ea5}.cls-16{fill:#008575}.cls-17{fill:#080}.cls-18{fill:#bb3304}.cls-19{fill:#687e31}.cls-20{fill:#c55500}.cls-21{fill:#ccaf74}.cls-23{fill:#124a37}.cls-25{fill:#6b6b6b}.cls-27{fill:#ffb71b}.cls-28{fill:#fdb71b}</style></defs><g class="currentLayer"><path class="cls-1" d="M467.23 273.28a3.86 3.86 0 0 0-2.78-1.18 3.35 3.35 0 0 0 0 6.7 3 3 0 0 0 2.88-2.29h-3v-2h5.39v1.46a5.34 5.34 0 0 1-5.46 5.11 5.57 5.57 0 0 1 0-11.14 6.21 6.21 0 0 1 4.41 1.68z" id="svg_1"/><path class="cls-1" d="M493.2 294.89a4.3 4.3 0 0 0-3.06-1.3 3.69 3.69 0 0 0 0 7.37 3.32 3.32 0 0 0 3.16-2.52H490v-2.16h5.92v1.6a5.87 5.87 0 0 1-6 5.62 6.13 6.13 0 0 1 0-12.25 6.87 6.87 0 0 1 4.85 1.85z" id="svg_2"/><path class="cls-1" d="M453.3 157.53a1.49 1.49 0 0 0-1.47 1.51v19.13a1.5 1.5 0 0 0 1.47 1.52v-19.24a1.34 1.34 0 0 1 1.29-1.41h14.72a1.48 1.48 0 0 0-1.47-1.51z" id="svg_3"/><path class="cls-1" d="M470.59 174.21a.64.64 0 0 1-.4.24l-5.2 1.15a.22.22 0 0 1-.11 0 .76.76 0 0 1-.8-.79l.33-5.29a.72.72 0 0 1 .18-.44l6.9-7.93h-14.66a1.48 1.48 0 0 0-1.47 1.51v19.14a1.48 1.48 0 0 0 1.47 1.51h14.54a1.49 1.49 0 0 0 1.47-1.51v-10.16z" id="svg_4"/><path class="cls-1" d="M478.75 161.65l-2.87-2.37a.46.46 0 0 0-.63.05l-1.15 1.32 3.55 3 1.15-1.37a.42.42 0 0 0-.05-.63z" id="svg_5"/><path class="cls-1" d="M473.26 161.56l-7.43 8.54a.41.41 0 0 0-.11.26l-.2 3.08a.47.47 0 0 0 .48.47h.06l3.08-.67a.42.42 0 0 0 .24-.14l7.45-8.53zm-6.9 11.44l.24-2.65 2.4 2z" id="svg_6"/><path class="cls-1" d="M533.17 106.61a1.5 1.5 0 0 0-1.5-1.5H526c1.11-.42 1.85-.69 2.51-1s1.67-.78 1.67-2c0-1.64-2.86-4.5-4.5-4.5-1.13 0-2.32 1.24-4.5 3.71-2.18-2.46-3.38-3.71-4.5-3.71-1.64 0-4.5 2.86-4.5 4.5 0 1.21 1.16 1.76 1.66 2 .67.32 1.41.59 2.51 1h-5.67a1.49 1.49 0 0 0-1.5 1.5v3h24zm-22.5 13.5a1.49 1.49 0 0 0 1.5 1.5h18a1.49 1.49 0 0 0 1.5-1.5v-9h-21z" id="svg_7"/><path class="cls-1" d="M539.81 168.85a1.69 1.69 0 0 0-3.33-.42h-.05v.82a.46.46 0 0 1-.46.47.47.47 0 0 1-.48-.47v-1.97a1.7 1.7 0 1 0-3.39 0v.71a.47.47 0 0 1-.94 0v-2.71a1.69 1.69 0 0 0-3.38 0v1.48a.47.47 0 0 1-.94 0v-10.53a1.7 1.7 0 1 0-3.39 0v16.22a.47.47 0 0 1-.46.42.45.45 0 0 1-.26-.09l-2.39-2c-1.1-.81-2.68-1.37-3.52-.62s-.06 1.62 1.47 3.59l5.82 7.82.05.05a2.58 2.58 0 0 0 1.71 1h9.99a3 3 0 0 0 2.94-3l.26-2.63.1-1.06.5-5.1v-.22l.18-2z" id="svg_8"/><path class="cls-1" d="M587.8 212.82a2.32 2.32 0 0 1 .73 2.47l4.25-8.9-7.69 6.06.14.11a2.32 2.32 0 0 1 2.57.26z" id="svg_9"/><circle class="cls-1" cx="586.32" cy="214.49" r="1.12" id="svg_10"/><path class="cls-1" d="M584.86 216.38a2.31 2.31 0 0 1-.54-2.92l-4.22 8.82 7.13-5.55a2.31 2.31 0 0 1-2.37-.35z" id="svg_11"/><path class="cls-1" d="M586.45 199.58a14.83 14.83 0 1 0 14.83 14.83 14.83 14.83 0 0 0-14.83-14.83zm0 27.5a12.67 12.67 0 1 1 12.67-12.67 12.67 12.67 0 0 1-12.68 12.67z" id="svg_12"/><path class="cls-1" d="M587.8 212.82a2.32 2.32 0 0 1 .73 2.47l4.25-8.9-7.69 6.06.14.11a2.32 2.32 0 0 1 2.57.26z" id="svg_13"/><circle class="cls-1" cx="586.32" cy="214.49" r="1.12" id="svg_14"/><path class="cls-1" d="M584.86 216.38a2.31 2.31 0 0 1-.54-2.92l-4.22 8.82 7.13-5.55a2.31 2.31 0 0 1-2.37-.35z" id="svg_15"/><path class="cls-1" d="M190.59 139.73l-.55-.55 1.1-1.1.55.55a4.67 4.67 0 0 1 0 6.61l-1.1-1.11a3.1 3.1 0 0 0 0-4.4z" id="svg_17"/><path class="cls-1" d="M188.92 143.09a1.13 1.13 0 0 1-.8-.33 1.17 1.17 0 0 1 0-1.66 1.13 1.13 0 0 1 .8-.33 1.17 1.17 0 0 1 .81.33 1.19 1.19 0 0 1 0 1.66 1.15 1.15 0 0 1-.81.33z" id="svg_18"/><path class="cls-1" d="M187.25 144.13l-1.1 1.11a4.67 4.67 0 0 1 0-6.61l.55-.55 1.1 1.1-.55.55a3.12 3.12 0 0 0 0 4.4z" id="svg_19"/><path class="cls-1" d="M184.5 135.88l1.09 1.09-.55.56a6.23 6.23 0 0 0 0 8.81l-1.1 1.1a7.8 7.8 0 0 1 0-11l.55-.55z" id="svg_20"/><path class="cls-1" d="M192.8 137.53l-.55-.55 1.1-1.1.55.55a7.8 7.8 0 0 1 0 11l-1.1-1.1a6.23 6.23 0 0 0 0-8.8z" id="svg_21"/><path id="svg_22" fill="none" d="M164 134.4l6.94 2.94-6.81 2.69-7.38-2.75"/><path class="cls-1" id="svg_23" d="M133.84 83.82l-7.06-3.75-7.25 3.75 7.25 3.56 7.06-3.56z"/><path class="cls-1" id="svg_24" d="M126.69 89.59l-4.71-2.23v1.44l4.75 2.25v-.06l4.71-2.23v-1.44l-4.75 2.25v.02z"/><path class="cls-1" d="M170 83.49a.76.76 0 0 0-.76-.76h-2.86c.56-.21.93-.35 1.27-.51s.84-.39.84-1a3.16 3.16 0 0 0-2.27-2.27c-.57 0-1.18.62-2.28 1.87-1.1-1.25-1.7-1.87-2.27-1.87a3.15 3.15 0 0 0-2.27 2.27c0 .61.58.89.84 1s.71.3 1.27.51h-2.87a.76.76 0 0 0-.76.76V85H170zm-11.41 6.79a.76.76 0 0 0 .76.75h9.09a.74.74 0 0 0 .75-.75v-4.52h-10.6v4.52z" id="svg_25"/><circle class="cls-1" cx="108.69" cy="81.25" r="3.45" id="svg_26"/><path class="cls-1" d="M103 92.05a1.61 1.61 0 0 1-.44-2.2l2.44-5.51a4.68 4.68 0 0 0 1.32 1.33 7.26 7.26 0 0 0 2.08.55l-3.22 5a1.61 1.61 0 0 1-2.18.83z" id="svg_27"/><path class="cls-1" d="M152.41 83.63l-5.93-3.95a1.21 1.21 0 0 0-1.2 0l-5.93 3.95a.5.5 0 0 0-.25.4.4.4 0 0 0 .07.22.92.92 0 0 0 .78.34h11.86a.91.91 0 0 0 .78-.34.4.4 0 0 0 .07-.22.51.51 0 0 0-.25-.4z" id="svg_28"/><path class="cls-1" d="M139.49 90.63a.64.64 0 0 1 .64-.64H152a.64.64 0 0 1 .63.64v.83h-13.16z" id="svg_29"/><path class="cls-1" id="svg_30" d="M141.6 83.84h1.35v5.44h-1.35z"/><path class="cls-1" id="svg_31" d="M149.54 83.84h1.35v5.44h-1.35z"/><path class="cls-1" id="svg_32" d="M145.57 83.84h1.35v5.44h-1.35z"/><path id="navigateright-5" class="cls-4" d="M173.26 152.41a.38.38 0 0 0-.1-.31.45.45 0 0 0-.3-.11h-16a.46.46 0 0 0-.26.1.47.47 0 0 0 0 .62l8 10a.33.33 0 0 0 .51 0l8-10a.55.55 0 0 0 .1-.31z"/><path id="navigateright-5-2" data-name="navigateright-5" class="cls-5" d="M196.15 152.41a.38.38 0 0 0-.1-.31.47.47 0 0 0-.31-.11h-16a.44.44 0 0 0-.26.1.45.45 0 0 0 0 .62l8 10a.33.33 0 0 0 .51 0l8-10a.63.63 0 0 0 .1-.31z"/><path class="cls-1" d="M323.17 147.61a23.34 23.34 0 1 0 23.33 23.34 23.34 23.34 0 0 0-23.33-23.34zm8.27 24.29s-9.56 7.94-11.13 9.07-1.31-.69-1.31-.69v-19c0-2.25 1.5-.56 1.5-.56l10.94 9.31a1.07 1.07 0 0 1 0 1.87z" id="svg_33"/><path class="cls-1" d="M543.32 199.1a15.31 15.31 0 1 0 15.31 15.31 15.3 15.3 0 0 0-15.31-15.31zm5.43 15.93s-6.28 5.21-7.3 5.95-.86-.45-.86-.45v-12.47c0-1.47 1-.37 1-.37l7.18 6.11a.71.71 0 0 1-.02 1.23z" id="svg_34"/><path class="cls-1" d="M502.75 158.78h-9a9.16 9.16 0 0 0-9.13 9.12v1.43a9.16 9.16 0 0 0 7.13 8.89v5.06s.5 1.94 2.5.06l5.22-4.89h3.28a9.16 9.16 0 0 0 9.13-9.13v-1.42a9.16 9.16 0 0 0-9.13-9.12z" id="svg_35"/><path class="cls-1" d="M569.83 152.77a15.31 15.31 0 1 0 15.31 15.3 15.31 15.31 0 0 0-15.31-15.3zm3.08 24.84h-6.16v-11.16h6.16zm-3.08-12.33a3.09 3.09 0 1 1 3.08-3.08 3.08 3.08 0 0 1-3.08 3.08z" id="svg_36"/><path class="cls-6" d="M190.23 83.28v1.46h-2.32v-.32h-1.56v1h1.75v.93h-1.75v1.16l.67.26v1.27l-4-1.6v-1.29l.69.28v-2H183v-1.15z" id="svg_37"/><path class="cls-6" d="M189.88 79.49h-2.51v-.21h-1.64v.83h2.91a2.56 2.56 0 0 1 1.15.22c.29.15.44.33.44.54v1.19c0 .2-.16.37-.49.5a2.93 2.93 0 0 1-1.16.21H183v-1.3h2.74v.3h1.63v-.89h-2.79a2.73 2.73 0 0 1-1.25-.25c-.32-.17-.49-.36-.49-.58v-1.12c0-.23.2-.36.58-.48a4.24 4.24 0 0 1 1.34-.2h5.12v1.24z" id="svg_38"/><path class="cls-6" d="M191.88 78.16s-.56 0-.56.5v7.49a2.27 2.27 0 0 1-1.19 2.28 15.9 15.9 0 0 1-3.59 1.49 15.89 15.89 0 0 1-3.54-1.49 2.26 2.26 0 0 1-1.19-2.28v-7.49c0-.5-.56-.5-.56-.5h-2.54v2.25h.45s.46 0 .45.4 0 5.18 0 5.18a4.39 4.39 0 0 0 3.18 4.67c2.26.84 3.21 1.45 3.79 1.45s1.54-.6 3.79-1.45a4.41 4.41 0 0 0 3.19-4.67v-5.18a.38.38 0 0 1 .44-.4h.46v-2.25z" id="svg_39"/><g class="cls-7" id="svg_40"><path class="cls-1" d="M499.49 294.28h1.45v2h2v1.45h-2v2h-1.45v-2h-2v-1.45h2z" id="svg_41"/></g><path class="cls-1" d="M440 274.78a6.49 6.49 0 0 0 4.13 6.05 6.12 6.12 0 0 1 0-1.86l.77-3.23a2.31 2.31 0 0 1-.2-1c0-.9.52-1.57 1.18-1.57a.81.81 0 0 1 .82.91 13.29 13.29 0 0 1-.54 2.16 1 1 0 0 0 1 1.18c1.16 0 2.05-1.22 2.05-3a2.56 2.56 0 0 0-2.72-2.64 2.8 2.8 0 0 0-2.93 2.82 2.51 2.51 0 0 0 .48 1.48.2.2 0 0 1 .05.19l-.18.73c0 .12-.1.15-.22.09a2.92 2.92 0 0 1-1.32-2.52 3.94 3.94 0 0 1 4.29-3.93 3.82 3.82 0 0 1 4 3.75c0 2.24-1.41 4-3.37 4a1.75 1.75 0 0 1-1.49-.75l-.4 1.55a7.64 7.64 0 0 1-.81 1.7 6.42 6.42 0 0 0 1.92.29 6.5 6.5 0 1 0-6.5-6.5z" id="svg_42"/><g class="cls-7" id="svg_43"><path class="cls-1" d="M473.13 272.73h1.33v1.82h1.83v1.33h-1.83v1.82h-1.33v-1.82h-1.82v-1.33h1.82z" id="svg_44"/></g><path id="Fill-9" class="cls-8" d="M56.29 216.04c-3.53 0-5.65-2.32-5.65-6v-9.36h2v9.1c0 2.62 1.14 4.37 3.66 4.37s3.73-1.57 3.73-4.3v-9.17h2v9.25c0 3.8-2.18 6.1-5.72 6.1"/><path id="Fill-10" class="cls-8" d="M77.56 215.75l-8-11.72v11.72H67.7v-15.06h1.78l7.74 11.28v-11.28h1.84v15.06h-1.5"/><path id="Fill-11" class="cls-8" d="M85.14 200.69h2v15.06h-2z"/><path id="Fill-12" class="cls-8" d="M98.94 215.82h-1.78l-5.63-14.85 2-.43 4.55 12.53 4.46-12.38h2.1l-5.69 15.13"/><path id="Fill-13" class="cls-8" d="M109 215.75v-15.06h7.88v1.88H111v4.36h4.57l.3 1.88H111v5.06h6.1v1.88H109"/><path id="Fill-14" class="cls-8" d="M126.07 202.5h-1.9v5.17h1.69c1.92 0 3.15-.89 3.15-2.59s-1-2.58-2.94-2.58zm6.07 12.95l-2 .46-4.46-6.51h-1.5v6.35h-2v-15.06h4c3 0 4.85 1.52 4.85 4.28a4.07 4.07 0 0 1-3.19 4.17l4.34 6.31z"/><path id="Fill-15" class="cls-8" d="M140 215.93a8.61 8.61 0 0 1-4.09-1l.3-2.09a7.06 7.06 0 0 0 3.83 1.28 2.3 2.3 0 0 0 2.6-2.29c0-1.37-.59-1.94-2.79-3-2.75-1.29-3.79-2.23-3.79-4.39 0-2.42 1.8-4 4.44-4a6.36 6.36 0 0 1 3.33.85l-.32 2a5.1 5.1 0 0 0-3.07-1.11c-1.67 0-2.41.92-2.41 2s.55 1.7 2.77 2.75c2.84 1.33 3.81 2.34 3.81 4.61 0 2.6-1.88 4.24-4.61 4.24"/><path id="Fill-16" class="cls-8" d="M149.86 200.69h2v15.06h-2z"/><path id="Fill-17" class="cls-8" d="M162.87 202.57v13.18h-2v-13.18h-4.65v-1.88h11.13l.3 1.88h-4.79"/><path id="Fill-18" class="cls-8" d="M177 209.77v6h-2v-6l-5.17-8.8 2-.44 4.19 7.36 4.09-7.2h2.2l-5.31 9.08"/><path id="Fill-19" class="cls-8" d="M197.2 202.28c-2.9 0-4.68 2.31-4.68 5.94s1.8 5.94 4.68 5.94 4.68-2.32 4.68-5.94-1.8-5.94-4.68-5.94zm0 13.76c-4.11 0-6.71-3.15-6.71-7.8s2.65-7.84 6.75-7.84 6.71 3.15 6.71 7.8-2.62 7.84-6.75 7.84z"/><path id="Fill-20" class="cls-8" d="M210.85 202.57v4.6h4.4l.3 1.88h-4.7v6.7h-2v-15.06h7.6v1.88h-5.61"/><path id="Fill-21" class="cls-8" d="M229.62 215.93a8.6 8.6 0 0 1-4.08-1l.3-2.09a7.06 7.06 0 0 0 3.83 1.28 2.3 2.3 0 0 0 2.6-2.29c0-1.37-.6-1.94-2.8-3-2.75-1.29-3.78-2.23-3.78-4.39 0-2.42 1.8-4 4.44-4a6.29 6.29 0 0 1 3.32.85l-.31 2a5.12 5.12 0 0 0-3.07-1.11c-1.67 0-2.41.92-2.41 2s.55 1.7 2.77 2.75c2.83 1.33 3.81 2.34 3.81 4.61 0 2.6-1.89 4.23-4.62 4.23"/><path id="Fill-22" class="cls-8" d="M244 203.07l-2.33 6.35h4.67l-2.34-6.35zm4.73 12.84l-1.67-4.63h-6l-1.65 4.52h-2l5.71-15.13h2l5.63 14.85-1.92.44z"/><path id="Fill-23" class="cls-8" d="M264.52 215.75l-8-11.72v11.72h-1.84v-15.06h1.78l7.74 11.28v-11.28h1.8v15.06h-1.5"/><path id="Fill-24" class="cls-8" d="M280.1 202.57v4.6h4.4l.3 1.88h-4.7v6.7h-2v-15.06h7.6v1.88h-5.6"/><path id="Fill-25" class="cls-8" d="M294.55 202.5h-1.9v5.17h1.69c1.93 0 3.15-.89 3.15-2.59s-1-2.58-2.93-2.58zm6.07 12.95l-2 .46-4.46-6.51h-1.5v6.35h-2v-15.06h4c3 0 4.84 1.52 4.84 4.28a4.07 4.07 0 0 1-3.19 4.17l4.33 6.31z"/><path id="Fill-26" class="cls-8" d="M310.26 203.07l-2.33 6.35h4.68l-2.35-6.35zm4.74 12.84l-1.72-4.63h-6l-1.65 4.52h-2l5.72-15.13h2l5.62 14.85z"/><path id="Fill-27" class="cls-8" d="M331.16 215.75l-8-11.72v11.72h-1.86v-15.06h1.78l7.74 11.28v-11.28h1.85v15.06h-1.51"/><path id="Fill-28" class="cls-8" d="M344.35 216.04c-4.1 0-6.75-3.15-6.75-7.8s2.69-7.84 6.79-7.84a6.85 6.85 0 0 1 4.15 1.25l-.3 2.09a6.11 6.11 0 0 0-3.87-1.46c-3 0-4.72 2.32-4.72 5.94s1.78 5.92 4.72 5.92a6.87 6.87 0 0 0 4.11-1.51l.29 1.94a7.48 7.48 0 0 1-4.42 1.47"/><path id="Fill-29" class="cls-8" d="M353.48 200.69h2v15.06h-2z"/><path id="Fill-30" class="cls-8" d="M364.24 215.93a8.6 8.6 0 0 1-4.08-1l.3-2.09a7.06 7.06 0 0 0 3.82 1.28c1.53 0 2.61-.83 2.61-2.29s-.59-1.94-2.79-3c-2.75-1.29-3.79-2.23-3.79-4.39 0-2.42 1.8-4 4.44-4a6.29 6.29 0 0 1 3.32.85l-.32 2a5.07 5.07 0 0 0-3.06-1.11c-1.67 0-2.42.92-2.42 2s.55 1.7 2.78 2.75c2.83 1.33 3.81 2.34 3.81 4.61 0 2.6-1.89 4.23-4.62 4.23"/><path id="Fill-31" class="cls-8" d="M379.18 216.04c-4.1 0-6.74-3.15-6.74-7.8s2.68-7.84 6.79-7.84a6.89 6.89 0 0 1 4.15 1.25l-.3 2.09a6.16 6.16 0 0 0-3.87-1.46c-3 0-4.72 2.32-4.72 5.94s1.77 5.92 4.72 5.92a6.87 6.87 0 0 0 4.1-1.51l.3 1.94a7.54 7.54 0 0 1-4.43 1.47"/><path id="Fill-32" class="cls-8" d="M393.24 202.28c-2.9 0-4.68 2.31-4.68 5.94s1.8 5.94 4.68 5.94 4.67-2.32 4.67-5.94-1.8-5.94-4.67-5.94zm0 13.76c-4.11 0-6.71-3.15-6.71-7.8s2.65-7.84 6.75-7.84 6.71 3.15 6.71 7.8-2.63 7.84-6.75 7.84z"/><path id="Fill-33" class="cls-9" d="M55.51 242.67c-3 0-4.95-2.3-4.95-5.71s2-5.74 5-5.74a5 5 0 0 1 3 .92l-.22 1.53a4.51 4.51 0 0 0-2.84-1.07c-2.17 0-3.45 1.69-3.45 4.35s1.3 4.33 3.45 4.33a5 5 0 0 0 3-1.1l.22 1.42a5.49 5.49 0 0 1-3.24 1.07"/><path id="Fill-34" class="cls-9" d="M72.61 242.47v-5.09h-5.4v5.09h-1.46v-11h1.46v4.57h5.41v-4.57h1.45v11h-1.46"/><path id="Fill-35" class="cls-9" d="M85 233.17l-1.7 4.66h3.42L85 233.17zm3.48 9.41l-1.26-3.43h-4.38l-1.21 3.32h-1.47l4.19-11.09h1.46l4.12 10.9-1.41.32z"/><path id="Fill-36" class="cls-9" d="M103.32 242.47l-5.88-8.59v8.59h-1.35v-11h1.3l5.68 8.27v-8.27h1.35v11h-1.1"/><path id="Fill-37" class="cls-9" d="M116.5 242.67c-3.39 0-5.2-2.3-5.2-5.71s1.89-5.74 5.08-5.74a5.36 5.36 0 0 1 3.25.95l-.23 1.53a4.7 4.7 0 0 0-3-1.1c-2.34 0-3.56 1.69-3.56 4.35s1.26 4.33 3.7 4.33a4.08 4.08 0 0 0 2.17-.54v-2.93h-2.46l-.2-1.37h4.11v5.16a6.65 6.65 0 0 1-3.62 1.07"/><path id="Fill-38" class="cls-9" d="M127.35 242.47v-11h5.77v1.37h-4.31v3.2h3.35l.22 1.38h-3.57v3.71h4.46v1.37h-5.92"/><path id="Fill-39" class="cls-9" d="M151.89 232.8v9.66h-1.46v-9.66H147v-1.37h8.15l.22 1.37h-3.51"/><path id="Fill-40" class="cls-9" d="M168.24 242.47v-5.09h-5.41v5.09h-1.46v-11h1.46v4.57h5.41v-4.57h1.45v11h-1.45"/><path id="Fill-41" class="cls-9" d="M177.32 242.47v-11h5.76v1.37h-4.31v3.2h3.35l.22 1.38h-3.56v3.71h4.46v1.37h-5.92"/><path id="Fill-42" class="cls-9" d="M207.93 242.47h-1.23l-2.9-8.94-2.89 8.94h-1.21l-3.17-10.83 1.47-.36 2.42 8.78 2.73-8.67h1.45l2.73 8.67 2.37-8.67h1.49l-3.22 11"/><path id="Fill-43" class="cls-9" d="M221.57 232.6c-2.13 0-3.43 1.69-3.43 4.35s1.32 4.35 3.43 4.35 3.42-1.7 3.42-4.35-1.32-4.35-3.42-4.35zm0 10.07c-3 0-4.92-2.3-4.92-5.71s1.94-5.74 5-5.74 4.91 2.31 4.91 5.71-1.92 5.74-4.94 5.74z"/><path id="Fill-44" class="cls-9" d="M236.3 232.76h-1.39v3.79h1.24c1.41 0 2.31-.66 2.31-1.9s-.73-1.89-2.16-1.89zm4.45 9.48l-1.47.34-3.28-4.77h-1.1v4.66h-1.46v-11h2.92c2.18 0 3.55 1.12 3.55 3.13a3 3 0 0 1-2.34 3.06l3.17 4.62z"/><path id="Fill-45" class="cls-9" d="M247.18 242.47v-11h1.46v9.66h3.86l.2 1.37h-5.52"/><path id="Fill-46" class="cls-9" d="M262.4 232.79h-1.69v8.32h1.64c2.57 0 4.13-1.35 4.13-4.16s-1.63-4.16-4.08-4.16zm-.11 9.68h-3v-11h3.1c3.72 0 5.63 2.27 5.63 5.5s-2 5.54-5.69 5.54z"/><path id="Fill-47" class="cls-9" d="M284.27 232.8v3.38h3.22l.22 1.37h-3.44v4.91h-1.46v-11h5.57v1.37h-4.11"/><path id="Fill-48" class="cls-9" d="M297.89 232.76h-1.4v3.79h1.24c1.41 0 2.31-.66 2.31-1.9s-.72-1.89-2.15-1.89zm4.45 9.48l-1.47.34-3.27-4.77h-1.11v4.66H295v-11h3c2.19 0 3.55 1.12 3.55 3.13a3 3 0 0 1-2.34 3.06l3.18 4.62z"/><path id="Fill-49" class="cls-9" d="M313.05 232.6c-2.13 0-3.43 1.69-3.43 4.35s1.32 4.35 3.43 4.35 3.42-1.7 3.42-4.35-1.32-4.35-3.42-4.35zm0 10.07c-3 0-4.91-2.3-4.91-5.71s1.93-5.74 4.94-5.74 4.92 2.31 4.92 5.71-1.93 5.74-5 5.74z"/><path id="Fill-50" class="cls-9" d="M335.19 242.47l-.66-8.78-3.38 8.83h-1.1l-3.38-8.84-.65 8.79h-1.37l.86-11h1.79l3.34 9 3.33-9h1.78l.84 11h-1.4"/><path id="Fill-51" class="cls-9" d="M358.41 242.47v-5.09H353v5.09h-1.46v-11H353v4.57h5.41v-4.57h1.46v11h-1.46"/><path id="Fill-52" class="cls-9" d="M367.41 242.47v-11h5.77v1.37h-4.31v3.2h3.35l.21 1.38h-3.56v3.71h4.46v1.37h-5.92"/><path id="Fill-53" class="cls-9" d="M383 232.76h-1.4v3.79h1.24c1.41 0 2.31-.66 2.31-1.9s-.71-1.89-2.15-1.89zm4.45 9.48l-1.48.34-3.27-4.77h-1.1v4.66h-1.45v-11h2.91c2.18 0 3.55 1.12 3.55 3.13a3 3 0 0 1-2.34 3.06l3.18 4.62z"/><path id="Fill-54" class="cls-9" d="M393.9 242.47v-11h5.76v1.37h-4.31v3.2h3.35l.22 1.38h-3.56v3.71h4.46v1.37h-5.92"/><path id="Fill-55" class="cls-9" d="M50.63 223.28h349.21v.66H50.63z"/><path d="M310.54 98.51a.24.24 0 0 0-.14-.22.27.27 0 0 0-.25 0l-1.71 1.72a5 5 0 1 0 0 7.45.21.21 0 0 0 .07-.15.19.19 0 0 0-.07-.16l-1-1a.22.22 0 0 0-.31 0 3.29 3.29 0 0 1-2.11.79 3.21 3.21 0 0 1 0-6.42 3.14 3.14 0 0 1 2.1.79l-1.34 1.34a.25.25 0 0 0-.06.25.24.24 0 0 0 .22.14h4.35a.23.23 0 0 0 .23-.23v-4.35z" id="svg_45" fill="#fdbb2f"/><path class="cls-5" d="M333 108.28a3 3 0 0 0-2.08.84l-4.92-2.47v-.74l4.94-2.47a3 3 0 1 0-.94-2.16v.37l-4.94 2.47a3 3 0 1 0 0 4.32l4.94 2.47v.37a3 3 0 1 0 3-3z" id="svg_46"/><path class="cls-4" d="M311 113.01a.24.24 0 0 0-.14-.22.27.27 0 0 0-.25 0l-1.71 1.72a5 5 0 1 0 0 7.45.21.21 0 0 0 .07-.15.19.19 0 0 0-.07-.16l-1-1a.22.22 0 0 0-.31 0 3.29 3.29 0 0 1-2.11.79 3.21 3.21 0 0 1 0-6.42 3.14 3.14 0 0 1 2.1.79l-1.34 1.34a.25.25 0 0 0-.06.25.24.24 0 0 0 .22.14h4.35a.23.23 0 0 0 .23-.23v-4.35z" id="svg_47"/><path id="instagram" class="cls-1" d="M16.45 98.28H2.81A2.81 2.81 0 0 0 0 101.09v13.64a2.81 2.81 0 0 0 2.81 2.81h13.64a2.81 2.81 0 0 0 2.81-2.81v-13.64a2.81 2.81 0 0 0-2.81-2.81zm-6.82 6A3.61 3.61 0 1 1 6 107.91a3.61 3.61 0 0 1 3.63-3.63zm7.63 10.83a.41.41 0 0 1-.41.41H2.41a.41.41 0 0 1-.41-.41v-8.42h2.14a5.25 5.25 0 0 0-.13 1.2 5.62 5.62 0 0 0 11.23 0 5.26 5.26 0 0 0-.12-1.2h2.14zm0-12a.4.4 0 0 1-.41.4h-2.41a.4.4 0 0 1-.4-.41v-2.4a.4.4 0 0 1 .4-.41h2.41a.41.41 0 0 1 .41.41v2.41z"/><path class="cls-1" d="M49.26 99.48a1.21 1.21 0 0 0-1.2-1.2H31.2a1.2 1.2 0 0 0-1.2 1.2v16.86a1.22 1.22 0 0 0 1.2 1.2h9.1v-7.49h-2.41v-2.77h2.41v-2.4c0-2.19 1.33-3.66 4-3.66a13.74 13.74 0 0 1 2 .13v2.51h-1.86a1.09 1.09 0 0 0-1.2 1.24v2.18h2.81l-.4 2.77h-2.41v7.49h4.82a1.22 1.22 0 0 0 1.2-1.2V99.48zm19.57 9.21a4.42 4.42 0 1 0-4.42 4.41 4.42 4.42 0 0 0 4.42-4.41zm10.43 0a4.42 4.42 0 1 0-4.41 4.41 4.42 4.42 0 0 0 4.41-4.41z" id="svg_48"/><path id="twitter" class="cls-1" d="M109.26 102.12a7.64 7.64 0 0 1-2.28.63 3.91 3.91 0 0 0 1.74-2.19 8 8 0 0 1-2.49 1 4.09 4.09 0 0 0-2.9-1.24 3.93 3.93 0 0 0-3.94 3.94 4.47 4.47 0 0 0 .08.91 11.18 11.18 0 0 1-8.13-4 3.74 3.74 0 0 0-.54 1.92 3.91 3.91 0 0 0 1.77 3.19 4 4 0 0 1-1.79-.49A3.93 3.93 0 0 0 94 109.7a4 4 0 0 1-1.79.07 3.93 3.93 0 0 0 3.68 2.74 8 8 0 0 1-4.9 1.88 5.86 5.86 0 0 1-.99-.11 11.45 11.45 0 0 0 17.3-9.63v-.52a8 8 0 0 0 2-2z"/><path id="youtube" class="cls-1" d="M129.63 101.28c-9.63 0-9.63 0-9.63 6.82s0 6.82 9.63 6.82 9.63 0 9.63-6.82 0-6.82-9.63-6.82zm-2.41 10.43v-7.22l6 3.61-6 3.61z"/><path class="cls-1" d="M150.4 104.69v12.45h4v-12.45zm10.43 5.22a2.18 2.18 0 0 1 2.23-2.4c1.21 0 2.18.8 2.18 2.81v6.82h4v-7.23c0-3.61-2-5.61-4.82-5.61a4.32 4.32 0 0 0-3.61 2.11l-.13-1.72h-3.95c0 .43.07 2.81.07 2.81v9.63h4v-7.22zm-8.44-7.22a2.21 2.21 0 1 0-2.39-2.21 2.23 2.23 0 0 0 2.39 2.21z" id="svg_49"/><path class="cls-1" d="M211.23 114.05l-5.23-5.27a7 7 0 1 0-2.5 2.5l5.27 5.27a1.17 1.17 0 0 0 .82.34 1.13 1.13 0 0 0 .82-.34l.82-.82a1.18 1.18 0 0 0 0-1.65zm-15.91-8.77a4.65 4.65 0 1 1 4.64 4.64 4.65 4.65 0 0 1-4.64-4.64z" id="svg_50"/><path class="cls-4" d="M255.63 115.28l-5.63-5.69a7.51 7.51 0 1 0-6.5 3.69 7.45 7.45 0 0 0 3.81-1l5.67 5.68a1.27 1.27 0 0 0 1.77 0l.88-.89a1.25 1.25 0 0 0 0-1.77zm-17.13-9.5a5 5 0 1 1 5 5 5 5 0 0 1-5-5z" id="svg_51"/><path d="M279.63 115.28l-5.63-5.69a7.51 7.51 0 1 0-6.5 3.69 7.45 7.45 0 0 0 3.81-1l5.68 5.68a1.25 1.25 0 0 0 .88.36 1.29 1.29 0 0 0 .89-.36l.88-.89a1.27 1.27 0 0 0 0-1.77zm-17.13-9.5a5 5 0 1 1 5 5 5 5 0 0 1-5-5z" id="svg_52" fill="#353535"/><path class="cls-5" d="M232.66 114.05l-5.26-5.27a7 7 0 1 0-2.47 2.47l5.27 5.27a1.17 1.17 0 0 0 1.65 0l.81-.82a1.18 1.18 0 0 0 0-1.65zm-15.91-8.77a4.65 4.65 0 1 1 4.65 4.64 4.65 4.65 0 0 1-4.65-4.64z" id="svg_53"/><path id="up" class="cls-1" d="M260 172.34l1.09 1.09a.16.16 0 0 0 .22 0l2.36-2.37 2.37 2.37a.16.16 0 0 0 .22 0l1.08-1.09a.14.14 0 0 0 0-.22l-3.55-3.56a.17.17 0 0 0-.23 0l-3.56 3.56a.25.25 0 0 0 0 .11.21.21 0 0 0 0 .11z"/><path id="down" class="cls-1" d="M247.39 169.41l-1.09-1.13a.18.18 0 0 0-.22 0l-2.36 2.37-2.37-2.37a.18.18 0 0 0-.22 0l-1.08 1.09a.16.16 0 0 0 0 .22l3.56 3.56a.16.16 0 0 0 .22 0l3.56-3.56a.14.14 0 0 0 0-.11.15.15 0 0 0 0-.11z"/><path id="right" class="cls-1" d="M221.13 168.28l-1.13 1.13a.16.16 0 0 0 0 .22l2.37 2.36-2.37 2.37a.16.16 0 0 0 0 .22l1.09 1.08a.14.14 0 0 0 .22 0l3.56-3.55a.17.17 0 0 0 0-.23l-3.52-3.6a.18.18 0 0 0-.11 0 .21.21 0 0 0-.11 0z"/><path id="left" class="cls-1" d="M204 168.28a.21.21 0 0 1 .11 0l1.09 1.09a.16.16 0 0 1 0 .22l-2.37 2.36 2.37 2.37a.16.16 0 0 1 0 .22l-1.09 1.08a.14.14 0 0 1-.22 0l-3.56-3.55a.17.17 0 0 1 0-.23l3.56-3.56a.25.25 0 0 1 .11 0z"/><path id="up-2" data-name="up" class="cls-12" d="M260 152.34l1.09 1.09a.16.16 0 0 0 .22 0l2.36-2.37 2.37 2.37a.16.16 0 0 0 .22 0l1.08-1.09a.14.14 0 0 0 0-.22l-3.55-3.56a.17.17 0 0 0-.23 0l-3.56 3.56a.25.25 0 0 0 0 .11.21.21 0 0 0 0 .11z"/><path id="down-2" data-name="down" class="cls-12" d="M247.39 149.41l-1.09-1.13a.18.18 0 0 0-.22 0l-2.36 2.37-2.37-2.37a.18.18 0 0 0-.22 0l-1.08 1.09a.16.16 0 0 0 0 .22l3.56 3.56a.16.16 0 0 0 .22 0l3.56-3.56a.14.14 0 0 0 0-.11.15.15 0 0 0 0-.11z"/><path id="right-2" data-name="right" class="cls-12" d="M221.13 148.28l-1.13 1.13a.16.16 0 0 0 0 .22l2.37 2.36-2.37 2.37a.16.16 0 0 0 0 .22l1.09 1.08a.14.14 0 0 0 .22 0l3.56-3.55a.17.17 0 0 0 0-.23l-3.52-3.6a.18.18 0 0 0-.11 0 .21.21 0 0 0-.11 0z"/><path id="left-2" data-name="left" class="cls-12" d="M204 148.28a.21.21 0 0 1 .11 0l1.09 1.09a.16.16 0 0 1 0 .22l-2.37 2.36 2.37 2.37a.16.16 0 0 1 0 .22l-1.09 1.08a.14.14 0 0 1-.22 0l-3.56-3.55a.17.17 0 0 1 0-.23l3.56-3.56a.25.25 0 0 1 .11 0z"/><path class="cls-13" d="M260 132.34l1.09 1.09a.16.16 0 0 0 .22 0l2.36-2.37 2.37 2.37a.16.16 0 0 0 .22 0l1.08-1.09a.14.14 0 0 0 0-.22l-3.55-3.56a.17.17 0 0 0-.23 0l-3.56 3.56a.25.25 0 0 0 0 .11.21.21 0 0 0 0 .11zm-12.65-2.93l-1.05-1.13a.18.18 0 0 0-.22 0l-2.36 2.37-2.37-2.37a.18.18 0 0 0-.22 0l-1.08 1.09a.16.16 0 0 0 0 .22l3.56 3.56a.16.16 0 0 0 .22 0l3.56-3.56a.14.14 0 0 0 0-.11.15.15 0 0 0 0-.11zm-26.22-1.13l-1.13 1.13a.16.16 0 0 0 0 .22l2.37 2.36-2.37 2.37a.16.16 0 0 0 0 .22l1.09 1.08a.14.14 0 0 0 .22 0l3.56-3.55a.17.17 0 0 0 0-.23l-3.52-3.6a.18.18 0 0 0-.11 0 .21.21 0 0 0-.11 0zm-17.13 0a.21.21 0 0 1 .11 0l1.09 1.09a.16.16 0 0 1 0 .22l-2.37 2.36 2.37 2.37a.16.16 0 0 1 0 .22l-1.09 1.08a.14.14 0 0 1-.22 0l-3.56-3.55a.17.17 0 0 1 0-.23l3.56-3.56a.25.25 0 0 1 .11 0z" id="svg_54"/><path id="navigateright-4" class="cls-1" d="M87.11 141.66a.39.39 0 0 0 .21-.08l2-2a.3.3 0 0 0 0-.4L85 134.97l4.26-4.26a.29.29 0 0 0 0-.39l-2-2a.28.28 0 0 0-.4 0l-6.41 6.41a.28.28 0 0 0 0 .4l6.41 6.41a.36.36 0 0 0 .19.08z"/><path class="cls-1" d="M160 135.19a.32.32 0 0 0 .08.21l1.95 1.95a.3.3 0 0 0 .4 0l4.25-4.26 4.26 4.26a.3.3 0 0 0 .4 0l1.95-1.95a.28.28 0 0 0 0-.4l-6.4-6.41a.3.3 0 0 0-.41 0l-6.4 6.41a.27.27 0 0 0-.08.19z" id="svg_55"/><path id="navigateright-5-3" data-name="navigateright-5" class="cls-1" d="M102.23 128.28a.3.3 0 0 0-.2.08l-2 1.95a.28.28 0 0 0 0 .4l4.26 4.26-4.26 4.25a.28.28 0 0 0 0 .4l2 1.95a.28.28 0 0 0 .4 0l6.41-6.4a.28.28 0 0 0 0-.4l-6.41-6.41a.36.36 0 0 0-.2-.08z"/><path id="navigateright-4-2" data-name="navigateright-4" class="cls-12" d="M47.11 141.66a.33.33 0 0 0 .2-.08l2-2a.3.3 0 0 0 0-.4L45 134.97l4.26-4.26a.29.29 0 0 0 0-.39l-2-2a.28.28 0 0 0-.4 0l-6.41 6.41a.28.28 0 0 0 0 .4l6.41 6.41a.36.36 0 0 0 .19.08z"/><path id="navigateright-5-4" data-name="navigateright-5" class="cls-12" d="M62.23 128.28a.32.32 0 0 0-.2.08l-2 1.95a.3.3 0 0 0 0 .4l4.26 4.26-4.26 4.25a.28.28 0 0 0 0 .4l2 1.95a.28.28 0 0 0 .4 0l6.41-6.4a.28.28 0 0 0 0-.4l-6.41-6.41a.36.36 0 0 0-.2-.08z"/><path id="navigateright-4-3" data-name="navigateright-4" class="cls-5" d="M7.11 141.66a.39.39 0 0 0 .21-.08l1.95-2a.3.3 0 0 0 0-.4L5 134.97l4.26-4.26a.29.29 0 0 0 0-.39l-2-2a.27.27 0 0 0-.39 0l-6.36 6.45a.28.28 0 0 0 0 .4l6.41 6.41a.33.33 0 0 0 .19.08z"/><path id="navigateright-5-5" data-name="navigateright-5" class="cls-5" d="M22.23 128.28a.32.32 0 0 0-.2.08l-2 1.95a.3.3 0 0 0 0 .4l4.26 4.26-4.26 4.25a.3.3 0 0 0 0 .4l2 1.95a.28.28 0 0 0 .4 0l6.41-6.4a.28.28 0 0 0 0-.4l-6.41-6.41a.36.36 0 0 0-.2-.08z"/><path id="navigateright-4-4" data-name="navigateright-4" class="cls-4" d="M127.11 141.66a.39.39 0 0 0 .21-.08l2-2a.3.3 0 0 0 0-.4l-4.32-4.21 4.26-4.26a.29.29 0 0 0 0-.39l-2-2a.28.28 0 0 0-.4 0l-6.41 6.41a.28.28 0 0 0 0 .4l6.41 6.41a.36.36 0 0 0 .19.08z"/><path id="navigateright-5-6" data-name="navigateright-5" class="cls-4" d="M142.23 128.28a.3.3 0 0 0-.2.08l-1.95 1.92a.3.3 0 0 0 0 .4l4.26 4.26-4.26 4.25a.3.3 0 0 0 0 .4l1.95 1.95a.28.28 0 0 0 .4 0l6.41-6.4a.28.28 0 0 0 0-.4l-6.41-6.41a.36.36 0 0 0-.19-.08z"/><path id="navigateright-4-5" data-name="navigateright-4" class="cls-14" d="M7.11 161.66a.39.39 0 0 0 .21-.08l1.95-2a.3.3 0 0 0 0-.4L5 154.97l4.26-4.26a.29.29 0 0 0 0-.39l-2-2a.27.27 0 0 0-.39 0l-6.36 6.45a.28.28 0 0 0 0 .4l6.41 6.41a.33.33 0 0 0 .19.08z"/><path id="navigateright-5-7" data-name="navigateright-5" class="cls-14" d="M22.23 148.28a.32.32 0 0 0-.2.08l-2 1.95a.3.3 0 0 0 0 .4l4.26 4.26-4.26 4.25a.3.3 0 0 0 0 .4l2 1.95a.28.28 0 0 0 .4 0l6.41-6.4a.28.28 0 0 0 0-.4l-6.41-6.41a.36.36 0 0 0-.2-.08z"/><path id="navigateright-4-6" data-name="navigateright-4" class="cls-15" d="M47.11 161.66a.33.33 0 0 0 .2-.08l2-2a.3.3 0 0 0 0-.4L45 154.97l4.26-4.26a.29.29 0 0 0 0-.39l-2-2a.28.28 0 0 0-.4 0l-6.41 6.41a.28.28 0 0 0 0 .4l6.41 6.41a.36.36 0 0 0 .19.08z"/><path id="navigateright-5-8" data-name="navigateright-5" class="cls-15" d="M62.23 148.28a.32.32 0 0 0-.2.08l-2 1.95a.3.3 0 0 0 0 .4l4.26 4.26-4.26 4.25a.28.28 0 0 0 0 .4l2 1.95a.28.28 0 0 0 .4 0l6.41-6.4a.28.28 0 0 0 0-.4l-6.41-6.41a.36.36 0 0 0-.2-.08z"/><path id="navigateright-4-7" data-name="navigateright-4" class="cls-16" d="M87.11 161.66a.39.39 0 0 0 .21-.08l2-2a.3.3 0 0 0 0-.4L85 154.97l4.26-4.26a.29.29 0 0 0 0-.39l-2-2a.28.28 0 0 0-.4 0l-6.41 6.41a.28.28 0 0 0 0 .4l6.41 6.41a.36.36 0 0 0 .19.08z"/><path id="navigateright-5-9" data-name="navigateright-5" class="cls-16" d="M102.23 148.28a.3.3 0 0 0-.2.08l-2 1.95a.28.28 0 0 0 0 .4l4.26 4.26-4.26 4.25a.28.28 0 0 0 0 .4l2 1.95a.28.28 0 0 0 .4 0l6.41-6.4a.28.28 0 0 0 0-.4l-6.41-6.41a.36.36 0 0 0-.2-.08z"/><path id="navigateright-4-8" data-name="navigateright-4" class="cls-17" d="M127.11 161.66a.39.39 0 0 0 .21-.08l2-2a.3.3 0 0 0 0-.4l-4.32-4.21 4.26-4.26a.29.29 0 0 0 0-.39l-2-2a.28.28 0 0 0-.4 0l-6.41 6.41a.28.28 0 0 0 0 .4l6.41 6.41a.36.36 0 0 0 .19.08z"/><path id="navigateright-5-10" data-name="navigateright-5" class="cls-17" d="M142.23 148.28a.3.3 0 0 0-.2.08l-1.95 1.92a.3.3 0 0 0 0 .4l4.26 4.26-4.26 4.25a.3.3 0 0 0 0 .4l1.95 1.95a.28.28 0 0 0 .4 0l6.41-6.4a.28.28 0 0 0 0-.4l-6.41-6.41a.36.36 0 0 0-.19-.08z"/><path id="navigateright-4-9" data-name="navigateright-4" class="cls-18" d="M7.11 181.66a.39.39 0 0 0 .21-.08l1.95-2a.3.3 0 0 0 0-.4L5 174.97l4.26-4.26a.29.29 0 0 0 0-.39l-2-2a.27.27 0 0 0-.39 0l-6.36 6.45a.28.28 0 0 0 0 .4l6.41 6.41a.33.33 0 0 0 .19.08z"/><path id="navigateright-5-11" data-name="navigateright-5" class="cls-18" d="M22.23 168.28a.32.32 0 0 0-.2.08l-2 1.95a.3.3 0 0 0 0 .4l4.26 4.26-4.26 4.25a.3.3 0 0 0 0 .4l2 1.95a.28.28 0 0 0 .4 0l6.41-6.4a.28.28 0 0 0 0-.4l-6.41-6.41a.36.36 0 0 0-.2-.08z"/><path id="navigateright-4-10" data-name="navigateright-4" class="cls-19" d="M47.11 181.66a.33.33 0 0 0 .2-.08l2-2a.3.3 0 0 0 0-.4L45 174.97l4.26-4.26a.29.29 0 0 0 0-.39l-2-2a.28.28 0 0 0-.4 0l-6.41 6.41a.28.28 0 0 0 0 .4l6.41 6.41a.36.36 0 0 0 .19.08z"/><path id="navigateright-5-12" data-name="navigateright-5" class="cls-19" d="M62.23 168.28a.32.32 0 0 0-.2.08l-2 1.95a.3.3 0 0 0 0 .4l4.26 4.26-4.26 4.25a.28.28 0 0 0 0 .4l2 1.95a.28.28 0 0 0 .4 0l6.41-6.4a.28.28 0 0 0 0-.4l-6.41-6.41a.36.36 0 0 0-.2-.08z"/><path id="navigateright-4-11" data-name="navigateright-4" class="cls-20" d="M87.11 181.66a.39.39 0 0 0 .21-.08l2-2a.3.3 0 0 0 0-.4L85 174.97l4.26-4.26a.29.29 0 0 0 0-.39l-2-2a.28.28 0 0 0-.4 0l-6.41 6.41a.28.28 0 0 0 0 .4l6.41 6.41a.36.36 0 0 0 .19.08z"/><path id="navigateright-5-13" data-name="navigateright-5" class="cls-20" d="M102.23 168.28a.3.3 0 0 0-.2.08l-2 1.95a.28.28 0 0 0 0 .4l4.26 4.26-4.26 4.25a.28.28 0 0 0 0 .4l2 1.95a.28.28 0 0 0 .4 0l6.41-6.4a.28.28 0 0 0 0-.4l-6.41-6.41a.36.36 0 0 0-.2-.08z"/><path id="navigateright-4-12" data-name="navigateright-4" class="cls-21" d="M127.11 181.66a.39.39 0 0 0 .21-.08l2-2a.3.3 0 0 0 0-.4l-4.32-4.21 4.26-4.26a.29.29 0 0 0 0-.39l-2-2a.28.28 0 0 0-.4 0l-6.41 6.41a.28.28 0 0 0 0 .4l6.41 6.41a.36.36 0 0 0 .19.08z"/><path id="navigateright-5-14" data-name="navigateright-5" class="cls-21" d="M142.23 168.28a.3.3 0 0 0-.2.08l-1.95 1.92a.3.3 0 0 0 0 .4l4.26 4.26-4.26 4.25a.3.3 0 0 0 0 .4l1.95 1.95a.28.28 0 0 0 .4 0l6.41-6.4a.28.28 0 0 0 0-.4l-6.41-6.41a.36.36 0 0 0-.19-.08z"/><path d="M167.11 181.66a.39.39 0 0 0 .21-.08l2-2a.3.3 0 0 0 0-.4l-4.32-4.21 4.26-4.26a.29.29 0 0 0 0-.39l-2-2a.28.28 0 0 0-.4 0l-6.41 6.41a.28.28 0 0 0 0 .4l6.41 6.41a.36.36 0 0 0 .19.08zm15.12-13.38a.3.3 0 0 0-.2.08l-1.95 1.92a.3.3 0 0 0 0 .4l4.26 4.26-4.26 4.25a.3.3 0 0 0 0 .4l1.95 1.95a.28.28 0 0 0 .4 0l6.41-6.4a.28.28 0 0 0 0-.4l-6.41-6.41a.36.36 0 0 0-.19-.08z" id="svg_56" fill="#ded5b4"/><path id="tag" class="cls-1" d="M.24 66.51l4.53 4.53a.82.82 0 0 0 1.16 0l7-7a.25.25 0 0 0 .08-.18v-4.77a.81.81 0 0 0-.81-.81H7.42a.25.25 0 0 0-.18.08l-7 7a.82.82 0 0 0 0 1.15zm8.7-5.39a1.22 1.22 0 1 1 1.22 1.22 1.21 1.21 0 0 1-1.22-1.22z"/><path class="cls-1" d="M51.1 58.28h-9.2a1.9 1.9 0 0 0-1.9 1.9v9.2a1.9 1.9 0 0 0 1.9 1.9h9.2a1.9 1.9 0 0 0 1.9-1.9v-9.2a1.9 1.9 0 0 0-1.9-1.9zm-4.6 4.06a2.44 2.44 0 1 1-2.44 2.44 2.44 2.44 0 0 1 2.44-2.44zm5.15 7.32a.27.27 0 0 1-.27.27h-9.76a.27.27 0 0 1-.27-.27v-5.69h1.44a4.28 4.28 0 0 0-.08.81 3.79 3.79 0 0 0 7.58 0 4.28 4.28 0 0 0-.08-.81h1.44v5.69zm0-8.13a.27.27 0 0 1-.27.27h-1.63a.27.27 0 0 1-.27-.27V59.9a.27.27 0 0 1 .27-.27h1.63a.27.27 0 0 1 .27.27zm14.85-1.35c-6.5 0-6.5 0-6.5 4.6s0 4.6 6.5 4.6 6.5 0 6.5-4.6 0-4.6-6.5-4.6zm-1.62 7v-4.84l4.06 2.44-4.06 2.44zm27.31-7.32H80.81a.82.82 0 0 0-.81.82v8.12a.82.82 0 0 0 .81.82h11.38a.82.82 0 0 0 .81-.82v-8.08a.82.82 0 0 0-.81-.82zm-9.35 1.63a1.22 1.22 0 1 1-1.22 1.22 1.21 1.21 0 0 1 1.22-1.18zm8.53 6.5h-9.75l1.63-2.44 1.9 1.35 3-3.79 3.25 4.88zm20.09-7.08a2.67 2.67 0 0 0 1.18-1.48 5.53 5.53 0 0 1-1.68.65 2.76 2.76 0 0 0-2-.84 2.65 2.65 0 0 0-2.66 2.66 3 3 0 0 0 0 .61 7.58 7.58 0 0 1-5.49-2.73 2.55 2.55 0 0 0-.36 1.29 2.65 2.65 0 0 0 1.28 2.21 2.56 2.56 0 0 1-1.2-.33 2.66 2.66 0 0 0 2.14 2.62 2.83 2.83 0 0 1-.71.1 2.73 2.73 0 0 1-.5 0 2.66 2.66 0 0 0 2.48 1.85 5.39 5.39 0 0 1-3.3 1.26 4.49 4.49 0 0 1-.64 0 7.73 7.73 0 0 0 11.67-6.5v-.35a5.34 5.34 0 0 0 1.33-1.41 5 5 0 0 1-1.54.43zM133 59.09v11.38a.82.82 0 0 1-.81.81h-3.25v-5h1.62l.27-1.88h-1.89v-1.52a.89.89 0 0 1 .2-.62.79.79 0 0 1 .61-.22H131v-1.69a8.42 8.42 0 0 0-1.33-.09 2.78 2.78 0 0 0-2 .67 2.37 2.37 0 0 0-.69 1.8v1.62h-1.63v1.87H127v5.06h-6.14a.82.82 0 0 1-.81-.81V59.09a.82.82 0 0 1 .81-.81h11.38a.82.82 0 0 1 .81.81zm13 5.69a2.85 2.85 0 0 1-.4 1.49 3 3 0 0 1-2.6 1.49 2.94 2.94 0 0 1-1.49-.4 3 3 0 0 1-1.11-1.08 3 3 0 0 1 0-3 3 3 0 0 1 1.09-1.09 2.94 2.94 0 0 1 1.49-.4 3 3 0 0 1 2.58 1.49 2.85 2.85 0 0 1 .44 1.5zm7 0a2.85 2.85 0 0 1-.4 1.49 3 3 0 0 1-1.09 1.09 2.94 2.94 0 0 1-1.49.4 3 3 0 0 1-2.58-1.48 3 3 0 0 1 0-3A3 3 0 0 1 150 61.8a2.94 2.94 0 0 1 1.49.4 3 3 0 0 1 1.11 1.08 2.85 2.85 0 0 1 .4 1.5zm7.27-2H163v8.4h-2.71zm4.33 8.39v-8.4h2.66l.09 1.16a3.58 3.58 0 0 1 1.05-1 2.61 2.61 0 0 1 1.39-.38 3 3 0 0 1 2.35 1 4 4 0 0 1 .86 2.73v4.87h-2.71v-4.6a2.14 2.14 0 0 0-.41-1.43 1.35 1.35 0 0 0-1.06-.47 1.45 1.45 0 0 0-1.08.43 1.63 1.63 0 0 0-.43 1.2v4.87zm-3-9.75a1.58 1.58 0 0 1-1.15-.43 1.43 1.43 0 0 1-.44-1.06 1.38 1.38 0 0 1 .45-1.06 1.7 1.7 0 0 1 1.19-.43 1.59 1.59 0 0 1 1.16.43 1.46 1.46 0 0 1 .45 1.06 1.42 1.42 0 0 1-.45 1.07 1.68 1.68 0 0 1-1.19.42zm31.26.8l-6.16 6.17a.41.41 0 0 1-.3.12.45.45 0 0 1-.26-.12l-3.43-3.44a.45.45 0 0 1-.12-.31.42.42 0 0 1 .12-.3l1-1a.38.38 0 0 1 .3-.13.41.41 0 0 1 .3.13l2.12 2.12 4.85-4.85a.44.44 0 0 1 .3-.12.45.45 0 0 1 .31.12l1 1a.41.41 0 0 1 0 .6zm-.35 3.67l-5 5a1.55 1.55 0 0 1-2.16 0l-5-5a1.5 1.5 0 0 1-.35-1.11 1.46 1.46 0 0 1 .44-1.07l5-5a1.55 1.55 0 0 1 2.16 0l2.24 2.24-3.36 3.37-1.58-1.59a1.2 1.2 0 0 0-1.69 0l-1 1a1.12 1.12 0 0 0-.35.84 1.15 1.15 0 0 0 .35.84l3.43 3.44a1.16 1.16 0 0 0 .56.31h.24a1.18 1.18 0 0 0 .84-.35l5.22-5.22a1.43 1.43 0 0 1 .5 1.19 1.46 1.46 0 0 1-.44 1.08z" id="svg_57"/><path id="rss" class="cls-4" d="M24.06 89.28a2 2 0 1 0-2 2 2 2 0 0 0 2-2zM33 91.01a12.73 12.73 0 0 0-12.73-12.73.27.27 0 0 0-.27.27v1.9a.27.27 0 0 0 .27.27 10.28 10.28 0 0 1 10.29 10.29.27.27 0 0 0 .27.27h1.9a.27.27 0 0 0 .27-.27zm-4.06 0a8.68 8.68 0 0 0-8.67-8.67.27.27 0 0 0-.27.27v1.9a.27.27 0 0 0 .27.27 6.23 6.23 0 0 1 6.23 6.23.27.27 0 0 0 .27.27h1.9a.27.27 0 0 0 .27-.27z"/><path class="cls-23" d="M.24 86.51l4.53 4.53a.82.82 0 0 0 1.16 0l7-7a.25.25 0 0 0 .08-.18v-4.77a.81.81 0 0 0-.81-.81H7.42a.25.25 0 0 0-.18.08l-7 7a.82.82 0 0 0 0 1.15zm8.7-5.39a1.22 1.22 0 1 1 1.22 1.22 1.22 1.22 0 0 1-1.22-1.22z" id="svg_58"/><path d="M71.78 83.75l-5.25-5.25a.75.75 0 0 0-1.06 0l-5.25 5.25a.77.77 0 0 0-.22.53.75.75 0 0 0 .06.29.74.74 0 0 0 .69.46h.75v4.5a.74.74 0 0 0 .75.75h2.25v-3.75h3v3.75h2.25a.74.74 0 0 0 .75-.75v-4.5h.75a.74.74 0 0 0 .69-.46.75.75 0 0 0 .06-.29.77.77 0 0 0-.22-.53z" id="svg_59" style="isolation:isolate" opacity=".8" fill="#6b6b6b"/><path class="cls-1" d="M91.78 83.75l-5.25-5.25a.75.75 0 0 0-1.06 0l-5.25 5.25a.77.77 0 0 0-.22.53.75.75 0 0 0 .06.29.74.74 0 0 0 .69.46h.75v4.5a.74.74 0 0 0 .75.75h2.25v-3.75h3v3.75h2.25a.74.74 0 0 0 .75-.75v-4.5h.75a.74.74 0 0 0 .69-.46.75.75 0 0 0 .06-.29.77.77 0 0 0-.22-.53z" id="svg_60"/><path class="cls-1" d="M53.11 78.28H40.88a.87.87 0 0 0-.88.88v12.23a.87.87 0 0 0 .88.88h12.23a.87.87 0 0 0 .88-.88V79.16a.87.87 0 0 0-.88-.88zm-1.75 12.24h-1.74v-.88a7 7 0 0 0-7-7h-.88v-1.73h.88a8.73 8.73 0 0 1 8.73 8.73v.88zm-3.49 0h-1.75v-.88a3.5 3.5 0 0 0-3.5-3.49h-.87V84.4h.87a5.25 5.25 0 0 1 5.25 5.24v.88zm-4.81 0a1.31 1.31 0 1 1 1.31-1.32 1.32 1.32 0 0 1-1.31 1.32z" id="svg_61"/><path d="M415.18 104.55a.36.36 0 0 0 .08-.35.32.32 0 0 0-.31-.19h-4.87l-2.15-5.52a.31.31 0 0 0-.59 0l-2.14 5.52h-4.88a.33.33 0 0 0-.31.19.36.36 0 0 0 .08.35l3.71 3.7-.94 4.93a.35.35 0 0 0 .14.32.32.32 0 0 0 .35 0l4.28-2.76 4.28 2.76a.3.3 0 0 0 .17 0 .29.29 0 0 0 .18 0 .34.34 0 0 0 .15-.32l-.94-4.93 3.71-3.7zm12.46 4v2.87a.31.31 0 0 1-.18.28.43.43 0 0 1-.14 0 .29.29 0 0 1-.2-.07l-7-5.41a.29.29 0 0 1-.13-.25.28.28 0 0 1 .13-.24l7-5.42a.37.37 0 0 1 .34 0 .32.32 0 0 1 .18.29v2.86c4.77 0 7.48 2.7 7.63 7a.32.32 0 0 1-.24.3H435c-.1 0-.17-.06-.28-.16-1.15-1.43-3.85-2.07-7-2.07zm15.7 2.87a.26.26 0 0 1 .07-.21l1.93-1.92a.3.3 0 0 1 .23-.09h4.93a.32.32 0 0 0 .32-.32v-2.86h-1.6a.33.33 0 0 1-.3-.2.37.37 0 0 1 .08-.35l2.86-2.86a.32.32 0 0 1 .46 0l2.86 2.86a.37.37 0 0 1 .07.35.32.32 0 0 1-.3.2h-1.59v2.86a2.86 2.86 0 0 1-2.86 2.87h-6.84a.32.32 0 0 1-.32-.32zm-3.25-4.86a.36.36 0 0 1-.08-.35.33.33 0 0 1 .31-.19h1.59v-2.87a2.87 2.87 0 0 1 2.86-2.86h6.84a.32.32 0 0 1 .32.32.25.25 0 0 1-.07.21l-1.93 1.92a.3.3 0 0 1-.23.09h-4.93a.32.32 0 0 0-.32.32v2.87h1.6a.32.32 0 0 1 .3.19.36.36 0 0 1-.08.35l-2.86 2.87a.34.34 0 0 1-.46 0l-2.86-2.87z" id="svg_62"/><path id="location" class="cls-25" d="M268 58.28a6 6 0 0 0-6 6c0 4.37 5.08 9.49 5.29 9.71a1 1 0 0 0 1.42 0c.21-.22 5.29-5.34 5.29-9.71a6 6 0 0 0-6-6zm-3 6a3 3 0 1 1 3 3 3 3 0 0 1-3-3z"/><path id="fax" class="cls-25" d="M253 61.28v-2a1 1 0 0 0-1-1h-8a1 1 0 0 0-1 1v2zm0 3a1 1 0 1 1 1 1 1 1 0 0 1-1-1zm2-2h-14a1 1 0 0 0-1 1v7a1 1 0 0 0 1 1h1v-4h12v4h1a1 1 0 0 0 1-1v-7a1 1 0 0 0-1-1zm-12 6v5a1 1 0 0 0 1 1h8a1 1 0 0 0 1-1v-5z"/><path id="phone" class="cls-25" d="M220 61.28c1 5 8 12 13 13 1 0 3-2 3-3a20.87 20.87 0 0 0-4-3c-.5 0-2 1.5-2.5 1.5a12.05 12.05 0 0 1-5-5c0-.5 1.5-2 1.5-2.5-.5-1-2-3.5-3-4-1 0-3 2-3 3z"/><path id="email" class="cls-25" d="M208 66.69l8-5v-.41a1 1 0 0 0-1-1h-14a1 1 0 0 0-1 1v.41zm.27 1a.5.5 0 0 1-.54 0L200 62.87v8.41a1 1 0 0 0 1 1h14a1 1 0 0 0 1-1v-8.41z"/><path class="cls-5" d="M268 78.28a6 6 0 0 0-6 6c0 4.37 5.08 9.49 5.29 9.71a1 1 0 0 0 1.42 0c.21-.22 5.29-5.34 5.29-9.71a6 6 0 0 0-6-6zm-3 6a3 3 0 1 1 3 3 3 3 0 0 1-3-3zm-12-3v-2a1 1 0 0 0-1-1h-8a1 1 0 0 0-1 1v2zm0 3a1 1 0 1 1 1 1 1 1 0 0 1-1-1zm2-2h-14a1 1 0 0 0-1 1v7a1 1 0 0 0 1 1h1v-4h12v4h1a1 1 0 0 0 1-1v-7a1 1 0 0 0-1-1zm-12 6v5a1 1 0 0 0 1 1h8a1 1 0 0 0 1-1v-5zm-23-7c1 5 8 12 13 13 1 0 3-2 3-3a20.87 20.87 0 0 0-4-3c-.5 0-2 1.5-2.5 1.5a12.05 12.05 0 0 1-5-5c0-.5 1.5-2 1.5-2.5-.5-1-2-3.5-3-4-1 0-3 2-3 3zm-12 5.41l8-5v-.41a1 1 0 0 0-1-1h-14a1 1 0 0 0-1 1v.41zm.27 1a.5.5 0 0 1-.54 0L200 82.87v8.41a1 1 0 0 0 1 1h14a1 1 0 0 0 1-1v-8.41z" id="svg_63"/><path class="cls-12" d="M304.67 58.28a4.67 4.67 0 0 0-4.67 4.67 4.48 4.48 0 0 0 .6 2.28l3.81 6.91a.3.3 0 0 0 .26.14.33.33 0 0 0 .26-.14l3.81-6.86a4.66 4.66 0 0 0-4.07-7zm0 6.42a1.75 1.75 0 1 1 1.75-1.75 1.75 1.75 0 0 1-1.75 1.75z" id="svg_64"/><path class="cls-1" d="M304.67 78.28a4.67 4.67 0 0 0-4.67 4.67 4.48 4.48 0 0 0 .6 2.28l3.81 6.91a.3.3 0 0 0 .26.14.33.33 0 0 0 .26-.14l3.81-6.86a4.66 4.66 0 0 0-4.07-7zm0 6.42a1.75 1.75 0 1 1 1.75-1.75 1.75 1.75 0 0 1-1.75 1.75z" id="svg_65"/><path class="cls-4" d="M330.88 58.28A10.9 10.9 0 0 0 320 69.16c0 7.91 9.2 17.2 9.59 17.59a1.78 1.78 0 0 0 1.29.53 1.81 1.81 0 0 0 1.28-.52c.39-.4 9.59-9.69 9.59-17.6a10.9 10.9 0 0 0-10.87-10.88zm-5.44 10.88a5.44 5.44 0 1 1 5.44 5.43 5.43 5.43 0 0 1-5.44-5.43z" id="svg_66"/><path class="cls-12" d="M379 67.7l-9.15-9.15a.91.91 0 0 0-1.29 0 3.52 3.52 0 0 0-.57 4.22l-5.32 5.31a9.52 9.52 0 0 0-3.88-.8c-2 0-4.22.87-4.22 2a.9.9 0 0 0 .27.64l5.05 5-9 10.78-.89 1.85 1.83-.92 10.77-9 5 5a.85.85 0 0 0 .64.27c1.08 0 2-2.26 2-4.21a9.57 9.57 0 0 0-.8-3.89l5.32-5.32a3.51 3.51 0 0 0 4.24-.5.89.89 0 0 0 0-1.28z" id="svg_67"/><g id="Group"><path class="cls-4" d="M301.13 128.28l-1.13 1.13a.16.16 0 0 0 0 .22l2.37 2.36-2.37 2.37a.16.16 0 0 0 0 .22l1.09 1.08a.14.14 0 0 0 .22 0l3.56-3.55a.17.17 0 0 0 0-.23l-3.52-3.6a.17.17 0 0 0-.22 0z" id="svg_68"/><path class="cls-14" d="M311.13 128.28l-1.13 1.13a.16.16 0 0 0 0 .22l2.37 2.36-2.37 2.37a.16.16 0 0 0 0 .22l1.09 1.08a.14.14 0 0 0 .22 0l3.56-3.55a.17.17 0 0 0 0-.23l-3.52-3.6a.17.17 0 0 0-.22 0z" id="svg_69"/><path class="cls-16" d="M321.13 128.28l-1.13 1.13a.16.16 0 0 0 0 .22l2.37 2.36-2.37 2.37a.16.16 0 0 0 0 .22l1.09 1.08a.14.14 0 0 0 .22 0l3.56-3.55a.17.17 0 0 0 0-.23l-3.52-3.6a.17.17 0 0 0-.22 0z" id="svg_70"/><path class="cls-15" d="M331.13 128.28l-1.13 1.13a.16.16 0 0 0 0 .22l2.37 2.36-2.37 2.37a.16.16 0 0 0 0 .22l1.09 1.08a.14.14 0 0 0 .22 0l3.56-3.55a.17.17 0 0 0 0-.23l-3.52-3.6a.17.17 0 0 0-.22 0z" id="svg_71"/><path class="cls-18" d="M341.13 128.28l-1.13 1.13a.16.16 0 0 0 0 .22l2.37 2.36-2.37 2.37a.16.16 0 0 0 0 .22l1.09 1.08a.14.14 0 0 0 .22 0l3.56-3.55a.17.17 0 0 0 0-.23l-3.52-3.6a.17.17 0 0 0-.22 0z" id="svg_72"/><path class="cls-20" d="M351.13 128.28l-1.13 1.13a.16.16 0 0 0 0 .22l2.37 2.36-2.37 2.37a.16.16 0 0 0 0 .22l1.09 1.08a.14.14 0 0 0 .22 0l3.56-3.55a.17.17 0 0 0 0-.23l-3.52-3.6a.17.17 0 0 0-.22 0z" id="svg_73"/><path class="cls-21" d="M361.13 128.28l-1.13 1.13a.16.16 0 0 0 0 .22l2.37 2.36-2.37 2.37a.16.16 0 0 0 0 .22l1.09 1.08a.14.14 0 0 0 .22 0l3.56-3.55a.17.17 0 0 0 0-.23l-3.52-3.6a.17.17 0 0 0-.22 0z" id="svg_74"/><path class="cls-19" d="M371.13 128.28l-1.13 1.13a.16.16 0 0 0 0 .22l2.37 2.36-2.37 2.37a.16.16 0 0 0 0 .22l1.09 1.08a.14.14 0 0 0 .22 0l3.56-3.55a.17.17 0 0 0 0-.23l-3.52-3.6a.17.17 0 0 0-.22 0z" id="svg_75"/><path class="cls-4" d="M304.06 138.28l1.09 1.09a.16.16 0 0 1 0 .22l-2.37 2.36 2.37 2.37a.16.16 0 0 1 0 .22l-1.09 1.08a.14.14 0 0 1-.22 0l-3.56-3.55a.17.17 0 0 1 0-.23l3.56-3.56a.19.19 0 0 1 .23 0z" id="svg_76"/><path class="cls-14" d="M314.06 138.28l1.09 1.09a.16.16 0 0 1 0 .22l-2.37 2.36 2.37 2.37a.16.16 0 0 1 0 .22l-1.09 1.08a.14.14 0 0 1-.22 0l-3.56-3.55a.17.17 0 0 1 0-.23l3.56-3.56a.19.19 0 0 1 .23 0z" id="svg_77"/><path class="cls-16" d="M323.83 138.28l1.08 1.09a.16.16 0 0 1 0 .22l-2.36 2.36 2.36 2.37a.16.16 0 0 1 0 .22l-1.08 1.08a.15.15 0 0 1-.23 0l-3.6-3.51a.17.17 0 0 1 0-.23l3.6-3.6a.19.19 0 0 1 .23 0z" id="svg_78"/><path class="cls-15" d="M334.06 138.28l1.09 1.09a.16.16 0 0 1 0 .22l-2.37 2.36 2.37 2.37a.16.16 0 0 1 0 .22l-1.09 1.08a.14.14 0 0 1-.22 0l-3.56-3.55a.17.17 0 0 1 0-.23l3.56-3.56a.19.19 0 0 1 .23 0z" id="svg_79"/><path class="cls-18" d="M344.06 138.28l1.09 1.09a.16.16 0 0 1 0 .22l-2.37 2.36 2.37 2.37a.16.16 0 0 1 0 .22l-1.09 1.08a.14.14 0 0 1-.22 0l-3.56-3.55a.17.17 0 0 1 0-.23l3.56-3.56a.19.19 0 0 1 .23 0z" id="svg_80"/><path class="cls-20" d="M354.06 138.28l1.09 1.09a.16.16 0 0 1 0 .22l-2.37 2.36 2.37 2.37a.16.16 0 0 1 0 .22l-1.09 1.08a.14.14 0 0 1-.22 0l-3.56-3.55a.17.17 0 0 1 0-.23l3.56-3.56a.19.19 0 0 1 .23 0z" id="svg_81"/><path class="cls-21" d="M364.06 138.28l1.09 1.09a.16.16 0 0 1 0 .22l-2.37 2.36 2.37 2.37a.16.16 0 0 1 0 .22l-1.09 1.08a.14.14 0 0 1-.22 0l-3.56-3.55a.17.17 0 0 1 0-.23l3.56-3.56a.19.19 0 0 1 .23 0z" id="svg_82"/><path class="cls-19" d="M374.06 138.28l1.09 1.09a.16.16 0 0 1 0 .22l-2.37 2.36 2.37 2.37a.16.16 0 0 1 0 .22l-1.09 1.08a.14.14 0 0 1-.22 0l-3.56-3.55a.17.17 0 0 1 0-.23l3.56-3.56a.19.19 0 0 1 .23 0z" id="svg_83"/></g><path class="cls-1" d="M374.25 167.03h6.87l-6.87-6.87zm-8.75-8.75h10l7.5 7.5v15a2.5 2.5 0 0 1-2.5 2.5h-15a2.49 2.49 0 0 1-2.5-2.5v-20a2.49 2.49 0 0 1 2.5-2.5zm11.25 20v-2.5H365.5v2.5zm3.75-5v-2.5h-15v2.5z" id="svg_84"/><path class="cls-23" d="M77.61 283.63c-4.48 0-7.17-2.85-7.17-7.36v-11.52H73v11.2c0 3.22 1.45 5.37 4.64 5.37s4.73-1.93 4.73-5.29v-11.28h2.52v11.38c0 4.68-2.76 7.5-7.25 7.5m27.25-.35l-10.2-14.42v14.42h-2.34v-18.53h2.26l9.82 13.88v-13.88h2.34v18.53h-1.91m10-18.53h2.52v18.53h-2.52v-18.53zm18 18.61h-2.26l-7.14-18.26 2.53-.54 5.77 15.42 5.67-15.23h2.65l-7.22 18.61" id="svg_85"/><path id="Fill-13-2" data-name="Fill-13" class="cls-23" d="M145.7 283.28v-18.53h10v2.31h-7.47v5.37H154l.38 2.31h-6.18v6.23h7.8v2.31h-10.3"/><path id="Fill-14-2" data-name="Fill-14" class="cls-23" d="M167.88 266.98h-2.42v6.36h2.15c2.44 0 4-1.1 4-3.19s-1.26-3.17-3.73-3.17zm7.7 15.92l-2.55.57-5.66-8h-1.91v7.81h-2.52v-18.53h5c3.79 0 6.15 1.88 6.15 5.26a5 5 0 0 1-4 5.13l5.5 7.76z"/><path id="Fill-15-2" data-name="Fill-15" class="cls-23" d="M185.84 283.49a11.19 11.19 0 0 1-5.18-1.2l.37-2.58a9.12 9.12 0 0 0 4.86 1.58c1.94 0 3.31-1 3.31-2.82s-.76-2.39-3.55-3.65c-3.49-1.58-4.81-2.74-4.81-5.39 0-3 2.29-4.89 5.64-4.89a8.31 8.31 0 0 1 4.22 1l-.4 2.53a6.6 6.6 0 0 0-3.9-1.37c-2.12 0-3.06 1.13-3.06 2.5s.7 2.09 3.52 3.38c3.59 1.64 4.83 2.87 4.83 5.67 0 3.19-2.39 5.2-5.85 5.2"/><path id="Fill-16-2" data-name="Fill-16" class="cls-23" d="M198.72 264.75h2.53v18.53h-2.53v-18.53z"/><path id="Fill-17-2" data-name="Fill-17" class="cls-23" d="M215.77 267.06v16.22h-2.52v-16.22h-5.91v-2.31h14.13l.37 2.31h-6.07"/><path id="Fill-18-2" data-name="Fill-18" class="cls-23" d="M234.86 275.92v7.36h-2.52v-7.36l-6.55-10.82 2.52-.53 5.32 9 5.18-8.86h2.79l-6.74 11.17"/><path id="Fill-19-2" data-name="Fill-19" class="cls-23" d="M264.42 266.71c-3.68 0-5.93 2.85-5.93 7.31s2.28 7.3 5.93 7.3 5.94-2.85 5.94-7.3-2.29-7.31-5.94-7.31zm0 16.92c-5.2 0-8.51-3.87-8.51-9.59s3.36-9.64 8.57-9.64 8.52 3.88 8.52 9.59-3.33 9.64-8.56 9.64z"/><path id="Fill-20-2" data-name="Fill-20" class="cls-23" d="M282.14 267.06v5.67h5.59l.37 2.31h-6v8.24h-2.52v-18.53h9.64v2.31h-7.12"/><path class="cls-23" d="M75 316.5a11.13 11.13 0 0 1-5.17-1.22l.37-2.58a9.07 9.07 0 0 0 4.86 1.58c1.94 0 3.31-1 3.31-2.82s-.76-2.39-3.55-3.65c-3.49-1.59-4.8-2.74-4.8-5.4 0-3 2.28-4.89 5.64-4.89a8.16 8.16 0 0 1 4.21 1.05l-.4 2.53a6.57 6.57 0 0 0-3.9-1.37c-2.12 0-3.06 1.13-3.06 2.49s.7 2.1 3.52 3.39c3.6 1.64 4.83 2.87 4.83 5.66 0 3.2-2.39 5.21-5.85 5.21m18.28-15.81l-3 7.81h5.93zm6 15.78l-2.18-5.74h-7.63l-2.09 5.57h-2.56l7.25-18.61h2.53l7.14 18.26-2.44.54zm20.11-.18l-10.18-14.42v14.43h-2.32v-18.52h2.26l9.84 13.88v-13.88h2.33v18.52h-1.9m19.49-16.22v5.66h5.58l.38 2.31h-6v8.25h-2.53v-18.52H146v2.31h-7.11m17.93-.08h-2.41v6.36h2.14c2.45 0 4-1.1 4-3.19s-1.26-3.17-3.73-3.17zm7.71 15.92l-2.55.56-5.67-8h-1.9v7.81h-2.51v-18.52h5c3.79 0 6.15 1.88 6.15 5.26a5 5 0 0 1-4.06 5.13l5.51 7.76zM176 300.69l-3 7.81h5.94l-3-7.81zm6 15.78l-2.17-5.74h-7.66l-2.12 5.55h-2.55l7.25-18.61h2.52l7.15 18.26-2.45.53zm19.71-.18l-10.21-14.42v14.41h-2.34v-18.52h2.26l9.83 13.88v-13.88h2.33v18.52h-1.9m16.46.35c-5.21 0-8.57-3.87-8.57-9.59s3.41-9.64 8.62-9.64a8.88 8.88 0 0 1 5.26 1.53l-.37 2.58a8 8 0 0 0-4.92-1.8c-3.76 0-6 2.84-6 7.3s2.26 7.28 6 7.28a8.8 8.8 0 0 0 5.21-1.86l.38 2.39a9.75 9.75 0 0 1-5.61 1.81m12-18.88h2.52v18.53h-2.52v-18.52zm14.07 18.74a11.1 11.1 0 0 1-5.21-1.21l.37-2.58a9 9 0 0 0 4.86 1.59c1.94 0 3.31-1 3.31-2.82s-.76-2.39-3.55-3.65c-3.49-1.59-4.8-2.74-4.8-5.4 0-3 2.28-4.89 5.64-4.89a8.16 8.16 0 0 1 4.21 1.05l-.4 2.53a6.57 6.57 0 0 0-3.9-1.37c-2.12 0-3.06 1.13-3.06 2.49s.7 2.1 3.52 3.39c3.6 1.66 4.8 2.88 4.8 5.66 0 3.2-2.39 5.21-5.85 5.21m18.82.14c-5.21 0-8.57-3.87-8.57-9.59s3.41-9.64 8.62-9.64a8.94 8.94 0 0 1 5.27 1.53l-.38 2.58a8 8 0 0 0-4.91-1.8c-3.76 0-6 2.84-6 7.3s2.25 7.28 6 7.28a8.83 8.83 0 0 0 5.21-1.86l.37 2.39a9.75 9.75 0 0 1-5.61 1.81m17.69-16.92c-3.68 0-5.93 2.85-5.93 7.3s2.28 7.31 5.93 7.31 5.94-2.85 5.94-7.31-2.29-7.3-5.94-7.3zm0 16.92c-5.21 0-8.52-3.87-8.52-9.59s3.36-9.64 8.57-9.64 8.51 3.87 8.51 9.58-3.32 9.66-8.55 9.66z" id="svg_86"/><path class="cls-9" d="M6 359.01c-3.23 0-5.31-2.39-5.31-5.94s2.11-6 5.34-6a5.55 5.55 0 0 1 3.27.95l-.24 1.6a4.93 4.93 0 0 0-3-1.12c-2.33 0-3.72 1.77-3.72 4.53s1.4 4.51 3.72 4.51a5.52 5.52 0 0 0 3.23-1.14l.23 1.48A6.13 6.13 0 0 1 6 359.01m14.87-.21v-5.3h-5.8v5.3h-1.56v-11.52h1.56v4.76h5.82v-4.76h1.56v11.48h-1.56m10-9.67l-1.83 4.85h3.68zm3.73 9.79l-1.35-3.56h-4.74l-1.3 3.45h-1.58l4.49-11.49h1.57l4.43 11.32-1.52.33zm12.55-.11l-6.31-8.95v8.95h-1.45v-11.49h1.4l6.1 8.6v-8.6h1.44v11.48h-1.18m10.82.22c-3.64 0-5.59-2.39-5.59-5.94s2-6 5.46-6a6 6 0 0 1 3.5 1l-.25 1.6a5.21 5.21 0 0 0-3.27-1.15c-2.51 0-3.83 1.77-3.83 4.53s1.35 4.51 4 4.51a4.51 4.51 0 0 0 2.33-.56v-3.05h-2.66l-.22-1.43h4.41v5.38a7.31 7.31 0 0 1-3.87 1.14m8.23-.21v-11.52h6.19v1.43h-4.64v3.33h3.6l.23 1.43h-3.83v3.86h4.8v1.43h-6.36m19.49-10.05v10.06h-1.56v-10.03h-3.67v-1.46h8.76l.24 1.43h-3.77m14.14 10.06v-5.3H94v5.3h-1.53v-11.49H94v4.76h5.81v-4.76h1.56v11.48h-1.52m6.07 0v-11.48h6.2v1.43h-4.63v3.33h3.59l.24 1.43h-3.83v3.86h4.79v1.43h-6.36m26.27 0h-1.31l-3.12-9.31-3.11 9.31h-1.3L120 347.53l1.53-.34 2.6 9.14 2.93-9h1.56l2.93 9 2.55-9h1.6l-3.47 11.48m11.22-10.27c-2.28 0-3.68 1.77-3.68 4.53s1.42 4.53 3.68 4.53 3.68-1.77 3.68-4.53-1.41-4.53-3.68-4.53zm0 10.49c-3.23 0-5.28-2.39-5.28-5.94s2.08-6 5.31-6 5.28 2.4 5.28 5.94-2.07 6-5.31 6zm12.42-10.32h-1.5v3.95h1.33c1.52 0 2.48-.69 2.48-2s-.78-2-2.31-2zm4.77 9.87l-1.58.35-3.51-5h-1.18v4.85h-1.56v-11.5h3.13c2.34 0 3.81 1.17 3.81 3.26a3.12 3.12 0 0 1-2.52 3.18l3.42 4.81zm3.4.24v-11.54h1.57v10.05h4.14l.22 1.43H164m12.92-10.07h-1.82v8.66h1.77c2.77 0 4.43-1.4 4.43-4.33s-1.75-4.33-4.38-4.33zm-.12 10.08h-3.26v-11.49h3.33c4 0 6 2.36 6 5.72s-2.16 5.77-6.11 5.77zm16.75-10.06v3.57H197l.24 1.43h-3.7v5.12H192v-11.55h6v1.43h-4.41m11.2 0h-1.49v3.95h1.33c1.51 0 2.48-.69 2.48-2s-.78-2-2.32-2zm4.78 9.87l-1.58.35-3.51-5h-1.18v4.85h-1.57v-11.5h3.13c2.35 0 3.81 1.17 3.81 3.26a3.12 3.12 0 0 1-2.51 3.18l3.41 4.81zm7.91-10c-2.28 0-3.68 1.77-3.68 4.53s1.42 4.53 3.68 4.53 3.68-1.77 3.68-4.53-1.41-4.53-3.68-4.53zm0 10.49c-3.23 0-5.28-2.39-5.28-5.94s2.09-6 5.32-6 5.27 2.4 5.27 5.94-2.06 6-5.31 6zm20.13-.21l-.71-9.14-3.63 9.19H232l-3.63-9.19-.7 9.14h-1.47l.92-11.49h1.93l3.58 9.42 3.58-9.42h1.91l.9 11.48h-1.5m18.08 0v-5.3h-5.81v5.3h-1.57v-11.57h1.57v4.76h5.81v-4.76h1.56v11.48h-1.56m6.08 0v-11.48h6.19v1.43h-4.63v3.33h3.6l.23 1.43h-3.83v3.86h4.8v1.43h-6.34m13.16-10.1h-1.49v3.95h1.33c1.51 0 2.48-.69 2.48-2s-.78-2-2.32-2zm4.78 9.87l-1.58.35-3.51-5h-1.18v4.85h-1.57v-11.45h3.13c2.35 0 3.81 1.17 3.81 3.26a3.12 3.12 0 0 1-2.51 3.18l3.41 4.81zm3.32.24v-11.49h6.19v1.43h-4.63v3.33h3.6l.23 1.43h-3.83v3.86h4.8v1.43H283M.69 332.28h288.62v.66H.69v-.66z" id="svg_87"/><path id="Fill-13-3" data-name="Fill-13" class="cls-5" d="M53.55 279.34a1.55 1.55 0 0 0-2.14.23 1.57 1.57 0 0 0-.23 2.14l9.06 9.06-9.06 9.07a1.55 1.55 0 0 0 .23 2.14 1.57 1.57 0 0 0 2.14.23L65 290.77l-11.45-11.43"/><path id="Fill-14-3" data-name="Fill-14" class="cls-5" d="M4.75 290.77l9.06-9.06a1.54 1.54 0 0 0-.24-2.14 1.57 1.57 0 0 0-2.14-.23L0 290.76l11.44 11.43a1.54 1.54 0 0 0 2.14-.23 1.58 1.58 0 0 0 .23-2.15l-9.06-9.05"/><path id="Fill-15-3" data-name="Fill-15" class="cls-5" d="M43.68 309.69a1.57 1.57 0 0 0-2.14-.23l-9 9.06-9.06-9.07a1.54 1.54 0 0 0-2.14.24 1.57 1.57 0 0 0-.23 2.14l11.37 11.45 11.43-11.43a1.55 1.55 0 0 0-.23-2.14"/><path id="Fill-16-3" data-name="Fill-16" class="cls-5" d="M43.92 269.72l-11.43-11.44-11.43 11.44a1.54 1.54 0 0 0 .23 2.14 1.57 1.57 0 0 0 2.14.23l9.06-9.06 9.06 9.06a1.55 1.55 0 0 0 2.14-.23 1.57 1.57 0 0 0 .23-2.14"/><path id="Fill-17-3" data-name="Fill-17" class="cls-5" d="M51.84 294.59a2.74 2.74 0 0 0 .78-2.28H34v18.59a2.72 2.72 0 0 0 2.27-.78 3.11 3.11 0 0 0 1.08-2.36v-9.72l9.56 9.56a1.55 1.55 0 0 0 2.14-.23 1.58 1.58 0 0 0 .24-2.14l-9.57-9.56h9.73a3.16 3.16 0 0 0 2.36-1.08"/><path id="Fill-18-3" data-name="Fill-18" class="cls-5" d="M31 292.28H12.37a2.69 2.69 0 0 0 .77 2.27 3.15 3.15 0 0 0 2.36 1.09h9.72l-9.56 9.55a1.55 1.55 0 0 0 .23 2.14 1.58 1.58 0 0 0 2.14.24L27.6 298v9.73a3.16 3.16 0 0 0 1.08 2.36 2.72 2.72 0 0 0 2.27.78v-18.59"/><path id="Fill-19-3" data-name="Fill-19" class="cls-5" d="M28.68 271.42a3.16 3.16 0 0 0-1.08 2.36v9.72l-9.6-9.56a1.55 1.55 0 0 0-2.14.23 1.57 1.57 0 0 0-.23 2.14l9.56 9.57H15.5a3.13 3.13 0 0 0-2.35 1.08 2.68 2.68 0 0 0-.78 2.27H31v-18.59a2.72 2.72 0 0 0-2.27.78"/><path id="Fill-20-3" data-name="Fill-20" class="cls-5" d="M51.84 286.96a3.16 3.16 0 0 0-2.36-1.08h-9.72l9.56-9.6a1.55 1.55 0 0 0-.23-2.14 1.57 1.57 0 0 0-2.14-.23l-9.56 9.56v-9.69a3.16 3.16 0 0 0-1.08-2.36 2.69 2.69 0 0 0-2.27-.77v18.63h18.58a2.72 2.72 0 0 0-.78-2.27"/><path class="cls-1" d="M350.08 98.42l-3.64 3.65-3.65-3.65a.45.45 0 0 0-.66 0l-2 2a.45.45 0 0 0 0 .66l3.64 3.65-3.64 3.64a.45.45 0 0 0 0 .66l2 2a.45.45 0 0 0 .66 0l3.65-3.64 3.64 3.65a.47.47 0 0 0 .66 0l2-2a.45.45 0 0 0 0-.66l-3.64-3.64 3.64-3.65a.45.45 0 0 0 0-.66l-2-2a.45.45 0 0 0-.66 0z" id="svg_88"/><path class="cls-15" d="M444.81 129.28a4.81 4.81 0 0 0-.87 9.54v1.84a.89.89 0 0 0 .87.87.9.9 0 0 0 .62-.25l2.45-2.38h1.31a4.81 4.81 0 0 0 0-9.62zm-14.83.76l-1.42-.35v-.1a1.31 1.31 0 1 0-2.62 0v.1l-1.42.35a.44.44 0 0 0-.33.43v.87a.44.44 0 0 0 .44.44h5.25a.44.44 0 0 0 .43-.44v-.87a.44.44 0 0 0-.33-.43zm-2.73.43a.88.88 0 1 1 .87-.88.87.87 0 0 1-.87.88zm4.81.43h-.87v.44a1.32 1.32 0 0 1-1.31 1.32h-5.26a1.32 1.32 0 0 1-1.31-1.32v-.44h-.87a.44.44 0 0 0-.44.44v10.5a.44.44 0 0 0 .44.44h9.62a.44.44 0 0 0 .44-.44v-10.5a.44.44 0 0 0-.44-.44zm-18.06-.62h-10.5v1.75H414zm-13.12 0a.88.88 0 1 0 .87.88.87.87 0 0 0-.87-.88zm0 3.5a.88.88 0 1 0 .87.88.87.87 0 0 0-.87-.88zm13.12 0h-10.5v1.75H414zm-13.12 3.5a.88.88 0 1 0 .87.88.87.87 0 0 0-.87-.88zm13.12 0h-10.5v1.75H414zm73-9a7 7 0 1 0 7 7 7 7 0 0 0-7-7zm0 5.5a1.53 1.53 0 1 1 1.53-1.53 1.52 1.52 0 0 1-1.53 1.53zm1.31 5.47a.44.44 0 0 1-.44.44h-1.75a.43.43 0 0 1-.43-.44v-4.37a.44.44 0 0 1 .43-.44h1.75a.44.44 0 0 1 .44.44v4.4zm-14.44-8.22l-2.63-2.62a.43.43 0 0 0-.61 0l-1.23 1.22 3.24 3.24 1.23-1.22a.44.44 0 0 0 0-.62zm-5.09-.78l-8.21 8.22a.47.47 0 0 0-.13.25l-.44 3.06a.46.46 0 0 0 .43.5h.07l3.06-.44a.37.37 0 0 0 .24-.12l8.23-8.21-3.25-3.23zm-7.91 11.15l.44-2.62 2.19 2.19-2.63.43z" id="svg_89"/><path class="cls-1" d="M32.73 59.28h-10a.27.27 0 0 0-.27.27v9.21a.55.55 0 0 1-1.09 0V60.9h-1.1a.27.27 0 0 0-.27.28v7.85a1.61 1.61 0 0 0 1.62 1.62h9.75A1.62 1.62 0 0 0 33 69.03v-9.48a.27.27 0 0 0-.27-.27zm-1.35 4.88H26.5v-2.44h4.88z" id="svg_90"/><path class="cls-13" d="M483 215.95a1.18 1.18 0 0 0-1.7.19 1.36 1.36 0 0 0-.18 1.78l7.17 7.53-7.17 7.53a1.33 1.33 0 0 0 .18 1.78 1.21 1.21 0 0 0 1.7.19l9-9.5-9-9.5m-38.26 9.49l7.17-7.53a1.33 1.33 0 0 0-.19-1.77 1.19 1.19 0 0 0-1.69-.19l-9 9.49 9 9.49a1.18 1.18 0 0 0 1.69-.19 1.36 1.36 0 0 0 .19-1.78l-7.17-7.53m30.5 15.85a1.21 1.21 0 0 0-1.7-.19l-7.16 7.53-7.16-7.53a1.19 1.19 0 0 0-1.7.19 1.36 1.36 0 0 0-.18 1.78l9 9.5 9-9.5a1.33 1.33 0 0 0-.18-1.78m.19-33.49l-9-9.5-9 9.5a1.34 1.34 0 0 0 .19 1.78 1.2 1.2 0 0 0 1.69.19l7.17-7.53 7.16 7.53a1.18 1.18 0 0 0 1.69-.19 1.36 1.36 0 0 0 .19-1.78" id="svg_91"/><path class="cls-13" d="M481.61 228.2a2.33 2.33 0 0 0 .62-1.89h-14.7v15.44a2.06 2.06 0 0 0 1.79-.64 2.7 2.7 0 0 0 .86-2v-8.08l7.56 7.94a1.17 1.17 0 0 0 1.69-.19 1.35 1.35 0 0 0 .19-1.78l-7.57-7.94h7.7a2.4 2.4 0 0 0 1.86-.9m-16.45-1.88h-14.7a2.34 2.34 0 0 0 .62 1.89 2.41 2.41 0 0 0 1.86.89h7.69l-7.56 7.94a1.33 1.33 0 0 0 .18 1.78 1.21 1.21 0 0 0 1.7.2l7.56-7.95v8.09a2.7 2.7 0 0 0 .86 2 2.06 2.06 0 0 0 1.79.64v-15.48m-1.8-16.73a2.71 2.71 0 0 0-.85 2v8.08l-7.56-8a1.18 1.18 0 0 0-1.69.2 1.35 1.35 0 0 0-.19 1.77l7.57 7.95h-7.7a2.4 2.4 0 0 0-1.86.9 2.33 2.33 0 0 0-.62 1.89h14.7v-15.4a2.06 2.06 0 0 0-1.79.64m16.38 12h-7.69l7.56-7.94a1.33 1.33 0 0 0-.18-1.78 1.2 1.2 0 0 0-1.69-.19l-7.57 7.95v-8.09a2.71 2.71 0 0 0-.85-2 2.08 2.08 0 0 0-1.8-.65v15.5h14.7a2.34 2.34 0 0 0-.61-1.89 2.47 2.47 0 0 0-1.87-.9z" id="svg_92"/><path class="cls-16" d="M494 107.28a1.5 1.5 0 0 0-1.5-1.5h-5.67c1.1-.42 1.84-.69 2.51-1 .5-.23 1.66-.78 1.66-2 0-1.64-2.86-4.5-4.5-4.5-1.12 0-2.32 1.24-4.5 3.7-2.18-2.46-3.38-3.7-4.5-3.7-1.64 0-4.5 2.86-4.5 4.5 0 1.21 1.16 1.76 1.66 2 .67.32 1.41.59 2.51 1h-5.67a1.5 1.5 0 0 0-1.5 1.5v3h24zm-22.5 13.5a1.5 1.5 0 0 0 1.5 1.5h18a1.5 1.5 0 0 0 1.5-1.5v-9h-21z" id="svg_93"/><path class="cls-25" d="M395.85 63.43l-5-5a.48.48 0 0 0-.7 0 1.9 1.9 0 0 0-.31 2.3l-2.91 2.91a5.17 5.17 0 0 0-2.13-.44c-1.07 0-2.3.48-2.3 1.08a.49.49 0 0 0 .15.35l2.76 2.76-4.91 5.89-.5 1 1-.5 5.89-4.91 2.76 2.76a.49.49 0 0 0 .35.15c.59 0 1.08-1.23 1.08-2.3a5.2 5.2 0 0 0-.44-2.13l2.91-2.91a1.9 1.9 0 0 0 2.3-.31.47.47 0 0 0 .15-.35.45.45 0 0 0-.15-.35z" id="svg_94"/><path class="cls-4" d="M461.38 63.53h-2.19v-4.37a.87.87 0 0 0-.88-.88h-2.62a.87.87 0 0 0-.88.88v4.37h-2.19a.86.86 0 0 0-.87.87 1 1 0 0 0 .25.63l4.38 4.37a.85.85 0 0 0 .62.26.83.83 0 0 0 .61-.26l4.39-4.37a.89.89 0 0 0 .26-.63.86.86 0 0 0-.88-.87zm.87 7h-10.5v-3.5H450v3.5a1.76 1.76 0 0 0 1.75 1.75h10.5a1.76 1.76 0 0 0 1.75-1.75v-3.5h-1.75z" id="svg_95"/><path class="cls-1" d="M410.47 162.28a1.48 1.48 0 0 0-1.47 1.51v15.14a1.49 1.49 0 0 0 1.47 1.51V165.2a1.34 1.34 0 0 1 1.29-1.41h20.72a1.49 1.49 0 0 0-1.48-1.51z" id="svg_96"/><path class="cls-1" d="M434.53 165.91H414a1.49 1.49 0 0 0-1.47 1.52v15.13a1.48 1.48 0 0 0 1.47 1.51h20.54a1.48 1.48 0 0 0 1.47-1.51v-15.13a1.48 1.48 0 0 0-1.47-1.52zm-4.4 3a3 3 0 1 1-2.93 3 3 3 0 0 1 2.93-3zm-.81 12.1h-14.38l5-10.17a.74.74 0 0 1 .61-.42.74.74 0 0 1 .61.34l2.44 3.78.84-.87a.7.7 0 0 1 .51-.22h.12a.72.72 0 0 1 .54.4s3.31 6.34 3.66 7.15z" id="svg_97"/><path class="cls-5" d="M38.72 213.51a1.12 1.12 0 0 0-1.55.16 1.14 1.14 0 0 0-.16 1.55l6.55 6.55-6.56 6.56a1.13 1.13 0 0 0 .17 1.55 1.15 1.15 0 0 0 1.55.17l8.28-8.27-8.27-8.27m-35.3 8.26l6.57-6.55a1.12 1.12 0 0 0-.17-1.55 1.13 1.13 0 0 0-1.54-.16L0 221.77l8.27 8.27a1.11 1.11 0 0 0 1.54-.17 1.14 1.14 0 0 0 .19-1.59l-6.55-6.55m28.16 13.68a1.14 1.14 0 0 0-1.61-.13l-6.55 6.55-6.51-6.55a1.12 1.12 0 0 0-1.55.17 1.14 1.14 0 0 0-.17 1.55l8.26 8.28 8.26-8.27a1.12 1.12 0 0 0-.16-1.55m.17-28.9l-8.25-8.28-8.26 8.27a1.24 1.24 0 0 0 1.7 1.73l6.55-6.55 6.51 6.55a1.12 1.12 0 0 0 1.55-.17 1.14 1.14 0 0 0 .17-1.55" id="svg_98"/><path class="cls-5" d="M37.48 224.53a2 2 0 0 0 .57-1.64H24.61v13.44a2 2 0 0 0 1.64-.57 2.24 2.24 0 0 0 .78-1.7v-7l6.91 6.91a1.12 1.12 0 0 0 1.55-.16 1.14 1.14 0 0 0 .17-1.55l-6.92-6.98h7a2.25 2.25 0 0 0 1.7-.78m-15.1-1.64H8.94a2 2 0 0 0 .57 1.64 2.24 2.24 0 0 0 1.7.78h7l-6.91 6.91a1.12 1.12 0 0 0 .16 1.55 1.14 1.14 0 0 0 1.55.17l6.99-6.89v7a2.29 2.29 0 0 0 .79 1.7 2 2 0 0 0 1.64.57v-13.4m-1.64-15.1a2.25 2.25 0 0 0-.78 1.7v7l-6.91-6.91a1.12 1.12 0 0 0-1.55.16 1.14 1.14 0 0 0-.17 1.55l6.86 6.99h-7a2.24 2.24 0 0 0-1.7.78 2 2 0 0 0-.57 1.64h13.41v-13.48a2 2 0 0 0-1.64.57m16.74 11.23a2.25 2.25 0 0 0-1.7-.78h-7l6.88-6.96a1.12 1.12 0 0 0-.16-1.55 1.14 1.14 0 0 0-1.55-.16L27 216.53v-7a2.27 2.27 0 0 0-.78-1.71 2 2 0 0 0-1.64-.56v13.44h13.47a2 2 0 0 0-.57-1.64" id="svg_99"/><path class="cls-1" d="M428.11 281.28a3.52 3.52 0 0 1-3.8-3.46v-4.24H423v-1.68a4 4 0 0 0 2.55-3.49.11.11 0 0 1 .1-.1h1.9v3.31h2.59v2h-2.6v4a1.13 1.13 0 0 0 1.19 1.28h.06a3 3 0 0 0 1-.23l.63 1.85a3.42 3.42 0 0 1-2.25.76h-.1m11.93-6.5a6.49 6.49 0 0 0 4.13 6.05 6.12 6.12 0 0 1 0-1.86l.77-3.23a2.31 2.31 0 0 1-.2-1c0-.9.52-1.57 1.18-1.57a.81.81 0 0 1 .82.91 13.29 13.29 0 0 1-.54 2.16 1 1 0 0 0 1 1.18c1.16 0 2.05-1.22 2.05-3a2.56 2.56 0 0 0-2.72-2.64 2.8 2.8 0 0 0-2.93 2.82 2.51 2.51 0 0 0 .48 1.48.2.2 0 0 1 .05.19l-.18.73c0 .12-.1.15-.22.09a2.92 2.92 0 0 1-1.32-2.52 3.94 3.94 0 0 1 4.29-3.93 3.82 3.82 0 0 1 4 3.75c0 2.24-1.41 4-3.37 4a1.75 1.75 0 0 1-1.49-.75l-.4 1.55a7.64 7.64 0 0 1-.81 1.7 6.42 6.42 0 0 0 1.92.29 6.5 6.5 0 1 0-6.5-6.5zm-27-2.9q-.09 1.9-2.65 5.2c-1.77 2.3-3.26 3.44-4.48 3.44-.76 0-1.4-.7-1.93-2.1l-1.05-3.84c-.38-1.4-.8-2.1-1.25-2.1a3.8 3.8 0 0 0-1 .61l-.64-.81c.64-.56 1.28-1.12 1.9-1.69a4.28 4.28 0 0 1 1.93-1.17c1-.09 1.63.6 1.86 2.08s.43 2.59.53 3q.43 2 1 2c.28 0 .68-.43 1.23-1.29a5 5 0 0 0 .87-2q.12-1.11-.87-1.11a2.45 2.45 0 0 0-1 .21q1-3.14 3.66-3.05c1.34 0 2 .91 1.89 2.6m28.65 35.62c-4.08 0-5.63-3-5.63-5.13v-6.28h-1.95v-2.49a5.89 5.89 0 0 0 3.79-5.18.15.15 0 0 1 .14-.12h2.82v4.9h3.85v2.91h-3.87v6a1.68 1.68 0 0 0 1.77 1.89h.08a4.48 4.48 0 0 0 1.55-.33l.92 2.74a5.06 5.06 0 0 1-3.32 1.13h-.15m18.35-9.61a9.64 9.64 0 0 0 6.12 9 9.48 9.48 0 0 1 0-2.76l1.13-4.79a3.48 3.48 0 0 1-.29-1.43c0-1.34.78-2.34 1.75-2.34a1.21 1.21 0 0 1 1.22 1.36 19.57 19.57 0 0 1-.8 3.2 1.39 1.39 0 0 0 1.42 1.74c1.71 0 3-1.8 3-4.41a3.81 3.81 0 0 0-4-3.92 4.17 4.17 0 0 0-4.35 4.18 3.73 3.73 0 0 0 .72 2.2.3.3 0 0 1 .06.28c-.07.3-.23 1-.27 1.09s-.14.21-.32.13a4.32 4.32 0 0 1-1.95-3.73c0-3 2.2-5.83 6.36-5.83a5.65 5.65 0 0 1 5.94 5.56c0 3.32-2.1 6-5 6a2.58 2.58 0 0 1-2.21-1.1l-.6 2.29a11.06 11.06 0 0 1-1.19 2.52 9.63 9.63 0 1 0-6.78-9.2zm-40.75-4.3c-.08 1.88-1.39 4.44-3.93 7.71s-4.83 5.1-6.64 5.1c-1.13 0-2.08-1-2.85-3.11l-1.56-5.7c-.57-2.07-1.19-3.11-1.85-3.11a5.66 5.66 0 0 0-1.51.91l-.91-1.13c.95-.84 1.89-1.67 2.81-2.51a6.44 6.44 0 0 1 2.86-1.73c1.49-.14 2.42.88 2.76 3.08q.57 3.54.78 4.41c.43 2 .91 2.94 1.43 2.94s1-.63 1.81-1.91a7.47 7.47 0 0 0 1.3-2.91c.12-1.1-.32-1.65-1.3-1.65a3.59 3.59 0 0 0-1.45.28c.94-3.1 2.75-4.6 5.42-4.52q3 .09 2.8 3.85" id="svg_100"/><path class="cls-1" d="M428.15 71.41v3.37h-5.4v-.74h-3.61v2.24h4.06v2.16h-4.06v2.68l1.55.62v2.94l-9.28-3.73V78l1.6.64v-4.6h-1.6v-2.63z" id="svg_101"/><path class="cls-1" d="M427.34 62.53h-5.83v-.58h-3.8v1.91h6.75a5.84 5.84 0 0 1 2.65.52c.69.34 1 .76 1 1.24v2.78c0 .45-.38.84-1.14 1.16a6.91 6.91 0 0 1-2.69.48h-12.91v-3h6.36v.69h3.78v-1.96H415a6.45 6.45 0 0 1-2.9-.58c-.77-.39-1.15-.84-1.15-1.35v-2.56c0-.54.45-.83 1.36-1.12a9.86 9.86 0 0 1 3.11-.44h11.88v2.85z" id="svg_102"/><path d="M432 59.44s-1.3 0-1.3 1.18v17.37c0 1.94-.37 4.16-2.76 5.3-3.85 1.85-7.09 3.47-8.32 3.46s-4.46-1.61-8.31-3.46c-2.39-1.14-2.77-3.36-2.77-5.3V60.62c0-1.18-1.3-1.18-1.3-1.18h-5.9v5.23h1.06a.89.89 0 0 1 1 1v12c-.08 3.52.66 8.31 7.39 10.83 5.24 2 7.44 3.37 8.8 3.37s3.56-1.41 8.8-3.37c6.73-2.52 7.47-7.31 7.39-10.83v-12a.9.9 0 0 1 1-1h1.06v-5.23z" id="svg_103" fill="#ffb819"/><path class="cls-27" d="M45.79 16.86a1.34 1.34 0 0 0-1.79.19 1.22 1.22 0 0 0-.19 1.71l7.57 7.26-7.57 7.26a1.21 1.21 0 0 0 .19 1.71 1.36 1.36 0 0 0 1.79.18l9.56-9.15z" id="svg_104"/><path class="cls-27" d="M5 26.01l7.58-7.25a1.2 1.2 0 0 0-.2-1.71 1.36 1.36 0 0 0-1.79-.19L1 26.01l9.56 9.14a1.33 1.33 0 0 0 1.79-.18 1.23 1.23 0 0 0 .2-1.72z" id="svg_105"/><path class="cls-27" d="M37.55 41.16a1.36 1.36 0 0 0-1.79-.19l-7.57 7.25-7.57-7.25a1.34 1.34 0 0 0-1.79.19 1.22 1.22 0 0 0-.19 1.71l9.54 9.16 9.55-9.16a1.2 1.2 0 0 0-.18-1.71z" id="svg_106"/><path class="cls-27" d="M37.75 9.16L28.2 0l-9.55 9.16a1.2 1.2 0 0 0 .19 1.71 1.36 1.36 0 0 0 1.79.19l7.57-7.25 7.57 7.25a1.34 1.34 0 0 0 1.79-.19 1.22 1.22 0 0 0 .19-1.71z" id="svg_107"/><path class="cls-27" d="M44.36 29.07a2.12 2.12 0 0 0 .64-1.79H29.48v14.85a2.34 2.34 0 0 0 1.9-.63 2.44 2.44 0 0 0 .9-1.88v-7.78l8 7.65a1.34 1.34 0 0 0 1.78-.21 1.22 1.22 0 0 0 .19-1.71l-8-7.66h8.13a2.66 2.66 0 0 0 1.98-.84z" id="svg_108"/><path class="cls-27" d="M26.91 27.28H11.37a2.12 2.12 0 0 0 .63 1.79 2.71 2.71 0 0 0 2 .86h8.13l-8 7.65a1.21 1.21 0 0 0 .19 1.7 1.36 1.36 0 0 0 1.79.18l8-7.65v7.79a2.47 2.47 0 0 0 .89 1.9 2.34 2.34 0 0 0 1.9.63z" id="svg_109"/><path class="cls-27" d="M25 10.53a2.47 2.47 0 0 0-.91 1.88v7.78l-8-7.65a1.33 1.33 0 0 0-1.79.19 1.22 1.22 0 0 0-.19 1.71l8 7.66H14a2.66 2.66 0 0 0-2 .86 2.12 2.12 0 0 0-.65 1.82h15.56V9.9a2.34 2.34 0 0 0-1.91.63z" id="svg_110"/><path class="cls-27" d="M44.36 22.96a2.66 2.66 0 0 0-2-.86h-8.09l8-7.66a1.19 1.19 0 0 0-.2-1.71 1.36 1.36 0 0 0-1.79-.18l-8 7.65v-7.79a2.46 2.46 0 0 0-.9-1.89 2.35 2.35 0 0 0-1.9-.62v14.88H45a2.12 2.12 0 0 0-.64-1.82z" id="svg_111"/><path class="cls-1" d="M69.64 19.91c-4.31 0-6.89-2.62-6.89-6.77V2.54h2.42v10.3c0 3 1.4 4.94 4.47 4.94s4.54-1.78 4.54-4.87V2.54h2.42v10.47c0 4.27-2.66 6.9-6.96 6.9z" id="svg_112"/><path class="cls-1" d="M95.56 19.58l-9.77-13.3v13.3h-2.25v-17h2.17l9.44 12.7V2.54h2.24v17z" id="svg_113"/><path class="cls-1" d="M104.8 19.58v-17h2.42v17z" id="svg_114"/><path class="cls-1" d="M121.62 19.66h-2.17l-6.86-16.8 2.41-.49 5.54 14.18 5.44-14h2.56z" id="svg_115"/><path class="cls-1" d="M133.9 19.58v-17h9.6v2.08h-7.17V9.6h5.57l.36 2.13h-5.93v5.73h7.42v2.12z" id="svg_116"/><path class="cls-1" d="M162.1 19.28l-2.45.52-5.45-7.36h-1.83v7.14H150v-17h4.85c3.63 0 5.9 1.73 5.9 4.84 0 2.57-1.57 4.1-3.89 4.72zm-7.41-14.69h-2.32v5.85h2.07c2.34 0 3.84-1 3.84-2.94s-1.21-2.91-3.59-2.91z" id="svg_117"/><path class="cls-1" d="M171.7 19.78a11.07 11.07 0 0 1-5-1.11l.36-2.37a9 9 0 0 0 4.67 1.46c1.85 0 3.17-.94 3.17-2.6s-.72-2.2-3.41-3.36c-3.35-1.46-4.61-2.52-4.61-5 0-2.75 2.19-4.5 5.41-4.5a8.23 8.23 0 0 1 4.05 1L176 5.63a6.46 6.46 0 0 0-3.74-1.26c-2 0-2.94 1-2.94 2.29s.67 1.93 3.38 3.12c3.45 1.5 4.64 2.64 4.64 5.21-.02 2.94-2.34 4.79-5.64 4.79z" id="svg_118"/><path class="cls-1" d="M183.69 19.58v-17h2.43v17z" id="svg_119"/><path class="cls-1" d="M199.56 4.66v14.92h-2.43V4.66h-5.67V2.54H205l.36 2.12z" id="svg_120"/><path class="cls-1" d="M216.74 12.82v6.76h-2.43v-6.76L208 2.86l2.42-.49 5.11 8.32 5-8.15h2.68z" id="svg_121"/><path class="cls-1" d="M241.38 19.91c-5 0-8.18-3.56-8.18-8.82s3.22-8.87 8.23-8.87 8.17 3.55 8.17 8.82-3.19 8.87-8.22 8.87zm0-15.57c-3.53 0-5.7 2.62-5.7 6.72s2.19 6.72 5.7 6.72 5.7-2.62 5.7-6.72-2.17-6.72-5.68-6.72z" id="svg_122"/><path class="cls-1" d="M258 4.66v5.22h5.37l.36 2.12H258v7.58h-2.42v-17h9.26v2.08z" id="svg_123"/><path class="cls-1" d="M280.93 19.78a11.07 11.07 0 0 1-5-1.11l.36-2.37a9 9 0 0 0 4.71 1.46c1.86 0 3.17-.94 3.17-2.6s-.72-2.2-3.41-3.36c-3.35-1.46-4.61-2.52-4.61-5 0-2.75 2.19-4.5 5.42-4.5a8.29 8.29 0 0 1 4.05 1l-.39 2.33a6.46 6.46 0 0 0-3.74-1.26c-2 0-2.94 1-2.94 2.29s.67 1.93 3.38 3.12c3.45 1.5 4.64 2.64 4.64 5.21-.02 2.94-2.32 4.79-5.64 4.79z" id="svg_124"/><path class="cls-1" d="M304.27 19.76l-2.09-5.29h-7.35l-2 5.11h-2.45l7-17.12h2.43l6.81 16.82zM298.5 5.28l-2.84 7.19h5.7z" id="svg_125"/><path class="cls-1" d="M323.47 19.58l-9.78-13.3v13.3h-2.24v-17h2.16l9.45 12.7V2.54h2.24v17z" id="svg_126"/><path class="cls-1" d="M342.45 4.66v5.22h5.37l.36 2.12h-5.73v7.58H340v-17h9.26v2.08z" id="svg_127"/><path class="cls-1" d="M367.48 19.28l-2.45.52-5.44-7.36h-1.84v7.14h-2.42v-17h4.85c3.64 0 5.91 1.73 5.91 4.84 0 2.57-1.58 4.1-3.9 4.72zm-7.4-14.65h-2.33v5.85h2.07c2.35 0 3.84-1 3.84-2.94s-1.21-2.95-3.58-2.95z" id="svg_128"/><path class="cls-1" d="M385 19.76l-2.09-5.29h-7.35l-2 5.11h-2.46l7-17.12h2.42l6.83 16.82zm-5.78-14.48l-2.84 7.19h5.7z" id="svg_129"/><path class="cls-1" d="M404.71 19.58l-9.78-13.3v13.3h-2.24v-17h2.16l9.44 12.7V2.54h2.25v17z" id="svg_130"/><path class="cls-1" d="M420.78 19.91c-5 0-8.23-3.56-8.23-8.82s3.28-8.87 8.28-8.87a8.92 8.92 0 0 1 5.06 1.4L425.53 6a7.86 7.86 0 0 0-4.73-1.66c-3.61 0-5.75 2.62-5.75 6.72s2.17 6.7 5.75 6.7a8.73 8.73 0 0 0 5-1.71l.36 2.2a9.7 9.7 0 0 1-5.38 1.66z" id="svg_131"/><path class="cls-1" d="M431.9 19.58v-17h2.42v17z" id="svg_132"/><path class="cls-1" d="M445 19.78a11.13 11.13 0 0 1-5-1.11l.37-2.37a8.9 8.9 0 0 0 4.66 1.46c1.86 0 3.17-.94 3.17-2.6s-.72-2.2-3.4-3.36c-3.35-1.46-4.62-2.52-4.62-5 0-2.75 2.2-4.5 5.42-4.5a8.23 8.23 0 0 1 4.05 1l-.39 2.33a6.46 6.46 0 0 0-3.74-1.26c-2 0-2.94 1-2.94 2.29s.67 1.93 3.38 3.12c3.46 1.5 4.64 2.64 4.64 5.21.05 2.94-2.24 4.79-5.6 4.79z" id="svg_133"/><path class="cls-1" d="M463.24 19.91c-5 0-8.22-3.56-8.22-8.82s3.27-8.87 8.28-8.87a8.91 8.91 0 0 1 5.05 1.4L468 6a7.83 7.83 0 0 0-4.72-1.66c-3.61 0-5.75 2.62-5.75 6.72s2.17 6.7 5.75 6.7a8.73 8.73 0 0 0 5-1.71l.36 2.2a9.73 9.73 0 0 1-5.4 1.66z" id="svg_134"/><path class="cls-1" d="M480.35 19.91c-5 0-8.18-3.56-8.18-8.82s3.23-8.87 8.23-8.87 8.18 3.55 8.18 8.82-3.2 8.87-8.23 8.87zm0-15.57c-3.53 0-5.7 2.62-5.7 6.72s2.2 6.72 5.7 6.72 5.71-2.62 5.71-6.72-2.18-6.72-5.69-6.72z" id="svg_135"/><path class="cls-1" d="M68.68 50.05c-3.67 0-6-2.61-6-6.46s2.4-6.5 6.06-6.5a6.5 6.5 0 0 1 3.71 1l-.27 1.74a5.72 5.72 0 0 0-3.46-1.21c-2.64 0-4.21 1.91-4.21 4.92s1.59 4.9 4.21 4.9a6.42 6.42 0 0 0 3.64-1.16l.26 1.61a7.1 7.1 0 0 1-3.94 1.16z" id="svg_136"/><path class="cls-1" d="M89.53 49.81v-5.75h-6.59v5.75h-1.78V37.28h1.78v5.18h6.59v-5.18h1.78v12.53z" id="svg_137"/><path class="cls-1" d="M108.92 49.94l-1.53-3.87H102l-1.47 3.74h-1.8l5.1-12.53h1.78l5 12.31zm-4.24-10.66l-2.07 5.27h4.17z" id="svg_138"/><path class="cls-1" d="M127 49.81l-7.16-9.71v9.71h-1.65V37.28h1.59l6.91 9.36v-9.36h1.65v12.53z" id="svg_139"/><path class="cls-1" d="M143 50.05c-4.13 0-6.34-2.61-6.34-6.46s2.3-6.5 6.19-6.5a7 7 0 0 1 4 1.07l-.28 1.74a6 6 0 0 0-3.71-1.25c-2.85 0-4.34 1.91-4.34 4.92s1.53 4.9 4.51 4.9a5.25 5.25 0 0 0 2.65-.61v-3.31h-3l-.24-1.56h5v5.85a8.68 8.68 0 0 1-4.44 1.21z" id="svg_140"/><path class="cls-1" d="M156.26 49.81V37.28h7v1.6H158v3.62h4.08l.27 1.56H158v4.22h5.44v1.55z" id="svg_141"/><path class="cls-1" d="M186.16 38.88v10.93h-1.77V38.88h-4.16v-1.6h9.94l.26 1.56z" id="svg_142"/><path class="cls-1" d="M206.09 49.81v-5.75h-6.59v5.75h-1.77V37.28h1.77v5.18h6.59v-5.18h1.78v12.53z" id="svg_143"/><path class="cls-1" d="M217.16 49.81V37.28h7v1.6h-5.25v3.62H223l.27 1.56h-4.35v4.22h5.44v1.55z" id="svg_144"/><path class="cls-1" d="M254.48 49.81H253l-3.53-10.11-3.53 10.11h-1.48l-3.85-12.25 1.74-.36 2.94 9.93 3.31-9.85h1.78l3.32 9.81 2.89-9.81h1.82z" id="svg_145"/><path class="cls-1" d="M271.08 50.05c-3.66 0-6-2.61-6-6.46s2.37-6.5 6-6.5 6 2.61 6 6.46-2.31 6.5-6 6.5zm0-11.4c-2.59 0-4.17 1.91-4.17 4.92s1.6 4.92 4.17 4.92 4.18-1.92 4.18-4.92-1.59-4.92-4.16-4.92z" id="svg_146"/><path class="cls-1" d="M294.49 49.56l-1.79.38-4-5.39h-1.34v5.26h-1.78V37.28h3.55c2.67 0 4.33 1.27 4.33 3.55a3.43 3.43 0 0 1-2.85 3.46zm-5.42-10.73h-1.7v4.29h1.51c1.72 0 2.81-.74 2.81-2.16s-.88-2.13-2.62-2.13z" id="svg_147"/><path class="cls-1" d="M302.33 49.81V37.28h1.77v11h4.71l.25 1.55z" id="svg_148"/><path class="cls-1" d="M320.75 49.81h-3.7V37.28h3.77c4.54 0 6.87 2.58 6.87 6.23s-2.46 6.3-6.94 6.3zm.13-11h-2.06v9.47h2c3.14 0 5-1.53 5-4.71s-1.95-4.71-4.94-4.71z" id="svg_149"/><path class="cls-1" d="M347.54 38.88v3.82h3.93l.26 1.56h-4.19v5.55h-1.78V37.28h6.79v1.6z" id="svg_150"/><path class="cls-1" d="M369.57 49.56l-1.8.38-4-5.39h-1.34v5.26h-1.77V37.28h3.55c2.66 0 4.33 1.27 4.33 3.55a3.44 3.44 0 0 1-2.86 3.46zm-5.43-10.73h-1.7v4.29H364c1.72 0 2.82-.74 2.82-2.16s-.94-2.13-2.68-2.13z" id="svg_151"/><path class="cls-1" d="M382.6 50.05c-3.66 0-6-2.61-6-6.46s2.36-6.5 6-6.5 6 2.61 6 6.46-2.31 6.5-6 6.5zm0-11.4c-2.59 0-4.18 1.91-4.18 4.92s1.61 4.92 4.18 4.92 4.18-1.92 4.18-4.92-1.59-4.92-4.16-4.92z" id="svg_152"/><path class="cls-1" d="M409.62 49.81l-.81-9.93-4.12 10h-1.35l-4.12-10-.79 9.93h-1.66l1-12.49H400l4.06 10.25 4.07-10.29h2.17l1 12.49z" id="svg_153"/><path class="cls-1" d="M437.92 49.81v-5.75h-6.6v5.75h-1.77V37.28h1.77v5.18h6.6v-5.18h1.77v12.53z" id="svg_154"/><path class="cls-1" d="M448.89 49.81V37.28h7v1.6h-5.25v3.62h4.08l.26 1.56h-4.34v4.22h5.44v1.55z" id="svg_155"/><path class="cls-1" d="M473.34 49.56l-1.8.38-4-5.39h-1.35v5.26h-1.77V37.28H468c2.67 0 4.33 1.27 4.33 3.55a3.43 3.43 0 0 1-2.86 3.46zm-5.42-10.73h-1.71v4.29h1.52c1.71 0 2.81-.74 2.81-2.16s-.89-2.13-2.62-2.13z" id="svg_156"/><path class="cls-1" d="M481.18 49.81V37.28h7v1.6H483v3.62h4l.27 1.56H483v4.22h5.45v1.55z" id="svg_157"/><path class="cls-1" id="svg_158" d="M62.73 28.05h425.69v.74H62.73z"/><path class="cls-13" d="M428.52 212.56a.65.65 0 0 0-.92.1.75.75 0 0 0-.1 1l3.9 4.09-3.9 4.09a.72.72 0 0 0 .1 1 .65.65 0 0 0 .92.1l4.91-5.15-4.91-5.16m-20.76 5.16l3.89-4.09a.73.73 0 0 0-.1-1 .65.65 0 0 0-.92-.1l-4.91 5.15 4.91 5.15a.64.64 0 0 0 .92-.11.72.72 0 0 0 .1-1l-3.89-4.08m16.57 8.57a.66.66 0 0 0-.92-.11l-3.88 4.11-3.89-4.09a.64.64 0 0 0-.92.11.72.72 0 0 0-.1 1l4.9 5.16 4.9-5.16a.71.71 0 0 0-.09-1m.09-18.18l-4.9-5.16-4.91 5.16a.72.72 0 0 0 .1 1 .65.65 0 0 0 .92.11l3.89-4.09 3.89 4.09a.64.64 0 0 0 .92-.11.74.74 0 0 0 .1-1" id="svg_159"/><path class="cls-13" d="M427.79 219.21a1.25 1.25 0 0 0 .34-1h-8v8.38a1.13 1.13 0 0 0 1-.35 1.46 1.46 0 0 0 .47-1.07v-4.38l4.1 4.31a.65.65 0 0 0 .92-.1.74.74 0 0 0 .1-1l-4.11-4.31h4.18a1.31 1.31 0 0 0 1-.49m-8.93-1h-8a1.26 1.26 0 0 0 .33 1 1.31 1.31 0 0 0 1 .49h4.17l-4.1 4.31a.72.72 0 0 0 .1 1 .66.66 0 0 0 .92.11l4.1-4.32v4.39a1.51 1.51 0 0 0 .47 1.07 1.13 1.13 0 0 0 1 .35v-8.38m-1-9.08a1.43 1.43 0 0 0-.47 1.06v4.38l-4.1-4.31a.64.64 0 0 0-.92.11.74.74 0 0 0-.1 1l4.11 4.31h-4.18a1.31 1.31 0 0 0-1 .49 1.28 1.28 0 0 0-.33 1h8v-8.39a1.12 1.12 0 0 0-1 .36m8.89 6.51h-4.17l4.1-4.31a.71.71 0 0 0-.1-1 .66.66 0 0 0-.92-.11l-4.1 4.32v-4.39a1.43 1.43 0 0 0-.47-1.06 1.12 1.12 0 0 0-1-.36v8.39h8a1.26 1.26 0 0 0-.34-1 1.31 1.31 0 0 0-1-.49z" id="svg_160"/><path class="cls-28" d="M489.76 332a.57.57 0 0 0-.79.08.6.6 0 0 0-.09.8l3.36 3.35-3.36 3.36a.64.64 0 0 0 .88.88l4.24-4.19z" id="svg_161"/><path class="cls-28" d="M471.68 336.28l3.32-3.4a.64.64 0 0 0-.88-.88l-4.2 4.28 4.24 4.24a.57.57 0 0 0 .79-.09.59.59 0 0 0 .09-.79z" id="svg_162"/><path class="cls-28" d="M486.11 343.28a.59.59 0 0 0-.8-.08l-3.31 3.31-3.36-3.35a.56.56 0 0 0-.79.08.59.59 0 0 0-.09.8l4.24 4.24 4.23-4.23a.58.58 0 0 0-.12-.77z" id="svg_163"/><path class="cls-28" d="M486.2 328.43l-4.2-4.24-4.24 4.24a.64.64 0 0 0 .88.88l3.36-3.36 3.36 3.36a.57.57 0 0 0 .79-.09.59.59 0 0 0 .05-.79z" id="svg_164"/><path class="cls-28" d="M489.13 337.65a1 1 0 0 0 .29-.85h-6.89v6.89a1 1 0 0 0 .84-.29 1.13 1.13 0 0 0 .4-.87v-3.6l3.55 3.54a.57.57 0 0 0 .79-.09.58.58 0 0 0 .08-.79l-3.54-3.54h3.6a1.19 1.19 0 0 0 .88-.4z" id="svg_165"/><path class="cls-28" d="M481.39 336.8h-6.89a1 1 0 0 0 .29.85 1.18 1.18 0 0 0 .87.4h3.61l-3.55 3.54a.57.57 0 0 0 .09.79.57.57 0 0 0 .79.09l3.55-3.55v3.61a1.13 1.13 0 0 0 .4.87 1 1 0 0 0 .84.29z" id="svg_166"/><path class="cls-28" d="M480.55 329.06a1.15 1.15 0 0 0-.4.88v3.6L476.6 330a.56.56 0 0 0-.79.08.59.59 0 0 0-.08.8l3.54 3.54h-3.61a1.18 1.18 0 0 0-.87.4 1 1 0 0 0-.29.84h6.89v-6.88a1 1 0 0 0-.84.28z" id="svg_167"/><path class="cls-28" d="M489.13 334.82a1.19 1.19 0 0 0-.88-.4h-3.6l3.55-3.54a.64.64 0 0 0-.88-.88l-3.55 3.54v-3.6a1.15 1.15 0 0 0-.4-.88 1 1 0 0 0-.84-.28v6.88h6.89a1 1 0 0 0-.29-.84z" id="svg_168"/><path class="cls-1" d="M395.26 347.28v-10.17c0-1.53-.56-2.55-2.18-2.55-1.47 0-2.87 1-4.21 2.4v10.32h-2.78v-10.17c0-1.53-.56-2.55-2.18-2.55s-2.87 1-4.21 2.4v10.32h-2.78v-14.91h2.22l.34 2.15a7.86 7.86 0 0 1 5.18-2.46c2.18 0 3.36.94 3.92 2.46a7.9 7.9 0 0 1 5.24-2.46c2.84 0 4.21 1.68 4.21 4.37v10.85z" id="svg_169"/><path class="cls-1" d="M408.2 348.81c-1.22 3.3-2.84 4.11-5 4.11a5.08 5.08 0 0 1-1.19-.12l-.4-2.53a6 6 0 0 0 1.46.22c1.25 0 2.09-.59 2.69-2.18l.37-1-5.43-14.72 2.81-.44 4 11.79 3.9-11.57h2.9z" id="svg_170"/><path class="cls-1" d="M425.69 347.65c-5.2 0-8.32-3.3-8.32-8.54v-13.38h2.93v13c0 3.75 1.68 6.24 5.39 6.24s5.49-2.24 5.49-6.14v-13.1h2.93v13.22c0 5.43-3.21 8.7-8.42 8.7z" id="svg_171"/><path class="cls-1" d="M444.15 347.5a12.88 12.88 0 0 1-6-1.41l.43-3a10.55 10.55 0 0 0 5.65 1.84c2.24 0 3.83-1.19 3.83-3.27s-.87-2.78-4.11-4.25c-4.06-1.84-5.59-3.18-5.59-6.26 0-3.47 2.65-5.68 6.55-5.68a9.51 9.51 0 0 1 4.9 1.22l-.47 2.93a7.59 7.59 0 0 0-4.52-1.59c-2.46 0-3.56 1.31-3.56 2.9s.81 2.43 4.09 3.93c4.18 1.9 5.61 3.33 5.61 6.58.04 3.72-2.78 6.06-6.81 6.06z" id="svg_172"/><path class="cls-1" d="M458 328.41v6.58h6.49l.43 2.68H458v9.61h-3v-21.55h11.19v2.68z" id="svg_173"/></g></svg>