<svg xmlns="http://www.w3.org/2000/svg" data-name="color bg copy" width="209" height="157.84"><rect id="backgroundrect" width="100%" height="100%" x="0" y="0" fill="none" stroke="none"/><defs><style>.cls-2{fill:#fff}.cls-8{isolation:isolate}.cls-13{fill:#6b6b6b}</style></defs><g class="currentLayer"><path id="svg_1" fill="#eb821e" d="M0 0h40v40H0z"/><path class="cls-2" d="M20 14a6 6 0 106 6 6 6 0 00-6-6zm0 9.94A3.91 3.91 0 1123.91 20 3.91 3.91 0 0120 23.91z" id="svg_2"/><circle class="cls-2" cx="26.27" cy="13.74" r="1.41" id="svg_3"/><path id="svg_6" fill="#3b5998" d="M42.32 0h40v40h-40z"/><path id="svg_4" data-name="svg 4" class="cls-2" d="M73 10.64a1.35 1.35 0 00-1.32-1.34H53a1.35 1.35 0 00-1.34 1.34v18.73A1.34 1.34 0 0053 30.7h10.1v-8.32h-2.71V19.3h2.67v-2.66c0-2.44 1.49-4.07 4.42-4.07a14.79 14.79 0 012.2.15v2.78h-2a1.22 1.22 0 00-1.34 1.38v2.42h3.13L69 22.38h-2.67v8.32h5.35A1.35 1.35 0 0073 29.36V10.64z"/><path id="svg_7" fill="#1da1f2" d="M84.64 0h40v40h-40z"/><path id="twitter" class="cls-2" d="M116.45 13.36a9 9 0 01-2.53.7 4.38 4.38 0 001.93-2.44 8.77 8.77 0 01-2.77 1.07 4.5 4.5 0 00-3.22-1.38 4.37 4.37 0 00-4.38 4.38 4.75 4.75 0 00.09 1 12.52 12.52 0 01-9-4.5 4.19 4.19 0 00-.59 2.13 4.36 4.36 0 002 3.63 4.4 4.4 0 01-2-.54 4.38 4.38 0 003.52 4.31 4.47 4.47 0 01-2 .07 4.39 4.39 0 004.09 3 8.89 8.89 0 01-5.5 2.21 7.17 7.17 0 01-1-.07 12.71 12.71 0 0019.22-10.7v-.58a8.9 8.9 0 002.18-2.27z"/><path id="svg_8" fill="#b00" d="M126.77 0h40v40h-40z"/><path id="youtube" class="cls-2" d="M146.77 12.43c-10.7 0-10.7 0-10.7 7.57s0 7.58 10.7 7.58 10.7 0 10.7-7.58 0-7.57-10.7-7.57zM144.1 24v-8l6.69 4-6.69 4z"/><path id="svg_9" fill="#007bb6" d="M0 42.13h40v40H0z"/><path id="svg_5" data-name="svg 5" class="cls-2" d="M9.75 58.79v13.82h4.45V58.79zm11.59 5.8a2.42 2.42 0 012.48-2.68c1.33 0 2.42.89 2.42 3.12v7.58h4.46v-8c0-4-2.22-6.24-5.35-6.24a4.77 4.77 0 00-4 2.35l-.15-1.91h-4.4c0 .47.08 3.12.08 3.12v10.7h4.46v-8zm-9.38-8a2.46 2.46 0 100-4.9 2.46 2.46 0 10-.08 4.9z"/><path id="svg_10" fill="#dd5044" d="M169 42.13h40v40h-40z"/><path class="cls-2" d="M189.79 58.47a6.35 6.35 0 00-4.57-1.94 5.51 5.51 0 000 11 5 5 0 004.78-3.75h-4.9v-3.29h8.83v2.4a8.76 8.76 0 01-9 8.39 9.15 9.15 0 010-18.29 10.23 10.23 0 017.25 2.76z" id="svg_11"/><g class="cls-8" id="svg_12"><path class="cls-2" d="M199.19 57.62h2.17v3h3v2.17h-3v3h-2.17v-3h-3v-2.22h3z" id="svg_13"/></g><path id="svg_14" fill="#35465c" d="M84.64 42.13h40v40h-40z"/><path class="cls-2" d="M106.92 72.81c-4.54 0-6.26-3.34-6.26-5.7v-7H98.5v-2.74a6.52 6.52 0 004.2-5.75.16.16 0 01.16-.16H106v5.44h4.28v3.23H106v6.65a1.87 1.87 0 002 2.1 5.19 5.19 0 001.72-.36l1 3c-.39.57-2.13 1.23-3.7 1.25h-.16" id="svg_15"/><path id="svg_16" fill="#bd081c" d="M126.77 42.13h40v40h-40z"/><path class="cls-2" d="M136.07 62.14a10.69 10.69 0 006.81 10 10.22 10.22 0 010-3.07c.2-.83 1.26-5.32 1.26-5.32a3.86 3.86 0 01-.32-1.59c0-1.48.86-2.6 1.93-2.6a1.35 1.35 0 011.39 1.44 21.66 21.66 0 01-.89 3.56 1.56 1.56 0 001.59 1.94c1.9 0 3.36-2 3.36-4.9a4.22 4.22 0 00-4.47-4.36 4.63 4.63 0 00-4.83 4.65 4.15 4.15 0 00.79 2.44.34.34 0 01.08.31c-.08.33-.26 1.06-.3 1.21s-.16.24-.36.14c-1.34-.62-2.17-2.57-2.17-4.14 0-3.38 2.45-6.48 7.07-6.48a6.29 6.29 0 016.6 6.18c0 3.69-2.33 6.66-5.56 6.66A2.86 2.86 0 01145.6 67s-.53 2-.67 2.54a12.14 12.14 0 01-1.32 2.81 10.7 10.7 0 10-7.54-10.22z" id="svg_17"/><path id="svg_18" fill="#1ab7ea" d="M169 0h40v40h-40z"/><path class="cls-2" d="M198.58 15q-.15 3.12-4.37 8.56-4.36 5.67-7.38 5.67-1.87 0-3.17-3.46l-1.73-6.33c-.64-2.3-1.32-3.46-2.06-3.46a6.58 6.58 0 00-1.68 1l-1-1.31c1.05-.92 2.09-1.85 3.12-2.78 1.41-1.22 2.47-1.86 3.17-1.92 1.67-.16 2.69 1 3.08 3.41.41 2.63.7 4.27.86 4.91q.72 3.27 1.59 3.27c.44 0 1.12-.71 2-2.13a8.4 8.4 0 001.45-3.23c.12-1.22-.36-1.83-1.45-1.83a4 4 0 00-1.58.35c1.05-3.44 3.06-5.12 6-5 2.2.06 3.23 1.49 3.11 4.28" id="svg_19"/><path id="svg_20" fill="#a8228e" d="M42.32 42.13h40v40h-40z"/><path class="cls-2" d="M61.43 63.25a4.91 4.91 0 10-4.91 4.9 4.91 4.91 0 004.91-4.9z" id="svg_21"/><path class="cls-2" d="M73 63.25a4.91 4.91 0 10-4.9 4.9 4.91 4.91 0 004.9-4.9z" id="svg_22"/><path class="cls-2" d="M20 10.38c3.14 0 3.51 0 4.75.07a6.42 6.42 0 012.17.4 3.59 3.59 0 011.35.88 3.48 3.48 0 01.88 1.35 6.63 6.63 0 01.41 2.18c.05 1.24.07 1.61.07 4.74s0 3.51-.07 4.75a6.61 6.61 0 01-.41 2.17 3.91 3.91 0 01-2.23 2.23 6.61 6.61 0 01-2.17.41c-1.24.05-1.61.07-4.75.07s-3.5 0-4.74-.07a6.63 6.63 0 01-2.18-.41 3.48 3.48 0 01-1.35-.88 3.59 3.59 0 01-.88-1.35 6.42 6.42 0 01-.4-2.17c-.06-1.24-.07-1.61-.07-4.75s0-3.5.07-4.74a6.44 6.44 0 01.4-2.18 3.91 3.91 0 012.23-2.23 6.44 6.44 0 012.18-.4c1.24-.06 1.61-.07 4.74-.07m0-2.12c-3.19 0-3.59 0-4.84.07a8.7 8.7 0 00-2.85.55 6 6 0 00-3.43 3.43 8.7 8.7 0 00-.55 2.85c-.05 1.25-.07 1.65-.07 4.84s0 3.59.07 4.84a8.7 8.7 0 00.55 2.85 5.77 5.77 0 001.35 2.08 5.86 5.86 0 002.08 1.35 8.7 8.7 0 002.85.55c1.25.06 1.65.07 4.84.07s3.59 0 4.84-.07a8.7 8.7 0 002.85-.55 6 6 0 003.43-3.43 8.7 8.7 0 00.55-2.85c.06-1.25.07-1.65.07-4.84s0-3.59-.07-4.84a8.7 8.7 0 00-.55-2.85 5.86 5.86 0 00-1.35-2.08 5.77 5.77 0 00-2.08-1.35 8.7 8.7 0 00-2.85-.55c-1.25-.05-1.65-.07-4.84-.07z" id="svg_23"/><path class="cls-13" d="M20 99a6 6 0 106 6 6 6 0 00-6-6zm0 9.94a3.91 3.91 0 113.91-3.94 3.91 3.91 0 01-3.91 3.91z" id="svg_24"/><circle class="cls-13" cx="26.27" cy="98.74" r="1.41" id="svg_25"/><path id="svg_4-2" data-name="svg 4" class="cls-13" d="M73 95.64a1.35 1.35 0 00-1.34-1.34H53a1.35 1.35 0 00-1.34 1.34v18.73A1.34 1.34 0 0053 115.7h10.1v-8.32h-2.71v-3.08h2.67v-2.66c0-2.44 1.49-4.07 4.42-4.07a14.79 14.79 0 012.2.15v2.78h-2a1.22 1.22 0 00-1.34 1.38v2.42h3.13l-.47 3.08h-2.67v8.32h5.35a1.35 1.35 0 001.32-1.34V95.64z"/><path id="twitter-2" data-name="twitter" class="cls-13" d="M116.45 98.36a9 9 0 01-2.53.7 4.38 4.38 0 001.93-2.44 8.77 8.77 0 01-2.77 1.07 4.5 4.5 0 00-3.22-1.38 4.37 4.37 0 00-4.38 4.38 4.75 4.75 0 00.09 1 12.52 12.52 0 01-9-4.5 4.19 4.19 0 00-.59 2.13 4.36 4.36 0 002 3.63 4.4 4.4 0 01-2-.54 4.38 4.38 0 003.52 4.31 4.47 4.47 0 01-2 .07 4.39 4.39 0 004.09 3.05 8.89 8.89 0 01-5.5 2.16 7.17 7.17 0 01-1-.07 12.71 12.71 0 0019.22-10.7v-.58a8.9 8.9 0 002.18-2.27z"/><path id="youtube-2" data-name="youtube" class="cls-13" d="M146.77 97.43c-10.7 0-10.7 0-10.7 7.57s0 7.58 10.7 7.58 10.7 0 10.7-7.58 0-7.57-10.7-7.57zM144.1 109v-8l6.69 4-6.69 4z"/><path id="svg_5-2" data-name="svg 5" class="cls-13" d="M9.75 143.79v13.82h4.45v-13.82zm11.59 5.8a2.42 2.42 0 012.48-2.68c1.33 0 2.42.89 2.42 3.12v7.58h4.46v-8c0-4-2.22-6.24-5.35-6.24a4.77 4.77 0 00-4 2.35l-.15-1.91h-4.4c0 .47.08 3.12.08 3.12v10.7h4.46v-8zm-9.38-8a2.46 2.46 0 100-4.9 2.46 2.46 0 10-.08 4.9z"/><path class="cls-13" d="M189.79 143.47a6.35 6.35 0 00-4.57-1.94 5.51 5.51 0 000 11 5 5 0 004.73-3.76h-4.9v-3.29h8.83v2.4a8.76 8.76 0 01-9 8.39 9.15 9.15 0 010-18.29 10.23 10.23 0 017.25 2.76z" id="svg_26"/><g class="cls-8" id="svg_27"><path class="cls-13" d="M199.19 142.62h2.17v2.95h3v2.17h-3v3h-2.17v-3h-3v-2.17h3z" id="svg_28"/></g><path class="cls-13" d="M106.92 157.81c-4.54 0-6.26-3.34-6.26-5.7v-7H98.5v-2.76a6.52 6.52 0 004.2-5.75.16.16 0 01.16-.16H106v5.44h4.28v3.23H106v6.65a1.87 1.87 0 002 2.1 5.19 5.19 0 001.72-.36l1 3c-.39.57-2.13 1.23-3.7 1.25h-.16" id="svg_29"/><path class="cls-13" d="M136.07 147.14a10.69 10.69 0 006.81 10 10.22 10.22 0 010-3.07c.2-.83 1.26-5.32 1.26-5.32a3.86 3.86 0 01-.32-1.59c0-1.48.86-2.6 1.93-2.6a1.35 1.35 0 011.36 1.51 21.66 21.66 0 01-.89 3.56 1.56 1.56 0 001.59 1.94c1.9 0 3.36-2 3.36-4.9a4.22 4.22 0 00-4.47-4.36 4.63 4.63 0 00-4.83 4.65 4.15 4.15 0 00.79 2.44.34.34 0 01.08.31c-.08.33-.26 1.06-.3 1.21s-.16.24-.36.14c-1.34-.62-2.17-2.57-2.17-4.14 0-3.38 2.45-6.48 7.07-6.48a6.29 6.29 0 016.6 6.18c0 3.69-2.33 6.66-5.56 6.66a2.86 2.86 0 01-2.42-1.28s-.53 2-.67 2.54a12.14 12.14 0 01-1.32 2.81 10.7 10.7 0 10-7.54-10.22z" id="svg_30"/><path class="cls-13" d="M198.58 100q-.15 3.12-4.37 8.56-4.36 5.67-7.38 5.67-1.87 0-3.17-3.46l-1.73-6.33c-.64-2.3-1.32-3.46-2.06-3.46a6.58 6.58 0 00-1.68 1l-1-1.31c1.05-.92 2.09-1.85 3.12-2.78 1.41-1.22 2.47-1.86 3.17-1.92 1.67-.16 2.69 1 3.08 3.41.41 2.63.7 4.27.86 4.91q.72 3.27 1.59 3.27c.44 0 1.12-.71 2-2.13a8.4 8.4 0 001.45-3.23c.12-1.22-.36-1.83-1.45-1.83a4 4 0 00-1.58.35c1.05-3.44 3.06-5.12 6-5 2.2.06 3.23 1.49 3.11 4.28" id="svg_31"/><path class="cls-13" d="M61.43 148.25a4.91 4.91 0 10-4.91 4.9 4.91 4.91 0 004.91-4.9z" id="svg_32"/><path class="cls-13" d="M73 148.25a4.91 4.91 0 10-4.9 4.9 4.91 4.91 0 004.9-4.9z" id="svg_33"/><path class="cls-13" d="M20 95.38c3.14 0 3.51 0 4.75.07a6.42 6.42 0 012.17.4 3.59 3.59 0 011.35.88 3.48 3.48 0 01.88 1.35 6.63 6.63 0 01.41 2.18c.05 1.24.07 1.61.07 4.74s0 3.51-.07 4.75a6.61 6.61 0 01-.41 2.17 3.91 3.91 0 01-2.23 2.23 6.61 6.61 0 01-2.17.41c-1.24 0-1.61.07-4.75.07s-3.5 0-4.74-.07a6.63 6.63 0 01-2.18-.41 3.48 3.48 0 01-1.35-.88 3.59 3.59 0 01-.88-1.35 6.42 6.42 0 01-.4-2.17c-.06-1.24-.07-1.61-.07-4.75s0-3.5.07-4.74a6.44 6.44 0 01.4-2.18 3.91 3.91 0 012.23-2.23 6.44 6.44 0 012.18-.4c1.24-.06 1.61-.07 4.74-.07m0-2.12c-3.19 0-3.59 0-4.84.07a8.7 8.7 0 00-2.85.55 6 6 0 00-3.43 3.43 8.7 8.7 0 00-.55 2.85c-.05 1.25-.07 1.65-.07 4.84s0 3.59.07 4.84a8.7 8.7 0 00.55 2.85 5.77 5.77 0 001.35 2.08 5.86 5.86 0 002.08 1.35 8.7 8.7 0 002.85.55c1.25.06 1.65.07 4.84.07s3.59 0 4.84-.07a8.7 8.7 0 002.85-.55 6 6 0 003.43-3.43 8.7 8.7 0 00.55-2.85c.06-1.25.07-1.65.07-4.84s0-3.59-.07-4.84a8.7 8.7 0 00-.55-2.85 5.86 5.86 0 00-1.35-2.08 5.77 5.77 0 00-2.08-1.35 8.7 8.7 0 00-2.85-.55c-1.25 0-1.65-.07-4.84-.07z" id="svg_34"/></g></svg>