<svg xmlns="http://www.w3.org/2000/svg" width="616" height="362.17" style=""><rect id="backgroundrect" width="100%" height="100%" x="0" y="0" fill="none" stroke="none"/>
  <defs>
    <style>
      .cls-1, .cls-2, .cls-3 {
        fill: none;
      }

      .cls-2 {
        stroke-width: 1.5px;
      }

      .cls-2, .cls-3 {
        stroke: #fff;
        stroke-miterlimit: 10;
      }

      .cls-4 {
        fill: #00543c;
      }

      .cls-5 {
        fill: #020202;
      }

      .cls-6 {
        fill: #080;
      }

      .cls-7 {
        fill: #008575;
      }

      .cls-8 {
        fill: #007ea5;
      }

      .cls-9 {
        fill: #fcfcfc;
      }

      .cls-10, .cls-11 {
        fill: #fff;
      }

      .cls-12 {
        fill: #ffc232;
      }

      .cls-13 {
        fill: #ffb71b;
      }

      .cls-14 {
        fill: #ffb819;
      }

      .cls-15 {
        fill: #fcbb30;
      }

      .cls-16 {
        fill: #fdbb2f;
      }

      .cls-17 {
        fill: #fdbb30;
      }

      .cls-18, .cls-19 {
        fill: #6b6b6b;
      }

      .cls-20 {
        fill: #687e31;
      }

      .cls-21 {
        fill: #bb3304;
      }

      .cls-22 {
        fill: #a8228e;
      }

      .cls-23 {
        fill: #ccaf74;
      }

      .cls-24 {
        fill: #ded5b4;
      }

      .cls-25 {
        fill: #c55500;
      }

      .cls-26 {
        fill: #124a37;
      }

      .cls-27 {
        fill: #114a37;
      }

      .cls-28 {
        fill: #231f20;
      }

      .cls-29 {
        fill: #898a89;
      }

      .cls-30 {
        fill: #2a2a2a;
      }

      .cls-31 {
        fill: #353535;
      }

      .cls-32 {
        fill: #4e4c4d;
      }

      .cls-3 {
        stroke-linecap: round;
      }

      .cls-19 {
        opacity: .8;
      }

      .cls-19, .cls-33 {
        isolation: isolate;
      }

      .cls-11 {
        font-family: Whitney-Black, Whitney;
        font-size: 9px;
      }
    </style>
  </defs>
  
  
  
  
  
  
  
  
  
  
  
  
  
  
  
<g class="currentLayer" style=""><title>Layer 1</title><g id="Layer_1" data-name="Layer 1">
    <rect class="cls-5" x="315.19000244140625" y="160.1699981689453" width="17.520000457763672" height="25" id="svg_1"/>
    <rect class="cls-5" x="537.9500122070312" y="207.69000244140625" width="11.199999809265137" height="18.15999984741211" id="svg_2"/>
    <path class="cls-10" d="M467.23,275.16c-.58-.66-1.66-1.18-2.78-1.18-1.94,0-3.28,1.55-3.28,3.35s1.34,3.35,3.28,3.35c1.34,0,2.66-1.06,2.88-2.29h-2.98v-2h5.38v1.46c0,2.12-1.85,5.11-5.46,5.11-3.21,0-5.49-2.54-5.49-5.57s2.28-5.57,5.49-5.57c1.49,0,3.12,.43,4.41,1.68l-1.45,1.66Z" id="svg_3"/>
    <path class="cls-10" d="M493.2,296.78c-.64-.73-1.83-1.3-3.06-1.3-2.13,0-3.6,1.71-3.6,3.69s1.47,3.69,3.6,3.69c1.47,0,2.93-1.17,3.16-2.52h-3.28v-2.2h5.92v1.61c0,2.33-2.03,5.61-6,5.61-3.54,0-6.04-2.79-6.04-6.12s2.5-6.12,6.04-6.12c1.64,0,3.43,.47,4.85,1.84l-1.59,1.83Z" id="svg_4"/>
    <g id="svg_5">
      <g id="svg_6">
        <path id="Fill-9" class="cls-27" d="M56.29,217.92c-3.54,0-5.65-2.31-5.65-5.98v-9.37h1.99v9.1c0,2.62,1.14,4.37,3.66,4.37s3.72-1.57,3.72-4.3v-9.17h1.99v9.26c0,3.8-2.18,6.09-5.71,6.09"/>
        <path id="Fill-10" class="cls-27" d="M77.56,217.64l-8.02-11.73v11.73h-1.84v-15.07h1.78l7.74,11.29v-11.29h1.84v15.07h-1.5"/>
        <path id="Fill-11" class="cls-27" d="M85.14,202.57h1.99v15.07h-1.99v-15.07Z"/>
        <path id="Fill-12" class="cls-27" d="M98.94,217.7h-1.78l-5.63-14.85,1.99-.44,4.55,12.53,4.46-12.38h2.1l-5.69,15.13"/>
        <path id="Fill-13" class="cls-27" d="M109.01,217.64v-15.07h7.87v1.88h-5.89v4.37h4.57l.3,1.88h-4.87v5.06h6.1v1.88h-8.08"/>
        <path id="Fill-14" class="cls-27" d="M126.07,204.39h-1.9v5.17h1.69c1.92,0,3.15-.89,3.15-2.6s-.99-2.58-2.94-2.58h0Zm6.07,12.95l-2.01,.46-4.47-6.51h-1.5v6.35h-1.99v-15.07h3.98c2.98,0,4.85,1.53,4.85,4.28,0,2.27-1.29,3.62-3.19,4.17l4.34,6.31h0Z"/>
        <path id="Fill-15" class="cls-27" d="M140.02,217.81c-1.59,0-3.01-.39-4.08-.98l.3-2.1c.99,.68,2.37,1.29,3.83,1.29s2.6-.83,2.6-2.29c0-1.38-.59-1.94-2.79-2.97-2.75-1.29-3.79-2.23-3.79-4.39,0-2.42,1.8-3.97,4.45-3.97,1.42,0,2.48,.35,3.32,.85l-.32,2.05c-.8-.63-1.9-1.11-3.07-1.11-1.67,0-2.41,.92-2.41,2.03s.55,1.7,2.77,2.75c2.84,1.33,3.81,2.34,3.81,4.61,0,2.6-1.88,4.24-4.61,4.24"/>
        <path id="Fill-16" class="cls-27" d="M149.86,202.57h1.99v15.07h-1.99v-15.07Z"/>
        <path id="Fill-17" class="cls-27" d="M162.87,204.45v13.19h-1.99v-13.19h-4.65v-1.88h11.13l.3,1.88h-4.78"/>
        <path id="Fill-18" class="cls-27" d="M176.97,211.66v5.98h-1.99v-5.98l-5.16-8.8,1.99-.43,4.19,7.36,4.08-7.2h2.2l-5.31,9.08"/>
        <path id="Fill-19" class="cls-27" d="M197.2,204.17c-2.9,0-4.68,2.31-4.68,5.94s1.8,5.94,4.68,5.94,4.68-2.31,4.68-5.94-1.8-5.94-4.68-5.94h0Zm-.02,13.76c-4.11,0-6.71-3.15-6.71-7.79s2.65-7.84,6.75-7.84,6.71,3.15,6.71,7.8-2.62,7.84-6.75,7.84h0Z"/>
        <path id="Fill-20" class="cls-27" d="M210.85,204.45v4.61h4.4l.3,1.88h-4.7v6.71h-1.99v-15.07h7.6v1.88h-5.61"/>
        <path id="Fill-21" class="cls-27" d="M229.62,217.81c-1.59,0-3.01-.39-4.08-.98l.3-2.1c.99,.68,2.37,1.29,3.83,1.29s2.6-.83,2.6-2.29c0-1.38-.59-1.94-2.79-2.97-2.75-1.29-3.79-2.23-3.79-4.39,0-2.42,1.8-3.97,4.45-3.97,1.42,0,2.47,.35,3.32,.85l-.32,2.05c-.8-.63-1.91-1.11-3.07-1.11-1.67,0-2.41,.92-2.41,2.03s.55,1.7,2.77,2.75c2.84,1.33,3.81,2.34,3.81,4.61,0,2.6-1.88,4.24-4.61,4.24"/>
        <path id="Fill-22" class="cls-27" d="M244.04,204.95l-2.33,6.35h4.68l-2.35-6.35h0Zm4.74,12.84l-1.71-4.67h-6.03l-1.65,4.52h-2.01l5.71-15.13h1.99l5.63,14.85-1.93,.44h0Z"/>
        <path id="Fill-23" class="cls-27" d="M264.52,217.64l-8.02-11.73v11.73h-1.84v-15.07h1.78l7.75,11.29v-11.29h1.84v15.07h-1.5"/>
        <path id="Fill-24" class="cls-27" d="M280.1,204.45v4.61h4.4l.3,1.88h-4.7v6.71h-1.99v-15.07h7.6v1.88h-5.61"/>
        <path id="Fill-25" class="cls-27" d="M294.55,204.39h-1.9v5.17h1.69c1.92,0,3.15-.89,3.15-2.6s-.99-2.58-2.94-2.58h0Zm6.07,12.95l-2.01,.46-4.46-6.51h-1.5v6.35h-1.99v-15.07h3.98c2.98,0,4.85,1.53,4.85,4.28,0,2.27-1.29,3.62-3.2,4.17l4.33,6.31h0Z"/>
        <path id="Fill-26" class="cls-27" d="M310.26,204.95l-2.33,6.35h4.68l-2.35-6.35h0s0,0,0,0Zm4.74,12.84l-1.71-4.67h-6.03l-1.65,4.52h-2.01l5.71-15.13h1.99l5.63,14.85-1.93,.44Z"/>
        <path id="Fill-27" class="cls-27" d="M331.16,217.64l-8.02-11.73v11.73h-1.84v-15.07h1.78l7.74,11.29v-11.29h1.84v15.07h-1.5"/>
        <path id="Fill-28" class="cls-27" d="M344.35,217.92c-4.1,0-6.75-3.15-6.75-7.79s2.69-7.84,6.79-7.84c1.73,0,3.02,.46,4.15,1.24l-.3,2.1c-1.06-.83-2.31-1.46-3.87-1.46-2.96,0-4.72,2.31-4.72,5.94s1.78,5.92,4.72,5.92c1.57,0,2.94-.63,4.11-1.51l.3,1.94c-1.12,.85-2.75,1.46-4.42,1.46"/>
        <path id="Fill-29" class="cls-27" d="M353.48,202.57h1.99v15.07h-1.99v-15.07Z"/>
        <path id="Fill-30" class="cls-27" d="M364.24,217.81c-1.59,0-3.01-.39-4.08-.98l.3-2.1c.99,.68,2.37,1.29,3.83,1.29s2.6-.83,2.6-2.29c0-1.38-.59-1.94-2.79-2.97-2.75-1.29-3.79-2.23-3.79-4.39,0-2.42,1.8-3.97,4.44-3.97,1.42,0,2.48,.35,3.32,.85l-.32,2.05c-.8-.63-1.9-1.11-3.07-1.11-1.67,0-2.42,.92-2.42,2.03s.55,1.7,2.77,2.75c2.83,1.33,3.81,2.34,3.81,4.61,0,2.6-1.89,4.24-4.61,4.24"/>
        <path id="Fill-31" class="cls-27" d="M379.18,217.92c-4.1,0-6.75-3.15-6.75-7.79s2.69-7.84,6.79-7.84c1.74,0,3.03,.46,4.15,1.24l-.3,2.1c-1.06-.83-2.31-1.46-3.87-1.46-2.96,0-4.72,2.31-4.72,5.94s1.78,5.92,4.72,5.92c1.57,0,2.94-.63,4.11-1.51l.3,1.94c-1.12,.85-2.75,1.46-4.42,1.46"/>
        <path id="Fill-32" class="cls-27" d="M393.24,204.17c-2.9,0-4.68,2.31-4.68,5.94s1.8,5.94,4.68,5.94,4.67-2.31,4.67-5.94-1.8-5.94-4.67-5.94h0Zm-.02,13.76c-4.11,0-6.71-3.15-6.71-7.79s2.65-7.84,6.75-7.84,6.71,3.15,6.71,7.8-2.62,7.84-6.75,7.84h0Z"/>
        <path id="Fill-33" class="cls-29" d="M55.51,244.56c-3.01,0-4.94-2.3-4.94-5.71s1.97-5.74,4.98-5.74c1.27,0,2.22,.34,3.04,.91l-.22,1.54c-.78-.61-1.69-1.07-2.84-1.07-2.17,0-3.46,1.69-3.46,4.35s1.3,4.33,3.46,4.33c1.15,0,2.15-.46,3.01-1.1l.22,1.42c-.82,.62-2.02,1.07-3.24,1.07"/>
        <path id="Fill-34" class="cls-29" d="M72.61,244.35v-5.09h-5.41v5.09h-1.46v-11.04h1.46v4.57h5.41v-4.57h1.46v11.04h-1.46"/>
        <path id="Fill-35" class="cls-29" d="M85.04,235.06l-1.7,4.65h3.43l-1.72-4.65h0Zm3.47,9.4l-1.25-3.42h-4.42l-1.21,3.31h-1.47l4.18-11.08h1.46l4.12,10.88-1.41,.32h0Z"/>
        <path id="Fill-36" class="cls-29" d="M103.32,244.35l-5.88-8.59v8.59h-1.35v-11.04h1.3l5.67,8.27v-8.27h1.35v11.04h-1.1"/>
        <path id="Fill-37" class="cls-29" d="M116.5,244.56c-3.39,0-5.21-2.3-5.21-5.71s1.89-5.74,5.08-5.74c1.43,0,2.42,.37,3.25,.95l-.23,1.53c-.79-.64-1.78-1.1-3.04-1.1-2.34,0-3.56,1.7-3.56,4.35s1.25,4.33,3.7,4.33c.93,0,1.55-.19,2.17-.54v-2.93h-2.46l-.2-1.38h4.11v5.16c-.91,.61-2.2,1.07-3.61,1.07"/>
        <path id="Fill-38" class="cls-29" d="M127.35,244.35v-11.04h5.77v1.38h-4.31v3.2h3.35l.22,1.38h-3.57v3.71h4.46v1.38h-5.92"/>
        <path id="Fill-39" class="cls-29" d="M151.89,234.69v9.66h-1.46v-9.66h-3.41v-1.38h8.15l.22,1.38h-3.5"/>
        <path id="Fill-40" class="cls-29" d="M168.24,244.35v-5.09h-5.41v5.09h-1.46v-11.04h1.46v4.57h5.41v-4.57h1.46v11.04h-1.46"/>
        <path id="Fill-41" class="cls-29" d="M177.32,244.35v-11.04h5.77v1.38h-4.31v3.2h3.35l.22,1.38h-3.56v3.71h4.46v1.38h-5.92"/>
        <path id="Fill-42" class="cls-29" d="M207.93,244.35h-1.22l-2.9-8.94-2.9,8.94h-1.21l-3.16-10.83,1.43-.32,2.42,8.78,2.73-8.67h1.46l2.73,8.67,2.37-8.67h1.49l-3.23,11.04"/>
        <path id="Fill-43" class="cls-29" d="M221.57,234.48c-2.12,0-3.43,1.69-3.43,4.35s1.32,4.35,3.43,4.35,3.43-1.7,3.43-4.35-1.32-4.35-3.43-4.35Zm-.02,10.08c-3.01,0-4.91-2.3-4.91-5.71s1.94-5.74,4.95-5.74,4.91,2.3,4.91,5.71-1.92,5.74-4.94,5.74h0Z"/>
        <path id="Fill-44" class="cls-29" d="M236.3,234.64h-1.4v3.79h1.24c1.41,0,2.31-.65,2.31-1.9s-.73-1.89-2.15-1.89Zm4.45,9.48l-1.47,.34-3.27-4.77h-1.1v4.65h-1.46v-11.04h2.91c2.19,0,3.55,1.12,3.55,3.13,0,1.66-.95,2.65-2.34,3.05l3.18,4.62h0Z"/>
        <path id="Fill-45" class="cls-29" d="M247.18,244.35v-11.04h1.46v9.66h3.86l.2,1.38h-5.52"/>
        <path id="Fill-46" class="cls-29" d="M262.4,234.68h-1.69v8.32h1.64c2.57,0,4.12-1.35,4.12-4.16,0-2.77-1.63-4.16-4.08-4.16h0Zm-.11,9.68h-3.04v-11.04h3.1c3.72,0,5.63,2.27,5.63,5.5,0,3.28-2.02,5.53-5.69,5.53h0Z"/>
        <path id="Fill-47" class="cls-29" d="M284.27,234.69v3.37h3.23l.22,1.38h-3.44v4.91h-1.45v-11.03h5.57v1.38h-4.11"/>
        <path id="Fill-48" class="cls-29" d="M297.89,234.64h-1.39v3.79h1.24c1.41,0,2.31-.65,2.31-1.9,0-1.2-.73-1.89-2.15-1.89h0Zm4.45,9.48l-1.47,.34-3.27-4.77h-1.1v4.65h-1.46v-11.04h2.92c2.19,0,3.55,1.12,3.55,3.13,0,1.66-.94,2.65-2.34,3.05l3.18,4.62h0Z"/>
        <path id="Fill-49" class="cls-29" d="M313.05,234.48c-2.12,0-3.43,1.69-3.43,4.35s1.32,4.35,3.43,4.35,3.43-1.7,3.43-4.35-1.32-4.35-3.43-4.35Zm-.02,10.08c-3.01,0-4.91-2.3-4.91-5.71s1.94-5.74,4.94-5.74,4.92,2.3,4.92,5.71-1.92,5.74-4.95,5.74h0Z"/>
        <path id="Fill-50" class="cls-29" d="M335.19,244.35l-.67-8.78-3.38,8.83h-1.1l-3.38-8.83-.65,8.78h-1.36l.85-11.04h1.8l3.33,9.05,3.33-9.05h1.78l.84,11.04h-1.4"/>
        <path id="Fill-51" class="cls-29" d="M358.41,244.35v-5.09h-5.41v5.09h-1.45v-11.04h1.46v4.57h5.41v-4.57h1.46v11.04h-1.46"/>
        <path id="Fill-52" class="cls-29" d="M367.41,244.35v-11.04h5.77v1.38h-4.31v3.2h3.35l.22,1.38h-3.57v3.71h4.46v1.38h-5.92"/>
        <path id="Fill-53" class="cls-29" d="M383.02,234.64h-1.39v3.79h1.24c1.41,0,2.31-.65,2.31-1.9,0-1.2-.73-1.89-2.16-1.89Zm4.45,9.48l-1.47,.34-3.27-4.77h-1.1v4.65h-1.46v-11.04h2.91c2.18,0,3.55,1.12,3.55,3.13,0,1.66-.95,2.65-2.34,3.05l3.18,4.62h0Z"/>
        <path id="Fill-54" class="cls-29" d="M393.9,244.35v-11.04h5.77v1.38h-4.31v3.2h3.35l.22,1.38h-3.56v3.71h4.46v1.38h-5.92"/>
        <path id="Fill-55" class="cls-29" d="M50.63,225.12H399.84v.66H50.63v-.66Z"/>
      </g>
      <g id="svg_7">
        <path class="cls-16" d="M310.54,100.4c0-.09-.05-.18-.14-.22-.09-.02-.19-.01-.25,.05l-1.71,1.72c-.9-.83-2.09-1.33-3.4-1.33-2.78,0-5.04,2.27-5.04,5.04s2.27,5.04,5.04,5.04c1.3,0,2.5-.5,3.39-1.31,.01,0,.01-.02,.01-.02,.04-.04,.07-.09,.07-.15s-.02-.12-.07-.16h0s-.98-.99-.98-.99c-.08-.07-.21-.09-.31,0-.57,.48-1.31,.79-2.11,.79-1.77,0-3.21-1.44-3.21-3.21s1.44-3.21,3.21-3.21c.8,0,1.54,.29,2.1,.79l-1.35,1.34c-.06,.06-.08,.16-.05,.25,.04,.09,.13,.14,.22,.14h4.35c.13,0,.23-.1,.23-.23v-4.35h0s0,0,0,0Z" id="svg_8"/>
        <path class="cls-17" d="M333,110.17c-.81,0-1.54,.32-2.08,.84l-4.95-2.48c.02-.12,.02-.24,.02-.37s0-.25-.02-.37l4.95-2.48c.54,.52,1.27,.84,2.08,.84,1.66,0,3-1.34,3-3s-1.34-3-3-3-3,1.34-3,3c0,.12,0,.25,.02,.37l-4.95,2.48c-.54-.52-1.27-.84-2.08-.84-1.66,0-3,1.34-3,3s1.34,3,3,3c.81,0,1.54-.32,2.08-.84l4.95,2.48c-.02,.12-.02,.24-.02,.37,0,1.66,1.34,3,3,3s3-1.34,3-3-1.34-3-3-3Z" id="svg_9"/>
      </g>
      <g id="svg_10">
        <path id="instagram" class="cls-10" d="M16.45,100.17H2.81c-1.55,0-2.81,1.26-2.81,2.81v13.64c0,1.55,1.26,2.81,2.81,2.81h13.64c1.55,0,2.81-1.26,2.81-2.81v-13.64c0-1.55-1.26-2.81-2.81-2.81h0Zm-6.82,6.02c1.99,0,3.61,1.62,3.61,3.61s-1.62,3.61-3.61,3.61-3.61-1.62-3.61-3.61c0-1.99,1.62-3.61,3.61-3.61Zm7.63,10.83c0,.23-.18,.4-.4,.4H2.41c-.22,0-.4-.18-.4-.4v-8.43h2.13c-.09,.39-.12,.79-.12,1.2,0,3.1,2.51,5.61,5.61,5.61s5.61-2.51,5.61-5.61c0-.41-.04-.82-.12-1.2h2.13v8.43Zm0-12.04c0,.23-.18,.4-.4,.4h-2.41c-.23,0-.4-.18-.4-.4v-2.41c0-.22,.18-.4,.4-.4h2.41c.23,0,.4,.18,.4,.4v2.41h0Z"/>
        <path class="cls-10" d="M49.26,101.37c0-.66-.55-1.2-1.2-1.2H31.2c-.66,0-1.2,.54-1.2,1.2v16.85c0,.66,.55,1.2,1.2,1.2h9.09v-7.49h-2.41v-2.77h2.41v-2.4c0-2.19,1.34-3.66,3.98-3.66,1.17,0,1.97,.13,1.97,.13v2.5h-1.81c-.8,0-1.2,.45-1.2,1.24v2.18h2.81l-.4,2.77h-2.41v7.49h4.82c.66,0,1.2-.55,1.2-1.2v-16.85h0Zm19.57,9.21c0-2.43-1.98-4.41-4.42-4.41s-4.41,1.98-4.41,4.41,1.98,4.41,4.41,4.41c2.44,0,4.42-1.98,4.42-4.41Zm10.43,0c0-2.43-1.99-4.41-4.41-4.41s-4.42,1.98-4.42,4.41,1.98,4.41,4.42,4.41c2.42,0,4.41-1.98,4.41-4.41Z" id="svg_11"/>
        <path id="twitter" class="cls-10" d="M109.26,104.01c-.72,.32-1.47,.54-2.28,.63,.83-.49,1.45-1.27,1.74-2.19-.75,.45-1.61,.78-2.49,.96-.74-.75-1.77-1.24-2.9-1.24-2.18,0-3.94,1.76-3.94,3.94,0,.31,.02,.63,.08,.91-3.27-.18-6.17-1.66-8.14-4.05-.33,.58-.54,1.18-.54,1.92,0,1.35,.69,2.56,1.77,3.27-.65-.02-1.25-.2-1.79-.49v.05c0,1.92,1.36,3.52,3.17,3.88-.34,.09-.7,.14-1.05,.14-.24,0-.49-.03-.73-.07,.49,1.56,1.96,2.73,3.68,2.75-1.34,1.07-3.06,1.87-4.9,1.87-.32,0-.63-.02-.94-.07,1.74,1.12,3.84,1.61,6.07,1.61,7.26,0,11.23-6.02,11.23-11.24v-.52c.76-.56,1.43-1.24,1.96-2.05h0Z"/>
        <path id="youtube" class="cls-10" d="M129.63,103.17q-9.63,0-9.63,6.82t9.63,6.82,9.63-6.82-9.63-6.82Zm-2.41,10.43v-7.22l6.02,3.61-6.02,3.61h0Z"/>
        <path class="cls-10" d="M150.4,106.58v12.44h4.01v-12.44h-4.01Zm10.43,5.22c0-1.61,1.02-2.41,2.23-2.41s2.18,.8,2.18,2.81v6.82h4.01v-7.22c0-3.61-2-5.61-4.82-5.61-1.61,0-2.81,.91-3.61,2.11l-.13-1.72h-3.95c0,.42,.07,2.81,.07,2.81v9.63h4.01v-7.22h0Zm-8.44-7.22c1.48,0,2.43-.98,2.43-2.21-.02-1.24-.94-2.2-2.39-2.2s-2.43,.96-2.43,2.2,.94,2.21,2.36,2.21h.03Z" id="svg_12"/>
      </g>
      <g id="svg_13">
        <path class="cls-10" d="M213.32,111.69l-3.84-3.85c.44-.76,.7-1.64,.7-2.58,0-2.81-2.28-5.09-5.09-5.09s-5.09,2.28-5.09,5.09,2.28,5.09,5.09,5.09c.94,0,1.83-.26,2.58-.7l3.85,3.85c.16,.16,.38,.25,.6,.25s.44-.08,.6-.24l.6-.6c.33-.33,.33-.87,0-1.2h0Zm-11.62-6.43c0-1.88,1.52-3.39,3.39-3.39s3.39,1.52,3.39,3.39-1.52,3.39-3.39,3.39-3.39-1.52-3.39-3.39h0Z" id="svg_14"/>
        <path class="cls-4" d="M259.63,117.15l-5.66-5.67c.65-1.11,1.04-2.42,1.04-3.81,0-4.14-3.36-7.5-7.5-7.5s-7.5,3.36-7.5,7.5,3.36,7.5,7.5,7.5c1.39,0,2.7-.38,3.81-1.04l5.67,5.67c.23,.23,.56,.36,.88,.36s.65-.13,.89-.36l.88-.89c.49-.49,.49-1.28,0-1.77h0s0,0,0,0Zm-17.13-9.48c0-2.76,2.24-5,5-5s5,2.24,5,5-2.24,5-5,5-5-2.24-5-5Z" id="svg_15"/>
        <path class="cls-31" d="M279.63,117.15l-5.67-5.67c.65-1.11,1.04-2.42,1.04-3.81,0-4.14-3.36-7.5-7.5-7.5s-7.5,3.36-7.5,7.5,3.36,7.5,7.5,7.5c1.39,0,2.7-.38,3.81-1.04l5.67,5.67c.23,.23,.56,.36,.88,.36s.65-.13,.89-.36l.88-.89c.49-.49,.49-1.28,0-1.77h0Zm-17.13-9.48c0-2.76,2.24-5,5-5s5,2.24,5,5-2.24,5-5,5-5-2.24-5-5h0Z" id="svg_16"/>
        <path class="cls-4" d="M234.72,112.9l-4.25-4.26c.49-.83,.78-1.82,.78-2.86,0-3.11-2.52-5.62-5.62-5.62s-5.62,2.52-5.62,5.62,2.52,5.62,5.62,5.62c1.04,0,2.02-.29,2.86-.78l4.26,4.25c.18,.18,.42,.27,.66,.27s.49-.1,.67-.27l.66-.67c.37-.37,.37-.96,0-1.33h0Zm-12.85-7.11c0-2.07,1.68-3.75,3.75-3.75s3.75,1.68,3.75,3.75-1.68,3.75-3.75,3.75-3.75-1.68-3.75-3.75Z" id="svg_17"/>
      </g>
      <g id="svg_18">
        <g id="svg_19">
          <path id="up" class="cls-10" d="M260.04,174.23l1.08,1.09c.06,.06,.16,.06,.22,0l2.36-2.37,2.36,2.37c.06,.06,.16,.06,.22,0l1.08-1.09c.06-.06,.06-.16,0-.22l-3.56-3.56c-.06-.06-.16-.06-.23,0l-3.56,3.56s-.04,.07-.04,.11c0,.04,.02,.08,.04,.11h0Z"/>
          <path id="down" class="cls-10" d="M247.39,171.29l-1.08-1.09c-.06-.06-.16-.06-.22,0l-2.36,2.37-2.37-2.37c-.06-.06-.16-.06-.22,0l-1.08,1.09c-.06,.06-.06,.16,0,.22l3.56,3.56c.06,.06,.16,.06,.23,0l3.56-3.56s.04-.07,.04-.11-.02-.08-.04-.11h0Z"/>
          <path id="right" class="cls-10" d="M221.13,170.21l-1.08,1.08c-.06,.06-.06,.16,0,.22l2.36,2.37-2.36,2.37c-.06,.06-.06,.16,0,.22l1.08,1.09c.06,.06,.16,.06,.22,0l3.56-3.56c.06-.06,.06-.16,0-.23l-3.56-3.56s-.07-.04-.11-.04c-.04,0-.08,.02-.11,.04h0Z"/>
          <path id="left" class="cls-10" d="M203.95,170.17s.08,.02,.11,.04l1.08,1.08c.06,.06,.06,.16,0,.22l-2.36,2.37,2.36,2.37c.06,.06,.06,.16,0,.22l-1.08,1.09c-.06,.06-.16,.06-.22,0l-3.56-3.56c-.06-.06-.06-.16,0-.23l3.56-3.56s.07-.04,.11-.04h0Z"/>
        </g>
        <g id="svg_20">
          <path id="up-2" data-name="up" class="cls-30" d="M260.04,154.23l1.08,1.09c.06,.06,.16,.06,.22,0l2.36-2.37,2.36,2.37c.06,.06,.16,.06,.22,0l1.08-1.09c.06-.06,.06-.16,0-.22l-3.56-3.56c-.06-.06-.16-.06-.23,0l-3.56,3.56s-.04,.07-.04,.11c0,.04,.02,.08,.04,.11h0Z"/>
          <path id="down-2" data-name="down" class="cls-30" d="M247.39,151.29l-1.08-1.09c-.06-.06-.16-.06-.22,0l-2.36,2.37-2.37-2.37c-.06-.06-.16-.06-.22,0l-1.08,1.09c-.06,.06-.06,.16,0,.22l3.56,3.56c.06,.06,.16,.06,.23,0l3.56-3.56s.04-.07,.04-.11-.02-.08-.04-.11h0Z"/>
          <path id="right-2" data-name="right" class="cls-30" d="M221.13,150.21l-1.08,1.08c-.06,.06-.06,.16,0,.22l2.36,2.37-2.36,2.37c-.06,.06-.06,.16,0,.22l1.08,1.09c.06,.06,.16,.06,.22,0l3.56-3.56c.06-.06,.06-.16,0-.23l-3.56-3.56s-.07-.04-.11-.04c-.04,0-.08,.02-.11,.04h0Z"/>
          <path id="left-2" data-name="left" class="cls-30" d="M203.95,150.17s.08,.02,.11,.04l1.08,1.08c.06,.06,.06,.16,0,.22l-2.36,2.37,2.36,2.37c.06,.06,.06,.16,0,.22l-1.08,1.09c-.06,.06-.16,.06-.22,0l-3.56-3.56c-.06-.06-.06-.16,0-.23l3.56-3.56s.07-.04,.11-.04h0Z"/>
        </g>
        <path class="cls-15" d="M260.04,134.23l1.08,1.09c.06,.06,.16,.06,.22,0l2.36-2.37,2.36,2.37c.06,.06,.16,.06,.22,0l1.08-1.09c.06-.06,.06-.16,0-.22l-3.56-3.56c-.06-.06-.16-.06-.23,0l-3.56,3.56s-.04,.07-.04,.11c0,.04,.02,.08,.04,.11h0Zm-12.66-2.93l-1.08-1.09c-.06-.06-.16-.06-.22,0l-2.36,2.37-2.37-2.37c-.06-.06-.16-.06-.22,0l-1.08,1.09c-.06,.06-.06,.16,0,.22l3.56,3.56c.06,.06,.16,.06,.23,0l3.56-3.56s.04-.07,.04-.11-.02-.08-.04-.11h0Zm-26.26-1.09l-1.08,1.08c-.06,.06-.06,.16,0,.22l2.36,2.37-2.36,2.37c-.06,.06-.06,.16,0,.22l1.08,1.09c.06,.06,.16,.06,.22,0l3.56-3.56c.06-.06,.06-.16,0-.23l-3.56-3.56s-.07-.04-.11-.04c-.04,0-.08,.02-.11,.04h0Zm-17.18-.04s.08,.02,.11,.04l1.08,1.08c.06,.06,.06,.16,0,.22l-2.36,2.37,2.36,2.37c.06,.06,.06,.16,0,.22l-1.08,1.09c-.06,.06-.16,.06-.22,0l-3.56-3.56c-.06-.06-.06-.16,0-.23l3.56-3.56s.07-.04,.11-.04h0Z" id="svg_21"/>
      </g>
      <g id="svg_22">
        <g id="svg_23">
          <path id="navigateright-4" class="cls-10" d="M87.11,143.54c.08,0,.14-.03,.2-.08l1.95-1.95c.1-.1,.1-.29,0-.4l-4.26-4.26,4.26-4.26c.1-.1,.1-.29,0-.4l-1.95-1.95c-.1-.11-.29-.11-.4,0l-6.41,6.4c-.11,.11-.11,.29,0,.4l6.41,6.4c.06,.04,.12,.08,.19,.08h0Z"/>
          <path class="cls-10" d="M160,137.08c0,.08,.03,.14,.08,.2l1.95,1.95c.1,.1,.29,.1,.4,0l4.26-4.26,4.26,4.26c.1,.1,.29,.1,.4,0l1.95-1.95c.11-.1,.11-.29,0-.4l-6.4-6.41c-.11-.1-.29-.1-.4,0l-6.4,6.41c-.05,.06-.08,.12-.08,.2h0Z" id="svg_24"/>
          <path id="navigateright-5" class="cls-10" d="M102.23,130.17c-.08,0-.14,.03-.2,.08l-1.95,1.95c-.1,.1-.1,.29,0,.4l4.26,4.26-4.26,4.26c-.1,.1-.1,.29,0,.4l1.95,1.95c.11,.11,.29,.11,.4,0l6.41-6.4c.11-.11,.11-.29,0-.4l-6.41-6.4c-.06-.04-.12-.08-.2-.08h0Z"/>
        </g>
        <g id="svg_25">
          <path id="navigateright-4-2" data-name="navigateright-4" class="cls-30" d="M47.11,143.54c.08,0,.14-.03,.2-.08l1.95-1.95c.1-.1,.1-.29,0-.4l-4.26-4.26,4.26-4.26c.1-.1,.1-.29,0-.4l-1.95-1.95c-.1-.11-.29-.11-.4,0l-6.41,6.4c-.11,.11-.11,.29,0,.4l6.41,6.4c.06,.04,.12,.08,.19,.08h0Z"/>
          <path id="navigateright-5-2" data-name="navigateright-5" class="cls-30" d="M62.23,130.17c-.08,0-.14,.03-.2,.08l-1.95,1.95c-.1,.1-.1,.29,0,.4l4.26,4.26-4.26,4.26c-.1,.1-.1,.29,0,.4l1.95,1.95c.1,.11,.29,.11,.4,0l6.41-6.4c.11-.11,.11-.29,0-.4l-6.41-6.4c-.06-.04-.12-.08-.2-.08h0Z"/>
        </g>
        <g id="svg_26">
          <path id="navigateright-4-3" data-name="navigateright-4" class="cls-17" d="M7.11,143.54c.08,0,.14-.03,.2-.08l1.95-1.95c.1-.1,.1-.29,0-.4l-4.26-4.26,4.26-4.26c.1-.1,.1-.29,0-.4l-1.95-1.95c-.1-.11-.29-.11-.4,0l-6.41,6.4c-.11,.11-.11,.29,0,.4l6.41,6.4c.06,.04,.12,.08,.2,.08Z"/>
          <path id="navigateright-5-3" data-name="navigateright-5" class="cls-17" d="M22.23,130.17c-.08,0-.14,.03-.2,.08l-1.95,1.95c-.1,.1-.1,.29,0,.4l4.26,4.26-4.26,4.26c-.1,.1-.1,.29,0,.4l1.95,1.95c.1,.11,.29,.11,.4,0l6.41-6.4c.1-.11,.1-.29,0-.4l-6.41-6.4c-.06-.04-.12-.08-.2-.08h0Z"/>
        </g>
        <g id="svg_27">
          <path id="navigateright-4-4" data-name="navigateright-4" class="cls-4" d="M127.11,143.54c.08,0,.14-.03,.2-.08l1.95-1.95c.1-.1,.1-.29,0-.4l-4.26-4.26,4.26-4.26c.1-.1,.1-.29,0-.4l-1.95-1.95c-.1-.11-.29-.11-.4,0l-6.41,6.4c-.11,.11-.11,.29,0,.4l6.41,6.4c.06,.04,.12,.08,.19,.08h0Z"/>
          <path id="navigateright-5-4" data-name="navigateright-5" class="cls-4" d="M142.23,130.17c-.08,0-.14,.03-.2,.08l-1.95,1.95c-.1,.1-.1,.29,0,.4l4.26,4.26-4.26,4.26c-.1,.1-.1,.29,0,.4l1.95,1.95c.1,.11,.29,.11,.4,0l6.41-6.4c.1-.11,.1-.29,0-.4l-6.41-6.4c-.06-.04-.12-.08-.2-.08h0Z"/>
        </g>
        <g id="svg_28">
          <path id="navigateright-4-5" data-name="navigateright-4" class="cls-22" d="M7.11,163.54c.08,0,.14-.03,.2-.08l1.95-1.95c.1-.1,.1-.29,0-.4l-4.26-4.26,4.26-4.26c.1-.1,.1-.29,0-.4l-1.95-1.95c-.1-.11-.29-.11-.4,0l-6.41,6.4c-.11,.11-.11,.29,0,.4l6.41,6.4c.06,.04,.12,.08,.2,.08Z"/>
          <path id="navigateright-5-5" data-name="navigateright-5" class="cls-22" d="M22.23,150.17c-.08,0-.14,.03-.2,.08l-1.95,1.95c-.1,.1-.1,.29,0,.4l4.26,4.26-4.26,4.26c-.1,.1-.1,.29,0,.4l1.95,1.95c.1,.11,.29,.11,.4,0l6.41-6.4c.1-.11,.1-.29,0-.4l-6.41-6.4c-.06-.04-.12-.08-.2-.08h0Z"/>
        </g>
        <g id="svg_29">
          <path id="navigateright-4-6" data-name="navigateright-4" class="cls-8" d="M47.11,163.54c.08,0,.14-.03,.2-.08l1.95-1.95c.1-.1,.1-.29,0-.4l-4.26-4.26,4.26-4.26c.1-.1,.1-.29,0-.4l-1.95-1.95c-.1-.11-.29-.11-.4,0l-6.41,6.4c-.11,.11-.11,.29,0,.4l6.41,6.4c.06,.04,.12,.08,.19,.08h0Z"/>
          <path id="navigateright-5-6" data-name="navigateright-5" class="cls-8" d="M62.23,150.17c-.08,0-.14,.03-.2,.08l-1.95,1.95c-.1,.1-.1,.29,0,.4l4.26,4.26-4.26,4.26c-.1,.1-.1,.29,0,.4l1.95,1.95c.1,.11,.29,.11,.4,0l6.41-6.4c.11-.11,.11-.29,0-.4l-6.41-6.4c-.06-.04-.12-.08-.2-.08h0Z"/>
        </g>
        <g id="svg_30">
          <path id="navigateright-4-7" data-name="navigateright-4" class="cls-7" d="M87.11,163.54c.08,0,.14-.03,.2-.08l1.95-1.95c.1-.1,.1-.29,0-.4l-4.26-4.26,4.26-4.26c.1-.1,.1-.29,0-.4l-1.95-1.95c-.1-.11-.29-.11-.4,0l-6.41,6.4c-.11,.11-.11,.29,0,.4l6.41,6.4c.06,.04,.12,.08,.19,.08h0Z"/>
          <path id="navigateright-5-7" data-name="navigateright-5" class="cls-7" d="M102.23,150.17c-.08,0-.14,.03-.2,.08l-1.95,1.95c-.1,.1-.1,.29,0,.4l4.26,4.26-4.26,4.26c-.1,.1-.1,.29,0,.4l1.95,1.95c.11,.11,.29,.11,.4,0l6.41-6.4c.11-.11,.11-.29,0-.4l-6.41-6.4c-.06-.04-.12-.08-.2-.08h0Z"/>
        </g>
        <g id="svg_31">
          <path id="navigateright-4-8" data-name="navigateright-4" class="cls-6" d="M127.11,163.54c.08,0,.14-.03,.2-.08l1.95-1.95c.1-.1,.1-.29,0-.4l-4.26-4.26,4.26-4.26c.1-.1,.1-.29,0-.4l-1.95-1.95c-.1-.11-.29-.11-.4,0l-6.41,6.4c-.11,.11-.11,.29,0,.4l6.41,6.4c.06,.04,.12,.08,.19,.08h0Z"/>
          <path id="navigateright-5-8" data-name="navigateright-5" class="cls-6" d="M142.23,150.17c-.08,0-.14,.03-.2,.08l-1.95,1.95c-.1,.1-.1,.29,0,.4l4.26,4.26-4.26,4.26c-.1,.1-.1,.29,0,.4l1.95,1.95c.1,.11,.29,.11,.4,0l6.41-6.4c.1-.11,.1-.29,0-.4l-6.41-6.4c-.06-.04-.12-.08-.2-.08h0Z"/>
        </g>
        <g id="svg_32">
          <path id="navigateright-4-9" data-name="navigateright-4" class="cls-21" d="M7.11,183.54c.08,0,.14-.03,.2-.08l1.95-1.95c.1-.1,.1-.29,0-.4l-4.26-4.26,4.26-4.26c.1-.1,.1-.29,0-.4l-1.95-1.95c-.1-.11-.29-.11-.4,0l-6.41,6.4c-.11,.11-.11,.29,0,.4l6.41,6.4c.06,.04,.12,.08,.2,.08Z"/>
          <path id="navigateright-5-9" data-name="navigateright-5" class="cls-21" d="M22.23,170.17c-.08,0-.14,.03-.2,.08l-1.95,1.95c-.1,.1-.1,.29,0,.4l4.26,4.26-4.26,4.26c-.1,.1-.1,.29,0,.4l1.95,1.95c.1,.11,.29,.11,.4,0l6.41-6.4c.1-.11,.1-.29,0-.4l-6.41-6.4c-.06-.04-.12-.08-.2-.08h0Z"/>
        </g>
        <g id="svg_33">
          <path id="navigateright-4-10" data-name="navigateright-4" class="cls-20" d="M47.11,183.54c.08,0,.14-.03,.2-.08l1.95-1.95c.1-.1,.1-.29,0-.4l-4.26-4.26,4.26-4.26c.1-.1,.1-.29,0-.4l-1.95-1.95c-.1-.11-.29-.11-.4,0l-6.41,6.4c-.11,.11-.11,.29,0,.4l6.41,6.4c.06,.04,.12,.08,.19,.08h0Z"/>
          <path id="navigateright-5-10" data-name="navigateright-5" class="cls-20" d="M62.23,170.17c-.08,0-.14,.03-.2,.08l-1.95,1.95c-.1,.1-.1,.29,0,.4l4.26,4.26-4.26,4.26c-.1,.1-.1,.29,0,.4l1.95,1.95c.1,.11,.29,.11,.4,0l6.41-6.4c.11-.11,.11-.29,0-.4l-6.41-6.4c-.06-.04-.12-.08-.2-.08h0Z"/>
        </g>
        <g id="svg_34">
          <path id="navigateright-4-11" data-name="navigateright-4" class="cls-25" d="M87.11,183.54c.08,0,.14-.03,.2-.08l1.95-1.95c.1-.1,.1-.29,0-.4l-4.26-4.26,4.26-4.26c.1-.1,.1-.29,0-.4l-1.95-1.95c-.1-.11-.29-.11-.4,0l-6.41,6.4c-.11,.11-.11,.29,0,.4l6.41,6.4c.06,.04,.12,.08,.19,.08h0Z"/>
          <path id="navigateright-5-11" data-name="navigateright-5" class="cls-25" d="M102.23,170.17c-.08,0-.14,.03-.2,.08l-1.95,1.95c-.1,.1-.1,.29,0,.4l4.26,4.26-4.26,4.26c-.1,.1-.1,.29,0,.4l1.95,1.95c.11,.11,.29,.11,.4,0l6.41-6.4c.11-.11,.11-.29,0-.4l-6.41-6.4c-.06-.04-.12-.08-.2-.08h0Z"/>
        </g>
        <g id="svg_35">
          <path id="navigateright-4-12" data-name="navigateright-4" class="cls-23" d="M127.11,183.54c.08,0,.14-.03,.2-.08l1.95-1.95c.1-.1,.1-.29,0-.4l-4.26-4.26,4.26-4.26c.1-.1,.1-.29,0-.4l-1.95-1.95c-.1-.11-.29-.11-.4,0l-6.41,6.4c-.11,.11-.11,.29,0,.4l6.41,6.4c.06,.04,.12,.08,.19,.08h0Z"/>
          <path id="navigateright-5-12" data-name="navigateright-5" class="cls-23" d="M142.23,170.17c-.08,0-.14,.03-.2,.08l-1.95,1.95c-.1,.1-.1,.29,0,.4l4.26,4.26-4.26,4.26c-.1,.1-.1,.29,0,.4l1.95,1.95c.1,.11,.29,.11,.4,0l6.41-6.4c.1-.11,.1-.29,0-.4l-6.41-6.4c-.06-.04-.12-.08-.2-.08h0Z"/>
        </g>
        <path class="cls-24" d="M167.11,183.54c.08,0,.14-.03,.2-.08l1.95-1.95c.1-.1,.1-.29,0-.4l-4.26-4.26,4.26-4.26c.1-.1,.1-.29,0-.4l-1.95-1.95c-.1-.11-.29-.11-.4,0l-6.41,6.4c-.11,.11-.11,.29,0,.4l6.41,6.4c.06,.04,.12,.08,.2,.08h0Zm15.12-13.38c-.08,0-.14,.03-.2,.08l-1.95,1.95c-.1,.1-.1,.29,0,.4l4.26,4.26-4.26,4.26c-.1,.1-.1,.29,0,.4l1.95,1.95c.1,.11,.29,.11,.4,0l6.41-6.4c.1-.11,.1-.29,0-.4l-6.41-6.4c-.06-.04-.12-.08-.2-.08h0Z" id="svg_36"/>
      </g>
      <g id="svg_37">
        <path id="tag" class="cls-10" d="M.24,68.4l4.53,4.53c.32,.32,.84,.32,1.16,0l6.99-7s.08-.12,.08-.18v-4.77c0-.45-.36-.81-.81-.81H7.42c-.06,0-.14,.03-.18,.08L.24,67.24c-.32,.32-.32,.85,0,1.16Zm8.7-5.39c0-.68,.54-1.22,1.22-1.22s1.22,.54,1.22,1.22-.54,1.22-1.22,1.22-1.22-.54-1.22-1.22h0Z"/>
        <path class="cls-10" d="M51.1,60.17h-9.2c-1.05,0-1.9,.85-1.9,1.9v9.2c0,1.05,.85,1.9,1.9,1.9h9.2c1.05,0,1.9-.85,1.9-1.9v-9.2c0-1.05-.85-1.9-1.9-1.9Zm-4.6,4.06c1.35,0,2.44,1.09,2.44,2.44s-1.09,2.44-2.44,2.44-2.44-1.09-2.44-2.44,1.09-2.44,2.44-2.44h0Zm5.15,7.31c0,.15-.12,.27-.27,.27h-9.75c-.15,0-.27-.12-.27-.27v-5.69h1.44c-.06,.26-.08,.53-.08,.81,0,2.1,1.69,3.79,3.79,3.79s3.79-1.69,3.79-3.79c0-.28-.03-.55-.08-.81h1.44v5.69h0Zm0-8.12c0,.15-.12,.27-.27,.27h-1.62c-.15,0-.27-.12-.27-.27v-1.62c0-.15,.12-.27,.27-.27h1.62c.15,0,.27,.12,.27,.27v1.62Zm14.85-1.35q-6.5,0-6.5,4.6t6.5,4.6,6.5-4.6-6.5-4.6Zm-1.62,7.04v-4.88l4.06,2.44-4.06,2.44h0Zm27.31-7.31h-11.38c-.45,0-.81,.36-.81,.81v8.12c0,.45,.36,.81,.81,.81h11.37c.45,0,.81-.36,.81-.81v-8.12c0-.45-.36-.81-.81-.81h0Zm-9.34,1.63c.68,0,1.22,.54,1.22,1.22s-.54,1.22-1.22,1.22-1.22-.54-1.22-1.22,.54-1.22,1.22-1.22Zm8.53,6.5h-9.75l1.63-2.44,1.9,1.35,2.98-3.79,3.25,4.88h0Zm20.09-7.08c.56-.33,.98-.86,1.17-1.48-.51,.31-1.08,.53-1.68,.65-.5-.51-1.19-.84-1.96-.84-1.47,0-2.66,1.19-2.66,2.66,0,.21,.01,.43,.06,.61-2.21-.12-4.16-1.12-5.49-2.74-.22,.39-.36,.8-.36,1.29,0,.92,.47,1.73,1.19,2.21-.44-.01-.84-.13-1.21-.33v.03c0,1.3,.92,2.38,2.14,2.62-.23,.06-.47,.1-.71,.1-.17,0-.33-.02-.5-.05,.33,1.05,1.33,1.84,2.48,1.85-.9,.72-2.06,1.26-3.31,1.26-.22,0-.43-.01-.64-.04,1.17,.75,2.59,1.08,4.09,1.08,4.9,0,7.58-4.06,7.58-7.58v-.35c.51-.37,.96-.84,1.33-1.38-.48,.22-.99,.36-1.54,.43Zm21.54-1.86v11.37c0,.22-.08,.41-.24,.57-.16,.16-.35,.24-.57,.24h-3.25v-5.05h1.62l.27-1.87h-1.9v-1.47c0-.27,.07-.48,.21-.62,.14-.14,.34-.22,.61-.22h1.22v-1.69c-.37-.06-.81-.09-1.33-.09-.87,0-1.54,.22-2,.66s-.69,1.04-.69,1.81v1.62h-1.62v1.87h1.62v5.06h-6.14c-.22,0-.41-.08-.57-.24-.16-.16-.24-.35-.24-.57v-11.37c0-.22,.08-.41,.24-.57,.16-.16,.35-.24,.57-.24h11.37c.22,0,.41,.08,.57,.24,.16,.16,.24,.35,.24,.57h0Zm12.96,5.69c0,.54-.13,1.04-.4,1.49-.27,.46-.63,.82-1.09,1.08-.46,.27-.96,.4-1.49,.4s-1.04-.13-1.49-.4c-.46-.27-.82-.63-1.09-1.08-.27-.46-.4-.96-.4-1.49s.13-1.04,.4-1.49c.27-.46,.63-.82,1.09-1.08,.46-.27,.96-.4,1.49-.4s1.04,.13,1.49,.4c.46,.27,.82,.63,1.09,1.08,.26,.46,.4,.95,.4,1.49Zm7.04,0c0,.54-.13,1.04-.4,1.49-.27,.46-.63,.82-1.09,1.08-.46,.27-.96,.4-1.49,.4s-1.04-.13-1.49-.4c-.46-.27-.82-.63-1.09-1.08-.26-.46-.4-.96-.4-1.49s.13-1.04,.4-1.49c.27-.46,.63-.82,1.09-1.08,.46-.27,.96-.4,1.49-.4s1.04,.13,1.49,.4c.46,.27,.82,.63,1.09,1.08,.27,.46,.4,.95,.4,1.49Zm7.27-2.03h2.7v8.4h-2.7v-8.4Zm4.33,8.4v-6.5l-.04-1.9h2.67l.09,1.16c.29-.43,.63-.78,1.05-1.04,.41-.26,.87-.39,1.39-.39,.97,0,1.76,.33,2.35,1,.6,.67,.9,1.6,.9,2.79v4.87h-2.71v-4.6c0-.64-.14-1.12-.41-1.43-.27-.31-.63-.47-1.06-.47s-.79,.14-1.08,.42c-.29,.28-.43,.68-.43,1.2v4.87h-2.71s0,0,0,0Zm-2.99-9.75h-.02c-.47,0-.85-.14-1.15-.43-.29-.28-.44-.64-.44-1.06s.15-.78,.45-1.06c.3-.28,.7-.42,1.18-.42s.86,.14,1.16,.42c.29,.28,.45,.63,.45,1.06,0,.43-.15,.78-.45,1.07-.3,.28-.7,.43-1.19,.43h0Zm31.26,.8l-6.16,6.17c-.08,.08-.18,.13-.3,.13h0s-.04,0-.05,0c-.09,0-.18-.05-.25-.12l-3.43-3.44c-.08-.08-.13-.19-.13-.31s.04-.22,.13-.3l1.01-1.01c.08-.08,.18-.13,.3-.13s.21,.04,.3,.13l2.13,2.13,4.85-4.85c.08-.08,.18-.12,.3-.12s.22,.04,.3,.13l1.01,1.01c.09,.08,.13,.19,.13,.3s-.04,.22-.13,.3h0Zm-.35,3.67l-4.96,4.96c-.29,.29-.65,.44-1.08,.44s-.78-.15-1.07-.44l-4.96-4.96c-.29-.29-.44-.65-.44-1.08s.15-.78,.44-1.08l4.96-4.96c.29-.29,.65-.44,1.08-.44s.78,.15,1.08,.44l2.24,2.24-3.36,3.37-1.58-1.59c-.23-.23-.51-.35-.84-.35s-.61,.12-.84,.35l-1.01,1.01c-.23,.22-.35,.5-.35,.84s.12,.61,.35,.84l3.43,3.44c.16,.16,.35,.27,.56,.32l.05,.03h.24c.32,0,.6-.11,.84-.34l5.22-5.22,.02,.02c.29,.29,.44,.65,.44,1.08s-.15,.78-.44,1.08h0Z" id="svg_38"/>
        <path id="rss" class="cls-4" d="M24.06,91.14c0-1.13-.9-2.03-2.03-2.03s-2.03,.9-2.03,2.03,.9,2.03,2.03,2.03,2.03-.9,2.03-2.03h0Zm8.94,1.76c0-7.03-5.7-12.73-12.73-12.73-.15,0-.27,.12-.27,.27v1.89c0,.15,.12,.27,.27,.27,5.69,0,10.29,4.6,10.29,10.29,0,.15,.12,.27,.27,.27h1.89c.15,0,.27-.12,.27-.27h0Zm-4.06,0c0-4.78-3.88-8.67-8.66-8.67-.15,0-.27,.12-.27,.27v1.89c0,.15,.12,.27,.27,.27,3.44,0,6.23,2.79,6.23,6.23,0,.15,.12,.27,.27,.27h1.89c.15,0,.27-.12,.27-.27h0Z"/>
        <path class="cls-26" d="M.24,88.4l4.53,4.53c.32,.32,.84,.32,1.16,0l6.99-7s.08-.12,.08-.18v-4.77c0-.45-.36-.81-.81-.81H7.42c-.06,0-.14,.03-.18,.08L.24,87.24c-.32,.32-.32,.85,0,1.16Zm8.7-5.39c0-.68,.54-1.22,1.22-1.22s1.22,.54,1.22,1.22-.54,1.22-1.22,1.22-1.22-.54-1.22-1.22h0Z" id="svg_39"/>
        <path class="cls-19" d="M71.78,85.64l-5.25-5.25c-.14-.15-.33-.22-.53-.22s-.39,.08-.53,.22l-5.25,5.25c-.14,.14-.22,.33-.22,.53,0,.1,.02,.19,.06,.29,.12,.28,.38,.46,.69,.46h.75v4.5c0,.42,.33,.75,.75,.75h2.25v-3.75h3v3.75h2.25c.42,0,.75-.33,.75-.75v-4.5h.75c.31,0,.57-.18,.69-.46,.04-.09,.06-.19,.06-.29,0-.19-.08-.39-.22-.53Z" id="svg_40"/>
        <path class="cls-10" d="M91.78,85.64l-5.25-5.25c-.14-.15-.33-.22-.53-.22s-.39,.08-.53,.22l-5.25,5.25c-.14,.14-.22,.33-.22,.53,0,.1,.02,.19,.06,.29,.12,.28,.39,.46,.69,.46h.75v4.5c0,.42,.33,.75,.75,.75h2.25v-3.75h3v3.75h2.25c.42,0,.75-.33,.75-.75v-4.5h.75c.31,0,.57-.18,.69-.46,.04-.09,.06-.19,.06-.29,0-.19-.08-.39-.22-.53Z" id="svg_41"/>
        <path class="cls-17" d="M193.58,110.18l-5.25-5.25c-.14-.15-.33-.22-.53-.22s-.39,.08-.53,.22l-5.25,5.25c-.14,.14-.22,.33-.22,.53,0,.1,.02,.19,.06,.29,.12,.28,.39,.46,.69,.46h.75v4.5c0,.42,.33,.75,.75,.75h2.25v-3.75h3v3.75h2.25c.42,0,.75-.33,.75-.75v-4.5h.75c.31,0,.57-.18,.69-.46,.04-.09,.06-.19,.06-.29,0-.19-.08-.39-.22-.53Z" id="svg_42"/>
      </g>
      <path class="cls-10" d="M53.11,80.17h-12.23c-.49,0-.88,.39-.88,.88v12.24c0,.49,.39,.88,.88,.88h12.23c.49,0,.88-.39,.88-.88v-12.24c0-.49-.39-.88-.88-.88h0Zm-1.75,12.24h-1.74v-.88c0-3.85-3.14-6.99-6.99-6.99h-.88v-1.74h.88c4.82,0,8.74,3.92,8.74,8.74v.88h0Zm-3.49,0h-1.75v-.88c0-1.93-1.56-3.49-3.49-3.49h-.88v-1.75h.88c2.89,0,5.24,2.35,5.24,5.24v.88h0Zm-4.81,0c-.72,0-1.31-.59-1.31-1.31s.59-1.31,1.31-1.31,1.31,.59,1.31,1.31-.59,1.31-1.31,1.31Z" id="svg_43"/>
      <g id="svg_44">
        <path class="cls-12" d="M428.95,214.03s-.47-.41-1,.11c-.51,.51-.11,1.01-.11,1.01l4.21,4.3-4.21,4.3s-.4,.48,.11,1.02c.49,.52,.99,.11,.99,.11l5.31-5.43-5.31-5.43m-22.04,5.42l4.21-4.3s.4-.48-.11-1.02c-.49-.52-.99-.11-.99-.11l-5.32,5.42h0s0,0,0,0l5.31,5.42s.48,.41,.99-.11c.51-.51,.11-1.02,.11-1.02l-4.21-4.3m17.46,8.69c-.5-.52-1-.11-1-.11l-4.21,4.3-4.21-4.3s-.47-.41-.99,.11c-.51,.51-.11,1.02-.11,1.02l5.31,5.43h0s0,0,0,0l5.31-5.43s.4-.48-.11-1.01m.11-18.84l-5.31-5.43h0s0,0,0,0l-5.31,5.43s-.41,.48,.11,1.02c.49,.52,.99,.11,.99,.11l4.21-4.3,4.21,4.3s.47,.41,1-.11c.51-.51,.11-1.02,.11-1.02" id="svg_45"/>
        <path class="cls-12" d="M428.97,220.95c.48-.53,.36-1.08,.36-1.08h-8.64v8.82s.53,.12,1.05-.37c.55-.51,.5-1.12,.5-1.12v-4.61l4.44,4.54s.47,.41,.99-.11c.51-.51,.11-1.02,.11-1.02l-4.44-4.54h4.52s.6,.04,1.1-.51m-9.63-1.08h-8.64s-.12,.54,.36,1.08c.5,.56,1.1,.51,1.1,.51h4.52l-4.44,4.54s-.4,.48,.11,1.02c.49,.52,.99,.11,.99,.11l4.44-4.54v4.62s-.04,.61,.5,1.12c.52,.49,1.06,.37,1.06,.37v-8.82m-1.56-8.5v4.61l-4.44-4.53s-.48-.41-.99,.11c-.51,.51-.11,1.02-.11,1.02l4.45,4.54h-4.52s-.59-.04-1.1,.51c-.48,.53-.36,1.08-.36,1.08h8.64v-8.82s-.53-.12-1.06,.37c-.55,.51-.5,1.12-.5,1.12h0Zm10.09,5.74h-4.52l4.44-4.54s.4-.48-.11-1.02c-.5-.52-.99-.11-.99-.11l-4.45,4.54v-4.62s.04-.61-.5-1.12c-.52-.49-1.05-.37-1.05-.37v8.82h8.64s.12-.55-.36-1.08c-.5-.56-1.1-.51-1.1-.51h0Z" id="svg_46"/>
      </g>
      <path d="M415.18,106.44c.09-.08,.11-.22,.08-.35-.05-.13-.18-.19-.31-.19h-4.88l-2.14-5.52c-.05-.12-.17-.21-.3-.21s-.24,.09-.3,.21l-2.14,5.52h-4.88c-.13,0-.25,.07-.31,.19-.03,.13-.02,.27,.08,.35l3.71,3.7-.94,4.93c-.02,.13,.04,.25,.14,.32,.11,.07,.25,.07,.35,0l4.28-2.76,4.28,2.76c.05,.04,.12,.05,.17,.05,.05,0,.13-.01,.18-.05,.11-.07,.16-.19,.14-.32l-.94-4.93,3.71-3.7h0Zm12.45,3.99v2.86c0,.13-.07,.23-.18,.28-.05,.02-.09,.04-.14,.04-.07,0-.14-.02-.2-.07l-6.99-5.42c-.08-.05-.13-.14-.13-.25s.05-.19,.13-.25l6.99-5.41c.09-.07,.23-.08,.34-.03,.11,.05,.18,.16,.18,.29v2.86c4.77,0,7.48,2.7,7.64,7.02,0,.14-.1,.26-.25,.3h-.08c-.1,0-.17-.05-.28-.16-1.15-1.43-3.85-2.07-7.03-2.07h0Zm15.7,2.87c0-.09,.01-.16,.07-.21l1.93-1.92c.05-.06,.14-.09,.23-.09h4.93c.18,0,.32-.14,.32-.32v-2.86h-1.6c-.12,0-.25-.07-.3-.19-.04-.13-.02-.27,.07-.35l2.86-2.86c.12-.13,.34-.13,.45,0l2.86,2.86c.09,.08,.11,.22,.08,.35-.05,.13-.18,.19-.31,.19h-1.59v2.86c0,1.59-1.27,2.86-2.86,2.86h-6.84c-.18,0-.32-.14-.32-.32h0s0,0,0,0Zm-3.25-4.86c-.09-.08-.1-.22-.08-.35,.05-.13,.18-.19,.31-.19h1.59v-2.86c0-1.57,1.29-2.86,2.86-2.86h6.84c.18,0,.32,.14,.32,.32,0,.09-.02,.16-.07,.21l-1.93,1.92c-.05,.06-.14,.09-.23,.09h-4.93c-.18,0-.32,.14-.32,.32v2.86h1.6c.12,0,.25,.07,.3,.19,.04,.13,.02,.27-.07,.35l-2.86,2.86c-.07,.06-.13,.09-.22,.09s-.17-.03-.23-.09l-2.86-2.86h0Z" id="svg_47"/>
      <g id="svg_48">
        <g id="svg_49">
          <path id="location" class="cls-18" d="M268,60.17c-3.3,0-6,2.69-6,6,0,4.37,5.08,9.49,5.29,9.71,.19,.2,.45,.29,.71,.29s.52-.09,.71-.29c.21-.22,5.29-5.34,5.29-9.71,0-3.31-2.7-6-6-6Zm-3,6c0-1.66,1.34-3,3-3s3,1.34,3,3-1.34,3-3,3-3-1.34-3-3Z"/>
          <path id="fax" class="cls-18" d="M253,63.17v-2c0-.56-.45-1-1-1h-8c-.55,0-1,.44-1,1v2h10Zm0,3c0-.56,.45-1,1-1s1,.44,1,1-.45,1-1,1-1-.44-1-1Zm2-2h-14c-.55,0-1,.44-1,1v7c0,.56,.45,1,1,1h1v-4h12v4h1c.55,0,1-.44,1-1v-7c0-.56-.45-1-1-1Zm-12,6v5c0,.56,.45,1,1,1h8c.55,0,1-.44,1-1v-5h-10Z"/>
          <path id="phone" class="cls-18" d="M220,63.17c1,5,8,12,13,13,1,0,3-2,3-3-1-1-3-2.5-4-3-.5,0-2,1.5-2.5,1.5-1.5-.5-4.5-3.5-5-5,0-.5,1.5-2,1.5-2.5-.5-1-2-3.5-3-4-1,0-3,2-3,3Z"/>
          <path id="email" class="cls-18" d="M208,68.58l8-5v-.41c0-.56-.45-1-1-1h-14c-.55,0-1,.44-1,1v.41l8,5Zm.27,1.01c-.08,.06-.17,.08-.27,.08s-.19-.02-.27-.08l-7.73-4.84v8.41c0,.56,.45,1,1,1h14c.55,0,1-.44,1-1v-8.41l-7.73,4.84Z"/>
        </g>
        <path class="cls-17" d="M268,80.17c-3.3,0-6,2.69-6,6,0,4.37,5.08,9.49,5.29,9.71,.19,.2,.45,.29,.71,.29s.52-.09,.71-.29c.21-.22,5.29-5.34,5.29-9.71,0-3.31-2.7-6-6-6Zm-3,6c0-1.66,1.34-3,3-3s3,1.34,3,3-1.34,3-3,3-3-1.34-3-3Zm-12-3v-2c0-.56-.45-1-1-1h-8c-.55,0-1,.44-1,1v2h10Zm0,3c0-.56,.45-1,1-1s1,.44,1,1-.45,1-1,1-1-.44-1-1Zm2-2h-14c-.55,0-1,.44-1,1v7c0,.56,.45,1,1,1h1v-4h12v4h1c.55,0,1-.44,1-1v-7c0-.56-.45-1-1-1Zm-12,6v5c0,.56,.45,1,1,1h8c.55,0,1-.44,1-1v-5h-10Zm-23-7c1,5,8,12,13,13,1,0,3-2,3-3-1-1-3-2.5-4-3-.5,0-2,1.5-2.5,1.5-1.5-.5-4.5-3.5-5-5,0-.5,1.5-2,1.5-2.5-.5-1-2-3.5-3-4-1,0-3,2-3,3Zm-12,5.41l8-5v-.41c0-.56-.45-1-1-1h-14c-.55,0-1,.44-1,1v.41l8,5Zm.27,1.01c-.08,.06-.17,.08-.27,.08s-.19-.02-.27-.08l-7.73-4.84v8.41c0,.56,.45,1,1,1h14c.55,0,1-.44,1-1v-8.41l-7.73,4.84Z" id="svg_50"/>
      </g>
      <g id="svg_51">
        <path class="cls-30" d="M304.67,60.17c-2.58,0-4.67,2.09-4.67,4.67,0,.83,.21,1.62,.6,2.28l3.81,6.9c.05,.08,.14,.14,.26,.14,.1,0,.21-.06,.26-.14l3.8-6.9c.37-.66,.6-1.46,.6-2.28,0-2.58-2.09-4.67-4.67-4.67h0Zm0,6.42c-.97,0-1.75-.78-1.75-1.75s.78-1.75,1.75-1.75,1.75,.77,1.75,1.75-.78,1.75-1.75,1.75Z" id="svg_52"/>
        <path class="cls-10" d="M304.67,80.17c-2.58,0-4.67,2.09-4.67,4.67,0,.83,.21,1.62,.6,2.28l3.81,6.9c.05,.08,.14,.14,.26,.14,.1,0,.21-.06,.26-.14l3.8-6.9c.37-.66,.6-1.46,.6-2.28,0-2.58-2.09-4.67-4.67-4.67h0Zm0,6.42c-.97,0-1.75-.78-1.75-1.75s.78-1.75,1.75-1.75,1.75,.77,1.75,1.75-.78,1.75-1.75,1.75Z" id="svg_53"/>
        <path class="cls-4" d="M330.88,60.17c-5.99,0-10.88,4.89-10.88,10.88,0,7.92,9.2,17.21,9.59,17.6,.35,.36,.82,.53,1.29,.53s.93-.17,1.29-.52c.38-.4,9.59-9.68,9.59-17.6,0-5.99-4.89-10.88-10.88-10.88Zm-5.44,10.88c0-3,2.43-5.44,5.44-5.44s5.44,2.44,5.44,5.44-2.43,5.44-5.44,5.44-5.44-2.44-5.44-5.44Z" id="svg_54"/>
        <path class="cls-30" d="M379,69.58l-9.15-9.15c-.17-.19-.41-.27-.64-.27s-.47,.09-.64,.27c-1.14,1.14-1.33,2.87-.57,4.22l-5.32,5.32c-.97-.47-2.46-.8-3.89-.8-1.96,0-4.22,.87-4.22,1.97,0,.23,.09,.47,.27,.64l5.05,5.04-8.98,10.78-.92,1.83,1.83-.91,10.77-8.97,5.05,5.04c.17,.18,.41,.27,.64,.27,1.09,0,1.97-2.26,1.97-4.21,0-1.43-.33-2.92-.8-3.89l5.32-5.32c1.34,.76,3.07,.57,4.22-.57,.18-.17,.27-.41,.27-.64s-.08-.47-.27-.64h0Z" id="svg_55"/>
      </g>
      <g id="Group">
        <path class="cls-4" d="M301.13,130.21l-1.08,1.08c-.06,.06-.06,.16,0,.22l2.36,2.37-2.36,2.37c-.06,.06-.06,.16,0,.22l1.08,1.09c.06,.06,.16,.06,.22,0l3.56-3.56c.06-.06,.06-.16,0-.23l-3.56-3.56s-.07-.04-.11-.04c-.04,0-.08,.02-.11,.04h0Z" id="svg_56"/>
        <path class="cls-22" d="M311.13,130.21l-1.08,1.08c-.06,.06-.06,.16,0,.22l2.36,2.37-2.36,2.37c-.06,.06-.06,.16,0,.22l1.08,1.09c.06,.06,.16,.06,.22,0l3.56-3.56c.06-.06,.06-.16,0-.23l-3.56-3.56s-.07-.04-.11-.04c-.04,0-.08,.02-.11,.04h0Z" id="svg_57"/>
        <path class="cls-7" d="M321.13,130.21l-1.08,1.08c-.06,.06-.06,.16,0,.22l2.36,2.37-2.36,2.37c-.06,.06-.06,.16,0,.22l1.08,1.09c.06,.06,.16,.06,.22,0l3.56-3.56c.06-.06,.06-.16,0-.23l-3.56-3.56s-.07-.04-.11-.04c-.04,0-.08,.02-.11,.04h0Z" id="svg_58"/>
        <path class="cls-8" d="M331.13,130.21l-1.08,1.08c-.06,.06-.06,.16,0,.22l2.36,2.37-2.36,2.37c-.06,.06-.06,.16,0,.22l1.08,1.09c.06,.06,.16,.06,.22,0l3.56-3.56c.06-.06,.06-.16,0-.23l-3.56-3.56s-.07-.04-.11-.04c-.04,0-.08,.02-.11,.04h0Z" id="svg_59"/>
        <path class="cls-21" d="M341.13,130.21l-1.08,1.08c-.06,.06-.06,.16,0,.22l2.36,2.37-2.36,2.37c-.06,.06-.06,.16,0,.22l1.08,1.09c.06,.06,.16,.06,.22,0l3.56-3.56c.06-.06,.06-.16,0-.23l-3.56-3.56s-.07-.04-.11-.04c-.04,0-.08,.02-.11,.04h0Z" id="svg_60"/>
        <path class="cls-25" d="M351.13,130.21l-1.08,1.08c-.06,.06-.06,.16,0,.22l2.36,2.37-2.36,2.37c-.06,.06-.06,.16,0,.22l1.08,1.09c.06,.06,.16,.06,.22,0l3.56-3.56c.06-.06,.06-.16,0-.23l-3.56-3.56s-.07-.04-.11-.04c-.04,0-.08,.02-.11,.04h0Z" id="svg_61"/>
        <path class="cls-23" d="M361.13,130.21l-1.08,1.08c-.06,.06-.06,.16,0,.22l2.36,2.37-2.36,2.37c-.06,.06-.06,.16,0,.22l1.08,1.09c.06,.06,.16,.06,.22,0l3.56-3.56c.06-.06,.06-.16,0-.23l-3.56-3.56s-.07-.04-.11-.04c-.04,0-.08,.02-.11,.04h0Z" id="svg_62"/>
        <path class="cls-20" d="M371.13,130.21l-1.08,1.08c-.06,.06-.06,.16,0,.22l2.36,2.37-2.36,2.37c-.06,.06-.06,.16,0,.22l1.08,1.09c.06,.06,.16,.06,.22,0l3.56-3.56c.06-.06,.06-.16,0-.23l-3.56-3.56s-.07-.04-.11-.04c-.04,0-.08,.02-.11,.04h0Z" id="svg_63"/>
        <path class="cls-4" d="M304.06,140.21l1.08,1.08c.06,.06,.06,.16,0,.22l-2.36,2.37,2.36,2.37c.06,.06,.06,.16,0,.22l-1.08,1.09c-.06,.06-.16,.06-.22,0l-3.56-3.56c-.06-.06-.06-.16,0-.23l3.56-3.56s.07-.04,.11-.04,.08,.02,.11,.04h0Z" id="svg_64"/>
        <path class="cls-22" d="M314.06,140.21l1.08,1.08c.06,.06,.06,.16,0,.22l-2.36,2.37,2.36,2.37c.06,.06,.06,.16,0,.22l-1.08,1.09c-.06,.06-.16,.06-.22,0l-3.56-3.56c-.06-.06-.06-.16,0-.23l3.56-3.56s.07-.04,.11-.04,.08,.02,.11,.04h0Z" id="svg_65"/>
        <path class="cls-7" d="M323.83,140.21l1.08,1.08c.06,.06,.06,.16,0,.22l-2.36,2.37,2.36,2.37c.06,.06,.06,.16,0,.22l-1.08,1.09c-.06,.06-.16,.06-.22,0l-3.56-3.56c-.06-.06-.06-.16,0-.23l3.56-3.56s.06-.04,.11-.04c.05,0,.08,.02,.11,.04h0Z" id="svg_66"/>
        <path class="cls-8" d="M334.06,140.21l1.08,1.08c.06,.06,.06,.16,0,.22l-2.36,2.37,2.36,2.37c.06,.06,.06,.16,0,.22l-1.08,1.09c-.06,.06-.16,.06-.22,0l-3.56-3.56c-.06-.06-.06-.16,0-.23l3.56-3.56s.07-.04,.11-.04,.08,.02,.11,.04h0Z" id="svg_67"/>
        <path class="cls-21" d="M344.06,140.21l1.08,1.08c.06,.06,.06,.16,0,.22l-2.36,2.37,2.36,2.37c.06,.06,.06,.16,0,.22l-1.08,1.09c-.06,.06-.16,.06-.22,0l-3.56-3.56c-.06-.06-.06-.16,0-.23l3.56-3.56s.07-.04,.11-.04,.08,.02,.11,.04h0Z" id="svg_68"/>
        <path class="cls-25" d="M354.06,140.21l1.08,1.08c.06,.06,.06,.16,0,.22l-2.36,2.37,2.36,2.37c.06,.06,.06,.16,0,.22l-1.08,1.09c-.06,.06-.16,.06-.22,0l-3.56-3.56c-.06-.06-.06-.16,0-.23l3.56-3.56s.07-.04,.11-.04,.08,.02,.11,.04h0Z" id="svg_69"/>
        <path class="cls-23" d="M364.06,140.21l1.08,1.08c.06,.06,.06,.16,0,.22l-2.36,2.37,2.36,2.37c.06,.06,.06,.16,0,.22l-1.08,1.09c-.06,.06-.16,.06-.22,0l-3.56-3.56c-.06-.06-.06-.16,0-.23l3.56-3.56s.07-.04,.11-.04,.08,.02,.11,.04h0Z" id="svg_70"/>
        <path class="cls-20" d="M374.06,140.21l1.08,1.08c.06,.06,.06,.16,0,.22l-2.36,2.37,2.36,2.37c.06,.06,.06,.16,0,.22l-1.08,1.09c-.06,.06-.16,.06-.22,0l-3.56-3.56c-.06-.06-.06-.16,0-.23l3.56-3.56s.07-.04,.11-.04,.08,.02,.11,.04h0Z" id="svg_71"/>
      </g>
      <path class="cls-10" d="M374.25,168.92h6.88l-6.88-6.88v6.88Zm-8.75-8.75h10l7.5,7.5v15c0,1.38-1.12,2.5-2.5,2.5h-15c-1.39,0-2.5-1.12-2.5-2.5v-20c0-1.39,1.11-2.5,2.5-2.5Zm11.25,20v-2.5h-11.25v2.5h11.25Zm3.75-5v-2.5h-15v2.5h15Z" id="svg_72"/>
      <g id="svg_73">
        <path class="cls-26" d="M77.61,285.51c-4.48,0-7.17-2.85-7.17-7.36v-11.52h2.52v11.2c0,3.22,1.45,5.37,4.65,5.37s4.73-1.93,4.73-5.29v-11.28h2.52v11.38c0,4.67-2.77,7.49-7.25,7.49m27.25-.35l-10.17-14.42v14.42h-2.34v-18.53h2.25l9.83,13.88v-13.88h2.34v18.53h-1.91m10.01-18.53h2.53v18.53h-2.53v-18.53h0Zm18.04,18.61h-2.26l-7.14-18.26,2.52-.54,5.77,15.41,5.67-15.23h2.66l-7.22,18.61" id="svg_74"/>
        <path id="Fill-13-2" data-name="Fill-13" class="cls-26" d="M145.7,285.17v-18.53h9.99v2.31h-7.46v5.37h5.8l.38,2.31h-6.18v6.23h7.73v2.31h-10.26"/>
        <path id="Fill-14-2" data-name="Fill-14" class="cls-26" d="M167.88,268.87h-2.42v6.36h2.15c2.44,0,4-1.1,4-3.2s-1.26-3.17-3.73-3.17h0Zm7.7,15.92l-2.55,.57-5.67-8h-1.91v7.81h-2.52v-18.53h5.05c3.79,0,6.15,1.88,6.15,5.26,0,2.79-1.64,4.46-4.06,5.13l5.51,7.76h0Z"/>
        <path id="Fill-15-2" data-name="Fill-15" class="cls-26" d="M185.84,285.38c-2.01,0-3.81-.48-5.18-1.21l.38-2.58c1.26,.83,3.01,1.59,4.86,1.59s3.3-1.02,3.3-2.82c0-1.69-.75-2.39-3.54-3.65-3.49-1.58-4.81-2.74-4.81-5.4,0-2.98,2.28-4.89,5.64-4.89,1.8,0,3.14,.43,4.21,1.05l-.4,2.52c-1.02-.78-2.42-1.37-3.89-1.37-2.12,0-3.06,1.13-3.06,2.5s.7,2.1,3.52,3.38c3.6,1.64,4.83,2.87,4.83,5.67,0,3.19-2.39,5.21-5.85,5.21"/>
        <path id="Fill-16-2" data-name="Fill-16" class="cls-26" d="M198.72,266.64h2.53v18.53h-2.53v-18.53h0Z"/>
        <path id="Fill-17-2" data-name="Fill-17" class="cls-26" d="M215.77,268.95v16.22h-2.52v-16.22h-5.91v-2.31h14.12l.38,2.31h-6.07"/>
        <path id="Fill-18-2" data-name="Fill-18" class="cls-26" d="M234.86,277.81v7.36h-2.52v-7.36l-6.55-10.82,2.52-.54,5.32,9.05,5.18-8.86h2.79l-6.74,11.17"/>
        <path id="Fill-19-2" data-name="Fill-19" class="cls-26" d="M264.42,268.6c-3.68,0-5.93,2.85-5.93,7.3s2.28,7.3,5.93,7.3,5.94-2.85,5.94-7.3-2.28-7.3-5.93-7.3h0Zm-.03,16.92c-5.21,0-8.51-3.86-8.51-9.58s3.35-9.64,8.56-9.64,8.51,3.86,8.51,9.58-3.33,9.64-8.56,9.64h0Z"/>
        <path id="Fill-20-2" data-name="Fill-20" class="cls-26" d="M282.14,268.95v5.67h5.59l.38,2.31h-5.96v8.24h-2.52v-18.53h9.64v2.31h-7.12"/>
        <path class="cls-26" d="M75.01,318.39c-2.01,0-3.81-.48-5.18-1.21l.38-2.58c1.26,.83,3.01,1.58,4.86,1.58s3.3-1.02,3.3-2.82c0-1.69-.75-2.39-3.54-3.65-3.49-1.58-4.81-2.74-4.81-5.4,0-2.98,2.28-4.89,5.64-4.89,1.8,0,3.14,.43,4.21,1.05l-.4,2.53c-1.02-.78-2.42-1.37-3.89-1.37-2.12,0-3.06,1.13-3.06,2.5s.7,2.1,3.52,3.38c3.6,1.64,4.83,2.87,4.83,5.67,0,3.2-2.39,5.21-5.85,5.21m18.28-15.82l-2.95,7.81h5.93l-2.98-7.81Zm6.02,15.79l-2.18-5.75h-7.65l-2.09,5.56h-2.55l7.25-18.61h2.52l7.14,18.26-2.44,.54h0Zm20.11-.19l-10.18-14.42v14.42h-2.34v-18.53h2.26l9.83,13.88v-13.88h2.34v18.52h-1.91m19.49-16.22v5.67h5.59l.38,2.31h-5.96v8.24h-2.52v-18.53h9.64v2.31h-7.12m17.94-.08h-2.42v6.36h2.15c2.44,0,4-1.1,4-3.19s-1.26-3.17-3.73-3.17h0Zm7.71,15.92l-2.55,.56-5.67-8h-1.91v7.81h-2.52v-18.52h5.05c3.79,0,6.15,1.88,6.15,5.26,0,2.79-1.64,4.46-4.05,5.13l5.51,7.76h0Zm11.41-15.23l-2.95,7.81h5.93l-2.98-7.81h0Zm6.02,15.79l-2.18-5.75h-7.65l-2.09,5.56h-2.55l7.25-18.61h2.52l7.14,18.26-2.44,.53h0Zm19.71-.19l-10.18-14.42v14.42h-2.34v-18.53h2.26l9.83,13.88v-13.88h2.34v18.52h-1.91m16.46,.35c-5.21,0-8.57-3.87-8.57-9.59s3.41-9.64,8.62-9.64c2.2,0,3.84,.56,5.26,1.53l-.38,2.58c-1.34-1.02-2.93-1.8-4.91-1.8-3.76,0-5.99,2.85-5.99,7.3s2.26,7.27,5.99,7.27c1.99,0,3.73-.78,5.21-1.85l.37,2.39c-1.42,1.05-3.49,1.8-5.61,1.8m11.97-18.88h2.52v18.52h-2.52v-18.52h0Zm14.07,18.74c-2.01,0-3.81-.48-5.18-1.21l.38-2.58c1.26,.83,3.01,1.58,4.86,1.58s3.3-1.02,3.3-2.82c0-1.69-.75-2.39-3.54-3.65-3.49-1.58-4.81-2.74-4.81-5.4,0-2.98,2.28-4.89,5.64-4.89,1.8,0,3.14,.43,4.21,1.05l-.4,2.53c-1.02-.78-2.42-1.37-3.89-1.37-2.12,0-3.06,1.13-3.06,2.5s.7,2.1,3.52,3.38c3.6,1.64,4.83,2.87,4.83,5.67,0,3.2-2.39,5.21-5.85,5.21m18.82,.13c-5.21,0-8.57-3.87-8.57-9.59s3.41-9.64,8.62-9.64c2.2,0,3.84,.56,5.27,1.53l-.38,2.58c-1.34-1.02-2.93-1.8-4.91-1.8-3.76,0-5.99,2.85-5.99,7.3s2.25,7.27,5.99,7.27c1.99,0,3.73-.78,5.21-1.85l.38,2.39c-1.42,1.05-3.49,1.8-5.61,1.8m17.69-16.92c-3.68,0-5.93,2.85-5.93,7.3s2.28,7.3,5.93,7.3,5.93-2.85,5.93-7.3-2.28-7.3-5.93-7.3h0Zm-.02,16.92c-5.21,0-8.51-3.87-8.51-9.59s3.36-9.64,8.57-9.64,8.51,3.87,8.51,9.59c0,5.72-3.33,9.64-8.57,9.64Z" id="svg_75"/>
        <path class="cls-29" d="M6.02,360.9c-3.23,0-5.31-2.4-5.31-5.94s2.12-5.98,5.34-5.98c1.36,0,2.38,.35,3.26,.95l-.23,1.6c-.83-.63-1.81-1.12-3.05-1.12-2.33,0-3.71,1.77-3.71,4.53s1.4,4.51,3.71,4.51c1.23,0,2.31-.48,3.23-1.15l.23,1.48c-.88,.65-2.17,1.12-3.48,1.12m14.87-.22v-5.29h-5.81v5.29h-1.56v-11.49h1.56v4.76h5.81v-4.76h1.56v11.48h-1.56m10-9.67l-1.83,4.85h3.68l-1.85-4.85Zm3.73,9.79l-1.35-3.56h-4.74l-1.3,3.45h-1.58l4.5-11.54h1.56l4.43,11.32-1.52,.33h0Zm12.55-.11l-6.31-8.94v8.94h-1.45v-11.49h1.4l6.09,8.6v-8.61h1.45v11.48h-1.18m10.82,.22c-3.65,0-5.59-2.4-5.59-5.94s2.03-5.98,5.46-5.98c1.53,0,2.6,.38,3.5,.98l-.25,1.6c-.85-.67-1.92-1.15-3.26-1.15-2.51,0-3.83,1.77-3.83,4.53s1.35,4.51,3.98,4.51c1,0,1.66-.2,2.33-.57v-3.05h-2.65l-.22-1.43h4.41v5.38c-.98,.63-2.36,1.12-3.88,1.12m8.22-.22v-11.49h6.19v1.43h-4.63v3.33h3.6l.23,1.43h-3.83v3.86h4.79v1.43h-6.36m19.49-10.05v10.06h-1.57v-10.06h-3.66v-1.43h8.76l.24,1.43h-3.76m14.13,10.06v-5.29h-5.81v5.29h-1.57v-11.49h1.57v4.76h5.81v-4.76h1.57v11.48h-1.57m6.07,0v-11.49h6.2v1.43h-4.63v3.33h3.6l.23,1.43h-3.83v3.86h4.79v1.43h-6.36m26.27,0h-1.32l-3.11-9.31-3.11,9.31h-1.3l-3.4-11.27,1.53-.33,2.6,9.14,2.93-9.02h1.57l2.93,9.02,2.55-9.02h1.6l-3.46,11.48m11.22-10.27c-2.28,0-3.68,1.77-3.68,4.53s1.42,4.53,3.68,4.53,3.68-1.77,3.68-4.53-1.42-4.53-3.68-4.53h0Zm-.02,10.49c-3.23,0-5.28-2.4-5.28-5.95s2.08-5.98,5.31-5.98,5.28,2.4,5.28,5.94-2.07,5.98-5.31,5.98h0Zm12.42-10.32h-1.5v3.95h1.33c1.52,0,2.48-.68,2.48-1.98s-.78-1.96-2.32-1.96h0Zm4.78,9.87l-1.58,.35-3.51-4.96h-1.18v4.84h-1.57v-11.49h3.13c2.35,0,3.81,1.17,3.81,3.26,0,1.73-1.02,2.76-2.52,3.18l3.41,4.81h0Zm3.4,.23v-11.49h1.57v10.05h4.15l.22,1.43h-5.93m12.92-10.07h-1.82v8.66h1.77c2.76,0,4.43-1.4,4.43-4.33s-1.75-4.33-4.38-4.33h0Zm-.12,10.07h-3.26v-11.49h3.33c4,0,6.04,2.36,6.04,5.72s-2.17,5.76-6.11,5.76h0Zm16.75-10.06v3.51h3.46l.24,1.43h-3.7v5.11h-1.56v-11.49h5.98v1.43h-4.41m11.2-.05h-1.5v3.95h1.33c1.52,0,2.48-.68,2.48-1.98s-.78-1.96-2.32-1.96h0Zm4.78,9.87l-1.58,.35-3.51-4.96h-1.18v4.84h-1.57v-11.49h3.13c2.35,0,3.81,1.17,3.81,3.26,0,1.73-1.02,2.76-2.51,3.18l3.41,4.81h0Zm7.91-10.04c-2.28,0-3.68,1.77-3.68,4.53s1.42,4.53,3.68,4.53,3.68-1.77,3.68-4.53c0-2.76-1.41-4.53-3.68-4.53h0Zm-.01,10.49c-3.23,0-5.28-2.4-5.28-5.95s2.08-5.98,5.31-5.98,5.27,2.4,5.27,5.94-2.06,5.98-5.31,5.98h0Zm20.13-.22l-.71-9.14-3.63,9.19h-1.18l-3.63-9.19-.7,9.14h-1.46l.92-11.49h1.93l3.58,9.42,3.58-9.42h1.91l.9,11.48h-1.5m18.08,0v-5.29h-5.81v5.29h-1.57v-11.49h1.57v4.76h5.81v-4.76h1.57v11.48h-1.57m6.08,0v-11.49h6.19v1.43h-4.63v3.33h3.6l.23,1.43h-3.83v3.86h4.8v1.43h-6.36m13.17-10.1h-1.5v3.95h1.33c1.52,0,2.48-.68,2.48-1.98,0-1.25-.78-1.96-2.32-1.96h0Zm4.78,9.87l-1.58,.35-3.51-4.96h-1.18v4.84h-1.57v-11.49h3.13c2.35,0,3.81,1.17,3.81,3.26,0,1.73-1.02,2.76-2.52,3.18l3.41,4.81h0Zm3.31,.23v-11.49h6.19v1.43h-4.63v3.33h3.6l.23,1.43h-3.83v3.86h4.8v1.43h-6.36M.69,334.21H289.31v.66H.69v-.66h0Z" id="svg_76"/>
      </g>
      <g id="svg_77">
        <path id="Fill-13-3" data-name="Fill-13" class="cls-17" d="M53.55,281.23s-1.02-.87-2.14,.23c-1.09,1.07-.23,2.14-.23,2.14l9.06,9.06-9.06,9.07s-.87,1.02,.23,2.14c1.06,1.09,2.14,.23,2.14,.23l11.43-11.44-11.44-11.43"/>
        <path id="Fill-14-3" data-name="Fill-14" class="cls-17" d="M4.75,292.66l9.06-9.06s.87-1.01-.23-2.14c-1.07-1.09-2.14-.23-2.14-.23l-11.43,11.43H0s0,0,0,0l11.44,11.42s1.02,.87,2.14-.23c1.09-1.07,.23-2.14,.23-2.14l-9.06-9.05"/>
        <path id="Fill-15-3" data-name="Fill-15" class="cls-17" d="M43.68,311.57c-1.06-1.09-2.14-.23-2.14-.23l-9.06,9.06-9.06-9.06s-1.02-.87-2.14,.23c-1.09,1.07-.23,2.14-.23,2.14l11.43,11.43h0s0,0,0,0l11.42-11.43s.87-1.02-.23-2.14"/>
        <path id="Fill-16-3" data-name="Fill-16" class="cls-17" d="M43.92,271.6l-11.43-11.44h0s0,0,0,0l-11.43,11.43s-.87,1.02,.23,2.14c1.07,1.09,2.14,.23,2.14,.23l9.06-9.06,9.06,9.06s1.02,.87,2.14-.23c1.09-1.07,.23-2.14,.23-2.14"/>
        <path id="Fill-17-3" data-name="Fill-17" class="cls-17" d="M51.84,296.47c1.03-1.13,.78-2.27,.78-2.27h-18.58v18.59s1.15,.25,2.27-.78c1.17-1.08,1.08-2.36,1.08-2.36v-9.72l9.56,9.56s1.02,.87,2.14-.23c1.09-1.07,.23-2.14,.23-2.14l-9.57-9.56h9.73s1.28,.09,2.35-1.08"/>
        <path id="Fill-18-3" data-name="Fill-18" class="cls-17" d="M30.95,294.2H12.37s-.26,1.15,.78,2.27c1.08,1.17,2.36,1.08,2.36,1.08h9.72l-9.56,9.56s-.87,1.01,.23,2.14c1.07,1.09,2.14,.23,2.14,.23l9.56-9.57v9.73s-.09,1.28,1.08,2.36c1.12,1.03,2.27,.78,2.27,.78v-18.58"/>
        <path id="Fill-19-3" data-name="Fill-19" class="cls-17" d="M28.68,273.31c-1.17,1.08-1.08,2.36-1.08,2.36v9.72l-9.56-9.56s-1.02-.87-2.14,.23c-1.09,1.07-.23,2.14-.23,2.14l9.56,9.56H15.5s-1.28-.09-2.36,1.08c-1.03,1.13-.78,2.28-.78,2.28H30.95v-18.59s-1.15-.25-2.27,.78"/>
        <path id="Fill-20-3" data-name="Fill-20" class="cls-17" d="M51.84,288.85c-1.08-1.17-2.36-1.08-2.36-1.08h-9.72l9.56-9.56s.87-1.01-.23-2.14c-1.07-1.09-2.14-.23-2.14-.23l-9.56,9.57v-9.73s.09-1.28-1.08-2.36c-1.12-1.03-2.27-.78-2.27-.78v18.59h18.58s.25-1.15-.78-2.27"/>
      </g>
      <path class="cls-10" d="M350.08,100.3l-3.65,3.65-3.65-3.65c-.18-.18-.48-.18-.66,0l-1.99,1.99c-.18,.18-.18,.48,0,.66l3.65,3.65-3.65,3.65c-.18,.18-.18,.48,0,.66l1.99,1.99c.18,.18,.48,.18,.66,0l3.65-3.65,3.65,3.65c.18,.18,.48,.18,.66,0l1.99-1.99c.18-.18,.18-.48,0-.66l-3.65-3.65,3.65-3.65c.18-.18,.18-.48,0-.66l-1.99-1.99c-.18-.18-.48-.18-.66,0h0Z" id="svg_78"/>
      <path class="cls-8" d="M444.81,131.17c-2.65,0-4.81,2.16-4.81,4.81,0,2.36,1.7,4.32,3.94,4.73v1.83c0,.47,.41,.88,.88,.88,.23,0,.45-.09,.62-.25l2.44-2.37h1.31c2.65,0,4.81-2.16,4.81-4.81s-2.16-4.81-4.81-4.81h-4.38Zm-14.83,.76l-1.43-.36s0-.06,0-.1c0-.73-.59-1.31-1.31-1.31s-1.31,.59-1.31,1.31c0,.03,0,.06,0,.1l-1.43,.36c-.19,.05-.33,.23-.33,.42v.88c0,.24,.2,.44,.44,.44h5.25c.24,0,.44-.2,.44-.44v-.88c0-.2-.14-.38-.33-.42h0Zm-2.73,.42c-.48,0-.88-.39-.88-.88s.39-.88,.88-.88,.88,.39,.88,.88-.39,.88-.88,.88Zm4.81,.44h-.88v.44c0,.72-.59,1.31-1.31,1.31h-5.25c-.73,0-1.31-.59-1.31-1.31v-.44h-.88c-.24,0-.44,.2-.44,.44v10.5c0,.24,.2,.44,.44,.44h9.62c.24,0,.44-.2,.44-.44v-10.5c0-.24-.2-.44-.44-.44h0Zm-18.06-.62h-10.5v1.75h10.5v-1.75Zm-13.12,0c-.48,0-.88,.39-.88,.88s.39,.88,.88,.88,.88-.39,.88-.88-.39-.88-.88-.88Zm0,3.5c-.48,0-.88,.39-.88,.88s.39,.88,.88,.88,.88-.39,.88-.88-.39-.88-.88-.88Zm13.12,0h-10.5v1.75h10.5v-1.75Zm-13.12,3.5c-.48,0-.88,.39-.88,.88s.39,.88,.88,.88,.88-.39,.88-.88-.39-.88-.88-.88Zm13.12,0h-10.5v1.75h10.5v-1.75Zm73-9c-3.87,0-7,3.13-7,7s3.13,7,7,7,7-3.13,7-7-3.13-7-7-7Zm0,5.5c-.85,0-1.53-.68-1.53-1.53s.68-1.53,1.53-1.53,1.53,.69,1.53,1.53-.68,1.53-1.53,1.53h0Zm1.31,5.47c0,.24-.2,.44-.44,.44h-1.75c-.24,0-.44-.19-.44-.44v-4.38c0-.24,.2-.44,.44-.44h1.75c.24,0,.44,.2,.44,.44v4.38h0Zm-14.44-8.22l-2.62-2.62c-.17-.17-.44-.17-.61,0l-1.22,1.22,3.24,3.24,1.23-1.22c.17-.17,.17-.44,0-.62Zm-5.09-.79l-8.22,8.22c-.07,.07-.11,.15-.12,.25l-.44,3.06c-.04,.24,.18,.5,.43,.5,.02,0,.04,0,.06,0l3.06-.44c.1-.01,.18-.05,.25-.12l8.22-8.22-3.25-3.25h0Zm-7.91,11.15l.44-2.62,2.18,2.19-2.62,.44h0Z" id="svg_79"/>
      <path class="cls-10" d="M32.73,61.17h-10.02c-.15,0-.27,.12-.27,.27v9.2c0,.31-.24,.55-.54,.55s-.55-.24-.55-.55v-7.85h-1.08c-.15,0-.27,.12-.27,.27v7.85c0,.9,.72,1.62,1.62,1.62h9.75c.9,0,1.63-.72,1.63-1.62v-9.48c0-.15-.12-.27-.27-.27Zm-1.35,4.88h-4.88v-2.44h4.88v2.44Z" id="svg_80"/>
      <g id="svg_81">
        <path class="cls-15" d="M482.96,217.84s-.81-.73-1.7,.19c-.86,.89-.18,1.78-.18,1.78l7.17,7.53-7.17,7.53s-.69,.85,.18,1.78c.84,.9,1.7,.19,1.7,.19l9.04-9.5-9.04-9.5m-38.26,9.5l7.16-7.53s.69-.84-.18-1.78c-.84-.9-1.69-.19-1.69-.19l-9.04,9.49h0s0,0,0,0l9.04,9.49s.81,.72,1.69-.19c.86-.89,.18-1.78,.18-1.78l-7.16-7.52m30.54,15.83c-.85-.9-1.7-.19-1.7-.19l-7.16,7.53-7.16-7.53s-.8-.72-1.69,.19c-.86,.89-.18,1.78-.18,1.78l9.04,9.5h0s0,0,0,0l9.04-9.5s.69-.85-.18-1.78m.18-33.49l-9.04-9.5h0s0,0,0,0l-9.04,9.5s-.69,.84,.18,1.78c.84,.91,1.69,.19,1.69,.19l7.17-7.53,7.17,7.53s.81,.72,1.69-.19c.86-.88,.18-1.78,.18-1.78" id="svg_82"/>
        <path class="cls-15" d="M481.61,230.08c.82-.93,.61-1.89,.61-1.89h-14.7v15.44s.91,.21,1.8-.65c.93-.9,.85-1.96,.85-1.96v-8.07l7.56,7.94s.8,.72,1.69-.19c.86-.89,.19-1.78,.19-1.78l-7.56-7.95h7.7s1.01,.08,1.86-.9m-16.45-1.89h-14.7s-.2,.96,.61,1.89c.85,.97,1.86,.9,1.86,.9h7.69l-7.56,7.94s-.69,.85,.18,1.78c.84,.9,1.69,.19,1.69,.19l7.56-7.94v8.08s-.07,1.06,.86,1.96c.89,.85,1.8,.65,1.8,.65v-15.44m-1.8-16.73c-.93,.9-.85,1.96-.85,1.96v8.07l-7.56-7.94s-.81-.72-1.69,.19c-.86,.89-.18,1.78-.18,1.78l7.56,7.95h-7.7s-1.01-.08-1.86,.9c-.82,.93-.61,1.89-.61,1.89h14.7v-15.44s-.91-.21-1.8,.65m16.38,12.01h-7.69l7.56-7.94s.69-.85-.18-1.78c-.85-.9-1.69-.19-1.69-.19l-7.57,7.95v-8.09s.07-1.06-.85-1.96c-.89-.86-1.8-.65-1.8-.65v15.45h14.7s.2-.96-.61-1.89c-.85-.98-1.87-.9-1.87-.9h0Z" id="svg_83"/>
      </g>
      <path class="cls-7" d="M494,109.17c0-.83-.67-1.5-1.5-1.5h-5.67c1.1-.42,1.84-.69,2.51-1.01,.5-.23,1.66-.79,1.66-1.99,0-1.64-2.86-4.5-4.5-4.5-1.12,0-2.32,1.24-4.5,3.7-2.18-2.46-3.38-3.7-4.5-3.7-1.64,0-4.5,2.86-4.5,4.5,0,1.21,1.16,1.76,1.66,1.99,.67,.32,1.41,.59,2.51,1.01h-5.67c-.83,0-1.5,.67-1.5,1.5v3h24v-3Zm-22.5,13.5c0,.83,.67,1.5,1.5,1.5h18c.83,0,1.5-.67,1.5-1.5v-9h-21v9Z" id="svg_84"/>
      <path class="cls-18" d="M395.85,65.31l-5-5c-.09-.1-.23-.15-.35-.15s-.26,.05-.35,.15c-.62,.62-.73,1.57-.31,2.31l-2.91,2.91c-.53-.26-1.34-.44-2.12-.44-1.07,0-2.3,.48-2.3,1.08,0,.12,.05,.26,.15,.35l2.76,2.76-4.91,5.89-.5,1,1-.5,5.89-4.91,2.76,2.76c.09,.1,.23,.15,.35,.15,.59,0,1.08-1.23,1.08-2.31,0-.78-.18-1.59-.44-2.12l2.91-2.91c.73,.41,1.68,.31,2.31-.31,.1-.09,.15-.23,.15-.35s-.05-.26-.15-.35h0Z" id="svg_85"/>
      <path class="cls-4" d="M461.38,65.42h-2.19v-4.38c0-.49-.39-.88-.88-.88h-2.62c-.48,0-.88,.39-.88,.88v4.38h-2.19c-.47,0-.88,.36-.88,.88,0,.23,.09,.45,.25,.62l4.38,4.38c.16,.16,.39,.25,.62,.25s.45-.09,.61-.25l4.38-4.38c.17-.17,.26-.4,.26-.62,0-.52-.4-.88-.87-.88Zm.88,7h-10.5v-3.5h-1.75v3.5c0,.96,.79,1.75,1.75,1.75h10.5c.96,0,1.75-.79,1.75-1.75v-3.5h-1.75v3.5Z" id="svg_86"/>
      <g id="svg_87">
        <path class="cls-10" d="M410.47,164.17c-.81,0-1.47,.67-1.47,1.51v15.13c0,.84,.65,1.51,1.47,1.51v-15.24c0-.95,.73-1.4,1.29-1.4h20.72c0-.84-.65-1.51-1.47-1.51h-20.54Z" id="svg_88"/>
        <path class="cls-10" d="M434.53,167.8h-20.54c-.82,0-1.47,.67-1.47,1.51v15.13c0,.84,.65,1.51,1.47,1.51h20.54c.81,0,1.47-.67,1.47-1.51v-15.13c0-.84-.65-1.51-1.47-1.51h0Zm-4.4,3.03c1.62,0,2.94,1.36,2.94,3.03s-1.32,3.03-2.94,3.03-2.93-1.36-2.93-3.03,1.32-3.03,2.93-3.03h0Zm-.81,12.11h-14.38c.21-.43,5-10.18,5-10.18,.11-.24,.34-.39,.61-.41h.05c.24,0,.47,.13,.61,.34l2.44,3.77,.84-.86c.14-.14,.32-.23,.52-.23,.03,0,.08,0,.11,.01,.24,.04,.43,.19,.54,.4,0,0,3.31,6.34,3.67,7.15h0Z" id="svg_89"/>
      </g>
      <g id="svg_90">
        <path class="cls-17" d="M38.72,215.4s-.74-.63-1.55,.16c-.79,.77-.17,1.55-.17,1.55l6.55,6.55-6.55,6.55s-.63,.74,.17,1.55c.77,.79,1.55,.17,1.55,.17l8.27-8.27-8.27-8.27M3.43,223.66l6.55-6.55s.63-.73-.17-1.55c-.77-.79-1.55-.17-1.55-.17L0,223.66H0s0,0,0,0l8.27,8.26s.74,.63,1.55-.17c.79-.77,.17-1.55,.17-1.55l-6.55-6.55m28.15,13.68c-.77-.79-1.55-.17-1.55-.17l-6.55,6.55-6.55-6.55s-.74-.63-1.55,.17c-.79,.77-.17,1.55-.17,1.55l8.26,8.27h0s0,0,0,0l8.26-8.27s.63-.74-.17-1.55m.17-28.9l-8.26-8.27h0s0,0,0,0l-8.26,8.27s-.63,.73,.17,1.55c.77,.79,1.55,.17,1.55,.17l6.55-6.55,6.55,6.55s.74,.63,1.55-.17c.79-.77,.17-1.55,.17-1.55" id="svg_91"/>
        <path class="cls-17" d="M37.48,226.42c.75-.81,.56-1.65,.56-1.65h-13.44v13.44s.83,.18,1.64-.57c.85-.78,.78-1.7,.78-1.7v-7.03l6.91,6.91s.74,.63,1.55-.17c.79-.77,.17-1.55,.17-1.55l-6.92-6.91h7.04s.92,.07,1.7-.78m-15.1-1.65H8.94s-.18,.83,.56,1.64c.78,.85,1.7,.79,1.7,.79h7.03l-6.91,6.91s-.63,.73,.17,1.55c.77,.79,1.55,.17,1.55,.17l6.92-6.92v7.04s-.07,.93,.78,1.71c.81,.75,1.64,.56,1.64,.56v-13.44m-1.64-15.1c-.85,.78-.78,1.71-.78,1.71v7.03l-6.91-6.91s-.74-.63-1.55,.17c-.79,.77-.17,1.55-.17,1.55l6.91,6.91h-7.03s-.93-.07-1.7,.78c-.75,.81-.56,1.65-.56,1.65h13.44v-13.44s-.83-.18-1.64,.56m16.75,11.24c-.78-.85-1.71-.79-1.71-.79h-7.03l6.91-6.91s.63-.73-.17-1.55c-.77-.78-1.55-.16-1.55-.16l-6.92,6.92v-7.04s.07-.93-.78-1.71c-.81-.74-1.64-.56-1.64-.56v13.44h13.44s.18-.83-.57-1.64" id="svg_92"/>
      </g>
      <path class="cls-10" d="M428.11,283.14c-2.75,0-3.8-2.03-3.8-3.46v-4.24h-1.31v-1.67c1.97-.71,2.44-2.48,2.55-3.49,0-.07,.06-.1,.09-.1h1.9v3.3h2.6v1.96h-2.61v4.04c.01,.54,.2,1.28,1.19,1.28,.02,0,.04,0,.05,0,.34-.01,.81-.11,1.05-.23l.62,1.85c-.23,.35-1.29,.74-2.25,.76h-.1m11.89-6.47c0,2.75,1.71,5.11,4.13,6.05-.06-.51-.11-1.3,.02-1.86,.12-.51,.76-3.23,.76-3.23,0,0-.19-.39-.19-.97,0-.9,.52-1.58,1.18-1.58,.55,0,.82,.42,.82,.92,0,.56-.36,1.39-.54,2.16-.15,.65,.32,1.17,.96,1.17,1.16,0,2.04-1.22,2.04-2.98,0-1.56-1.12-2.65-2.71-2.65-1.85,0-2.93,1.39-2.93,2.82,0,.56,.21,1.16,.48,1.48,.05,.07,.06,.12,.05,.19-.05,.2-.16,.65-.18,.74-.03,.12-.09,.14-.22,.09-.81-.38-1.32-1.56-1.32-2.52,0-2.05,1.49-3.93,4.3-3.93,2.26,0,4.01,1.61,4.01,3.75s-1.41,4.04-3.37,4.04c-.66,0-1.28-.34-1.49-.75l-.4,1.55c-.15,.57-.54,1.27-.81,1.7,.61,.19,1.26,.29,1.92,.29,3.59,0,6.5-2.91,6.5-6.5s-2.91-6.5-6.5-6.5-6.5,2.91-6.5,6.5h0Zm-27.01-2.9c-.06,1.27-.94,3-2.65,5.2-1.77,2.3-3.27,3.45-4.49,3.45-.76,0-1.4-.7-1.92-2.1l-1.05-3.85c-.39-1.4-.8-2.1-1.25-2.1-.1,0-.44,.21-1.02,.61l-.61-.79c.64-.56,1.27-1.13,1.9-1.69,.86-.74,1.5-1.13,1.93-1.17,1.01-.1,1.63,.6,1.87,2.07,.25,1.6,.43,2.59,.53,2.98,.29,1.33,.61,1.99,.96,1.99,.27,0,.68-.43,1.23-1.29,.54-.86,.84-1.51,.88-1.96,.08-.74-.21-1.11-.87-1.11-.31,0-.63,.07-.96,.21,.64-2.09,1.86-3.11,3.66-3.05,1.34,.04,1.97,.9,1.89,2.6m28.65,35.62c-4.08,0-5.63-3.01-5.63-5.13v-6.28h-1.94v-2.48c2.92-1.05,3.62-3.68,3.78-5.18,.01-.1,.09-.14,.14-.14h2.82v4.9h3.85v2.91h-3.86v5.98c.01,.8,.3,1.9,1.77,1.9h.08c.51-.01,1.19-.16,1.55-.33l.93,2.74c-.35,.51-1.92,1.1-3.33,1.13h-.15m18.35-9.59c0,4.08,2.54,7.56,6.12,8.97-.08-.76-.16-1.93,.03-2.76,.17-.75,1.13-4.79,1.13-4.79,0,0-.29-.58-.29-1.43,0-1.34,.78-2.34,1.74-2.34,.82,0,1.22,.62,1.22,1.36,0,.83-.53,2.06-.8,3.21-.23,.96,.48,1.74,1.42,1.74,1.71,0,3.03-1.81,3.03-4.41,0-2.31-1.66-3.92-4.02-3.92-2.74,0-4.35,2.06-4.35,4.18,0,.83,.32,1.71,.72,2.2,.08,.1,.09,.18,.07,.28-.07,.3-.23,.96-.27,1.09-.04,.18-.14,.21-.32,.13-1.2-.56-1.95-2.32-1.95-3.73,0-3.04,2.21-5.83,6.36-5.83,3.34,0,5.94,2.38,5.94,5.56s-2.09,5.99-5,5.99c-.98,0-1.89-.51-2.21-1.11,0,0-.48,1.84-.6,2.29-.22,.83-.8,1.89-1.2,2.52,.9,.28,1.86,.43,2.85,.43,5.32,0,9.63-4.31,9.63-9.63s-4.31-9.63-9.63-9.63-9.63,4.31-9.63,9.63h0Zm-40.75-4.29c-.08,1.88-1.39,4.44-3.93,7.7-2.62,3.4-4.83,5.1-6.65,5.1-1.12,0-2.07-1.04-2.85-3.11l-1.55-5.7c-.58-2.07-1.19-3.11-1.86-3.11-.14,0-.65,.3-1.51,.91l-.91-1.17c.95-.83,1.89-1.67,2.81-2.51,1.27-1.09,2.22-1.67,2.86-1.73,1.5-.14,2.42,.88,2.77,3.07,.37,2.36,.64,3.84,.78,4.41,.43,1.96,.91,2.94,1.43,2.94,.4,0,1.01-.64,1.82-1.91,.81-1.27,1.24-2.24,1.3-2.91,.12-1.1-.32-1.65-1.3-1.65-.46,0-.94,.11-1.43,.32,.95-3.1,2.76-4.61,5.42-4.52,1.98,.06,2.91,1.34,2.8,3.85" id="svg_93"/>
      <g id="svg_94">
        <path class="cls-10" d="M428.15,73.29v3.38h-5.4v-.74h-3.61v2.22h4.05v2.15h-4.05v2.68l1.55,.62v2.94l-9.28-3.72v-2.93l1.59,.64v-4.6h-1.59v-2.63h16.74Z" id="svg_95"/>
        <path class="cls-10" d="M427.34,64.42h-5.84v-.59h-3.8v1.91h6.75c1.08,0,1.96,.17,2.65,.52,.69,.34,1.04,.76,1.04,1.24v2.78c0,.45-.38,.84-1.14,1.16-.76,.32-1.66,.48-2.69,.48h-12.95v-3.02h6.36v.69h3.78v-1.94h-6.47c-1.17,0-2.14-.19-2.9-.58s-1.14-.84-1.14-1.35v-2.6c0-.54,.45-.83,1.35-1.12,.9-.29,1.94-.44,3.11-.44h11.88v2.85h0Z" id="svg_96"/>
        <path class="cls-14" d="M431.96,61.33s-1.3,0-1.3,1.17v17.38c0,1.94-.38,4.15-2.76,5.3-3.85,1.85-7.09,3.47-8.32,3.46-1.23,0-4.46-1.61-8.32-3.46-2.39-1.14-2.76-3.36-2.76-5.3v-17.38c0-1.17-1.3-1.17-1.3-1.17h-5.9v5.22h1.06s1.07-.12,1.04,.95c-.02,.83,0,12.02,0,12.02-.08,3.52,.66,8.32,7.39,10.83,5.24,1.96,7.44,3.37,8.8,3.37s3.56-1.41,8.8-3.37c6.73-2.52,7.47-7.31,7.39-10.83,0,0,.02-11.19,0-12.02-.03-1.07,1.04-.95,1.04-.95h1.06v-5.22h-5.9Z" id="svg_97"/>
      </g>
      <path id="svg_104" data-name="svg 104" class="cls-13" d="M45.79,17.03c-.56-.41-1.33-.32-1.79,.19-.52,.42-.61,1.18-.19,1.71l7.57,7.26-7.57,7.26c-.42,.52-.34,1.28,.18,1.7,0,0,0,0,.01,0,.47,.5,1.23,.58,1.79,.18l9.56-9.15-9.56-9.16Z"/>
      <path id="svg_105" data-name="svg 105" class="cls-13" d="M5,26.18l7.58-7.25c.42-.51,.34-1.27-.17-1.69,0,0-.02-.01-.03-.02-.46-.51-1.23-.59-1.79-.19L1,26.18h0l9.56,9.14c.55,.41,1.33,.34,1.79-.18,.53-.42,.62-1.19,.2-1.72l-7.55-7.24Z"/>
      <path id="svg_106" data-name="svg 106" class="cls-13" d="M37.55,41.33c-.46-.51-1.23-.59-1.79-.19l-7.57,7.25-7.57-7.25c-.56-.41-1.33-.32-1.79,.19-.52,.42-.61,1.18-.19,1.71l9.54,9.16h0l9.55-9.16c.42-.51,.35-1.27-.16-1.69,0,0-.02-.01-.02-.02Z"/>
      <path id="svg_107" data-name="svg 107" class="cls-13" d="M37.75,9.33L28.2,.17h0l-9.55,9.16c-.42,.51-.35,1.27,.16,1.69,0,0,.02,.01,.03,.02,.46,.51,1.23,.59,1.79,.19l7.57-7.25,7.57,7.25c.56,.41,1.33,.32,1.79-.19,.52-.42,.61-1.18,.19-1.71Z"/>
      <path id="svg_108" data-name="svg 108" class="cls-13" d="M44.36,29.24c.48-.46,.72-1.13,.64-1.79h-15.52v14.85c.7,.09,1.39-.15,1.9-.63,.57-.46,.9-1.15,.9-1.88v-7.78l8,7.65c.56,.4,1.33,.3,1.78-.21,.52-.42,.61-1.18,.19-1.71l-8-7.66h8.13c.75,.01,1.47-.29,1.98-.84Z"/>
      <path id="svg_109" data-name="svg 109" class="cls-13" d="M26.91,27.45H11.37c-.08,.66,.15,1.33,.63,1.79,.52,.55,1.24,.87,2,.86h8.13l-8,7.65c-.42,.52-.33,1.28,.19,1.7,.47,.5,1.23,.58,1.79,.18l8-7.65v7.79c0,.73,.33,1.43,.89,1.9,.51,.48,1.2,.72,1.9,.63v-14.85Z"/>
      <path id="svg_110" data-name="svg 110" class="cls-13" d="M25,10.7c-.57,.46-.9,1.15-.91,1.88v7.78l-8-7.65c-.56-.41-1.33-.33-1.79,.19-.52,.42-.61,1.18-.19,1.71l8,7.66H14c-.76-.01-1.49,.3-2,.86-.5,.47-.74,1.14-.65,1.82h15.56V10.07c-.7-.09-1.4,.14-1.91,.63Z"/>
      <path id="svg_111" data-name="svg 111" class="cls-13" d="M44.36,23.13c-.51-.56-1.24-.87-2-.86h-8.09l8-7.66c.42-.51,.35-1.26-.16-1.68-.01-.01-.03-.02-.04-.03-.47-.5-1.23-.58-1.79-.18l-8,7.65v-7.79c0-.73-.33-1.43-.9-1.89-.51-.48-1.21-.71-1.9-.62v14.88h15.52c.09-.67-.15-1.35-.64-1.82Z"/>
      <path id="svg_112" data-name="svg 112" class="cls-10" d="M69.64,20.08c-4.31,0-6.89-2.62-6.89-6.77V2.71h2.42V13.01c0,3,1.4,4.94,4.47,4.94s4.54-1.78,4.54-4.87V2.71h2.42V13.18c0,4.27-2.66,6.9-6.96,6.9Z"/>
      <path id="svg_113" data-name="svg 113" class="cls-10" d="M95.56,19.75l-9.77-13.3v13.3h-2.25V2.75h2.17l9.44,12.7V2.71h2.24V19.71l-1.83,.04Z"/>
      <path id="svg_114" data-name="svg 114" class="cls-10" d="M104.8,19.75V2.75h2.42V19.75h-2.42Z"/>
      <path id="svg_115" data-name="svg 115" class="cls-10" d="M121.62,19.83h-2.17l-6.86-16.8,2.41-.49,5.54,14.18,5.44-14h2.56l-6.92,17.11Z"/>
      <path id="svg_116" data-name="svg 116" class="cls-10" d="M133.9,19.75V2.75h9.6v2.08h-7.17v4.94h5.57l.36,2.13h-5.93v5.73h7.42v2.12h-9.85Z"/>
      <path id="svg_117" data-name="svg 117" class="cls-10" d="M162.1,19.45l-2.45,.52-5.45-7.36h-1.83v7.14h-2.37V2.75h4.85c3.63,0,5.9,1.73,5.9,4.84,0,2.57-1.57,4.1-3.89,4.72l5.24,7.14Zm-7.41-14.69h-2.32v5.85h2.07c2.34,0,3.84-1,3.84-2.94s-1.21-2.91-3.59-2.91Z"/>
      <path id="svg_118" data-name="svg 118" class="cls-10" d="M171.7,19.95c-1.73,.03-3.44-.35-5-1.11l.36-2.37c1.39,.91,3.01,1.41,4.67,1.46,1.85,0,3.17-.94,3.17-2.6s-.72-2.2-3.41-3.36c-3.35-1.46-4.61-2.52-4.61-5,0-2.75,2.19-4.5,5.41-4.5,1.41-.02,2.81,.32,4.05,1l-.34,2.33c-1.08-.8-2.39-1.24-3.74-1.26-2,0-2.94,1-2.94,2.29s.67,1.93,3.38,3.12c3.45,1.5,4.64,2.64,4.64,5.21-.02,2.94-2.34,4.79-5.64,4.79Z"/>
      <path id="svg_119" data-name="svg 119" class="cls-10" d="M183.69,19.75V2.75h2.43V19.75h-2.43Z"/>
      <path id="svg_120" data-name="svg 120" class="cls-10" d="M199.56,4.83v14.92h-2.43V4.83h-5.67V2.71h13.54l.36,2.12h-5.8Z"/>
      <path id="svg_121" data-name="svg 121" class="cls-10" d="M216.74,12.99v6.76h-2.43v-6.76l-6.31-9.96,2.42-.49,5.11,8.32,5-8.15h2.68l-6.47,10.28Z"/>
      <path id="svg_122" data-name="svg 122" class="cls-10" d="M241.38,20.08c-5,0-8.18-3.56-8.18-8.82s3.22-8.87,8.23-8.87,8.17,3.55,8.17,8.82-3.19,8.87-8.22,8.87Zm0-15.57c-3.53,0-5.7,2.62-5.7,6.72s2.19,6.72,5.7,6.72,5.7-2.62,5.7-6.72-2.17-6.72-5.68-6.72h-.02Z"/>
      <path id="svg_123" data-name="svg 123" class="cls-10" d="M258,4.83v5.22h5.37l.36,2.12h-5.73v7.58h-2.42V2.75h9.26v2.08h-6.84Z"/>
      <path id="svg_124" data-name="svg 124" class="cls-10" d="M280.93,19.95c-1.73,.03-3.44-.35-5-1.11l.36-2.37c1.4,.92,3.03,1.42,4.71,1.46,1.86,0,3.17-.94,3.17-2.6s-.72-2.2-3.41-3.36c-3.35-1.46-4.61-2.52-4.61-5,0-2.75,2.19-4.5,5.42-4.5,1.41-.02,2.81,.33,4.05,1l-.39,2.33c-1.08-.8-2.39-1.24-3.74-1.26-2,0-2.94,1-2.94,2.29s.67,1.93,3.38,3.12c3.45,1.5,4.64,2.64,4.64,5.21-.02,2.94-2.32,4.79-5.64,4.79Z"/>
      <path id="svg_125" data-name="svg 125" class="cls-10" d="M304.27,19.93l-2.09-5.29h-7.35l-2,5.11h-2.45l7-17.12h2.43l6.81,16.82-2.35,.48Zm-5.77-14.48l-2.84,7.19h5.7l-2.86-7.19Z"/>
      <path id="svg_126" data-name="svg 126" class="cls-10" d="M323.47,19.75l-9.78-13.3v13.3h-2.24V2.75h2.16l9.45,12.7V2.71h2.24V19.71l-1.83,.04Z"/>
      <path id="svg_127" data-name="svg 127" class="cls-10" d="M342.45,4.83v5.22h5.37l.36,2.12h-5.73v7.58h-2.45V2.75h9.26v2.08h-6.81Z"/>
      <path id="svg_128" data-name="svg 128" class="cls-10" d="M367.48,19.45l-2.45,.52-5.44-7.36h-1.84v7.14h-2.42V2.75h4.85c3.64,0,5.91,1.73,5.91,4.84,0,2.57-1.58,4.1-3.9,4.72l5.29,7.14Zm-7.4-14.65h-2.33v5.85h2.07c2.35,0,3.84-1,3.84-2.94s-1.21-2.95-3.58-2.95v.04Z"/>
      <path id="svg_129" data-name="svg 129" class="cls-10" d="M385,19.93l-2.09-5.29h-7.35l-2,5.11h-2.46l7-17.12h2.42l6.83,16.82-2.35,.48Zm-5.78-14.48l-2.84,7.19h5.7l-2.86-7.19Z"/>
      <path id="svg_130" data-name="svg 130" class="cls-10" d="M404.71,19.75l-9.78-13.3v13.3h-2.24V2.75h2.16l9.44,12.7V2.71h2.25V19.71l-1.83,.04Z"/>
      <path id="svg_131" data-name="svg 131" class="cls-10" d="M420.78,20.08c-5,0-8.23-3.56-8.23-8.82s3.28-8.87,8.28-8.87c1.79-.05,3.55,.44,5.06,1.4l-.36,2.38c-1.35-1.05-3.01-1.64-4.73-1.66-3.61,0-5.75,2.62-5.75,6.72s2.17,6.7,5.75,6.7c1.8-.04,3.55-.64,5-1.71l.36,2.2c-1.59,1.07-3.46,1.65-5.38,1.66Z"/>
      <path id="svg_132" data-name="svg 132" class="cls-10" d="M431.9,19.75V2.75h2.42V19.75h-2.42Z"/>
      <path id="svg_133" data-name="svg 133" class="cls-10" d="M445,19.95c-1.73,.02-3.44-.36-5-1.11l.37-2.37c1.39,.91,3,1.42,4.66,1.46,1.86,0,3.17-.94,3.17-2.6s-.72-2.2-3.4-3.36c-3.35-1.46-4.62-2.52-4.62-5,0-2.75,2.2-4.5,5.42-4.5,1.41-.02,2.81,.32,4.05,1l-.39,2.33c-1.08-.8-2.39-1.24-3.74-1.26-2,0-2.94,1-2.94,2.29s.67,1.93,3.38,3.12c3.46,1.5,4.64,2.64,4.64,5.21,.05,2.94-2.24,4.79-5.6,4.79Z"/>
      <path id="svg_134" data-name="svg 134" class="cls-10" d="M463.24,20.08c-5,0-8.22-3.56-8.22-8.82s3.27-8.87,8.28-8.87c1.79-.05,3.55,.44,5.05,1.4l-.35,2.38c-1.35-1.05-3.01-1.64-4.72-1.66-3.61,0-5.75,2.62-5.75,6.72s2.17,6.7,5.75,6.7c1.8-.04,3.55-.64,5-1.71l.36,2.2c-1.6,1.08-3.48,1.65-5.4,1.66Z"/>
      <path id="svg_135" data-name="svg 135" class="cls-10" d="M480.35,20.08c-5,0-8.18-3.56-8.18-8.82s3.23-8.87,8.23-8.87,8.18,3.55,8.18,8.82-3.2,8.87-8.23,8.87Zm0-15.57c-3.53,0-5.7,2.62-5.7,6.72s2.2,6.72,5.7,6.72,5.71-2.62,5.71-6.72-2.18-6.72-5.69-6.72h-.02Z"/>
      <path id="svg_136" data-name="svg 136" class="cls-10" d="M68.68,50.22c-3.67,0-6-2.61-6-6.46s2.4-6.5,6.06-6.5c1.31-.05,2.6,.3,3.71,1l-.27,1.74c-.99-.77-2.21-1.2-3.46-1.21-2.64,0-4.21,1.91-4.21,4.92s1.59,4.9,4.21,4.9c1.3,0,2.57-.41,3.64-1.16l.26,1.61c-1.17,.77-2.54,1.17-3.94,1.16Z"/>
      <path id="svg_137" data-name="svg 137" class="cls-10" d="M89.53,49.98v-5.75h-6.59v5.75h-1.78v-12.53h1.78v5.18h6.59v-5.18h1.78v12.53h-1.78Z"/>
      <path id="svg_138" data-name="svg 138" class="cls-10" d="M108.92,50.11l-1.53-3.87h-5.39l-1.47,3.74h-1.8l5.1-12.53h1.78l5,12.31-1.69,.35Zm-4.24-10.66l-2.07,5.27h4.17l-2.1-5.27Z"/>
      <path id="svg_139" data-name="svg 139" class="cls-10" d="M127,49.98l-7.16-9.71v9.71h-1.65v-12.53h1.59l6.91,9.36v-9.36h1.65v12.53h-1.34Z"/>
      <path id="svg_140" data-name="svg 140" class="cls-10" d="M143,50.22c-4.13,0-6.34-2.61-6.34-6.46s2.3-6.5,6.19-6.5c1.41-.05,2.81,.32,4,1.07l-.28,1.74c-1.06-.82-2.37-1.26-3.71-1.25-2.85,0-4.34,1.91-4.34,4.92s1.53,4.9,4.51,4.9c.92,.03,1.84-.18,2.65-.61v-3.31h-3l-.24-1.56h5v5.85c-1.34,.8-2.88,1.21-4.44,1.21Z"/>
      <path id="svg_141" data-name="svg 141" class="cls-10" d="M156.26,49.98v-12.53h7v1.6h-5.26v3.62h4.08l.27,1.56h-4.35v4.22h5.44v1.55l-7.18-.02Z"/>
      <path id="svg_142" data-name="svg 142" class="cls-10" d="M186.16,39.05v10.93h-1.77v-10.93h-4.16v-1.6h9.94l.26,1.56-4.27,.04Z"/>
      <path id="svg_143" data-name="svg 143" class="cls-10" d="M206.09,49.98v-5.75h-6.59v5.75h-1.77v-12.53h1.77v5.18h6.59v-5.18h1.78v12.53h-1.78Z"/>
      <path id="svg_144" data-name="svg 144" class="cls-10" d="M217.16,49.98v-12.53h7v1.6h-5.25v3.62h4.09l.27,1.56h-4.35v4.22h5.44v1.55l-7.2-.02Z"/>
      <path id="svg_145" data-name="svg 145" class="cls-10" d="M254.48,49.98h-1.48l-3.53-10.11-3.53,10.11h-1.48l-3.85-12.25,1.74-.36,2.94,9.93,3.31-9.85h1.78l3.32,9.81,2.89-9.81h1.82l-3.93,12.53Z"/>
      <path id="svg_146" data-name="svg 146" class="cls-10" d="M271.08,50.22c-3.66,0-6-2.61-6-6.46s2.37-6.5,6-6.5,6,2.61,6,6.46-2.31,6.5-6,6.5Zm0-11.4c-2.59,0-4.17,1.91-4.17,4.92s1.6,4.92,4.17,4.92,4.18-1.92,4.18-4.92-1.59-4.92-4.16-4.92h-.02Z"/>
      <path id="svg_147" data-name="svg 147" class="cls-10" d="M294.49,49.73l-1.79,.38-4-5.39h-1.34v5.26h-1.78v-12.53h3.55c2.67,0,4.33,1.27,4.33,3.55,.04,1.7-1.17,3.17-2.85,3.46l3.88,5.27Zm-5.42-10.73h-1.7v4.29h1.51c1.72,0,2.81-.74,2.81-2.16s-.88-2.13-2.62-2.13h0Z"/>
      <path id="svg_148" data-name="svg 148" class="cls-10" d="M302.33,49.98v-12.53h1.77v11h4.71l.25,1.55-6.73-.02Z"/>
      <path id="svg_149" data-name="svg 149" class="cls-10" d="M320.75,49.98h-3.7v-12.53h3.77c4.54,0,6.87,2.58,6.87,6.23s-2.46,6.3-6.94,6.3Zm.13-11h-2.06v9.47h2c3.14,0,5-1.53,5-4.71s-1.95-4.71-4.94-4.71v-.05Z"/>
      <path id="svg_150" data-name="svg 150" class="cls-10" d="M347.54,39.05v3.82h3.93l.26,1.56h-4.19v5.55h-1.78v-12.53h6.79v1.6h-5.01Z"/>
      <path id="svg_151" data-name="svg 151" class="cls-10" d="M369.57,49.73l-1.8,.38-4-5.39h-1.34v5.26h-1.77v-12.53h3.55c2.66,0,4.33,1.27,4.33,3.55,.03,1.7-1.18,3.17-2.86,3.46l3.89,5.27Zm-5.43-10.73h-1.7v4.29h1.56c1.72,0,2.82-.74,2.82-2.16s-.94-2.13-2.68-2.13Z"/>
      <path id="svg_152" data-name="svg 152" class="cls-10" d="M382.6,50.22c-3.66,0-6-2.61-6-6.46s2.36-6.5,6-6.5,6,2.61,6,6.46-2.31,6.5-6,6.5Zm0-11.4c-2.59,0-4.18,1.91-4.18,4.92s1.61,4.92,4.18,4.92,4.18-1.92,4.18-4.92-1.59-4.92-4.16-4.92h-.02Z"/>
      <path id="svg_153" data-name="svg 153" class="cls-10" d="M409.62,49.98l-.81-9.93-4.12,10h-1.35l-4.12-10-.79,9.93h-1.66l1-12.49h2.23l4.06,10.25,4.07-10.29h2.17l1,12.49-1.68,.04Z"/>
      <path id="svg_154" data-name="svg 154" class="cls-10" d="M437.92,49.98v-5.75h-6.6v5.75h-1.77v-12.53h1.77v5.18h6.6v-5.18h1.77v12.53h-1.77Z"/>
      <path id="svg_155" data-name="svg 155" class="cls-10" d="M448.89,49.98v-12.53h7v1.6h-5.25v3.62h4.08l.26,1.56h-4.34v4.22h5.44v1.55l-7.19-.02Z"/>
      <path id="svg_156" data-name="svg 156" class="cls-10" d="M473.34,49.73l-1.8,.38-4-5.39h-1.35v5.26h-1.77v-12.53h3.58c2.67,0,4.33,1.27,4.33,3.55,.04,1.7-1.18,3.18-2.86,3.46l3.87,5.27Zm-5.42-10.73h-1.71v4.29h1.52c1.71,0,2.81-.74,2.81-2.16s-.89-2.13-2.62-2.13h0Z"/>
      <path id="svg_157" data-name="svg 157" class="cls-10" d="M481.18,49.98v-12.53h7v1.6h-5.18v3.62h4l.27,1.56h-4.27v4.22h5.45v1.55l-7.27-.02Z"/>
      <rect id="svg_158" data-name="svg 158" class="cls-10" x="62.72999954223633" y="28.219999313354492" width="425.69000244140625" height="0.7400000095367432"/>
    </g>
    <g id="svg_98">
      <path class="cls-10" d="M453.3,159.42c-.81,0-1.47,.67-1.47,1.51v19.13c0,.84,.65,1.51,1.47,1.51v-19.24c0-.95,.73-1.4,1.29-1.4h14.72c0-.84-.65-1.51-1.47-1.51h-14.54Z" id="svg_99"/>
      <path class="cls-10" d="M470.59,176.1c-.11,.13-.24,.21-.41,.24l-5.2,1.15s-.07,.02-.11,.02c-.43,.03-.84-.37-.8-.79l.33-5.29c0-.17,.07-.31,.18-.44l6.91-7.93s-.08-.01-.13-.01h0s-14.54,0-14.54,0c-.81,0-1.47,.67-1.47,1.51v19.13c0,.84,.65,1.51,1.47,1.51h14.54c.81,0,1.47-.67,1.47-1.51v-10.17l-2.24,2.57Z" id="svg_100"/>
      <g id="svg_101">
        <path class="cls-10" d="M478.75,163.53l-2.88-2.41c-.19-.16-.47-.13-.62,.05l-1.15,1.32,3.55,2.98,1.15-1.32c.16-.18,.14-.46-.05-.62Z" id="svg_102"/>
        <path class="cls-10" d="M473.26,163.45h0l-7.43,8.54c-.07,.07-.1,.16-.1,.26l-.2,3.09c-.02,.25,.22,.48,.48,.46,.02,0,.04,0,.06-.01l3.08-.68c.1-.02,.18-.07,.24-.14l7.45-8.53-3.56-2.98Zm-6.89,11.43h0s.24-2.65,.24-2.65l2.39,2.01-2.63,.64Z" id="svg_103"/>
      </g>
    </g>
    <path class="cls-10" d="M533.17,108.5c0-.83-.67-1.5-1.5-1.5h-5.67c1.1-.42,1.84-.69,2.51-1.01,.5-.23,1.66-.79,1.66-1.99,0-1.64-2.86-4.5-4.5-4.5-1.12,0-2.32,1.24-4.5,3.7-2.18-2.46-3.38-3.7-4.5-3.7-1.64,0-4.5,2.86-4.5,4.5,0,1.21,1.16,1.76,1.66,1.99,.67,.32,1.41,.59,2.51,1.01h-5.67c-.83,0-1.5,.67-1.5,1.5v3h24v-3Zm-22.5,13.5c0,.83,.67,1.5,1.5,1.5h18c.83,0,1.5-.67,1.5-1.5v-9h-21v9Z" id="svg_159"/>
    <path class="cls-10" d="M539.81,170.73v-.03c0-.94-.76-1.7-1.7-1.7-.79,0-1.45,.55-1.64,1.28h-.04v.81c0,.26-.21,.47-.47,.47s-.47-.21-.47-.47v-.81h-.02v-1.12h0s0-.02,0-.03c0-.94-.76-1.7-1.7-1.7s-1.7,.76-1.7,1.7c0,0,0,.02,0,.03h0v.12h0v.59c0,.26-.21,.47-.47,.47s-.47-.21-.47-.47v-2.68c-.02-.92-.77-1.67-1.69-1.67s-1.7,.76-1.7,1.7c0,0,0,.02,0,.03h0v.04h-.02v1.47c0,.26-.21,.47-.47,.47s-.47-.21-.47-.47v-1.47h0v-9.06h0s0-.02,0-.03c0-.94-.76-1.7-1.7-1.7s-1.7,.76-1.7,1.7c0,0,0,.02,0,.03h0v15.62h.02v.6h-.03c-.03,.23-.22,.42-.46,.42-.1,0-.19-.04-.26-.09v.02l-2.39-1.98c-1.09-.81-2.67-1.38-3.52-.62-.97,.86-.06,1.62,1.48,3.59l5.82,7.82s.03,.03,.05,.05c.38,.54,1,.9,1.71,1.02,.01,0,.03,0,.04,0,.13,.02,.26,.04,.39,.04h0c.06,0,.12,.01,.18,.01l9.42-.04c1.66,0,2.95-1.34,2.95-3l.26-2.63h0s.1-1.05,.1-1.05l.5-5.1c0-.08,0-.14,0-.22l.18-1.98h0Z" id="svg_160"/>
    <g id="svg_165">
      <g id="svg_166">
        <path class="cls-10" d="M587.8,214.71c.74,.61,1,1.6,.73,2.46h.01s4.24-8.89,4.24-8.89l-7.68,6.06,.13,.11c.8-.43,1.82-.36,2.56,.26Z" id="svg_167"/>
        <circle class="cls-10" cx="586.3200073242188" cy="216.3800048828125" r="1.1200000047683716" id="svg_168"/>
        <path class="cls-10" d="M584.86,218.27c-.88-.73-1.08-1.96-.53-2.92l-.03-.03-4.19,8.84,7.12-5.55c-.77,.32-1.68,.23-2.37-.33Z" id="svg_169"/>
      </g>
      <path class="cls-10" d="M586.45,201.46c-8.19,0-14.83,6.64-14.83,14.83s6.64,14.83,14.83,14.83,14.83-6.64,14.83-14.83c0-8.19-6.64-14.83-14.83-14.83Zm0,27.5c-6.99,0-12.67-5.67-12.67-12.67s5.67-12.67,12.67-12.67,12.67,5.67,12.67,12.67-5.67,12.67-12.67,12.67Z" id="svg_170"/>
      <g id="svg_171">
        <path class="cls-10" d="M587.8,214.71c.74,.61,1,1.6,.73,2.46h.01s4.24-8.89,4.24-8.89l-7.68,6.06,.13,.11c.8-.43,1.82-.36,2.56,.26Z" id="svg_172"/>
        <circle class="cls-10" cx="586.3200073242188" cy="216.3800048828125" r="1.1200000047683716" id="svg_173"/>
        <path class="cls-10" d="M584.86,218.27c-.88-.73-1.08-1.96-.53-2.92l-.03-.03-4.19,8.84,7.12-5.55c-.77,.32-1.68,.23-2.37-.33Z" id="svg_174"/>
      </g>
    </g>
    <g id="svg_175">
      <path class="cls-10" d="M190.59,141.62l-.55-.55,1.1-1.1,.55,.55c1.82,1.82,1.82,4.79,0,6.61l-1.1-1.1c1.21-1.21,1.22-3.19,0-4.4Z" id="svg_176"/>
      <path class="cls-10" d="M188.92,144.98c-.29,0-.59-.11-.81-.34-.46-.46-.46-1.2,0-1.65,.22-.22,.51-.33,.8-.34,.29,0,.59,.11,.81,.34,.46,.46,.46,1.2,0,1.65-.22,.22-.51,.33-.8,.34Z" id="svg_177"/>
      <path class="cls-10" d="M187.25,146.02l-1.1,1.1c-1.82-1.82-1.82-4.79,0-6.61l.55-.55,1.1,1.1-.55,.55c-1.21,1.21-1.21,3.19,0,4.4Z" id="svg_178"/>
      <path class="cls-10" d="M184.5,137.76l1.1,1.1-.55,.55c-2.43,2.43-2.43,6.38,0,8.81l-1.1,1.1c-3.04-3.04-3.04-7.97,0-11.01l.55-.55h0Z" id="svg_179"/>
      <path class="cls-10" d="M192.8,139.41l-.55-.55,1.1-1.1,.55,.55c3.04,3.04,3.04,7.97,0,11.01l-1.1-1.1c2.43-2.43,2.43-6.38,0-8.81Z" id="svg_180"/>
    </g>
    <polyline class="cls-1" points="164 136.29 170.94 139.23 164.12 141.92 156.75 139.17" id="svg_181"/>
    <g id="svg_182">
      <polygon class="cls-10" points="133.84 85.71 126.78 81.96 119.53 85.71 126.78 89.27 133.84 85.71" id="svg_183"/>
      <polygon class="cls-10" points="126.69 91.48 121.98 89.25 121.98 90.69 126.73 92.94 126.73 92.88 131.44 90.65 131.44 89.21 126.69 91.46 126.69 91.48" id="svg_184"/>
    </g>
    <path class="cls-10" d="M169.95,85.38c0-.42-.34-.76-.76-.76h-2.86c.56-.21,.93-.35,1.27-.51,.25-.12,.84-.4,.84-1.01,0-.83-1.44-2.27-2.27-2.27-.57,0-1.17,.63-2.27,1.87-1.1-1.24-1.7-1.87-2.27-1.87-.83,0-2.27,1.44-2.27,2.27,0,.61,.59,.89,.84,1.01,.34,.16,.71,.29,1.27,.51h-2.86c-.42,0-.76,.34-.76,.76v1.51h12.12v-1.51Zm-11.36,6.82c0,.42,.34,.76,.76,.76h9.09c.42,0,.76-.34,.76-.76v-4.54h-10.6v4.54h0Z" id="svg_185"/>
    <g id="svg_186">
      <circle class="cls-10" cx="108.69000244140625" cy="83.13999938964844" r="3.450000047683716" id="svg_187"/>
      <path class="cls-10" d="M103.04,93.93h0c-.7-.39-.9-1.37-.44-2.19l2.36-5.52s.62,.95,1.32,1.33h0c.7,.39,2.08,.55,2.08,.55l-3.22,5.04c-.45,.82-1.4,1.17-2.1,.78Z" id="svg_188"/>
    </g>
    <g id="svg_189">
      <path class="cls-10" d="M152.41,85.52l-5.93-3.95c-.16-.11-.38-.17-.6-.17s-.44,.06-.6,.17l-5.93,3.95c-.16,.11-.24,.25-.24,.4,0,.07,.02,.14,.07,.22,.13,.21,.43,.35,.78,.35h11.86c.35,0,.65-.14,.78-.35,.05-.07,.07-.14,.07-.22,0-.14-.09-.29-.25-.4Z" id="svg_190"/>
      <path class="cls-10" d="M139.49,92.52h0c0-.35,.29-.64,.64-.64h11.81c.35,0,.64,.29,.64,.64h0v.83h-13.12l.03-.83Z" id="svg_191"/>
      <rect class="cls-10" x="141.60000610351562" y="85.7300033569336" width="1.350000023841858" height="5.440000057220459" id="svg_192"/>
      <rect class="cls-10" x="149.5399932861328" y="85.7300033569336" width="1.350000023841858" height="5.440000057220459" id="svg_193"/>
      <rect class="cls-10" x="145.57000732421875" y="85.7300033569336" width="1.350000023841858" height="5.440000057220459" id="svg_194"/>
    </g>
    <path id="navigateright-5-13" data-name="navigateright-5" class="cls-4" d="M173.26,154.3c0-.12,0-.21-.1-.32-.09-.1-.31-.1-.31-.1h-15.96s-.18,.02-.26,.1c-.19,.14-.14,.46,0,.63l8.01,10.04c.14,.16,.37,.16,.51,0l8.01-10.04c.06-.09,.1-.19,.1-.31h0Z"/>
    <path id="navigateright-5-14" data-name="navigateright-5" class="cls-17" d="M196.15,154.3c0-.12,0-.21-.1-.32-.09-.1-.31-.1-.31-.1h-15.96s-.18,.02-.26,.1c-.19,.14-.14,.46,0,.63l8.01,10.04c.14,.16,.37,.16,.51,0l8.01-10.04c.06-.09,.1-.19,.1-.31h0Z"/>
    <path class="cls-10" d="M323.17,149.5c-12.89,0-23.33,10.45-23.33,23.33s10.45,23.33,23.33,23.33,23.33-10.45,23.33-23.33-10.45-23.33-23.33-23.33Zm8.27,24.29s-9.56,7.94-11.12,9.06-1.31-.69-1.31-.69v-19c0-2.25,1.5-.56,1.5-.56,0,0,9.69,8.25,10.94,9.31s0,1.88,0,1.88Z" id="svg_195"/>
    <path class="cls-10" d="M543.32,200.99c-8.45,0-15.31,6.85-15.31,15.31s6.85,15.31,15.31,15.31,15.31-6.85,15.31-15.31c0-8.45-6.85-15.31-15.31-15.31Zm5.43,15.93s-6.27,5.21-7.3,5.95c-1.03,.74-.86-.45-.86-.45v-12.46c0-1.48,.98-.37,.98-.37,0,0,6.35,5.41,7.17,6.11,.82,.7,0,1.23,0,1.23Z" id="svg_196"/>
    <path class="cls-10" d="M502.75,160.67h-9c-5.02,0-9.12,4.11-9.12,9.12v1.42c0,4.33,3.06,7.98,7.12,8.9v5.06s.5,1.94,2.5,.06c1.23-1.15,3.58-3.36,5.22-4.89h3.28c5.02,0,9.12-4.11,9.12-9.12v-1.42c0-5.02-4.11-9.12-9.12-9.12Z" id="svg_197"/>
    <path class="cls-10" d="M569.83,154.65c-8.45,0-15.31,6.85-15.31,15.31s6.85,15.31,15.31,15.31,15.31-6.85,15.31-15.31-6.85-15.31-15.31-15.31Zm3.08,24.85h-6.17v-11.17h6.17v11.17Zm-3.08-12.33c-1.7,0-3.08-1.38-3.08-3.08s1.38-3.08,3.08-3.08,3.08,1.38,3.08,3.08-1.38,3.08-3.08,3.08Z" id="svg_198"/>
    <g id="svg_199">
      <path class="cls-9" d="M190.23,85.2v1.46h-2.33v-.32h-1.55v.96h1.75v.93h-1.75v1.15l.67,.27v1.26l-4-1.6v-1.26l.68,.28v-1.98h-.68v-1.13h7.21Z" id="svg_200"/>
      <path class="cls-9" d="M189.88,81.37h-2.51v-.25h-1.64v.82h2.91c.46,0,.85,.07,1.14,.22,.3,.15,.45,.33,.45,.54v1.2c0,.19-.16,.36-.49,.5s-.71,.21-1.16,.21h-5.58v-1.3h2.74v.3h1.63v-.84h-2.79c-.51,0-.92-.08-1.25-.25s-.49-.36-.49-.58v-1.12c0-.23,.19-.36,.58-.48,.39-.13,.84-.19,1.34-.19h5.12v1.23h0Z" id="svg_201"/>
      <path class="cls-9" d="M191.88,80.04s-.56,0-.56,.5v7.49c0,.83-.16,1.79-1.19,2.28-1.66,.8-3.05,1.49-3.58,1.49-.53,0-1.92-.69-3.58-1.49-1.03-.49-1.19-1.45-1.19-2.28v-7.49c0-.5-.56-.5-.56-.5h-2.54v2.25h.46s.46-.05,.45,.41c0,.36,0,5.18,0,5.18-.03,1.52,.29,3.58,3.18,4.67,2.26,.84,3.21,1.45,3.79,1.45s1.53-.61,3.79-1.45c2.9-1.08,3.22-3.15,3.18-4.67,0,0,0-4.82,0-5.18-.01-.46,.45-.41,.45-.41h.46v-2.25h-2.54Z" id="svg_202"/>
    </g>
    <g class="cls-33" id="svg_203">
      <path class="cls-10" d="M499.49,296.21h1.45v1.98h1.98v1.45h-1.98v1.98h-1.45v-1.98h-1.98v-1.45h1.98v-1.98Z" id="svg_204"/>
    </g>
    <path class="cls-10" d="M440,276.67c0,2.75,1.71,5.11,4.13,6.05-.06-.51-.11-1.3,.02-1.86,.12-.51,.76-3.23,.76-3.23,0,0-.19-.39-.19-.97,0-.9,.52-1.58,1.18-1.58,.55,0,.82,.42,.82,.92,0,.56-.36,1.39-.54,2.16-.15,.65,.32,1.17,.96,1.17,1.16,0,2.04-1.22,2.04-2.98,0-1.56-1.12-2.65-2.71-2.65-1.85,0-2.93,1.39-2.93,2.82,0,.56,.21,1.16,.48,1.48,.05,.07,.06,.12,.05,.19-.05,.2-.16,.65-.18,.74-.03,.12-.09,.14-.22,.09-.81-.38-1.32-1.56-1.32-2.52,0-2.05,1.49-3.93,4.3-3.93,2.26,0,4.01,1.61,4.01,3.75s-1.41,4.04-3.37,4.04c-.66,0-1.28-.34-1.49-.75l-.4,1.55c-.15,.57-.54,1.27-.81,1.7,.61,.19,1.26,.29,1.92,.29,3.59,0,6.5-2.91,6.5-6.5s-2.91-6.5-6.5-6.5-6.5,2.91-6.5,6.5h0Z" id="svg_205"/>
    <g class="cls-33" id="svg_206">
      <path class="cls-10" d="M473.13,274.61h1.33v1.82h1.82v1.33h-1.82v1.82h-1.33v-1.82h-1.82v-1.33h1.82v-1.82Z" id="svg_207"/>
    </g>
    <path class="cls-5" d="M543.55,200.91c-8.54,0-15.47,6.93-15.47,15.47s6.93,15.47,15.47,15.47,15.47-6.93,15.47-15.47c0-8.54-6.92-15.47-15.47-15.47Zm0,28.68c-7.29,0-13.21-5.91-13.21-13.21s5.91-13.21,13.21-13.21,13.21,5.91,13.21,13.21-5.91,13.21-13.21,13.21Z" id="svg_208"/>
    <path class="cls-5" d="M323.17,149.5c-12.88,0-23.32,10.44-23.32,23.32s10.44,23.32,23.32,23.32,23.32-10.44,23.32-23.32c0-12.88-10.44-23.32-23.32-23.32Zm0,43.23c-10.99,0-19.91-8.92-19.91-19.91s8.92-19.91,19.91-19.91,19.91,8.92,19.91,19.91-8.92,19.91-19.91,19.91Z" id="svg_209"/>
  </g><path id="svg_161" data-name="svg 161" class="cls-32" d="M559.39,105.3l-2.62-2.62c-.17-.17-.44-.17-.61,0,0,0,0,0,0,0l-1.22,1.22,3.23,3.23,1.22-1.22c.17-.17,.17-.44,0-.61,0,0,0,0,0,0Z"/><path id="svg_162" data-name="svg 162" class="cls-32" d="M554.32,104.52h0l-8.2,8.21c-.07,.06-.11,.15-.12,.24l-.44,3.06c-.02,.25,.16,.47,.41,.49,0,0,.01,0,.02,0h.06l3.06-.43c.09,0,.18-.05,.24-.12l8.21-8.2-3.24-3.25Zm-7.89,11.12l.44-2.62,2.18,2.18-2.62,.44Z"/><rect id="svg_163" data-name="svg 163" class="cls-32" x="579.969970703125" y="102.18000030517578" width="4" height="14.329999923706055"/><rect id="svg_164" data-name="svg 164" class="cls-32" x="574.969970703125" y="107.51000213623047" width="14.329999923706055" height="4"/><g id="svg_210">
    <rect class="cls-2" x="506.07000732421875" y="271.1099853515625" width="13.399999618530273" height="11.739999771118164" rx="1.5099999904632568" ry="1.5099999904632568" id="svg_211"/>
    <line class="cls-3" x1="508.69000244140625" y1="269.5400085449219" x2="508.69000244140625" y2="270.6099853515625" id="svg_212"/>
    <line class="cls-3" x1="511.4599914550781" y1="269.5400085449219" x2="511.4599914550781" y2="270.4599914550781" id="svg_213"/>
    <line class="cls-3" x1="514.3900146484375" y1="269.5400085449219" x2="514.3900146484375" y2="270.6099853515625" id="svg_214"/>
    <line class="cls-3" x1="517.1599731445312" y1="269.5400085449219" x2="517.1599731445312" y2="270.4599914550781" id="svg_215"/>
    <polygon class="cls-10" points="519.08 273 506.26 273 506.26 271.73 507.5 271.17 517.81 271.04 519.08 271.73 519.08 273" id="svg_216"/>
    <text class="cls-11" y="280.8299865722656" x="510.5" id="svg_217"><tspan x="510.5" y="280.8299865722656" id="svg_218">1</tspan></text>
  </g><path class="cls-10" d="M496.25,276.24h0c0-.5-.4-.9-.88-.9-.41,0-.76,.28-.85,.67h-.02v.42c0,.14-.11,.24-.24,.24s-.24-.11-.24-.24v-.42h0v-.58h0s0,0,0-.01c0-.49-.4-.88-.88-.88s-.88,.4-.88,.88c0,0,0,0,0,.01h0v.06h0v.31c0,.14-.11,.24-.24,.24s-.24-.11-.24-.24v-1.4c0-.48-.4-.87-.88-.87s-.88,.4-.88,.88c0,0,0,0,0,.01h0v.02h-.01v.77c0,.14-.11,.24-.24,.24s-.24-.11-.24-.24v-.77h0v-4.71h0s0,0,0-.01c0-.49-.4-.88-.88-.88s-.88,.4-.88,.88c0,0,0,0,0,.01h0v8.12h0v.31h-.01c-.01,.12-.11,.22-.24,.22-.05,0-.1-.02-.14-.05h0s-1.24-1.02-1.24-1.02c-.57-.42-1.39-.71-1.83-.32-.5,.45-.03,.84,.77,1.86l3.03,4.07s.02,.02,.03,.03c.2,.28,.52,.47,.89,.53,0,0,.02,0,.02,0,.07,0,.13,.02,.2,.02h0s.06,0,.09,0l4.9-.02c.86,0,1.53-.7,1.53-1.56l.13-1.37h0s.05-.55,.05-.55l.26-2.65s0-.07,0-.11l.09-1.03h0Z" id="svg_219"/><path class="cls-10" d="M535.25,268.92c-4,0-7.25,3.25-7.25,7.25s3.25,7.25,7.25,7.25,7.25-3.25,7.25-7.25c0-4-3.25-7.25-7.25-7.25Zm2.57,7.55s-2.97,2.47-3.46,2.82c-.49,.35-.41-.21-.41-.21v-5.9c0-.7,.47-.17,.47-.17,0,0,3.01,2.56,3.4,2.89,.39,.33,0,.58,0,.58Z" id="svg_220"/><path class="cls-10" d="M557.49,273.84h4.07l-4.07-4.07v4.07Zm-5.18-5.18h5.92l4.44,4.44v8.87c0,.81-.67,1.48-1.48,1.48h-8.87c-.82,0-1.48-.67-1.48-1.48v-11.83c0-.82,.66-1.48,1.48-1.48Zm6.66,11.83v-1.48h-6.66v1.48h6.66Zm2.22-2.96v-1.48h-8.87v1.48h8.87Z" id="svg_221"/><path class="cls-10" d="M586.33,274.17c0-.51-.41-.92-.92-.92h-3.47c.67-.26,1.12-.42,1.53-.62,.31-.14,1.02-.48,1.02-1.22,0-1-1.75-2.75-2.75-2.75-.69,0-1.42,.76-2.75,2.26-1.33-1.5-2.06-2.26-2.75-2.26-1,0-2.75,1.75-2.75,2.75,0,.74,.71,1.07,1.02,1.22,.41,.19,.86,.36,1.53,.62h-3.47c-.51,0-.92,.41-.92,.92v1.83h14.67v-1.83Zm-13.75,8.25c0,.51,.41,.92,.92,.92h11c.51,0,.92-.41,.92-.92v-5.08h-12.83v5.08Z" id="svg_222"/><g id="svg_223">
    <path class="cls-2" d="M605.32,276.02v5.32c0,1.52-.18,1.7-1.66,1.7h-8.34c-1.48,0-1.66-.18-1.66-1.7v-7.8c0-1.52,.18-1.7,1.66-1.7h4.1" id="svg_224"/>
    <g id="svg_225">
      <path class="cls-10" d="M607.21,275.2c-.14-.01-.19-.08-.19-.08l-6.16-5.88s-.05-.04-.06-.2,.13-.3,.29-.3h6.13c.16,0,.29,.13,.29,.3v5.85c0,.16-.15,.31-.29,.3Z" id="svg_226"/>
      <path class="cls-10" d="M598.64,279.13l-1.3-1.28c-.38-.37-.39-1-.03-1.38l5.15-5.51c.36-.39,.97-.4,1.35-.03l1.3,1.28c.38,.37,.39,1,.03,1.38l-5.15,5.51c-.36,.39-.97,.4-1.35,.03Z" id="svg_227"/>
    </g>
    <polygon class="cls-10" points="599.42 272.36 599.42 271.31 600.44 271.31 599.42 272.36" id="svg_228"/>
    <polyline class="cls-10" points="604.81 276.02 605.84 274.97 605.84 276.02" id="svg_229"/>
  </g><path class="cls-10" d="M377.11,268.16h-17.78c-1.57,0-2.86,1.29-2.86,2.86v13.49c0,1.57,1.29,2.86,2.86,2.86h17.78c1.57,0,2.86-1.29,2.86-2.86v-13.49c0-1.57-1.29-2.86-2.86-2.86Zm-19.07,6.86h3.31v3.31h-3.31v-3.31Zm0,7.03h6.29v.7h-6.29v-.7Zm7.06,2.34h-7.06v-.7h7.06v.7Zm.61-3.27h-7.68v-.7h7.68v.7Zm0-2.79h-3.31v-3.31h3.31v3.31Zm7.36,6.06h-6.29v-.7h6.29v.7Zm1.39-1.64h-7.68v-.7h7.68v.7Zm-.72-2.34v.7h-6.96v-.7h6.96Zm-6.96-2.09v-3.31h3.31v3.31h-3.31Zm7.68,0h-3.31v-3.31h3.31v3.31Zm3.94-5.65h-20.37v-1.8h20.37v1.8Z" id="svg_230"/><path class="cls-17" d="M376.86,298.91h-17.78c-1.57,0-2.86,1.29-2.86,2.86v13.49c0,1.57,1.29,2.86,2.86,2.86h17.78c1.57,0,2.86-1.29,2.86-2.86v-13.49c0-1.57-1.29-2.86-2.86-2.86Zm-19.07,6.86h3.31v3.31h-3.31v-3.31Zm0,7.03h6.29v.7h-6.29v-.7Zm7.06,2.34h-7.06v-.7h7.06v.7Zm.61-3.27h-7.68v-.7h7.68v.7Zm0-2.79h-3.31v-3.31h3.31v3.31Zm7.36,6.06h-6.29v-.7h6.29v.7Zm1.39-1.64h-7.68v-.7h7.68v.7Zm-.72-2.34v.7h-6.96v-.7h6.96Zm-6.96-2.09v-3.31h3.31v3.31h-3.31Zm7.68,0h-3.31v-3.31h3.31v3.31Zm3.94-5.65h-20.37v-1.8h20.37v1.8Z" id="svg_231"/><polygon class="cls-10" points="356.25 332.89 366.62 329.23 377 332.89 377 335.38 366.62 331.63 356.25 335.38 356.25 332.89" id="svg_232"/><polygon class="cls-28" points="356.25 349.55 366.62 345.9 377 349.55 377 352.04 366.62 348.29 356.25 352.04 356.25 349.55" id="svg_233"/></g></svg>