<svg xmlns="http://www.w3.org/2000/svg" width="601.28" height="360.73" style=""><rect id="backgroundrect" width="100%" height="100%" x="0" y="0" fill="none" stroke="none"/><title>icons</title><g class="currentLayer" style=""><title>Layer 1</title><g id="Layer_5" data-name="Layer 5"><g id="Layer_1" data-name="Layer 1"><path d="M467.23,275a3.86,3.86,0,0,0-2.78-1.18,3.35,3.35,0,0,0,0,6.7,3,3,0,0,0,2.88-2.29h-3v-2h5.39v1.46a5.34,5.34,0,0,1-5.46,5.11,5.57,5.57,0,0,1,0-11.14,6.21,6.21,0,0,1,4.41,1.68Z" style="fill:#fff" id="svg_1"/><path d="M493.2,296.61a4.3,4.3,0,0,0-3.06-1.3,3.69,3.69,0,0,0,0,7.37,3.32,3.32,0,0,0,3.16-2.52H490V298h5.92v1.6a5.87,5.87,0,0,1-6,5.62,6.13,6.13,0,0,1,0-12.25,6.87,6.87,0,0,1,4.85,1.85Z" style="fill:#fff" id="svg_2"/><path id="Fill-9" d="M68.4,21.57c-4.3,0-6.87-2.81-6.87-7.27V2.92H64V14c0,3.18,1.39,5.3,4.45,5.3s4.52-1.91,4.52-5.22V2.92h2.42V14.17c0,4.62-2.65,7.4-6.94,7.4" style="fill:#114a37"/><path id="Fill-10" d="M94.24,21.23,84.5,7V21.23H82.26V2.92h2.16l9.41,13.72V2.92h2.23V21.23H94.24" style="fill:#114a37"/><path id="Fill-11" d="M103.45,2.92h2.41V21.23h-2.41V2.92Z" style="fill:#114a37"/><path id="Fill-12" d="M120.21,21.31h-2.16l-6.84-18,2.42-.53L119.15,18l5.43-15h2.54l-6.91,18.39" style="fill:#114a37"/><path id="Fill-13" d="M132.45,21.23V2.92H142V5.21h-7.15v5.3h5.55l.36,2.28h-5.91V19h7.4v2.28h-9.82" style="fill:#114a37"/><path id="Fill-14" d="M153.18,5.13h-2.32v6.28h2.06c2.34,0,3.83-1.08,3.83-3.15s-1.21-3.13-3.57-3.13Zm7.37,15.73-2.44.56-5.42-7.91h-1.83v7.72h-2.41V2.92h4.83c3.62,0,5.89,1.86,5.89,5.2a5,5,0,0,1-3.88,5.07l5.27,7.67Z" style="fill:#114a37"/><path id="Fill-15" d="M170.12,21.44a10.5,10.5,0,0,1-5-1.19l.36-2.55a8.56,8.56,0,0,0,4.65,1.57c1.85,0,3.17-1,3.17-2.79s-.72-2.36-3.4-3.61c-3.34-1.56-4.6-2.7-4.6-5.33,0-2.94,2.18-4.83,5.4-4.83a7.62,7.62,0,0,1,4,1l-.38,2.49a6.19,6.19,0,0,0-3.73-1.35c-2,0-2.93,1.11-2.93,2.46s.67,2.07,3.37,3.35c3.44,1.62,4.63,2.84,4.63,5.59,0,3.16-2.29,5.15-5.61,5.15" style="fill:#114a37"/><path id="Fill-16" d="M182.08,2.92h2.41V21.23h-2.41Z" style="fill:#114a37"/><path id="Fill-17" d="M197.89,5.21v16h-2.42v-16h-5.65V2.92h13.52l.36,2.29h-5.81" style="fill:#114a37"/><path id="Fill-18" d="M215,14v7.27H212.6V14L206.33,3.27l2.41-.53,5.09,8.94,5-8.76h2.67L215,14" style="fill:#114a37"/><path id="Fill-19" d="M239.6,4.86c-3.53,0-5.69,2.81-5.69,7.22s2.19,7.21,5.69,7.21,5.68-2.81,5.68-7.21-2.19-7.22-5.68-7.22Zm0,16.71c-5,0-8.15-3.82-8.15-9.47s3.22-9.52,8.2-9.52,8.15,3.82,8.15,9.47-3.18,9.52-8.2,9.52Z" style="fill:#114a37"/><path id="Fill-20" d="M256.18,5.21V10.8h5.36l.35,2.28h-5.71v8.15h-2.41V2.92H263V5.21h-6.82" style="fill:#114a37"/><path id="Fill-21" d="M279,21.44a10.5,10.5,0,0,1-5-1.19l.36-2.55A8.56,8.56,0,0,0,279,19.27c1.85,0,3.16-1,3.16-2.79s-.72-2.36-3.39-3.61c-3.34-1.56-4.6-2.7-4.6-5.33,0-2.94,2.18-4.83,5.4-4.83a7.62,7.62,0,0,1,4,1l-.38,2.49a6.19,6.19,0,0,0-3.73-1.35c-2,0-2.93,1.11-2.93,2.46s.67,2.07,3.37,3.35c3.44,1.62,4.63,2.84,4.63,5.59,0,3.16-2.29,5.15-5.61,5.15" style="fill:#114a37"/><path id="Fill-22" d="M296.5,5.82l-2.82,7.71h5.68Zm5.76,15.6-2.08-5.68h-7.33l-2,5.49H288.4l7-18.38h2.42l6.83,18-2.34.54Z" style="fill:#114a37"/><path id="Fill-23" d="M321.39,21.23,311.65,7V21.23h-2.24V2.92h2.16L321,16.64V2.92h2.24V21.23h-1.83" style="fill:#114a37"/><path id="Fill-24" d="M340.32,5.21V10.8h5.35l.35,2.28h-5.7v8.15H337.9V2.92h9.23V5.21h-6.81" style="fill:#114a37"/><path id="Fill-25" d="M357.88,5.13h-2.31v6.28h2.06c2.33,0,3.83-1.08,3.83-3.15s-1.21-3.13-3.58-3.13Zm7.38,15.73-2.44.56-5.42-7.91h-1.83v7.72h-2.42V2.92H358c3.62,0,5.89,1.86,5.89,5.2A5,5,0,0,1,360,13.19l5.27,7.67Z" style="fill:#114a37"/><path id="Fill-26" d="M377,5.82l-2.83,7.71h5.69L377,5.82Zm5.76,15.6-2.08-5.68h-7.33l-2,5.49h-2.44l6.94-18.38h2.41l6.84,18Z" style="fill:#114a37"/><path id="Fill-27" d="M402.36,21.23,392.62,7V21.23h-2.24V2.92h2.16L402,16.64V2.92h2.24V21.23h-1.82" style="fill:#114a37"/><path id="Fill-28" d="M418.39,21.57c-5,0-8.21-3.82-8.21-9.47s3.27-9.52,8.26-9.52a8.4,8.4,0,0,1,5,1.51l-.36,2.55a7.47,7.47,0,0,0-4.71-1.78c-3.6,0-5.73,2.81-5.73,7.22s2.16,7.19,5.73,7.19a8.28,8.28,0,0,0,5-1.83l.36,2.36a9.18,9.18,0,0,1-5.37,1.77" style="fill:#114a37"/><path id="Fill-29" d="M429.47,2.92h2.42V21.23h-2.42V2.92Z" style="fill:#114a37"/><path id="Fill-30" d="M442.56,21.44a10.5,10.5,0,0,1-5-1.19L438,17.7a8.51,8.51,0,0,0,4.65,1.57c1.85,0,3.16-1,3.16-2.79s-.72-2.36-3.39-3.61c-3.35-1.56-4.6-2.7-4.6-5.33,0-2.94,2.18-4.83,5.39-4.83a7.66,7.66,0,0,1,4,1l-.39,2.49a6.13,6.13,0,0,0-3.72-1.35c-2,0-2.94,1.11-2.94,2.46s.67,2.07,3.37,3.35c3.45,1.62,4.63,2.84,4.63,5.59,0,3.16-2.29,5.15-5.6,5.15" style="fill:#114a37"/><path id="Fill-31" d="M460.71,21.57c-5,0-8.2-3.82-8.2-9.47s3.27-9.52,8.25-9.52a8.38,8.38,0,0,1,5,1.51l-.36,2.55a7.44,7.44,0,0,0-4.7-1.78c-3.6,0-5.73,2.81-5.73,7.22s2.16,7.19,5.73,7.19a8.33,8.33,0,0,0,5-1.83l.35,2.36a9.18,9.18,0,0,1-5.37,1.77" style="fill:#114a37"/><path id="Fill-32" d="M477.79,4.86c-3.53,0-5.69,2.81-5.69,7.22s2.19,7.21,5.69,7.21,5.67-2.81,5.67-7.21-2.18-7.22-5.67-7.22Zm0,16.71c-5,0-8.15-3.82-8.15-9.47s3.21-9.52,8.2-9.52S486,6.4,486,12.05s-3.19,9.52-8.2,9.52Z" style="fill:#114a37"/><path id="Fill-33" d="M67.44,53.94c-3.65,0-6-2.8-6-6.94s2.39-7,6.05-7a6.13,6.13,0,0,1,3.69,1.11L70.9,43a5.45,5.45,0,0,0-3.44-1.3c-2.64,0-4.2,2-4.2,5.28s1.58,5.27,4.2,5.27a6.07,6.07,0,0,0,3.65-1.34l.27,1.73a6.71,6.71,0,0,1-3.94,1.3" style="fill:#898a89"/><path id="Fill-34" d="M88.23,53.69V47.51H81.65v6.18H79.88V40.28h1.77v5.55h6.58V40.28H90V53.69H88.23" style="fill:#898a89"/><path id="Fill-35" d="M103.33,42.39l-2.07,5.66h4.16l-2.09-5.65Zm4.22,11.43L106,49.66h-5.37l-1.46,4H97.4l5.08-13.47h1.77l5,13.21-1.71.39Z" style="fill:#898a89"/><path id="Fill-36" d="M125.53,53.69l-7.14-10.44V53.69h-1.64V40.28h1.58l6.9,10v-10h1.63V53.69h-1.33" style="fill:#898a89"/><path id="Fill-37" d="M141.55,53.94c-4.12,0-6.33-2.8-6.33-6.94s2.3-7,6.18-7a6.63,6.63,0,0,1,4,1.15L145.07,43a5.7,5.7,0,0,0-3.69-1.34c-2.84,0-4.33,2.06-4.33,5.28s1.53,5.27,4.5,5.27a4.92,4.92,0,0,0,2.64-.66V48h-3L141,46.36h5v6.28a8.16,8.16,0,0,1-4.39,1.3" style="fill:#898a89"/><path id="Fill-38" d="M154.73,53.69V40.28h7V42H156.5v3.88h4.07l.26,1.68H156.5V52h5.43v1.67h-7.2" style="fill:#898a89"/><path id="Fill-39" d="M184.54,42V53.69h-1.77V42h-4.14V40.28h9.9L188.8,42h-4.26" style="fill:#898a89"/><path id="Fill-40" d="M204.41,53.69V47.51h-6.58v6.18h-1.77V40.28h1.77v5.55h6.58V40.28h1.77V53.69h-1.77" style="fill:#898a89"/><path id="Fill-41" d="M215.44,53.69V40.28h7V42h-5.24v3.88h4.07l.26,1.68h-4.33V52h5.42v1.67h-7.19" style="fill:#898a89"/><path id="Fill-42" d="M252.63,53.69h-1.49l-3.52-10.87L244.1,53.69h-1.47l-3.84-13.16,1.73-.39,2.94,10.67,3.32-10.53h1.77l3.31,10.53,2.88-10.53h1.81l-3.92,13.41" style="fill:#898a89"/><path id="Fill-43" d="M269.2,41.7c-2.58,0-4.16,2-4.16,5.28s1.6,5.29,4.16,5.29,4.16-2.06,4.16-5.29-1.6-5.28-4.16-5.28Zm0,12.24c-3.65,0-6-2.8-6-6.94s2.36-7,6-7,6,2.8,6,6.94-2.33,7-6,7Z" style="fill:#898a89"/><path id="Fill-44" d="M287.11,41.89h-1.7v4.6h1.51c1.71,0,2.8-.79,2.8-2.31s-.88-2.29-2.61-2.29Zm5.4,11.52-1.78.41-4-5.79h-1.34v5.66h-1.77V40.28h3.54c2.66,0,4.31,1.36,4.31,3.81a3.62,3.62,0,0,1-2.84,3.71l3.86,5.61Z" style="fill:#898a89"/><path id="Fill-45" d="M300.32,53.69V40.28h1.77V52h4.69l.25,1.67h-6.71" style="fill:#898a89"/><path id="Fill-46" d="M318.82,41.93h-2.06V52h2c3.12,0,5-1.64,5-5.06s-2-5-4.95-5Zm-.13,11.76H315V40.28h3.77c4.52,0,6.84,2.76,6.84,6.68S323.15,53.69,318.69,53.69Z" style="fill:#898a89"/><path id="Fill-47" d="M345.38,42v4.1h3.92l.27,1.67h-4.19v6h-1.77V40.28h6.77V42h-5" style="fill:#898a89"/><path id="Fill-48" d="M361.93,41.89h-1.69v4.6h1.51c1.71,0,2.81-.79,2.81-2.31s-.89-2.29-2.63-2.29Zm5.41,11.52-1.79.41-4-5.79h-1.34v5.66h-1.77V40.28H362c2.66,0,4.31,1.36,4.31,3.81a3.62,3.62,0,0,1-2.84,3.71l3.86,5.61Z" style="fill:#898a89"/><path id="Fill-49" d="M380.35,41.7c-2.58,0-4.16,2-4.16,5.28s1.6,5.29,4.16,5.29,4.17-2.06,4.17-5.29-1.61-5.28-4.17-5.28Zm0,12.24c-3.65,0-6-2.8-6-6.94s2.35-7,6-7,6,2.8,6,6.94-2.34,7-6,7Z" style="fill:#898a89"/><path id="Fill-50" d="M407.26,53.69,406.45,43l-4.1,10.72H401L396.9,43l-.79,10.67h-1.66l1-13.41h2.18l4.05,11,4-11h2.17l1,13.41h-1.69" style="fill:#898a89"/><path id="Fill-51" d="M435.46,53.69V47.51h-6.57v6.18h-1.77V40.28h1.77v5.55h6.57V40.28h1.78V53.69h-1.78" style="fill:#898a89"/><path id="Fill-52" d="M446.4,53.69V40.28h7V42h-5.23v3.88h4.06l.27,1.68h-4.33V52h5.42v1.67h-7.2" style="fill:#898a89"/><path id="Fill-53" d="M465.37,41.89h-1.7v4.6h1.51c1.71,0,2.81-.79,2.81-2.31s-.89-2.29-2.62-2.29Zm5.4,11.52-1.79.41L465,48h-1.34v5.66H461.9V40.28h3.54c2.66,0,4.32,1.36,4.32,3.81a3.63,3.63,0,0,1-2.85,3.71l3.86,5.61Z" style="fill:#898a89"/><path id="Fill-54" d="M478.58,53.69V40.28h7V42h-5.23v3.88h4.06l.27,1.68h-4.33V52h5.42v1.67h-7.2" style="fill:#898a89"/><path id="Fill-55" d="M61.52,30.32H485.81v.8H61.51v-.8Z" style="fill:#898a89"/><path id="Fill-9-2" data-name="Fill-9" d="M56.29,217.76c-3.53,0-5.65-2.32-5.65-6v-9.36h2v9.1c0,2.62,1.14,4.37,3.66,4.37s3.73-1.57,3.73-4.3v-9.17h2v9.25c0,3.8-2.18,6.1-5.72,6.1" style="fill:#114a37"/><path id="Fill-10-2" data-name="Fill-10" d="M77.56,217.47l-8-11.72v11.72H67.7V202.41h1.78l7.74,11.28V202.41h1.84v15.06h-1.5" style="fill:#114a37"/><path id="Fill-11-2" data-name="Fill-11" d="M85.14,202.41h2v15.06h-2Z" style="fill:#114a37"/><path id="Fill-12-2" data-name="Fill-12" d="M98.94,217.54H97.16l-5.63-14.85,2-.43,4.55,12.53,4.46-12.38h2.1l-5.69,15.13" style="fill:#114a37"/><path id="Fill-13-2" data-name="Fill-13" d="M109,217.47V202.41h7.88v1.88H111v4.36h4.57l.3,1.88H111v5.06h6.1v1.88H109" style="fill:#114a37"/><path id="Fill-14-2" data-name="Fill-14" d="M126.07,204.22h-1.9v5.17h1.69c1.92,0,3.15-.89,3.15-2.59s-1-2.58-2.94-2.58Zm6.07,12.95-2,.46-4.46-6.51h-1.5v6.35h-2V202.41h4c3,0,4.85,1.52,4.85,4.28a4.07,4.07,0,0,1-3.19,4.17l4.34,6.31Z" style="fill:#114a37"/><path id="Fill-15-2" data-name="Fill-15" d="M140,217.65a8.61,8.61,0,0,1-4.09-1l.3-2.09a7.06,7.06,0,0,0,3.83,1.28,2.3,2.3,0,0,0,2.6-2.29c0-1.37-.59-1.94-2.79-3-2.75-1.29-3.79-2.23-3.79-4.39,0-2.42,1.8-4,4.44-4a6.36,6.36,0,0,1,3.33.85l-.32,2a5.1,5.1,0,0,0-3.07-1.11c-1.67,0-2.41.92-2.41,2s.55,1.7,2.77,2.75c2.84,1.33,3.81,2.34,3.81,4.61,0,2.6-1.88,4.24-4.61,4.24" style="fill:#114a37"/><path id="Fill-16-2" data-name="Fill-16" d="M149.86,202.41h2v15.06h-2Z" style="fill:#114a37"/><path id="Fill-17-2" data-name="Fill-17" d="M162.87,204.29v13.18h-2V204.29h-4.65v-1.88h11.13l.3,1.88h-4.79" style="fill:#114a37"/><path id="Fill-18-2" data-name="Fill-18" d="M177,211.49v6h-2v-6l-5.17-8.8,2-.44,4.19,7.36,4.09-7.2h2.2L177,211.49" style="fill:#114a37"/><path id="Fill-19-2" data-name="Fill-19" d="M197.2,204c-2.9,0-4.68,2.31-4.68,5.94s1.8,5.94,4.68,5.94,4.68-2.32,4.68-5.94-1.8-5.94-4.68-5.94Zm0,13.76c-4.11,0-6.71-3.15-6.71-7.8s2.65-7.84,6.75-7.84,6.71,3.15,6.71,7.8-2.62,7.84-6.75,7.84Z" style="fill:#114a37"/><path id="Fill-20-2" data-name="Fill-20" d="M210.85,204.29v4.6h4.4l.3,1.88h-4.7v6.7h-2V202.41h7.6v1.88h-5.61" style="fill:#114a37"/><path id="Fill-21-2" data-name="Fill-21" d="M229.62,217.65a8.6,8.6,0,0,1-4.08-1l.3-2.09a7.06,7.06,0,0,0,3.83,1.28,2.3,2.3,0,0,0,2.6-2.29c0-1.37-.6-1.94-2.8-3-2.75-1.29-3.78-2.23-3.78-4.39,0-2.42,1.8-4,4.44-4a6.29,6.29,0,0,1,3.32.85l-.31,2a5.12,5.12,0,0,0-3.07-1.11c-1.67,0-2.41.92-2.41,2s.55,1.7,2.77,2.75c2.83,1.33,3.81,2.34,3.81,4.61,0,2.6-1.89,4.23-4.62,4.23" style="fill:#114a37"/><path id="Fill-22-2" data-name="Fill-22" d="M244,204.79l-2.33,6.35h4.67L244,204.79Zm4.73,12.84L247.06,213h-6l-1.65,4.52h-2l5.71-15.13h2l5.63,14.85-1.92.44Z" style="fill:#114a37"/><path id="Fill-23-2" data-name="Fill-23" d="M264.52,217.47l-8-11.72v11.72h-1.84V202.41h1.78l7.74,11.28V202.41H266v15.06h-1.5" style="fill:#114a37"/><path id="Fill-24-2" data-name="Fill-24" d="M280.1,204.29v4.6h4.4l.3,1.88h-4.7v6.7h-2V202.41h7.6v1.88H280.1" style="fill:#114a37"/><path id="Fill-25-2" data-name="Fill-25" d="M294.55,204.22h-1.9v5.17h1.69c1.93,0,3.15-.89,3.15-2.59s-1-2.58-2.93-2.58Zm6.07,12.95-2,.46-4.46-6.51h-1.5v6.35h-2V202.41h4c3,0,4.84,1.52,4.84,4.28a4.07,4.07,0,0,1-3.19,4.17l4.33,6.31Z" style="fill:#114a37"/><path id="Fill-26-2" data-name="Fill-26" d="M310.26,204.79l-2.33,6.35h4.68l-2.35-6.35ZM315,217.63,313.28,213h-6l-1.65,4.52h-2l5.72-15.13h2l5.62,14.85Z" style="fill:#114a37"/><path id="Fill-27-2" data-name="Fill-27" d="M331.16,217.47l-8-11.72v11.72H321.3V202.41h1.78l7.74,11.28V202.41h1.85v15.06h-1.51" style="fill:#114a37"/><path id="Fill-28-2" data-name="Fill-28" d="M344.35,217.76c-4.1,0-6.75-3.15-6.75-7.8s2.69-7.84,6.79-7.84a6.85,6.85,0,0,1,4.15,1.25l-.3,2.09a6.11,6.11,0,0,0-3.87-1.46c-3,0-4.72,2.32-4.72,5.94s1.78,5.92,4.72,5.92a6.87,6.87,0,0,0,4.11-1.51l.29,1.94a7.48,7.48,0,0,1-4.42,1.47" style="fill:#114a37"/><path id="Fill-29-2" data-name="Fill-29" d="M353.48,202.41h2v15.06h-2Z" style="fill:#114a37"/><path id="Fill-30-2" data-name="Fill-30" d="M364.24,217.65a8.6,8.6,0,0,1-4.08-1l.3-2.09a7.06,7.06,0,0,0,3.82,1.28c1.53,0,2.61-.83,2.61-2.29s-.59-1.94-2.79-3c-2.75-1.29-3.79-2.23-3.79-4.39,0-2.42,1.8-4,4.44-4a6.29,6.29,0,0,1,3.32.85l-.32,2a5.07,5.07,0,0,0-3.06-1.11c-1.67,0-2.42.92-2.42,2s.55,1.7,2.78,2.75c2.83,1.33,3.81,2.34,3.81,4.61,0,2.6-1.89,4.23-4.62,4.23" style="fill:#114a37"/><path id="Fill-31-2" data-name="Fill-31" d="M379.18,217.76c-4.1,0-6.74-3.15-6.74-7.8s2.68-7.84,6.79-7.84a6.89,6.89,0,0,1,4.15,1.25l-.3,2.09a6.16,6.16,0,0,0-3.87-1.46c-3,0-4.72,2.32-4.72,5.94s1.77,5.92,4.72,5.92a6.87,6.87,0,0,0,4.1-1.51l.3,1.94a7.54,7.54,0,0,1-4.43,1.47" style="fill:#114a37"/><path id="Fill-32-2" data-name="Fill-32" d="M393.24,204c-2.9,0-4.68,2.31-4.68,5.94s1.8,5.94,4.68,5.94,4.67-2.32,4.67-5.94-1.8-5.94-4.67-5.94Zm0,13.76c-4.11,0-6.71-3.15-6.71-7.8s2.65-7.84,6.75-7.84,6.71,3.15,6.71,7.8-2.63,7.84-6.75,7.84Z" style="fill:#114a37"/><path id="Fill-33-2" data-name="Fill-33" d="M55.51,244.39c-3,0-4.95-2.3-4.95-5.71s2-5.74,5-5.74a5,5,0,0,1,3,.92l-.22,1.53a4.51,4.51,0,0,0-2.84-1.07c-2.17,0-3.45,1.69-3.45,4.35s1.3,4.33,3.45,4.33a5,5,0,0,0,3-1.1l.22,1.42a5.49,5.49,0,0,1-3.24,1.07" style="fill:#898a89"/><path id="Fill-34-2" data-name="Fill-34" d="M72.61,244.19V239.1h-5.4v5.09H65.75v-11h1.46v4.57h5.41v-4.57h1.45v11H72.61" style="fill:#898a89"/><path id="Fill-35-2" data-name="Fill-35" d="M85,234.89l-1.7,4.66h3.42L85,234.89Zm3.48,9.41-1.26-3.43H82.84l-1.21,3.32H80.16l4.19-11.09h1.46L89.93,244l-1.41.32Z" style="fill:#898a89"/><path id="Fill-36-2" data-name="Fill-36" d="M103.32,244.19l-5.88-8.59v8.59H96.09v-11h1.3l5.68,8.27v-8.27h1.35v11h-1.1" style="fill:#898a89"/><path id="Fill-37-2" data-name="Fill-37" d="M116.5,244.39c-3.39,0-5.2-2.3-5.2-5.71s1.89-5.74,5.08-5.74a5.36,5.36,0,0,1,3.25.95l-.23,1.53a4.7,4.7,0,0,0-3-1.1c-2.34,0-3.56,1.69-3.56,4.35s1.26,4.33,3.7,4.33a4.08,4.08,0,0,0,2.17-.54v-2.93h-2.46l-.2-1.37h4.11v5.16a6.65,6.65,0,0,1-3.62,1.07" style="fill:#898a89"/><path id="Fill-38-2" data-name="Fill-38" d="M127.35,244.19v-11h5.77v1.37h-4.31v3.2h3.35l.22,1.38h-3.57v3.71h4.46v1.37h-5.92" style="fill:#898a89"/><path id="Fill-39-2" data-name="Fill-39" d="M151.89,234.52v9.66h-1.46v-9.66H147v-1.37h8.15l.22,1.37h-3.51" style="fill:#898a89"/><path id="Fill-40-2" data-name="Fill-40" d="M168.24,244.19V239.1h-5.41v5.09h-1.46v-11h1.46v4.57h5.41v-4.57h1.45v11h-1.45" style="fill:#898a89"/><path id="Fill-41-2" data-name="Fill-41" d="M177.32,244.19v-11h5.76v1.37h-4.31v3.2h3.35l.22,1.38h-3.56v3.71h4.46v1.37h-5.92" style="fill:#898a89"/><path id="Fill-42-2" data-name="Fill-42" d="M207.93,244.19H206.7l-2.9-8.94-2.89,8.94H199.7l-3.17-10.83L198,233l2.42,8.78,2.73-8.67h1.45l2.73,8.67,2.37-8.67h1.49l-3.22,11" style="fill:#898a89"/><path id="Fill-43-2" data-name="Fill-43" d="M221.57,234.32c-2.13,0-3.43,1.69-3.43,4.35s1.32,4.35,3.43,4.35,3.42-1.7,3.42-4.35S223.67,234.32,221.57,234.32Zm0,10.07c-3,0-4.92-2.3-4.92-5.71s1.94-5.74,5-5.74,4.91,2.31,4.91,5.71-1.92,5.74-4.94,5.74Z" style="fill:#898a89"/><path id="Fill-44-2" data-name="Fill-44" d="M236.3,234.48h-1.39v3.79h1.24c1.41,0,2.31-.66,2.31-1.9S237.73,234.48,236.3,234.48Zm4.45,9.48-1.47.34L236,239.53h-1.1v4.66h-1.46v-11h2.92c2.18,0,3.55,1.12,3.55,3.13a3,3,0,0,1-2.34,3.06l3.17,4.62Z" style="fill:#898a89"/><path id="Fill-45-2" data-name="Fill-45" d="M247.18,244.19v-11h1.46v9.66h3.86l.2,1.37h-5.52" style="fill:#898a89"/><path id="Fill-46-2" data-name="Fill-46" d="M262.4,234.51h-1.69v8.32h1.64c2.57,0,4.13-1.35,4.13-4.16s-1.63-4.16-4.08-4.16Zm-.11,9.68h-3v-11h3.1c3.72,0,5.63,2.27,5.63,5.5s-2,5.54-5.69,5.54Z" style="fill:#898a89"/><path id="Fill-47-2" data-name="Fill-47" d="M284.27,234.52v3.38h3.22l.22,1.37h-3.44v4.91h-1.46v-11h5.57v1.37h-4.11" style="fill:#898a89"/><path id="Fill-48-2" data-name="Fill-48" d="M297.89,234.48h-1.4v3.79h1.24c1.41,0,2.31-.66,2.31-1.9s-.72-1.89-2.15-1.89Zm4.45,9.48-1.47.34-3.27-4.77h-1.11v4.66H295v-11H298c2.19,0,3.55,1.12,3.55,3.13a3,3,0,0,1-2.34,3.06l3.18,4.62Z" style="fill:#898a89"/><path id="Fill-49-2" data-name="Fill-49" d="M313.05,234.32c-2.13,0-3.43,1.69-3.43,4.35s1.32,4.35,3.43,4.35,3.42-1.7,3.42-4.35S315.15,234.32,313.05,234.32Zm0,10.07c-3,0-4.91-2.3-4.91-5.71s1.93-5.74,4.94-5.74,4.92,2.31,4.92,5.71-1.93,5.74-5,5.74Z" style="fill:#898a89"/><path id="Fill-50-2" data-name="Fill-50" d="M335.19,244.19l-.66-8.78-3.38,8.83h-1.1l-3.38-8.84-.65,8.79h-1.37l.86-11h1.79l3.34,9,3.33-9h1.78l.84,11h-1.4" style="fill:#898a89"/><path id="Fill-51-2" data-name="Fill-51" d="M358.41,244.19V239.1H353v5.09h-1.46v-11H353v4.57h5.41v-4.57h1.46v11h-1.46" style="fill:#898a89"/><path id="Fill-52-2" data-name="Fill-52" d="M367.41,244.19v-11h5.77v1.37h-4.31v3.2h3.35l.21,1.38h-3.56v3.71h4.46v1.37h-5.92" style="fill:#898a89"/><path id="Fill-53-2" data-name="Fill-53" d="M383,234.48h-1.4v3.79h1.24c1.41,0,2.31-.66,2.31-1.9S384.44,234.48,383,234.48Zm4.45,9.48-1.48.34-3.27-4.77h-1.1v4.66h-1.45v-11h2.91c2.18,0,3.55,1.12,3.55,3.13a3,3,0,0,1-2.34,3.06l3.18,4.62Z" style="fill:#898a89"/><path id="Fill-54-2" data-name="Fill-54" d="M393.9,244.19v-11h5.76v1.37h-4.31v3.2h3.35l.22,1.38h-3.56v3.71h4.46v1.37H393.9" style="fill:#898a89"/><path id="Fill-55-2" data-name="Fill-55" d="M50.63,225H399.84v.66H50.63Z" style="fill:#898a89"/><path d="M310.54,100.23a.24.24,0,0,0-.14-.22.27.27,0,0,0-.25,0l-1.71,1.72a5,5,0,1,0,0,7.45,0,0,0,0,0,0,0,.21.21,0,0,0,.07-.15.19.19,0,0,0-.07-.16h0l-1-1a.22.22,0,0,0-.31,0,3.29,3.29,0,0,1-2.11.79,3.21,3.21,0,0,1,0-6.42,3.14,3.14,0,0,1,2.1.79l-1.34,1.34a.25.25,0,0,0-.06.25.24.24,0,0,0,.22.14h4.35a.23.23,0,0,0,.23-.23v-4.35Z" style="fill:#fdbb2f" id="svg_3"/><path d="M333,110a3,3,0,0,0-2.08.84L326,108.37c0-.12,0-.25,0-.37s0-.25,0-.37l4.94-2.47A3,3,0,1,0,330,103c0,.13,0,.25,0,.37l-4.94,2.47a3,3,0,1,0,0,4.32l4.94,2.47c0,.12,0,.25,0,.37a3,3,0,1,0,3-3Z" style="fill:#fdbb30" id="svg_4"/><path id="instagram" d="M16.45,100H2.81A2.81,2.81,0,0,0,0,102.81v13.64a2.81,2.81,0,0,0,2.81,2.81H16.45a2.81,2.81,0,0,0,2.81-2.81V102.81A2.81,2.81,0,0,0,16.45,100Zm-6.82,6A3.61,3.61,0,1,1,6,109.63,3.61,3.61,0,0,1,9.63,106Zm7.63,10.83a.41.41,0,0,1-.41.41H2.41a.41.41,0,0,1-.41-.41v-8.42H4.14a5.25,5.25,0,0,0-.13,1.2,5.62,5.62,0,0,0,11.23,0,5.26,5.26,0,0,0-.12-1.2h2.14Zm0-12a.4.4,0,0,1-.41.4H14.44a.4.4,0,0,1-.4-.41v-2.4a.4.4,0,0,1,.4-.41h2.41a.41.41,0,0,1,.41.41v2.41Z" style="fill:#fff"/><path d="M49.26,101.2a1.21,1.21,0,0,0-1.2-1.2H31.2a1.2,1.2,0,0,0-1.2,1.2v16.86a1.22,1.22,0,0,0,1.2,1.2h9.1v-7.49H37.89V109H40.3v-2.4c0-2.19,1.33-3.66,4-3.66a13.74,13.74,0,0,1,2,.13v2.51H44.44a1.09,1.09,0,0,0-1.2,1.24V109h2.81l-.4,2.77H43.24v7.49h4.82a1.22,1.22,0,0,0,1.2-1.2V101.2Zm19.57,9.21a4.42,4.42,0,1,0-4.42,4.41A4.42,4.42,0,0,0,68.83,110.41Zm10.43,0a4.42,4.42,0,1,0-4.41,4.41A4.42,4.42,0,0,0,79.26,110.41Z" style="fill:#fff" id="svg_5"/><path id="twitter" d="M109.26,103.84a7.64,7.64,0,0,1-2.28.63,3.91,3.91,0,0,0,1.74-2.19,8,8,0,0,1-2.49,1,4.09,4.09,0,0,0-2.9-1.24,3.93,3.93,0,0,0-3.94,3.94,4.47,4.47,0,0,0,.08.91,11.18,11.18,0,0,1-8.13-4,3.74,3.74,0,0,0-.54,1.92A3.91,3.91,0,0,0,92.57,108a4,4,0,0,1-1.79-.49v0A3.93,3.93,0,0,0,94,111.42a4,4,0,0,1-1.79.07,3.93,3.93,0,0,0,3.68,2.74,8,8,0,0,1-4.9,1.88A5.86,5.86,0,0,1,90,116a11.45,11.45,0,0,0,17.3-9.63v-.52a8,8,0,0,0,2-2Z" style="fill:#fff"/><path id="youtube" d="M129.63,103c-9.63,0-9.63,0-9.63,6.82s0,6.82,9.63,6.82,9.63,0,9.63-6.82S139.26,103,129.63,103Zm-2.41,10.43v-7.22l6,3.61-6,3.61Z" style="fill:#fff"/><path d="M150.4,106.41v12.45h4V106.41Zm10.43,5.22a2.18,2.18,0,0,1,2.23-2.4c1.21,0,2.18.8,2.18,2.81v6.82h4v-7.23c0-3.61-2-5.61-4.82-5.61a4.32,4.32,0,0,0-3.61,2.11l-.13-1.72h-3.95c0,.43.07,2.81.07,2.81v9.63h4v-7.22Zm-8.44-7.22A2.21,2.21,0,1,0,150,102.2a2.23,2.23,0,0,0,2.39,2.21Z" style="fill:#fff" id="svg_6"/><path d="M213.32,111.52l-3.84-3.85a5.09,5.09,0,1,0-4.39,2.51,5,5,0,0,0,2.58-.71l3.85,3.85a.82.82,0,0,0,.6.25.85.85,0,0,0,.6-.24l.6-.61a.85.85,0,0,0,0-1.2Zm-11.62-6.43a3.39,3.39,0,1,1,3.39,3.39,3.39,3.39,0,0,1-3.39-3.39Z" style="fill:#fff" id="svg_7"/><path d="M259.63,117,254,111.31A7.51,7.51,0,1,0,247.5,115a7.45,7.45,0,0,0,3.81-1l5.67,5.68a1.27,1.27,0,0,0,1.77,0l.88-.89a1.25,1.25,0,0,0,0-1.77ZM242.5,107.5a5,5,0,1,1,5,5A5,5,0,0,1,242.5,107.5Z" style="fill:#00543c" id="svg_8"/><path d="M279.63,117,274,111.31A7.51,7.51,0,1,0,267.5,115a7.45,7.45,0,0,0,3.81-1l5.68,5.68a1.25,1.25,0,0,0,.88.36,1.29,1.29,0,0,0,.89-.36l.88-.89a1.27,1.27,0,0,0,0-1.77ZM262.5,107.5a5,5,0,1,1,5,5,5,5,0,0,1-5-5Z" style="fill:#353535" id="svg_9"/><path d="M234.72,112.74l-4.25-4.26a5.63,5.63,0,1,0-2,2l4.26,4.26a1,1,0,0,0,.66.27.94.94,0,0,0,.66-.27l.66-.67a.92.92,0,0,0,0-1.32Zm-12.84-7.12a3.75,3.75,0,1,1,3.74,3.76A3.73,3.73,0,0,1,221.88,105.62Z" style="fill:#00543c" id="svg_10"/><path id="up" d="M260,174.06l1.09,1.09a.16.16,0,0,0,.22,0l2.36-2.37,2.37,2.37a.16.16,0,0,0,.22,0l1.08-1.09a.14.14,0,0,0,0-.22l-3.55-3.56a.17.17,0,0,0-.23,0L260,173.84a.25.25,0,0,0,0,.11.21.21,0,0,0,0,.11Z" style="fill:#fff"/><path id="down" d="M247.39,171.13,246.3,170a.18.18,0,0,0-.22,0l-2.36,2.37L241.35,170a.18.18,0,0,0-.22,0l-1.08,1.09a.16.16,0,0,0,0,.22l3.56,3.56a.16.16,0,0,0,.22,0l3.56-3.56a.14.14,0,0,0,0-.11.15.15,0,0,0,0-.11Z" style="fill:#fff"/><path id="right" d="M221.13,170,220,171.13a.16.16,0,0,0,0,.22l2.37,2.36L220,176.08a.16.16,0,0,0,0,.22l1.09,1.08a.14.14,0,0,0,.22,0l3.56-3.55a.17.17,0,0,0,0-.23L221.35,170a.18.18,0,0,0-.11,0,.21.21,0,0,0-.11,0Z" style="fill:#fff"/><path id="left" d="M204,170a.21.21,0,0,1,.11,0l1.09,1.09a.16.16,0,0,1,0,.22l-2.37,2.36,2.37,2.37a.16.16,0,0,1,0,.22l-1.09,1.08a.14.14,0,0,1-.22,0l-3.56-3.55a.17.17,0,0,1,0-.23l3.56-3.56a.25.25,0,0,1,.11,0Z" style="fill:#fff"/><path id="up-2" data-name="up" d="M260,154.06l1.09,1.09a.16.16,0,0,0,.22,0l2.36-2.37,2.37,2.37a.16.16,0,0,0,.22,0l1.08-1.09a.14.14,0,0,0,0-.22l-3.55-3.56a.17.17,0,0,0-.23,0L260,153.84a.25.25,0,0,0,0,.11.21.21,0,0,0,0,.11Z" style="fill:#2a2a2a"/><path id="down-2" data-name="down" d="M247.39,151.13,246.3,150a.18.18,0,0,0-.22,0l-2.36,2.37L241.35,150a.18.18,0,0,0-.22,0l-1.08,1.09a.16.16,0,0,0,0,.22l3.56,3.56a.16.16,0,0,0,.22,0l3.56-3.56a.14.14,0,0,0,0-.11.15.15,0,0,0,0-.11Z" style="fill:#2a2a2a"/><path id="right-2" data-name="right" d="M221.13,150,220,151.13a.16.16,0,0,0,0,.22l2.37,2.36L220,156.08a.16.16,0,0,0,0,.22l1.09,1.08a.14.14,0,0,0,.22,0l3.56-3.55a.17.17,0,0,0,0-.23L221.35,150a.18.18,0,0,0-.11,0,.21.21,0,0,0-.11,0Z" style="fill:#2a2a2a"/><path id="left-2" data-name="left" d="M204,150a.21.21,0,0,1,.11,0l1.09,1.09a.16.16,0,0,1,0,.22l-2.37,2.36,2.37,2.37a.16.16,0,0,1,0,.22l-1.09,1.08a.14.14,0,0,1-.22,0l-3.56-3.55a.17.17,0,0,1,0-.23l3.56-3.56a.25.25,0,0,1,.11,0Z" style="fill:#2a2a2a"/><path d="M260,134.06l1.09,1.09a.16.16,0,0,0,.22,0l2.36-2.37,2.37,2.37a.16.16,0,0,0,.22,0l1.08-1.09a.14.14,0,0,0,0-.22l-3.55-3.56a.17.17,0,0,0-.23,0L260,133.84a.25.25,0,0,0,0,.11.21.21,0,0,0,0,.11Zm-12.65-2.93L246.3,130a.18.18,0,0,0-.22,0l-2.36,2.37L241.35,130a.18.18,0,0,0-.22,0l-1.08,1.09a.16.16,0,0,0,0,.22l3.56,3.56a.16.16,0,0,0,.22,0l3.56-3.56a.14.14,0,0,0,0-.11.15.15,0,0,0,0-.11ZM221.13,130,220,131.13a.16.16,0,0,0,0,.22l2.37,2.36L220,136.08a.16.16,0,0,0,0,.22l1.09,1.08a.14.14,0,0,0,.22,0l3.56-3.55a.17.17,0,0,0,0-.23L221.35,130a.18.18,0,0,0-.11,0,.21.21,0,0,0-.11,0ZM204,130a.21.21,0,0,1,.11,0l1.09,1.09a.16.16,0,0,1,0,.22l-2.37,2.36,2.37,2.37a.16.16,0,0,1,0,.22l-1.09,1.08a.14.14,0,0,1-.22,0l-3.56-3.55a.17.17,0,0,1,0-.23l3.56-3.56a.25.25,0,0,1,.11,0Z" style="fill:#fcbb30" id="svg_11"/><path id="navigateright-4" d="M87.11,143.38a.39.39,0,0,0,.21-.08l2-2a.3.3,0,0,0,0-.4L85,136.69l4.26-4.26a.29.29,0,0,0,0-.39l-2-2a.28.28,0,0,0-.4,0l-6.41,6.41a.28.28,0,0,0,0,.4l6.41,6.41a.36.36,0,0,0,.19.08Z" style="fill:#fff"/><path d="M160,136.91a.32.32,0,0,0,.08.21l1.95,1.95a.3.3,0,0,0,.4,0l4.25-4.26,4.26,4.26a.3.3,0,0,0,.4,0l1.95-1.95a.28.28,0,0,0,0-.4l-6.4-6.41a.3.3,0,0,0-.41,0l-6.4,6.41a.27.27,0,0,0-.08.19Z" style="fill:#fff" id="svg_12"/><path id="navigateright-5" d="M102.23,130a.3.3,0,0,0-.2.08l-2,1.95a.28.28,0,0,0,0,.4l4.26,4.26-4.26,4.25a.28.28,0,0,0,0,.4l2,1.95a.28.28,0,0,0,.4,0l6.41-6.4a.28.28,0,0,0,0-.4l-6.41-6.41a.36.36,0,0,0-.2-.08Z" style="fill:#fff"/><path id="navigateright-4-2" data-name="navigateright-4" d="M47.11,143.38a.33.33,0,0,0,.2-.08l2-2a.3.3,0,0,0,0-.4L45,136.69l4.26-4.26a.29.29,0,0,0,0-.39l-2-2a.28.28,0,0,0-.4,0l-6.41,6.41a.28.28,0,0,0,0,.4l6.41,6.41a.36.36,0,0,0,.19.08Z" style="fill:#2a2a2a"/><path id="navigateright-5-2" data-name="navigateright-5" d="M62.23,130a.32.32,0,0,0-.2.08l-2,1.95a.3.3,0,0,0,0,.4l4.26,4.26-4.26,4.25a.28.28,0,0,0,0,.4l2,1.95a.28.28,0,0,0,.4,0l6.41-6.4a.28.28,0,0,0,0-.4l-6.41-6.41a.36.36,0,0,0-.2-.08Z" style="fill:#2a2a2a"/><path id="navigateright-4-3" data-name="navigateright-4" d="M7.11,143.38a.39.39,0,0,0,.21-.08l1.95-2a.3.3,0,0,0,0-.4L5,136.69l4.26-4.26a.29.29,0,0,0,0-.39l-2-2a.27.27,0,0,0-.39,0L.51,136.49a.28.28,0,0,0,0,.4l6.41,6.41A.33.33,0,0,0,7.11,143.38Z" style="fill:#fdbb30"/><path id="navigateright-5-3" data-name="navigateright-5" d="M22.23,130a.32.32,0,0,0-.2.08l-2,1.95a.3.3,0,0,0,0,.4l4.26,4.26-4.26,4.25a.3.3,0,0,0,0,.4l2,1.95a.28.28,0,0,0,.4,0l6.41-6.4a.28.28,0,0,0,0-.4l-6.41-6.41a.36.36,0,0,0-.2-.08Z" style="fill:#fdbb30"/><path id="navigateright-4-4" data-name="navigateright-4" d="M127.11,143.38a.39.39,0,0,0,.21-.08l2-2a.3.3,0,0,0,0-.4L125,136.69l4.26-4.26a.29.29,0,0,0,0-.39l-2-2a.28.28,0,0,0-.4,0l-6.41,6.41a.28.28,0,0,0,0,.4l6.41,6.41a.36.36,0,0,0,.19.08Z" style="fill:#00543c"/><path id="navigateright-5-4" data-name="navigateright-5" d="M142.23,130a.3.3,0,0,0-.2.08L140.08,132a.3.3,0,0,0,0,.4l4.26,4.26-4.26,4.25a.3.3,0,0,0,0,.4l1.95,1.95a.28.28,0,0,0,.4,0l6.41-6.4a.28.28,0,0,0,0-.4l-6.41-6.41a.36.36,0,0,0-.19-.08Z" style="fill:#00543c"/><path id="navigateright-4-5" data-name="navigateright-4" d="M7.11,163.38a.39.39,0,0,0,.21-.08l1.95-2a.3.3,0,0,0,0-.4L5,156.69l4.26-4.26a.29.29,0,0,0,0-.39l-2-2a.27.27,0,0,0-.39,0L.51,156.49a.28.28,0,0,0,0,.4l6.41,6.41A.33.33,0,0,0,7.11,163.38Z" style="fill:#a8228e"/><path id="navigateright-5-5" data-name="navigateright-5" d="M22.23,150a.32.32,0,0,0-.2.08l-2,1.95a.3.3,0,0,0,0,.4l4.26,4.26-4.26,4.25a.3.3,0,0,0,0,.4l2,1.95a.28.28,0,0,0,.4,0l6.41-6.4a.28.28,0,0,0,0-.4l-6.41-6.41a.36.36,0,0,0-.2-.08Z" style="fill:#a8228e"/><path id="navigateright-4-6" data-name="navigateright-4" d="M47.11,163.38a.33.33,0,0,0,.2-.08l2-2a.3.3,0,0,0,0-.4L45,156.69l4.26-4.26a.29.29,0,0,0,0-.39l-2-2a.28.28,0,0,0-.4,0l-6.41,6.41a.28.28,0,0,0,0,.4l6.41,6.41a.36.36,0,0,0,.19.08Z" style="fill:#007ea5"/><path id="navigateright-5-6" data-name="navigateright-5" d="M62.23,150a.32.32,0,0,0-.2.08l-2,1.95a.3.3,0,0,0,0,.4l4.26,4.26-4.26,4.25a.28.28,0,0,0,0,.4l2,1.95a.28.28,0,0,0,.4,0l6.41-6.4a.28.28,0,0,0,0-.4l-6.41-6.41a.36.36,0,0,0-.2-.08Z" style="fill:#007ea5"/><path id="navigateright-4-7" data-name="navigateright-4" d="M87.11,163.38a.39.39,0,0,0,.21-.08l2-2a.3.3,0,0,0,0-.4L85,156.69l4.26-4.26a.29.29,0,0,0,0-.39l-2-2a.28.28,0,0,0-.4,0l-6.41,6.41a.28.28,0,0,0,0,.4l6.41,6.41a.36.36,0,0,0,.19.08Z" style="fill:#008575"/><path id="navigateright-5-7" data-name="navigateright-5" d="M102.23,150a.3.3,0,0,0-.2.08l-2,1.95a.28.28,0,0,0,0,.4l4.26,4.26-4.26,4.25a.28.28,0,0,0,0,.4l2,1.95a.28.28,0,0,0,.4,0l6.41-6.4a.28.28,0,0,0,0-.4l-6.41-6.41a.36.36,0,0,0-.2-.08Z" style="fill:#008575"/><path id="navigateright-4-8" data-name="navigateright-4" d="M127.11,163.38a.39.39,0,0,0,.21-.08l2-2a.3.3,0,0,0,0-.4L125,156.69l4.26-4.26a.29.29,0,0,0,0-.39l-2-2a.28.28,0,0,0-.4,0l-6.41,6.41a.28.28,0,0,0,0,.4l6.41,6.41a.36.36,0,0,0,.19.08Z" style="fill:#080"/><path id="navigateright-5-8" data-name="navigateright-5" d="M142.23,150a.3.3,0,0,0-.2.08L140.08,152a.3.3,0,0,0,0,.4l4.26,4.26-4.26,4.25a.3.3,0,0,0,0,.4l1.95,1.95a.28.28,0,0,0,.4,0l6.41-6.4a.28.28,0,0,0,0-.4l-6.41-6.41a.36.36,0,0,0-.19-.08Z" style="fill:#080"/><path id="navigateright-4-9" data-name="navigateright-4" d="M7.11,183.38a.39.39,0,0,0,.21-.08l1.95-2a.3.3,0,0,0,0-.4L5,176.69l4.26-4.26a.29.29,0,0,0,0-.39l-2-2a.27.27,0,0,0-.39,0L.51,176.49a.28.28,0,0,0,0,.4l6.41,6.41A.33.33,0,0,0,7.11,183.38Z" style="fill:#bb3304"/><path id="navigateright-5-9" data-name="navigateright-5" d="M22.23,170a.32.32,0,0,0-.2.08l-2,1.95a.3.3,0,0,0,0,.4l4.26,4.26-4.26,4.25a.3.3,0,0,0,0,.4l2,1.95a.28.28,0,0,0,.4,0l6.41-6.4a.28.28,0,0,0,0-.4l-6.41-6.41a.36.36,0,0,0-.2-.08Z" style="fill:#bb3304"/><path id="navigateright-4-10" data-name="navigateright-4" d="M47.11,183.38a.33.33,0,0,0,.2-.08l2-2a.3.3,0,0,0,0-.4L45,176.69l4.26-4.26a.29.29,0,0,0,0-.39l-2-2a.28.28,0,0,0-.4,0l-6.41,6.41a.28.28,0,0,0,0,.4l6.41,6.41a.36.36,0,0,0,.19.08Z" style="fill:#687e31"/><path id="navigateright-5-10" data-name="navigateright-5" d="M62.23,170a.32.32,0,0,0-.2.08l-2,1.95a.3.3,0,0,0,0,.4l4.26,4.26-4.26,4.25a.28.28,0,0,0,0,.4l2,1.95a.28.28,0,0,0,.4,0l6.41-6.4a.28.28,0,0,0,0-.4l-6.41-6.41a.36.36,0,0,0-.2-.08Z" style="fill:#687e31"/><path id="navigateright-4-11" data-name="navigateright-4" d="M87.11,183.38a.39.39,0,0,0,.21-.08l2-2a.3.3,0,0,0,0-.4L85,176.69l4.26-4.26a.29.29,0,0,0,0-.39l-2-2a.28.28,0,0,0-.4,0l-6.41,6.41a.28.28,0,0,0,0,.4l6.41,6.41a.36.36,0,0,0,.19.08Z" style="fill:#c55500"/><path id="navigateright-5-11" data-name="navigateright-5" d="M102.23,170a.3.3,0,0,0-.2.08l-2,1.95a.28.28,0,0,0,0,.4l4.26,4.26-4.26,4.25a.28.28,0,0,0,0,.4l2,1.95a.28.28,0,0,0,.4,0l6.41-6.4a.28.28,0,0,0,0-.4l-6.41-6.41a.36.36,0,0,0-.2-.08Z" style="fill:#c55500"/><path id="navigateright-4-12" data-name="navigateright-4" d="M127.11,183.38a.39.39,0,0,0,.21-.08l2-2a.3.3,0,0,0,0-.4L125,176.69l4.26-4.26a.29.29,0,0,0,0-.39l-2-2a.28.28,0,0,0-.4,0l-6.41,6.41a.28.28,0,0,0,0,.4l6.41,6.41a.36.36,0,0,0,.19.08Z" style="fill:#ccaf74"/><path id="navigateright-5-12" data-name="navigateright-5" d="M142.23,170a.3.3,0,0,0-.2.08L140.08,172a.3.3,0,0,0,0,.4l4.26,4.26-4.26,4.25a.3.3,0,0,0,0,.4l1.95,1.95a.28.28,0,0,0,.4,0l6.41-6.4a.28.28,0,0,0,0-.4l-6.41-6.41a.36.36,0,0,0-.19-.08Z" style="fill:#ccaf74"/><path d="M167.11,183.38a.39.39,0,0,0,.21-.08l2-2a.3.3,0,0,0,0-.4L165,176.69l4.26-4.26a.29.29,0,0,0,0-.39l-2-2a.28.28,0,0,0-.4,0l-6.41,6.41a.28.28,0,0,0,0,.4l6.41,6.41a.36.36,0,0,0,.19.08ZM182.23,170a.3.3,0,0,0-.2.08L180.08,172a.3.3,0,0,0,0,.4l4.26,4.26-4.26,4.25a.3.3,0,0,0,0,.4l1.95,1.95a.28.28,0,0,0,.4,0l6.41-6.4a.28.28,0,0,0,0-.4l-6.41-6.41a.36.36,0,0,0-.19-.08Z" style="fill:#ded5b4" id="svg_13"/><path id="tag" d="M.24,68.23l4.53,4.53a.82.82,0,0,0,1.16,0l7-7a.25.25,0,0,0,.08-.18V60.81a.81.81,0,0,0-.81-.81H7.42a.25.25,0,0,0-.18.08l-7,7A.82.82,0,0,0,.24,68.23Zm8.7-5.39a1.22,1.22,0,1,1,1.22,1.22,1.21,1.21,0,0,1-1.22-1.22Z" style="fill:#fff"/><path d="M51.1,60H41.9A1.9,1.9,0,0,0,40,61.9v9.2A1.9,1.9,0,0,0,41.9,73h9.2A1.9,1.9,0,0,0,53,71.1V61.9A1.9,1.9,0,0,0,51.1,60Zm-4.6,4.06a2.44,2.44,0,1,1-2.44,2.44,2.44,2.44,0,0,1,2.44-2.44Zm5.15,7.32a.27.27,0,0,1-.27.27H41.62a.27.27,0,0,1-.27-.27V65.69h1.44a4.28,4.28,0,0,0-.08.81,3.79,3.79,0,0,0,7.58,0,4.28,4.28,0,0,0-.08-.81h1.44v5.69Zm0-8.13a.27.27,0,0,1-.27.27H49.75a.27.27,0,0,1-.27-.27V61.62a.27.27,0,0,1,.27-.27h1.63a.27.27,0,0,1,.27.27ZM66.5,61.9c-6.5,0-6.5,0-6.5,4.6s0,4.6,6.5,4.6,6.5,0,6.5-4.6S73,61.9,66.5,61.9Zm-1.62,7V64.06l4.06,2.44-4.06,2.44Zm27.31-7.32H80.81a.82.82,0,0,0-.81.82v8.12a.82.82,0,0,0,.81.82H92.19a.82.82,0,0,0,.81-.82V62.44a.82.82,0,0,0-.81-.82Zm-9.35,1.63a1.22,1.22,0,1,1-1.22,1.22A1.21,1.21,0,0,1,82.84,63.25Zm8.53,6.5H81.62l1.63-2.44,1.9,1.35,3-3.79,3.25,4.88Zm20.09-7.08a2.67,2.67,0,0,0,1.18-1.48,5.53,5.53,0,0,1-1.68.65,2.76,2.76,0,0,0-2-.84,2.65,2.65,0,0,0-2.66,2.66,3,3,0,0,0,0,.61,7.58,7.58,0,0,1-5.49-2.73,2.55,2.55,0,0,0-.36,1.29A2.65,2.65,0,0,0,101.73,65a2.56,2.56,0,0,1-1.2-.33v0a2.66,2.66,0,0,0,2.14,2.62,2.83,2.83,0,0,1-.71.1,2.73,2.73,0,0,1-.5,0,2.66,2.66,0,0,0,2.48,1.85,5.39,5.39,0,0,1-3.3,1.26,4.49,4.49,0,0,1-.64,0A7.73,7.73,0,0,0,111.67,64v-.35A5.34,5.34,0,0,0,113,62.24,5,5,0,0,1,111.46,62.67ZM133,60.81V72.19a.82.82,0,0,1-.81.81h-3.25V68h1.62l.27-1.88h-1.89V64.6a.89.89,0,0,1,.2-.62.79.79,0,0,1,.61-.22H131V62.07a8.42,8.42,0,0,0-1.33-.09,2.78,2.78,0,0,0-2,.67,2.37,2.37,0,0,0-.69,1.8v1.62h-1.63v1.87H127V73h-6.14a.82.82,0,0,1-.81-.81V60.81a.82.82,0,0,1,.81-.81h11.38a.82.82,0,0,1,.81.81Zm13,5.69a2.85,2.85,0,0,1-.4,1.49A3,3,0,0,1,143,69.48a2.94,2.94,0,0,1-1.49-.4A3,3,0,0,1,140.4,68a3,3,0,0,1,0-3,3,3,0,0,1,1.09-1.09,2.94,2.94,0,0,1,1.49-.4A3,3,0,0,1,145.56,65,2.85,2.85,0,0,1,146,66.5Zm7,0a2.85,2.85,0,0,1-.4,1.49,3,3,0,0,1-1.09,1.09,2.94,2.94,0,0,1-1.49.4A3,3,0,0,1,147.44,68a3,3,0,0,1,0-3A3,3,0,0,1,150,63.52a2.94,2.94,0,0,1,1.49.4A3,3,0,0,1,152.6,65,2.85,2.85,0,0,1,153,66.5Zm7.27-2H163v8.4h-2.71Zm4.33,8.39v-6.5l0-1.9h2.66l.09,1.16a3.58,3.58,0,0,1,1.05-1,2.61,2.61,0,0,1,1.39-.38,3,3,0,0,1,2.35,1A4,4,0,0,1,173,68v4.87h-2.71v-4.6a2.14,2.14,0,0,0-.41-1.43,1.35,1.35,0,0,0-1.06-.47,1.45,1.45,0,0,0-1.08.43,1.63,1.63,0,0,0-.43,1.2v4.87Zm-3-9.75h0a1.58,1.58,0,0,1-1.15-.43,1.43,1.43,0,0,1-.44-1.06,1.38,1.38,0,0,1,.45-1.06,1.7,1.7,0,0,1,1.19-.43,1.59,1.59,0,0,1,1.16.43,1.46,1.46,0,0,1,.45,1.06,1.42,1.42,0,0,1-.45,1.07,1.68,1.68,0,0,1-1.19.42Zm31.26.8-6.16,6.17a.41.41,0,0,1-.3.12h0a.45.45,0,0,1-.26-.12l-3.43-3.44a.45.45,0,0,1-.12-.31.42.42,0,0,1,.12-.3l1-1a.38.38,0,0,1,.3-.13.41.41,0,0,1,.3.13l2.12,2.12,4.85-4.85a.44.44,0,0,1,.3-.12.45.45,0,0,1,.31.12l1,1a.41.41,0,0,1,0,.6Zm-.35,3.67-5,5a1.55,1.55,0,0,1-2.16,0l-5-5A1.5,1.5,0,0,1,180,66.5a1.46,1.46,0,0,1,.44-1.07l5-5a1.55,1.55,0,0,1,2.16,0l2.24,2.24-3.36,3.37-1.58-1.59a1.2,1.2,0,0,0-1.69,0l-1,1a1.12,1.12,0,0,0-.35.84,1.15,1.15,0,0,0,.35.84l3.43,3.44a1.16,1.16,0,0,0,.56.31l0,0h.24a1.18,1.18,0,0,0,.84-.35l5.22-5.22,0,0A1.43,1.43,0,0,1,193,66.5a1.46,1.46,0,0,1-.44,1.08Z" style="fill:#fff" id="svg_14"/><path id="rss" d="M24.06,91a2,2,0,1,0-2,2,2,2,0,0,0,2-2ZM33,92.73A12.73,12.73,0,0,0,20.27,80a.27.27,0,0,0-.27.27v1.9a.27.27,0,0,0,.27.27A10.28,10.28,0,0,1,30.56,92.73a.27.27,0,0,0,.27.27h1.9a.27.27,0,0,0,.27-.27Zm-4.06,0a8.68,8.68,0,0,0-8.67-8.67.27.27,0,0,0-.27.27v1.9a.27.27,0,0,0,.27.27,6.23,6.23,0,0,1,6.23,6.23.27.27,0,0,0,.27.27h1.9a.27.27,0,0,0,.27-.27Z" style="fill:#00543c"/><path d="M.24,88.23l4.53,4.53a.82.82,0,0,0,1.16,0l7-7a.25.25,0,0,0,.08-.18V80.81a.81.81,0,0,0-.81-.81H7.42a.25.25,0,0,0-.18.08l-7,7A.82.82,0,0,0,.24,88.23Zm8.7-5.39a1.22,1.22,0,1,1,1.22,1.22,1.22,1.22,0,0,1-1.22-1.22Z" style="fill:#124a37" id="svg_15"/><path d="M71.78,85.47l-5.25-5.25a.75.75,0,0,0-1.06,0l-5.25,5.25A.77.77,0,0,0,60,86a.75.75,0,0,0,.06.29.74.74,0,0,0,.69.46h.75v4.5a.74.74,0,0,0,.75.75H64.5V88.25h3V92h2.25a.74.74,0,0,0,.75-.75v-4.5h.75a.74.74,0,0,0,.69-.46A.75.75,0,0,0,72,86,.77.77,0,0,0,71.78,85.47Z" style="fill:#6b6b6b;opacity:0.800000011920929;isolation:isolate" id="svg_16"/><path d="M91.78,85.47l-5.25-5.25a.75.75,0,0,0-1.06,0l-5.25,5.25A.77.77,0,0,0,80,86a.75.75,0,0,0,.06.29.74.74,0,0,0,.69.46h.75v4.5a.74.74,0,0,0,.75.75H84.5V88.25h3V92h2.25a.74.74,0,0,0,.75-.75v-4.5h.75a.74.74,0,0,0,.69-.46A.75.75,0,0,0,92,86,.77.77,0,0,0,91.78,85.47Z" style="fill:#fff" id="svg_17"/><path d="M53.11,80H40.88a.87.87,0,0,0-.88.88V93.11a.87.87,0,0,0,.88.88H53.11a.87.87,0,0,0,.88-.88V80.88a.87.87,0,0,0-.88-.88ZM51.36,92.24H49.62v-.88a7,7,0,0,0-7-7h-.88V82.63h.88a8.73,8.73,0,0,1,8.73,8.73v.88Zm-3.49,0H46.12v-.88a3.5,3.5,0,0,0-3.5-3.49h-.87V86.12h.87a5.25,5.25,0,0,1,5.25,5.24v.88Zm-4.81,0a1.31,1.31,0,1,1,1.31-1.32A1.32,1.32,0,0,1,43.06,92.24Z" style="fill:#fff" id="svg_18"/><path d="M429,213.86a.72.72,0,0,0-1,.11.76.76,0,0,0-.11,1l4.22,4.3-4.22,4.3a.75.75,0,0,0,.11,1,.71.71,0,0,0,1,.11l5.32-5.43-5.32-5.42m-22,5.42,4.21-4.3a.75.75,0,0,0-.11-1,.71.71,0,0,0-1-.11l-5.32,5.42h0l5.32,5.42a.71.71,0,0,0,1-.11.76.76,0,0,0,.11-1l-4.21-4.29M424.36,228a.73.73,0,0,0-1-.12l-4.21,4.31-4.21-4.31a.7.7,0,0,0-1,.12.75.75,0,0,0-.11,1l5.31,5.43h0l5.32-5.43a.74.74,0,0,0-.11-1m.11-18.84-5.31-5.43h0l-5.31,5.43a.74.74,0,0,0,.11,1,.71.71,0,0,0,1,.11l4.21-4.3,4.21,4.3a.72.72,0,0,0,1-.11.75.75,0,0,0,.11-1" style="fill:#ffc232" id="svg_19"/><path d="M429,220.79a1.3,1.3,0,0,0,.36-1.08h-8.64v8.82a1.25,1.25,0,0,0,1.06-.37,1.52,1.52,0,0,0,.5-1.12v-4.61l4.44,4.54a.72.72,0,0,0,1-.11.77.77,0,0,0,.11-1l-4.45-4.54h4.52a1.43,1.43,0,0,0,1.1-.51m-9.63-1.08H410.7a1.35,1.35,0,0,0,.36,1.08,1.48,1.48,0,0,0,1.1.51h4.52l-4.45,4.54a.74.74,0,0,0,.11,1,.72.72,0,0,0,1,.11l4.44-4.54V227a1.52,1.52,0,0,0,.5,1.12,1.25,1.25,0,0,0,1.06.37v-8.82m-1.56-8.5v4.61l-4.44-4.53a.69.69,0,0,0-1,.11.75.75,0,0,0-.11,1l4.44,4.54h-4.52a1.44,1.44,0,0,0-1.09.52,1.28,1.28,0,0,0-.36,1.07h8.63v-8.81a1.2,1.2,0,0,0-1,.36,1.48,1.48,0,0,0-.5,1.12ZM427.87,217h-4.52l4.45-4.53a.75.75,0,0,0-.11-1,.72.72,0,0,0-1-.11l-4.44,4.54v-4.62a1.52,1.52,0,0,0-.5-1.12,1.25,1.25,0,0,0-1.06-.37v8.82h8.64a1.3,1.3,0,0,0-.36-1.08,1.47,1.47,0,0,0-1.1-.51Z" style="fill:#ffc232" id="svg_20"/><path d="M415.18,106.27a.36.36,0,0,0,.08-.35.32.32,0,0,0-.31-.19h-4.87l-2.15-5.52a.31.31,0,0,0-.59,0l-2.14,5.52h-4.88a.33.33,0,0,0-.31.19.36.36,0,0,0,.08.35l3.71,3.7-.94,4.93a.35.35,0,0,0,.14.32.32.32,0,0,0,.35,0l4.28-2.76,4.28,2.76a.3.3,0,0,0,.17,0,.29.29,0,0,0,.18,0,.34.34,0,0,0,.15-.32l-.94-4.93,3.71-3.7Zm12.46,4v2.87a.31.31,0,0,1-.18.28.43.43,0,0,1-.14,0,.29.29,0,0,1-.2-.07l-7-5.41a.29.29,0,0,1-.13-.25.28.28,0,0,1,.13-.24l7-5.42a.37.37,0,0,1,.34,0,.32.32,0,0,1,.18.29v2.86c4.77,0,7.48,2.7,7.63,7a.32.32,0,0,1-.24.3H435c-.1,0-.17-.06-.28-.16-1.15-1.43-3.85-2.07-7-2.07Zm15.7,2.87a.26.26,0,0,1,.07-.21l1.93-1.92a.3.3,0,0,1,.23-.09h4.93a.32.32,0,0,0,.32-.32v-2.86h-1.6a.33.33,0,0,1-.3-.2.37.37,0,0,1,.08-.35l2.86-2.86a.32.32,0,0,1,.46,0l2.86,2.86a.37.37,0,0,1,.07.35.32.32,0,0,1-.3.2h-1.59v2.86a2.86,2.86,0,0,1-2.86,2.87h-6.84a.32.32,0,0,1-.32-.32Zm-3.25-4.86a.36.36,0,0,1-.08-.35.33.33,0,0,1,.31-.19h1.59v-2.87a2.87,2.87,0,0,1,2.86-2.86h6.84a.32.32,0,0,1,.32.32.25.25,0,0,1-.07.21l-1.93,1.92a.3.3,0,0,1-.23.09h-4.93a.32.32,0,0,0-.32.32v2.87h1.6a.32.32,0,0,1,.3.19.36.36,0,0,1-.08.35l-2.86,2.87a.34.34,0,0,1-.46,0l-2.86-2.87Z" id="svg_21"/><path id="location" d="M268,60a6,6,0,0,0-6,6c0,4.37,5.08,9.49,5.29,9.71a1,1,0,0,0,1.42,0c.21-.22,5.29-5.34,5.29-9.71A6,6,0,0,0,268,60Zm-3,6a3,3,0,1,1,3,3A3,3,0,0,1,265,66Z" style="fill:#6b6b6b"/><path id="fax" d="M253,63V61a1,1,0,0,0-1-1h-8a1,1,0,0,0-1,1v2Zm0,3a1,1,0,1,1,1,1A1,1,0,0,1,253,66Zm2-2H241a1,1,0,0,0-1,1v7a1,1,0,0,0,1,1h1V69h12v4h1a1,1,0,0,0,1-1V65A1,1,0,0,0,255,64Zm-12,6v5a1,1,0,0,0,1,1h8a1,1,0,0,0,1-1V70Z" style="fill:#6b6b6b"/><path id="phone" d="M220,63c1,5,8,12,13,13,1,0,3-2,3-3a20.87,20.87,0,0,0-4-3c-.5,0-2,1.5-2.5,1.5a12.05,12.05,0,0,1-5-5c0-.5,1.5-2,1.5-2.5-.5-1-2-3.5-3-4C222,60,220,62,220,63Z" style="fill:#6b6b6b"/><path id="email" d="M208,68.41l8-5V63a1,1,0,0,0-1-1H201a1,1,0,0,0-1,1v.41Zm.27,1a.5.5,0,0,1-.54,0L200,64.59V73a1,1,0,0,0,1,1h14a1,1,0,0,0,1-1V64.59Z" style="fill:#6b6b6b"/><path d="M268,80a6,6,0,0,0-6,6c0,4.37,5.08,9.49,5.29,9.71a1,1,0,0,0,1.42,0c.21-.22,5.29-5.34,5.29-9.71A6,6,0,0,0,268,80Zm-3,6a3,3,0,1,1,3,3A3,3,0,0,1,265,86Zm-12-3V81a1,1,0,0,0-1-1h-8a1,1,0,0,0-1,1v2Zm0,3a1,1,0,1,1,1,1A1,1,0,0,1,253,86Zm2-2H241a1,1,0,0,0-1,1v7a1,1,0,0,0,1,1h1V89h12v4h1a1,1,0,0,0,1-1V85A1,1,0,0,0,255,84Zm-12,6v5a1,1,0,0,0,1,1h8a1,1,0,0,0,1-1V90Zm-23-7c1,5,8,12,13,13,1,0,3-2,3-3a20.87,20.87,0,0,0-4-3c-.5,0-2,1.5-2.5,1.5a12.05,12.05,0,0,1-5-5c0-.5,1.5-2,1.5-2.5-.5-1-2-3.5-3-4C222,80,220,82,220,83Zm-12,5.41,8-5V83a1,1,0,0,0-1-1H201a1,1,0,0,0-1,1v.41Zm.27,1a.5.5,0,0,1-.54,0L200,84.59V93a1,1,0,0,0,1,1h14a1,1,0,0,0,1-1V84.59Z" style="fill:#fdbb30" id="svg_22"/><path d="M304.67,60A4.67,4.67,0,0,0,300,64.67a4.48,4.48,0,0,0,.6,2.28l3.81,6.91a.3.3,0,0,0,.26.14.33.33,0,0,0,.26-.14L308.74,67a4.66,4.66,0,0,0-4.07-7Zm0,6.42a1.75,1.75,0,1,1,1.75-1.75A1.75,1.75,0,0,1,304.67,66.42Z" style="fill:#2a2a2a" id="svg_23"/><path d="M304.67,80A4.67,4.67,0,0,0,300,84.67a4.48,4.48,0,0,0,.6,2.28l3.81,6.91a.3.3,0,0,0,.26.14.33.33,0,0,0,.26-.14L308.74,87a4.66,4.66,0,0,0-4.07-7Zm0,6.42a1.75,1.75,0,1,1,1.75-1.75A1.75,1.75,0,0,1,304.67,86.42Z" style="fill:#fff" id="svg_24"/><path d="M330.88,60A10.9,10.9,0,0,0,320,70.88c0,7.91,9.2,17.2,9.59,17.59a1.78,1.78,0,0,0,1.29.53,1.81,1.81,0,0,0,1.28-.52c.39-.4,9.59-9.69,9.59-17.6A10.9,10.9,0,0,0,330.88,60Zm-5.44,10.88a5.44,5.44,0,1,1,5.44,5.43A5.43,5.43,0,0,1,325.44,70.88Z" style="fill:#00543c" id="svg_25"/><path d="M379,69.42l-9.15-9.15a.91.91,0,0,0-1.29,0,3.52,3.52,0,0,0-.57,4.22l-5.32,5.31a9.52,9.52,0,0,0-3.88-.8c-2,0-4.22.87-4.22,2a.9.9,0,0,0,.27.64l5.05,5-9,10.78L350,89.27l1.83-.92,10.77-9,5,5a.85.85,0,0,0,.64.27c1.08,0,2-2.26,2-4.21a9.57,9.57,0,0,0-.8-3.89l5.32-5.32A3.51,3.51,0,0,0,379,70.7a.89.89,0,0,0,0-1.28Z" style="fill:#2a2a2a" id="svg_26"/><g id="Group"><path d="M301.13,130,300,131.13a.16.16,0,0,0,0,.22l2.37,2.36L300,136.08a.16.16,0,0,0,0,.22l1.09,1.08a.14.14,0,0,0,.22,0l3.56-3.55a.17.17,0,0,0,0-.23L301.35,130a.17.17,0,0,0-.22,0Z" style="fill:#00543c" id="svg_27"/><path d="M311.13,130,310,131.13a.16.16,0,0,0,0,.22l2.37,2.36L310,136.08a.16.16,0,0,0,0,.22l1.09,1.08a.14.14,0,0,0,.22,0l3.56-3.55a.17.17,0,0,0,0-.23L311.35,130a.17.17,0,0,0-.22,0Z" style="fill:#a8228e" id="svg_28"/><path d="M321.13,130,320,131.13a.16.16,0,0,0,0,.22l2.37,2.36L320,136.08a.16.16,0,0,0,0,.22l1.09,1.08a.14.14,0,0,0,.22,0l3.56-3.55a.17.17,0,0,0,0-.23L321.35,130a.17.17,0,0,0-.22,0Z" style="fill:#008575" id="svg_29"/><path d="M331.13,130,330,131.13a.16.16,0,0,0,0,.22l2.37,2.36L330,136.08a.16.16,0,0,0,0,.22l1.09,1.08a.14.14,0,0,0,.22,0l3.56-3.55a.17.17,0,0,0,0-.23L331.35,130a.17.17,0,0,0-.22,0Z" style="fill:#007ea5" id="svg_30"/><path d="M341.13,130,340,131.13a.16.16,0,0,0,0,.22l2.37,2.36L340,136.08a.16.16,0,0,0,0,.22l1.09,1.08a.14.14,0,0,0,.22,0l3.56-3.55a.17.17,0,0,0,0-.23L341.35,130a.17.17,0,0,0-.22,0Z" style="fill:#bb3304" id="svg_31"/><path d="M351.13,130,350,131.13a.16.16,0,0,0,0,.22l2.37,2.36L350,136.08a.16.16,0,0,0,0,.22l1.09,1.08a.14.14,0,0,0,.22,0l3.56-3.55a.17.17,0,0,0,0-.23L351.35,130a.17.17,0,0,0-.22,0Z" style="fill:#c55500" id="svg_32"/><path d="M361.13,130,360,131.13a.16.16,0,0,0,0,.22l2.37,2.36L360,136.08a.16.16,0,0,0,0,.22l1.09,1.08a.14.14,0,0,0,.22,0l3.56-3.55a.17.17,0,0,0,0-.23L361.35,130a.17.17,0,0,0-.22,0Z" style="fill:#ccaf74" id="svg_33"/><path d="M371.13,130,370,131.13a.16.16,0,0,0,0,.22l2.37,2.36L370,136.08a.16.16,0,0,0,0,.22l1.09,1.08a.14.14,0,0,0,.22,0l3.56-3.55a.17.17,0,0,0,0-.23L371.35,130a.17.17,0,0,0-.22,0Z" style="fill:#687e31" id="svg_34"/><path d="M304.06,140l1.09,1.09a.16.16,0,0,1,0,.22l-2.37,2.36,2.37,2.37a.16.16,0,0,1,0,.22l-1.09,1.08a.14.14,0,0,1-.22,0l-3.56-3.55a.17.17,0,0,1,0-.23l3.56-3.56a.19.19,0,0,1,.23,0Z" style="fill:#00543c" id="svg_35"/><path d="M314.06,140l1.09,1.09a.16.16,0,0,1,0,.22l-2.37,2.36,2.37,2.37a.16.16,0,0,1,0,.22l-1.09,1.08a.14.14,0,0,1-.22,0l-3.56-3.55a.17.17,0,0,1,0-.23l3.56-3.56a.19.19,0,0,1,.23,0Z" style="fill:#a8228e" id="svg_36"/><path d="M323.83,140l1.08,1.09a.16.16,0,0,1,0,.22l-2.36,2.36,2.36,2.37a.16.16,0,0,1,0,.22l-1.08,1.08a.15.15,0,0,1-.23,0L320,143.83a.17.17,0,0,1,0-.23L323.6,140a.19.19,0,0,1,.23,0Z" style="fill:#008575" id="svg_37"/><path d="M334.06,140l1.09,1.09a.16.16,0,0,1,0,.22l-2.37,2.36,2.37,2.37a.16.16,0,0,1,0,.22l-1.09,1.08a.14.14,0,0,1-.22,0l-3.56-3.55a.17.17,0,0,1,0-.23l3.56-3.56a.19.19,0,0,1,.23,0Z" style="fill:#007ea5" id="svg_38"/><path d="M344.06,140l1.09,1.09a.16.16,0,0,1,0,.22l-2.37,2.36,2.37,2.37a.16.16,0,0,1,0,.22l-1.09,1.08a.14.14,0,0,1-.22,0l-3.56-3.55a.17.17,0,0,1,0-.23l3.56-3.56a.19.19,0,0,1,.23,0Z" style="fill:#bb3304" id="svg_39"/><path d="M354.06,140l1.09,1.09a.16.16,0,0,1,0,.22l-2.37,2.36,2.37,2.37a.16.16,0,0,1,0,.22l-1.09,1.08a.14.14,0,0,1-.22,0l-3.56-3.55a.17.17,0,0,1,0-.23l3.56-3.56a.19.19,0,0,1,.23,0Z" style="fill:#c55500" id="svg_40"/><path d="M364.06,140l1.09,1.09a.16.16,0,0,1,0,.22l-2.37,2.36,2.37,2.37a.16.16,0,0,1,0,.22l-1.09,1.08a.14.14,0,0,1-.22,0l-3.56-3.55a.17.17,0,0,1,0-.23l3.56-3.56a.19.19,0,0,1,.23,0Z" style="fill:#ccaf74" id="svg_41"/><path d="M374.06,140l1.09,1.09a.16.16,0,0,1,0,.22l-2.37,2.36,2.37,2.37a.16.16,0,0,1,0,.22l-1.09,1.08a.14.14,0,0,1-.22,0l-3.56-3.55a.17.17,0,0,1,0-.23l3.56-3.56a.19.19,0,0,1,.23,0Z" style="fill:#687e31" id="svg_42"/></g><path d="M374.25,168.75h6.87l-6.87-6.87ZM365.5,160h10l7.5,7.5v15a2.5,2.5,0,0,1-2.5,2.5h-15a2.49,2.49,0,0,1-2.5-2.5v-20A2.49,2.49,0,0,1,365.5,160Zm11.25,20v-2.5H365.5V180Zm3.75-5v-2.5h-15V175Z" style="fill:#fff" id="svg_43"/><path d="M77.61,285.35c-4.48,0-7.17-2.85-7.17-7.36V266.47H73v11.2c0,3.22,1.45,5.37,4.64,5.37s4.73-1.93,4.73-5.29V266.47h2.52v11.38c0,4.68-2.76,7.5-7.25,7.5m27.25-.35L94.69,270.58V285H92.35V266.47h2.26l9.82,13.88V266.47h2.34V285h-1.91m10-18.53h2.52V285h-2.52V266.47Zm18,18.61h-2.26l-7.14-18.26,2.53-.54,5.77,15.42,5.67-15.23h2.65l-7.22,18.61" style="fill:#124a37" id="svg_44"/><path id="Fill-13-3" data-name="Fill-13" d="M145.7,285V266.47h10v2.31h-7.47v5.37H154l.38,2.31h-6.18v6.23H156V285H145.7" style="fill:#124a37"/><path id="Fill-14-3" data-name="Fill-14" d="M167.88,268.7h-2.42v6.36h2.15c2.44,0,4-1.1,4-3.19s-1.26-3.17-3.73-3.17Zm7.7,15.92-2.55.57-5.66-8h-1.91V285h-2.52V266.47h5c3.79,0,6.15,1.88,6.15,5.26a5,5,0,0,1-4,5.13l5.5,7.76Z" style="fill:#124a37"/><path id="Fill-15-3" data-name="Fill-15" d="M185.84,285.21a11.19,11.19,0,0,1-5.18-1.2l.37-2.58a9.12,9.12,0,0,0,4.86,1.58c1.94,0,3.31-1,3.31-2.82s-.76-2.39-3.55-3.65c-3.49-1.58-4.81-2.74-4.81-5.39,0-3,2.29-4.89,5.64-4.89a8.31,8.31,0,0,1,4.22,1l-.4,2.53a6.6,6.6,0,0,0-3.9-1.37c-2.12,0-3.06,1.13-3.06,2.5s.7,2.09,3.52,3.38c3.59,1.64,4.83,2.87,4.83,5.67,0,3.19-2.39,5.2-5.85,5.2" style="fill:#124a37"/><path id="Fill-16-3" data-name="Fill-16" d="M198.72,266.47h2.53V285h-2.53V266.47Z" style="fill:#124a37"/><path id="Fill-17-3" data-name="Fill-17" d="M215.77,268.78V285h-2.52V268.78h-5.91v-2.31h14.13l.37,2.31h-6.07" style="fill:#124a37"/><path id="Fill-18-3" data-name="Fill-18" d="M234.86,277.64V285h-2.52v-7.36l-6.55-10.82,2.52-.53,5.32,9,5.18-8.86h2.79l-6.74,11.17" style="fill:#124a37"/><path id="Fill-19-3" data-name="Fill-19" d="M264.42,268.43c-3.68,0-5.93,2.85-5.93,7.31s2.28,7.3,5.93,7.3,5.94-2.85,5.94-7.3-2.29-7.31-5.94-7.31Zm0,16.92c-5.2,0-8.51-3.87-8.51-9.59s3.36-9.64,8.57-9.64S273,270,273,275.71s-3.33,9.64-8.56,9.64Z" style="fill:#124a37"/><path id="Fill-20-3" data-name="Fill-20" d="M282.14,268.78v5.67h5.59l.37,2.31h-6V285h-2.52V266.47h9.64v2.31h-7.12" style="fill:#124a37"/><path d="M75,318.22A11.13,11.13,0,0,1,69.83,317l.37-2.58A9.07,9.07,0,0,0,75.06,316c1.94,0,3.31-1,3.31-2.82s-.76-2.39-3.55-3.65c-3.49-1.59-4.8-2.74-4.8-5.4,0-3,2.28-4.89,5.64-4.89a8.16,8.16,0,0,1,4.21,1.05l-.4,2.53a6.57,6.57,0,0,0-3.9-1.37c-2.12,0-3.06,1.13-3.06,2.49s.7,2.1,3.52,3.39c3.6,1.64,4.83,2.87,4.83,5.66,0,3.2-2.39,5.21-5.85,5.21m18.28-15.81-3,7.81h5.93Zm6,15.78-2.18-5.74H89.48L87.39,318H84.83l7.25-18.61h2.53l7.14,18.26-2.44.54h0Zm20.11-.18-10.18-14.42V318H106.9V299.48h2.26L119,313.36V299.48h2.33V318h-1.9m19.49-16.22v5.66h5.58l.38,2.31h-6V318h-2.53V299.48H146v2.31h-7.11m17.93-.08h-2.41v6.36h2.14c2.45,0,4-1.1,4-3.19s-1.26-3.17-3.73-3.17Zm7.71,15.92-2.55.56-5.67-8h-1.9V318H151.9V299.48h5c3.79,0,6.15,1.88,6.15,5.26a5,5,0,0,1-4.06,5.13l5.51,7.76ZM176,302.41l-3,7.81h5.94l-3-7.81Zm6,15.78-2.17-5.74h-7.66L170.05,318H167.5l7.25-18.61h2.52l7.15,18.26-2.45.53Zm19.71-.18L191.5,303.59V318h-2.34V299.48h2.26l9.83,13.88V299.48h2.33V318h-1.9m16.46.35c-5.21,0-8.57-3.87-8.57-9.59s3.41-9.64,8.62-9.64a8.88,8.88,0,0,1,5.26,1.53l-.37,2.58a8,8,0,0,0-4.92-1.8c-3.76,0-6,2.84-6,7.3s2.26,7.28,6,7.28a8.8,8.8,0,0,0,5.21-1.86l.38,2.39a9.75,9.75,0,0,1-5.61,1.81m12-18.88h2.52V318h-2.52V299.48Zm14.07,18.74A11.1,11.1,0,0,1,239,317l.37-2.58a9,9,0,0,0,4.86,1.59c1.94,0,3.31-1,3.31-2.82s-.76-2.39-3.55-3.65c-3.49-1.59-4.8-2.74-4.8-5.4,0-3,2.28-4.89,5.64-4.89a8.16,8.16,0,0,1,4.21,1.05l-.4,2.53a6.57,6.57,0,0,0-3.9-1.37c-2.12,0-3.06,1.13-3.06,2.49s.7,2.1,3.52,3.39C248.8,309,250,310.22,250,313c0,3.2-2.39,5.21-5.85,5.21m18.82.14c-5.21,0-8.57-3.87-8.57-9.59s3.41-9.64,8.62-9.64a8.94,8.94,0,0,1,5.27,1.53l-.38,2.58a8,8,0,0,0-4.91-1.8c-3.76,0-6,2.84-6,7.3s2.25,7.28,6,7.28a8.83,8.83,0,0,0,5.21-1.86l.37,2.39a9.75,9.75,0,0,1-5.61,1.81m17.69-16.92c-3.68,0-5.93,2.85-5.93,7.3s2.28,7.31,5.93,7.31,5.94-2.85,5.94-7.31-2.29-7.3-5.94-7.3Zm0,16.92c-5.21,0-8.52-3.87-8.52-9.59s3.36-9.64,8.57-9.64,8.51,3.87,8.51,9.58S285.9,318.36,280.67,318.36Z" style="fill:#124a37" id="svg_45"/><path d="M6,360.73c-3.23,0-5.31-2.39-5.31-5.94s2.11-6,5.34-6a5.55,5.55,0,0,1,3.27.95l-.24,1.6a4.93,4.93,0,0,0-3-1.12c-2.33,0-3.72,1.77-3.72,4.53s1.4,4.51,3.72,4.51a5.52,5.52,0,0,0,3.23-1.14l.23,1.48A6.13,6.13,0,0,1,6,360.73m14.87-.21v-5.3H15.07v5.3H13.51V349h1.56v4.76h5.82V349h1.56v11.48H20.89m10-9.67-1.83,4.85h3.68Zm3.73,9.79-1.35-3.56H28.53l-1.3,3.45H25.65L30.14,349h1.57l4.43,11.32-1.52.33Zm12.55-.11-6.31-8.95v8.95H39.41V349h1.4l6.1,8.6V349h1.44v11.48H47.17m10.82.22c-3.64,0-5.59-2.39-5.59-5.94s2-6,5.46-6a6,6,0,0,1,3.5,1l-.25,1.6a5.21,5.21,0,0,0-3.27-1.15c-2.51,0-3.83,1.77-3.83,4.53s1.35,4.51,4,4.51a4.51,4.51,0,0,0,2.33-.56v-3.05H57.68l-.22-1.43h4.41v5.38A7.31,7.31,0,0,1,58,360.73m8.23-.21V349h6.19v1.43H67.78v3.33h3.6l.23,1.43H67.78v3.86h4.8v1.43H66.22m19.49-10.05v10.06H84.15V350.46H80.48V349h8.76l.24,1.43H85.71m14.14,10.06v-5.3H94v5.3H92.47V349H94v4.76h5.81V349h1.56v11.48H99.85m6.07,0V349h6.2v1.43h-4.63v3.33h3.59l.24,1.43h-3.83v3.86h4.79v1.43h-6.36m26.27,0h-1.31l-3.12-9.31-3.11,9.31h-1.3L120,349.25l1.53-.34,2.6,9.14,2.93-9h1.56l2.93,9,2.55-9h1.6l-3.47,11.48m11.22-10.27c-2.28,0-3.68,1.77-3.68,4.53s1.42,4.53,3.68,4.53,3.68-1.77,3.68-4.53-1.41-4.53-3.68-4.53Zm0,10.49c-3.23,0-5.28-2.39-5.28-5.94s2.08-6,5.31-6,5.28,2.4,5.28,5.94-2.07,6-5.31,6Zm12.42-10.32h-1.5v3.95h1.33c1.52,0,2.48-.69,2.48-2s-.78-2-2.31-2Zm4.77,9.87-1.58.35-3.51-5h-1.18v4.85h-1.56V349h3.13c2.34,0,3.81,1.17,3.81,3.26a3.12,3.12,0,0,1-2.52,3.18l3.42,4.81Zm3.4.24V349h1.57v10.05h4.14l.22,1.43H164m12.92-10.07h-1.82v8.66h1.77c2.77,0,4.43-1.4,4.43-4.33s-1.75-4.33-4.38-4.33Zm-.12,10.08h-3.26V349h3.33c4,0,6,2.36,6,5.72s-2.16,5.77-6.11,5.77Zm16.75-10.06V354H197l.24,1.43h-3.7v5.12H192V349h6v1.43h-4.41m11.2,0h-1.49v3.95h1.33c1.51,0,2.48-.69,2.48-2s-.78-2-2.32-2Zm4.78,9.87-1.58.35-3.51-5h-1.18v4.85h-1.57V349h3.13c2.35,0,3.81,1.17,3.81,3.26a3.12,3.12,0,0,1-2.51,3.18l3.41,4.81Zm7.91-10c-2.28,0-3.68,1.77-3.68,4.53s1.42,4.53,3.68,4.53,3.68-1.77,3.68-4.53-1.41-4.53-3.68-4.53Zm0,10.49c-3.23,0-5.28-2.39-5.28-5.94s2.09-6,5.32-6,5.27,2.4,5.27,5.94-2.06,6-5.31,6Zm20.13-.21-.71-9.14-3.63,9.19H232l-3.63-9.19-.7,9.14h-1.47l.92-11.49h1.93l3.58,9.42,3.58-9.42h1.91l.9,11.48h-1.5m18.08,0v-5.3h-5.81v5.3h-1.57V349h1.57v4.76h5.81V349h1.56v11.48h-1.56m6.08,0V349h6.19v1.43h-4.63v3.33h3.6l.23,1.43h-3.83v3.86h4.8v1.43H261.7m13.16-10.1h-1.49v3.95h1.33c1.51,0,2.48-.69,2.48-2s-.78-2-2.32-2Zm4.78,9.87-1.58.35-3.51-5h-1.18v4.85H271.8V349h3.13c2.35,0,3.81,1.17,3.81,3.26a3.12,3.12,0,0,1-2.51,3.18l3.41,4.81Zm3.32.24V349h6.19v1.43h-4.63v3.33h3.6l.23,1.43h-3.83v3.86h4.8v1.43H283M.69,334H289.31v.66H.69V334Z" style="fill:#898a89" id="svg_46"/><path id="Fill-13-4" data-name="Fill-13" d="M53.55,281.06a1.55,1.55,0,0,0-2.14.23,1.57,1.57,0,0,0-.23,2.14l9.06,9.06-9.06,9.07a1.55,1.55,0,0,0,.23,2.14,1.57,1.57,0,0,0,2.14.23L65,292.49,53.55,281.06" style="fill:#fdbb30"/><path id="Fill-14-4" data-name="Fill-14" d="M4.75,292.49l9.06-9.06a1.54,1.54,0,0,0-.24-2.14,1.57,1.57,0,0,0-2.14-.23L0,292.48H0l11.44,11.43a1.54,1.54,0,0,0,2.14-.23,1.58,1.58,0,0,0,.23-2.15l-9.06-9.05" style="fill:#fdbb30"/><path id="Fill-15-4" data-name="Fill-15" d="M43.68,311.41a1.57,1.57,0,0,0-2.14-.23l-9,9.06-9.06-9.07a1.54,1.54,0,0,0-2.14.24,1.57,1.57,0,0,0-.23,2.14L32.48,325h0l11.43-11.43a1.55,1.55,0,0,0-.23-2.14" style="fill:#fdbb30"/><path id="Fill-16-4" data-name="Fill-16" d="M43.92,271.44,32.49,260h0L21.06,271.44a1.54,1.54,0,0,0,.23,2.14,1.57,1.57,0,0,0,2.14.23l9.06-9.06,9.06,9.06a1.55,1.55,0,0,0,2.14-.23,1.57,1.57,0,0,0,.23-2.14" style="fill:#fdbb30"/><path id="Fill-17-4" data-name="Fill-17" d="M51.84,296.31a2.74,2.74,0,0,0,.78-2.28H34v18.59a2.72,2.72,0,0,0,2.27-.78,3.11,3.11,0,0,0,1.08-2.36v-9.72l9.56,9.56a1.55,1.55,0,0,0,2.14-.23,1.58,1.58,0,0,0,.24-2.14l-9.57-9.56h9.73a3.16,3.16,0,0,0,2.36-1.08" style="fill:#fdbb30"/><path id="Fill-18-4" data-name="Fill-18" d="M31,294H12.37a2.69,2.69,0,0,0,.77,2.27,3.15,3.15,0,0,0,2.36,1.09h9.72l-9.56,9.55a1.55,1.55,0,0,0,.23,2.14,1.58,1.58,0,0,0,2.14.24l9.57-9.57v9.73a3.16,3.16,0,0,0,1.08,2.36,2.72,2.72,0,0,0,2.27.78V294" style="fill:#fdbb30"/><path id="Fill-19-4" data-name="Fill-19" d="M28.68,273.14a3.16,3.16,0,0,0-1.08,2.36v9.72L18,275.66a1.55,1.55,0,0,0-2.14.23,1.57,1.57,0,0,0-.23,2.14l9.56,9.57H15.5a3.13,3.13,0,0,0-2.35,1.08,2.68,2.68,0,0,0-.78,2.27H31V272.36a2.72,2.72,0,0,0-2.27.78" style="fill:#fdbb30"/><path id="Fill-20-4" data-name="Fill-20" d="M51.84,288.68a3.16,3.16,0,0,0-2.36-1.08H39.76L49.32,278a1.55,1.55,0,0,0-.23-2.14,1.57,1.57,0,0,0-2.14-.23l-9.56,9.56V275.5a3.16,3.16,0,0,0-1.08-2.36,2.69,2.69,0,0,0-2.27-.77V291H52.62a2.72,2.72,0,0,0-.78-2.27" style="fill:#fdbb30"/><path d="M350.08,100.14l-3.64,3.65-3.65-3.65a.45.45,0,0,0-.66,0l-2,2a.45.45,0,0,0,0,.66l3.64,3.65-3.64,3.64a.45.45,0,0,0,0,.66l2,2a.45.45,0,0,0,.66,0l3.65-3.64,3.64,3.65a.47.47,0,0,0,.66,0l2-2a.45.45,0,0,0,0-.66l-3.64-3.64,3.64-3.65a.45.45,0,0,0,0-.66l-2-2a.45.45,0,0,0-.66,0Z" style="fill:#fff" id="svg_47"/><path d="M444.81,131a4.81,4.81,0,0,0-.87,9.54v1.84a.89.89,0,0,0,.87.87.9.9,0,0,0,.62-.25l2.45-2.38h1.31a4.81,4.81,0,0,0,0-9.62Zm-14.83.76-1.42-.35v-.1a1.31,1.31,0,1,0-2.62,0v.1l-1.42.35a.44.44,0,0,0-.33.43v.87a.44.44,0,0,0,.44.44h5.25a.44.44,0,0,0,.43-.44v-.87a.44.44,0,0,0-.33-.43Zm-2.73.43a.88.88,0,1,1,.87-.88A.87.87,0,0,1,427.25,132.19Zm4.81.43h-.87v.44a1.32,1.32,0,0,1-1.31,1.32h-5.26a1.32,1.32,0,0,1-1.31-1.32v-.44h-.87a.44.44,0,0,0-.44.44v10.5a.44.44,0,0,0,.44.44h9.62a.44.44,0,0,0,.44-.44v-10.5a.44.44,0,0,0-.44-.44ZM414,132H403.5v1.75H414Zm-13.12,0a.88.88,0,1,0,.87.88A.87.87,0,0,0,400.88,132Zm0,3.5a.88.88,0,1,0,.87.88A.87.87,0,0,0,400.88,135.5Zm13.12,0H403.5v1.75H414ZM400.88,139a.88.88,0,1,0,.87.88A.87.87,0,0,0,400.88,139ZM414,139H403.5v1.75H414Zm73-9a7,7,0,1,0,7,7A7,7,0,0,0,487,130Zm0,5.5a1.53,1.53,0,1,1,1.53-1.53A1.52,1.52,0,0,1,487,135.5Zm1.31,5.47a.44.44,0,0,1-.44.44h-1.75a.43.43,0,0,1-.43-.44V136.6a.44.44,0,0,1,.43-.44h1.75a.44.44,0,0,1,.44.44V141Zm-14.44-8.22-2.63-2.62a.43.43,0,0,0-.61,0l-1.23,1.22,3.24,3.24,1.23-1.22A.44.44,0,0,0,473.87,132.75Zm-5.09-.78-8.21,8.22a.47.47,0,0,0-.13.25L460,143.5a.46.46,0,0,0,.43.5h.07l3.06-.44a.37.37,0,0,0,.24-.12l8.23-8.21L468.78,132Zm-7.91,11.15.44-2.62,2.19,2.19-2.63.43Z" style="fill:#007ea5" id="svg_48"/><path d="M32.73,61h-10a.27.27,0,0,0-.27.27v9.21a.55.55,0,0,1-1.09,0V62.62H20.27a.27.27,0,0,0-.27.28v7.85a1.61,1.61,0,0,0,1.62,1.62h9.75A1.62,1.62,0,0,0,33,70.75V61.27A.27.27,0,0,0,32.73,61Zm-1.35,4.88H26.5V63.44h4.88Z" style="fill:#fff" id="svg_49"/><path d="M483,217.67a1.18,1.18,0,0,0-1.7.19,1.36,1.36,0,0,0-.18,1.78l7.17,7.53-7.17,7.53a1.33,1.33,0,0,0,.18,1.78,1.21,1.21,0,0,0,1.7.19l9-9.5-9-9.5m-38.26,9.49,7.17-7.53a1.33,1.33,0,0,0-.19-1.77,1.19,1.19,0,0,0-1.69-.19l-9,9.49h0l9,9.49a1.18,1.18,0,0,0,1.69-.19,1.36,1.36,0,0,0,.19-1.78l-7.17-7.53M475.24,243a1.21,1.21,0,0,0-1.7-.19l-7.16,7.53-7.16-7.53a1.19,1.19,0,0,0-1.7.19,1.36,1.36,0,0,0-.18,1.78l9,9.5h0l9-9.5a1.33,1.33,0,0,0-.18-1.78m.19-33.49-9-9.5h0l-9,9.5a1.34,1.34,0,0,0,.19,1.78,1.2,1.2,0,0,0,1.69.19l7.17-7.53,7.16,7.53a1.18,1.18,0,0,0,1.69-.19,1.36,1.36,0,0,0,.19-1.78" style="fill:#fcbb30" id="svg_50"/><path d="M481.61,229.92a2.33,2.33,0,0,0,.62-1.89h-14.7v15.44a2.06,2.06,0,0,0,1.79-.64,2.7,2.7,0,0,0,.86-2v-8.08l7.56,7.94a1.17,1.17,0,0,0,1.69-.19,1.35,1.35,0,0,0,.19-1.78l-7.57-7.94h7.7a2.4,2.4,0,0,0,1.86-.9M465.16,228h-14.7a2.34,2.34,0,0,0,.62,1.89,2.41,2.41,0,0,0,1.86.89h7.69l-7.56,7.94a1.33,1.33,0,0,0,.18,1.78,1.21,1.21,0,0,0,1.7.2l7.56-7.95v8.09a2.7,2.7,0,0,0,.86,2,2.06,2.06,0,0,0,1.79.64V228m-1.8-16.73a2.71,2.71,0,0,0-.85,2v8.08l-7.56-8a1.18,1.18,0,0,0-1.69.2,1.35,1.35,0,0,0-.19,1.77l7.57,7.95h-7.7a2.4,2.4,0,0,0-1.86.9,2.33,2.33,0,0,0-.62,1.89h14.7V210.66a2.06,2.06,0,0,0-1.79.64m16.38,12h-7.69l7.56-7.94a1.33,1.33,0,0,0-.18-1.78,1.2,1.2,0,0,0-1.69-.19l-7.57,7.95v-8.09a2.71,2.71,0,0,0-.85-2,2.08,2.08,0,0,0-1.8-.65V226.1h14.7a2.34,2.34,0,0,0-.61-1.89,2.47,2.47,0,0,0-1.87-.9Z" style="fill:#fcbb30" id="svg_51"/><path d="M494,109a1.5,1.5,0,0,0-1.5-1.5h-5.67c1.1-.42,1.84-.69,2.51-1,.5-.23,1.66-.78,1.66-2,0-1.64-2.86-4.5-4.5-4.5-1.12,0-2.32,1.24-4.5,3.7-2.18-2.46-3.38-3.7-4.5-3.7-1.64,0-4.5,2.86-4.5,4.5,0,1.21,1.16,1.76,1.66,2,.67.32,1.41.59,2.51,1H471.5A1.5,1.5,0,0,0,470,109v3h24Zm-22.5,13.5A1.5,1.5,0,0,0,473,124h18a1.5,1.5,0,0,0,1.5-1.5v-9h-21Z" style="fill:#008575" id="svg_52"/><path d="M395.85,65.15l-5-5a.48.48,0,0,0-.7,0,1.9,1.9,0,0,0-.31,2.3l-2.91,2.91a5.17,5.17,0,0,0-2.13-.44c-1.07,0-2.3.48-2.3,1.08a.49.49,0,0,0,.15.35l2.76,2.76L380.5,75l-.5,1,1-.5,5.89-4.91,2.76,2.76a.49.49,0,0,0,.35.15c.59,0,1.08-1.23,1.08-2.3a5.2,5.2,0,0,0-.44-2.13l2.91-2.91a1.9,1.9,0,0,0,2.3-.31.47.47,0,0,0,.15-.35.45.45,0,0,0-.15-.35Z" style="fill:#6b6b6b" id="svg_53"/><path d="M461.38,65.25h-2.19V60.88a.87.87,0,0,0-.88-.88h-2.62a.87.87,0,0,0-.88.88v4.37h-2.19a.86.86,0,0,0-.87.87,1,1,0,0,0,.25.63l4.38,4.37a.85.85,0,0,0,.62.26.83.83,0,0,0,.61-.26L462,66.75a.89.89,0,0,0,.26-.63A.86.86,0,0,0,461.38,65.25Zm.87,7h-10.5v-3.5H450v3.5A1.76,1.76,0,0,0,451.75,74h10.5A1.76,1.76,0,0,0,464,72.25v-3.5h-1.75Z" style="fill:#00543c" id="svg_54"/><path d="M410.47,164a1.48,1.48,0,0,0-1.47,1.51v15.14a1.49,1.49,0,0,0,1.47,1.51V166.92a1.34,1.34,0,0,1,1.29-1.41h20.72A1.49,1.49,0,0,0,431,164Z" style="fill:#fff" id="svg_55"/><path d="M434.53,167.63H414a1.49,1.49,0,0,0-1.47,1.52v15.13a1.48,1.48,0,0,0,1.47,1.51h20.54a1.48,1.48,0,0,0,1.47-1.51V169.15a1.48,1.48,0,0,0-1.47-1.52Zm-4.4,3a3,3,0,1,1-2.93,3,3,3,0,0,1,2.93-3Zm-.81,12.1H414.94l5-10.17a.74.74,0,0,1,.61-.42h0a.74.74,0,0,1,.61.34l2.44,3.78.84-.87a.7.7,0,0,1,.51-.22h.12a.72.72,0,0,1,.54.4s3.31,6.34,3.66,7.15Z" style="fill:#fff" id="svg_56"/><path id="Fill-13-5" data-name="Fill-13" d="M46.13,18.15a1.33,1.33,0,0,0-1.84.19,1.36,1.36,0,0,0-.2,1.85L51.9,28l-7.81,7.82a1.33,1.33,0,0,0,.2,1.84,1.35,1.35,0,0,0,1.84.2L56,28l-9.85-9.85" style="fill:#fdbb30"/><path id="Fill-14-5" data-name="Fill-14" d="M4.09,28l7.81-7.8a1.34,1.34,0,0,0-.2-1.85,1.37,1.37,0,0,0-1.85-.2L0,28H0l9.85,9.84a1.34,1.34,0,0,0,1.85-.2,1.35,1.35,0,0,0,.2-1.84L4.09,28" style="fill:#fdbb30"/><path id="Fill-15-5" data-name="Fill-15" d="M37.63,44.29a1.35,1.35,0,0,0-1.84-.2L28,51.9l-7.81-7.81a1.33,1.33,0,0,0-1.84.2,1.35,1.35,0,0,0-.2,1.84L28,56h0l9.85-9.86a1.33,1.33,0,0,0-.2-1.84" style="fill:#fdbb30"/><path id="Fill-16-5" data-name="Fill-16" d="M37.84,9.85,28,0h0L18.14,9.85a1.34,1.34,0,0,0,.21,1.85,1.35,1.35,0,0,0,1.84.2L28,4.09,35.8,11.9a1.33,1.33,0,0,0,1.84-.2,1.36,1.36,0,0,0,.2-1.85" style="fill:#fdbb30"/><path id="Fill-17-5" data-name="Fill-17" d="M44.66,31.28a2.33,2.33,0,0,0,.67-2h-16v16a2.33,2.33,0,0,0,2-.67,2.69,2.69,0,0,0,.93-2V34.26l8.23,8.23a1.48,1.48,0,0,0,2.05-2l-8.24-8.24h8.38a2.71,2.71,0,0,0,2-.93" style="fill:#fdbb30"/><path id="Fill-18-5" data-name="Fill-18" d="M26.67,29.32h-16a2.33,2.33,0,0,0,.67,2,2.71,2.71,0,0,0,2,.93h8.38L13.5,40.44a1.32,1.32,0,0,0,.2,1.84,1.36,1.36,0,0,0,1.84.21l8.24-8.24v8.38a2.71,2.71,0,0,0,.93,2,2.33,2.33,0,0,0,2,.67v-16" style="fill:#fdbb30"/><path id="Fill-19-5" data-name="Fill-19" d="M24.71,11.32a2.71,2.71,0,0,0-.93,2v8.38l-8.24-8.24a1.34,1.34,0,0,0-1.84.2,1.36,1.36,0,0,0-.2,1.85l8.24,8.24H13.35a2.71,2.71,0,0,0-2,.93,2.33,2.33,0,0,0-.67,2h16v-16a2.37,2.37,0,0,0-2,.67" style="fill:#fdbb30"/><path id="Fill-20-5" data-name="Fill-20" d="M44.66,24.71a2.71,2.71,0,0,0-2-.93H34.26l8.23-8.24a1.33,1.33,0,0,0-.2-1.84,1.35,1.35,0,0,0-1.84-.2l-8.24,8.24V13.36a2.74,2.74,0,0,0-.93-2,2.33,2.33,0,0,0-2-.67v16h16a2.33,2.33,0,0,0-.67-2" style="fill:#fdbb30"/><path d="M38.72,215.23a1.12,1.12,0,0,0-1.55.16,1.14,1.14,0,0,0-.16,1.55l6.55,6.55L37,230.05a1.13,1.13,0,0,0,.17,1.55,1.15,1.15,0,0,0,1.55.17L47,223.5l-8.27-8.27M3.43,223.49,10,216.94a1.12,1.12,0,0,0-.17-1.55,1.13,1.13,0,0,0-1.54-.16L0,223.49H0l8.27,8.27a1.11,1.11,0,0,0,1.54-.17A1.14,1.14,0,0,0,10,230l-6.55-6.55m28.16,13.68A1.14,1.14,0,0,0,30,237l-6.55,6.55L16.94,237a1.12,1.12,0,0,0-1.55.17,1.14,1.14,0,0,0-.17,1.55L23.48,247h0l8.26-8.27a1.12,1.12,0,0,0-.16-1.55m.17-28.9L23.5,200h0l-8.26,8.27A1.24,1.24,0,0,0,16.94,210l6.55-6.55L30,210a1.12,1.12,0,0,0,1.55-.17,1.14,1.14,0,0,0,.17-1.55" style="fill:#fdbb30" id="svg_57"/><path d="M37.48,226.25a2,2,0,0,0,.57-1.64H24.61v13.44a2,2,0,0,0,1.64-.57,2.24,2.24,0,0,0,.78-1.7v-7l6.91,6.91a1.12,1.12,0,0,0,1.55-.16,1.14,1.14,0,0,0,.17-1.55L28.74,227h7a2.25,2.25,0,0,0,1.7-.78m-15.1-1.64H8.94a2,2,0,0,0,.57,1.64,2.24,2.24,0,0,0,1.7.78h7l-6.91,6.91a1.12,1.12,0,0,0,.16,1.55,1.14,1.14,0,0,0,1.55.17L20,228.74v7a2.29,2.29,0,0,0,.79,1.7,2,2,0,0,0,1.64.57V224.61m-1.64-15.1a2.25,2.25,0,0,0-.78,1.7v7l-6.91-6.91a1.12,1.12,0,0,0-1.55.16,1.14,1.14,0,0,0-.17,1.55L18.24,220h-7a2.24,2.24,0,0,0-1.7.78,2,2,0,0,0-.57,1.64H22.38V208.94a2,2,0,0,0-1.64.57m16.74,11.23a2.25,2.25,0,0,0-1.7-.78h-7L35.66,213a1.12,1.12,0,0,0-.16-1.55,1.14,1.14,0,0,0-1.55-.16L27,218.25v-7a2.27,2.27,0,0,0-.78-1.71,2,2,0,0,0-1.64-.56v13.44H38.05a2,2,0,0,0-.57-1.64" style="fill:#fdbb30" id="svg_58"/><path d="M428.11,283a3.52,3.52,0,0,1-3.8-3.46v-4.24H423v-1.68a4,4,0,0,0,2.55-3.49.11.11,0,0,1,.1-.1h1.9v3.31h2.59v2h-2.6v4a1.13,1.13,0,0,0,1.19,1.28h.06a3,3,0,0,0,1-.23l.63,1.85a3.42,3.42,0,0,1-2.25.76h-.1M440,276.5a6.49,6.49,0,0,0,4.13,6.05,6.12,6.12,0,0,1,0-1.86l.77-3.23a2.31,2.31,0,0,1-.2-1c0-.9.52-1.57,1.18-1.57a.81.81,0,0,1,.82.91,13.29,13.29,0,0,1-.54,2.16,1,1,0,0,0,1,1.18c1.16,0,2.05-1.22,2.05-3a2.56,2.56,0,0,0-2.72-2.64,2.8,2.8,0,0,0-2.93,2.82,2.51,2.51,0,0,0,.48,1.48.2.2,0,0,1,.05.19l-.18.73c0,.12-.1.15-.22.09a2.92,2.92,0,0,1-1.32-2.52,3.94,3.94,0,0,1,4.29-3.93,3.82,3.82,0,0,1,4,3.75c0,2.24-1.41,4-3.37,4a1.75,1.75,0,0,1-1.49-.75l-.4,1.55a7.64,7.64,0,0,1-.81,1.7,6.42,6.42,0,0,0,1.92.29,6.5,6.5,0,1,0-6.5-6.5Zm-27-2.9q-.09,1.9-2.65,5.2c-1.77,2.3-3.26,3.44-4.48,3.44-.76,0-1.4-.7-1.93-2.1l-1.05-3.84c-.38-1.4-.8-2.1-1.25-2.1a3.8,3.8,0,0,0-1,.61L400,274c.64-.56,1.28-1.12,1.9-1.69a4.28,4.28,0,0,1,1.93-1.17c1-.09,1.63.6,1.86,2.08s.43,2.59.53,3q.43,2,1,2c.28,0,.68-.43,1.23-1.29a5,5,0,0,0,.87-2q.12-1.11-.87-1.11a2.45,2.45,0,0,0-1,.21q1-3.14,3.66-3.05c1.34,0,2,.91,1.89,2.6m28.65,35.62c-4.08,0-5.63-3-5.63-5.13v-6.28h-1.95v-2.49a5.89,5.89,0,0,0,3.79-5.18A.15.15,0,0,1,438,290h2.82v4.9h3.85v2.91H440.8v6a1.68,1.68,0,0,0,1.77,1.89h.08a4.48,4.48,0,0,0,1.55-.33l.92,2.74a5.06,5.06,0,0,1-3.32,1.13h-.15M460,299.63a9.64,9.64,0,0,0,6.12,9,9.48,9.48,0,0,1,0-2.76l1.13-4.79a3.48,3.48,0,0,1-.29-1.43c0-1.34.78-2.34,1.75-2.34a1.21,1.21,0,0,1,1.22,1.36,19.57,19.57,0,0,1-.8,3.2,1.39,1.39,0,0,0,1.42,1.74c1.71,0,3-1.8,3-4.41a3.81,3.81,0,0,0-4-3.92,4.17,4.17,0,0,0-4.35,4.18,3.73,3.73,0,0,0,.72,2.2.3.3,0,0,1,.06.28c-.07.3-.23,1-.27,1.09s-.14.21-.32.13a4.32,4.32,0,0,1-1.95-3.73c0-3,2.2-5.83,6.36-5.83a5.65,5.65,0,0,1,5.94,5.56c0,3.32-2.1,6-5,6a2.58,2.58,0,0,1-2.21-1.1l-.6,2.29a11.06,11.06,0,0,1-1.19,2.52,9.63,9.63,0,1,0-6.78-9.2Zm-40.75-4.3c-.08,1.88-1.39,4.44-3.93,7.71s-4.83,5.1-6.64,5.1c-1.13,0-2.08-1-2.85-3.11l-1.56-5.7c-.57-2.07-1.19-3.11-1.85-3.11a5.66,5.66,0,0,0-1.51.91L400,296c.95-.84,1.89-1.67,2.81-2.51a6.44,6.44,0,0,1,2.86-1.73c1.49-.14,2.42.88,2.76,3.08q.57,3.54.78,4.41c.43,2,.91,2.94,1.43,2.94s1-.63,1.81-1.91a7.47,7.47,0,0,0,1.3-2.91c.12-1.1-.32-1.65-1.3-1.65A3.59,3.59,0,0,0,411,296c.94-3.1,2.75-4.6,5.42-4.52q3,.09,2.8,3.85" style="fill:#fff" id="svg_59"/><path d="M428.15,73.13V76.5h-5.4v-.74h-3.61V78h4.06v2.16h-4.06v2.68l1.55.62v2.94l-9.28-3.73V79.72l1.6.64v-4.6h-1.6V73.13Z" style="fill:#fff" id="svg_60"/><path d="M427.34,64.25h-5.83v-.58h-3.8v1.91h6.75a5.84,5.84,0,0,1,2.65.52c.69.34,1,.76,1,1.24v2.78c0,.45-.38.84-1.14,1.16a6.91,6.91,0,0,1-2.69.48H411.37v-3h6.36v.69h3.78V67.49H415a6.45,6.45,0,0,1-2.9-.58c-.77-.39-1.15-.84-1.15-1.35V63c0-.54.45-.83,1.36-1.12a9.86,9.86,0,0,1,3.11-.44h11.88v2.85Z" style="fill:#fff" id="svg_61"/><path d="M432,61.16s-1.3,0-1.3,1.18V79.71c0,1.94-.37,4.16-2.76,5.3-3.85,1.85-7.09,3.47-8.32,3.46s-4.46-1.61-8.31-3.46c-2.39-1.14-2.77-3.36-2.77-5.3V62.34c0-1.18-1.3-1.18-1.3-1.18h-5.9v5.23h1.06a.89.89,0,0,1,1,1c0,.82,0,12,0,12-.08,3.52.66,8.31,7.39,10.83,5.24,2,7.44,3.37,8.8,3.37s3.56-1.41,8.8-3.37c6.73-2.52,7.47-7.31,7.39-10.83,0,0,0-11.2,0-12a.9.9,0,0,1,1-1h1.06V61.16Z" style="fill:#ffb819" id="svg_62"/><path d="M453.3,159.25a1.49,1.49,0,0,0-1.47,1.51v19.13a1.5,1.5,0,0,0,1.47,1.52V162.17a1.34,1.34,0,0,1,1.29-1.41h14.72a1.48,1.48,0,0,0-1.47-1.51Z" style="fill:#fff" id="svg_63"/><path d="M470.59,175.93a.64.64,0,0,1-.4.24l-5.2,1.15a.22.22,0,0,1-.11,0,.76.76,0,0,1-.8-.79l.33-5.29a.72.72,0,0,1,.18-.44l6.9-7.93H456.83a1.48,1.48,0,0,0-1.47,1.51v19.14a1.48,1.48,0,0,0,1.47,1.51h14.54a1.49,1.49,0,0,0,1.47-1.51V173.36Z" style="fill:#fff" id="svg_64"/><path d="M478.75,163.37,475.88,161a.46.46,0,0,0-.63.05l-1.15,1.32,3.55,3L478.8,164A.42.42,0,0,0,478.75,163.37Z" style="fill:#fff" id="svg_65"/><path d="M473.26,163.28h0l-7.43,8.54a.41.41,0,0,0-.11.26l-.2,3.08a.47.47,0,0,0,.48.47l.06,0,3.08-.67a.42.42,0,0,0,.24-.14l7.45-8.53Zm-6.9,11.44h0l.24-2.65,2.4,2Z" style="fill:#fff" id="svg_66"/><path d="M533.17,108.33a1.5,1.5,0,0,0-1.5-1.5H526c1.11-.42,1.85-.69,2.51-1s1.67-.78,1.67-2c0-1.64-2.86-4.5-4.5-4.5-1.13,0-2.32,1.24-4.5,3.71-2.18-2.46-3.38-3.71-4.5-3.71-1.64,0-4.5,2.86-4.5,4.5,0,1.21,1.16,1.76,1.66,2,.67.32,1.41.59,2.51,1h-5.67a1.49,1.49,0,0,0-1.5,1.5v3h24Zm-22.5,13.5a1.49,1.49,0,0,0,1.5,1.5h18a1.49,1.49,0,0,0,1.5-1.5v-9h-21Z" style="fill:#fff" id="svg_67"/><path d="M539.81,170.57v0a1.69,1.69,0,0,0-3.33-.42h-.05v.82a.46.46,0,0,1-.46.47.47.47,0,0,1-.48-.47v-.82h0V169h0s0,0,0,0a1.7,1.7,0,1,0-3.39,0v0h0v.11h0v.6a.47.47,0,0,1-.94,0V167a1.69,1.69,0,0,0-3.38,0v0h0v0h0v1.48a.47.47,0,0,1-.94,0v-1.48h0v-9.05h0v0a1.7,1.7,0,1,0-3.39,0v0h0v15.62h0v.6h0a.47.47,0,0,1-.46.42.45.45,0,0,1-.26-.09v0l-2.39-2c-1.1-.81-2.68-1.37-3.52-.62s-.06,1.62,1.47,3.59l5.82,7.82s0,0,.05.05a2.58,2.58,0,0,0,1.71,1h0c.13,0,.26,0,.39,0h.18l9.42,0a3,3,0,0,0,2.94-3l.26-2.63h0l.1-1.06.5-5.1c0-.08,0-.14,0-.22l.18-2Z" style="fill:#fff" id="svg_68"/><path d="M587.8,214.54a2.32,2.32,0,0,1,.73,2.47h0l4.25-8.9-7.69,6.06.14.11A2.32,2.32,0,0,1,587.8,214.54Z" style="fill:#fff" id="svg_69"/><circle cx="586.3200073242188" cy="216.2100067138672" r="1.1200000047683716" style="fill:#fff" id="svg_70"/><path d="M584.86,218.1a2.31,2.31,0,0,1-.54-2.92l0,0L580.1,224l7.13-5.55A2.31,2.31,0,0,1,584.86,218.1Z" style="fill:#fff" id="svg_71"/><path d="M586.45,201.3a14.83,14.83,0,1,0,14.83,14.83A14.83,14.83,0,0,0,586.45,201.3Zm0,27.5a12.67,12.67,0,1,1,12.67-12.67A12.67,12.67,0,0,1,586.44,228.8Z" style="fill:#fff" id="svg_72"/><path d="M587.8,214.54a2.32,2.32,0,0,1,.73,2.47h0l4.25-8.9-7.69,6.06.14.11A2.32,2.32,0,0,1,587.8,214.54Z" style="fill:#fff" id="svg_73"/><circle cx="586.3200073242188" cy="216.2100067138672" r="1.1200000047683716" style="fill:#fff" id="svg_74"/><path d="M584.86,218.1a2.31,2.31,0,0,1-.54-2.92l0,0L580.1,224l7.13-5.55A2.31,2.31,0,0,1,584.86,218.1Z" style="fill:#fff" id="svg_75"/><path d="M126.08,89.44" style="fill:none;stroke:#000;stroke-miterlimit:10" id="svg_76"/><path d="M190.59,141.45l-.55-.55,1.1-1.1.55.55a4.67,4.67,0,0,1,0,6.61l-1.1-1.11A3.1,3.1,0,0,0,190.59,141.45Z" style="fill:#fff" id="svg_77"/><path d="M188.92,144.81a1.13,1.13,0,0,1-.8-.33,1.17,1.17,0,0,1,0-1.66,1.13,1.13,0,0,1,.8-.33,1.17,1.17,0,0,1,.81.33,1.19,1.19,0,0,1,0,1.66A1.15,1.15,0,0,1,188.92,144.81Z" style="fill:#fff" id="svg_78"/><path d="M187.25,145.85l-1.1,1.11a4.67,4.67,0,0,1,0-6.61l.55-.55,1.1,1.1-.55.55A3.12,3.12,0,0,0,187.25,145.85Z" style="fill:#fff" id="svg_79"/><path d="M184.5,137.6l1.09,1.09-.55.56a6.23,6.23,0,0,0,0,8.81l-1.1,1.1a7.8,7.8,0,0,1,0-11l.55-.55Z" style="fill:#fff" id="svg_80"/><path d="M192.8,139.25l-.55-.55,1.1-1.1.55.55a7.8,7.8,0,0,1,0,11l-1.1-1.1A6.23,6.23,0,0,0,192.8,139.25Z" style="fill:#fff" id="svg_81"/><polyline points="164 136.13 170.94 139.07 164.13 141.75 156.75 139" style="fill:none" id="svg_82"/><polygon points="133.84 85.54 126.78 81.79 119.53 85.54 126.78 89.1 133.84 85.54" style="fill:#fff" id="svg_83"/><polygon points="126.69 91.31 121.98 89.08 121.98 90.52 126.73 92.77 126.73 92.71 131.44 90.48 131.44 89.04 126.69 91.29 126.69 91.31" style="fill:#fff" id="svg_84"/><path d="M170,85.21a.76.76,0,0,0-.76-.76h-2.86c.56-.21.93-.35,1.27-.51s.84-.39.84-1a3.16,3.16,0,0,0-2.27-2.27c-.57,0-1.18.62-2.28,1.87-1.1-1.25-1.7-1.87-2.27-1.87a3.15,3.15,0,0,0-2.27,2.27c0,.61.58.89.84,1s.71.3,1.27.51h-2.87a.76.76,0,0,0-.76.76v1.51H170ZM158.59,92a.76.76,0,0,0,.76.75h9.09a.74.74,0,0,0,.75-.75V87.48h-10.6V92Z" style="fill:#fff" id="svg_85"/><circle cx="108.69000244140625" cy="82.9800033569336" r="3.450000047683716" style="fill:#fff" id="svg_86"/><path d="M103,93.77h0a1.61,1.61,0,0,1-.44-2.2L105,86.06a4.68,4.68,0,0,0,1.32,1.33h0a7.26,7.26,0,0,0,2.08.55l-3.22,5A1.61,1.61,0,0,1,103,93.77Z" style="fill:#fff" id="svg_87"/><path d="M152.41,85.35l-5.93-3.95a1.21,1.21,0,0,0-1.2,0l-5.93,3.95a.5.5,0,0,0-.25.4.4.4,0,0,0,.07.22.92.92,0,0,0,.78.34h11.86a.91.91,0,0,0,.78-.34.4.4,0,0,0,.07-.22A.51.51,0,0,0,152.41,85.35Z" style="fill:#fff" id="svg_88"/><path d="M139.49,92.35h0a.64.64,0,0,1,.64-.64H152a.64.64,0,0,1,.63.64h0v.83H139.47Z" style="fill:#fff" id="svg_89"/><rect x="141.60000610351562" y="85.56999969482422" width="1.350000023841858" height="5.440000057220459" style="fill:#fff" id="svg_90"/><rect x="149.5399932861328" y="85.56999969482422" width="1.350000023841858" height="5.440000057220459" style="fill:#fff" id="svg_91"/><rect x="145.57000732421875" y="85.56999969482422" width="1.350000023841858" height="5.440000057220459" style="fill:#fff" id="svg_92"/><path id="navigateright-5-13" data-name="navigateright-5" d="M173.26,154.13a.38.38,0,0,0-.1-.31.45.45,0,0,0-.3-.11h-16a.46.46,0,0,0-.26.1.47.47,0,0,0,0,.62l8,10a.33.33,0,0,0,.51,0l8-10a.55.55,0,0,0,.1-.31Z" style="fill:#00543c"/><path id="navigateright-5-14" data-name="navigateright-5" d="M196.15,154.13a.38.38,0,0,0-.1-.31.47.47,0,0,0-.31-.11h-16a.44.44,0,0,0-.26.1.45.45,0,0,0,0,.62l8,10a.33.33,0,0,0,.51,0l8-10a.63.63,0,0,0,.1-.31Z" style="fill:#fdbb30"/><path d="M323.17,149.33a23.34,23.34,0,1,0,23.33,23.34A23.34,23.34,0,0,0,323.17,149.33Zm8.27,24.29s-9.56,7.94-11.13,9.07S319,182,319,182V163c0-2.25,1.5-.56,1.5-.56l10.94,9.31A1.07,1.07,0,0,1,331.44,173.62Z" style="fill:#fff" id="svg_93"/><path d="M543.32,200.82a15.31,15.31,0,1,0,15.31,15.31A15.3,15.3,0,0,0,543.32,200.82Zm5.43,15.93s-6.28,5.21-7.3,5.95-.86-.45-.86-.45V209.78c0-1.47,1-.37,1-.37l7.18,6.11A.71.71,0,0,1,548.75,216.75Z" style="fill:#fff" id="svg_94"/><path d="M502.75,160.5h-9a9.16,9.16,0,0,0-9.13,9.12v1.43a9.16,9.16,0,0,0,7.13,8.89V185s.5,1.94,2.5.06l5.22-4.89h3.28a9.16,9.16,0,0,0,9.13-9.13v-1.42A9.16,9.16,0,0,0,502.75,160.5Z" style="fill:#fff" id="svg_95"/><path d="M569.83,154.49a15.31,15.31,0,1,0,15.31,15.3A15.31,15.31,0,0,0,569.83,154.49Zm3.08,24.84h-6.16V168.17h6.16ZM569.83,167a3.09,3.09,0,1,1,3.08-3.08A3.08,3.08,0,0,1,569.83,167Z" style="fill:#fff" id="svg_96"/><path d="M190.23,85v1.46h-2.32v-.32h-1.56v1h1.75v.93h-1.75v1.16l.67.26v1.27l-4-1.6V87.87l.69.28v-2H183V85Z" style="fill:#fcfcfc" id="svg_97"/><path d="M189.88,81.21h-2.51V81h-1.64v.83h2.91a2.56,2.56,0,0,1,1.15.22c.29.15.44.33.44.54v1.19c0,.2-.16.37-.49.5a2.93,2.93,0,0,1-1.16.21H183v-1.3h2.74v.3h1.63V82.6h-2.79a2.73,2.73,0,0,1-1.25-.25c-.32-.17-.49-.36-.49-.58V80.65c0-.23.2-.36.58-.48a4.24,4.24,0,0,1,1.34-.2h5.12v1.24Z" style="fill:#fcfcfc" id="svg_98"/><path d="M191.88,79.88s-.56,0-.56.5v7.49a2.27,2.27,0,0,1-1.19,2.28,15.9,15.9,0,0,1-3.59,1.49A15.89,15.89,0,0,1,183,90.15a2.26,2.26,0,0,1-1.19-2.28V80.38c0-.5-.56-.5-.56-.5h-2.54v2.25h.45s.46,0,.45.4,0,5.18,0,5.18a4.39,4.39,0,0,0,3.18,4.67c2.26.84,3.21,1.45,3.79,1.45s1.54-.6,3.79-1.45a4.41,4.41,0,0,0,3.19-4.67s0-4.82,0-5.18a.38.38,0,0,1,.44-.4h.46V79.88Z" style="fill:#fcfcfc" id="svg_99"/><g style="isolation:isolate" id="svg_100"><path d="M499.49,296h1.45v2h2v1.45h-2v2h-1.45v-2h-2V298h2Z" style="fill:#fff" id="svg_101"/></g><path d="M440,276.5a6.49,6.49,0,0,0,4.13,6.05,6.12,6.12,0,0,1,0-1.86l.77-3.23a2.31,2.31,0,0,1-.2-1c0-.9.52-1.57,1.18-1.57a.81.81,0,0,1,.82.91,13.29,13.29,0,0,1-.54,2.16,1,1,0,0,0,1,1.18c1.16,0,2.05-1.22,2.05-3a2.56,2.56,0,0,0-2.72-2.64,2.8,2.8,0,0,0-2.93,2.82,2.51,2.51,0,0,0,.48,1.48.2.2,0,0,1,.05.19l-.18.73c0,.12-.1.15-.22.09a2.92,2.92,0,0,1-1.32-2.52,3.94,3.94,0,0,1,4.29-3.93,3.82,3.82,0,0,1,4,3.75c0,2.24-1.41,4-3.37,4a1.75,1.75,0,0,1-1.49-.75l-.4,1.55a7.64,7.64,0,0,1-.81,1.7,6.42,6.42,0,0,0,1.92.29,6.5,6.5,0,1,0-6.5-6.5Z" style="fill:#fff" id="svg_102"/><g style="isolation:isolate" id="svg_103"><path d="M473.13,274.45h1.33v1.82h1.83v1.33h-1.83v1.82h-1.33V277.6h-1.82v-1.33h1.82Z" style="fill:#fff" id="svg_104"/></g></g></g><g id="Layer_6" data-name="Layer 6"><rect x="828.4900207519531" y="1091.2900390625" width="4.130000114440918" height="11.729999542236328" transform="rotate(-90 278.89999389648443,824.4000244140625) " style="fill:#fff" id="svg_105"/><rect x="519.9200096130371" y="727.0699768066406" width="4.130000114440918" height="14.149999618530273" transform="rotate(-45 -27.840000152587933,467.0199890136719) " style="fill:#fff" id="svg_106"/><rect x="553.3900146484375" y="263.0899963378906" width="4.130000114440918" height="11.729999542236328" style="fill:#fff" id="svg_107"/><rect x="1316.4600219726562" y="-43.260009765625" width="4.130000114440918" height="11.729999542236328" transform="rotate(90 783.6400146484375,-286.14001464843744) " style="fill:#fff" id="svg_108"/><rect x="1630.75" y="302.0400047302246" width="4.130000114440918" height="14.149999618530273" transform="rotate(135 1096.0999755859375,54.74000167846672) " style="fill:#fff" id="svg_109"/><rect x="1591.1900634765625" y="751.7699890136719" width="4.130000114440918" height="11.729999542236328" transform="rotate(180 1062.1700439453125,505.0899963378906) " style="fill:#fff" id="svg_110"/><rect x="1441.0800170898438" y="-68.3900146484375" width="4.130000114440918" height="11.729999542236328" transform="rotate(90 853.3800048828126,-326.14001464843744) " style="fill:#fff" id="svg_111"/><rect x="572.1100196838379" y="759.0500183105469" width="4.130000114440918" height="12.739999771118164" transform="rotate(-45 -16.909999847412074,496.6700134277344) " style="fill:#fff" id="svg_112"/><rect x="1755.820068359375" y="796.3800048828125" width="4.130000114440918" height="11.729999542236328" transform="rotate(180 1171.9200439453125,534.8300170898439) " style="fill:#fff" id="svg_113"/><rect x="892.1500244140625" y="1086.0700073242188" width="4.130000114440918" height="11.729999542236328" transform="rotate(-90 318.14001464843756,834) " style="fill:#fff" id="svg_114"/><rect x="562.2599925994873" y="726.8900146484375" width="4.130000114440918" height="12.739999771118164" transform="rotate(-45 -10.420000076294034,480.45001220703125) " style="fill:#fff" id="svg_115"/><rect x="577.8099975585938" y="248.27000427246094" width="4.130000114440918" height="11.729999542236328" style="fill:#fff" id="svg_116"/></g><g id="Layer_8" data-name="Layer 8"><ellipse cx="333.5199890136719" cy="274.7699890136719" rx="3.5299999713897705" ry="4.050000190734863" style="fill:#fff" id="svg_117"/><path d="M327.53,285.83v-3.12a3.22,3.22,0,0,1,3.42-3h5.13a3.22,3.22,0,0,1,3.42,3v3.12Z" style="fill:#fff;fill-rule:evenodd" id="svg_118"/><ellipse cx="350.5199890136719" cy="274.7699890136719" rx="3.5299999713897705" ry="4.050000190734863" style="fill:#fdbb30" id="svg_119"/><path d="M344.53,285.83v-3.12a3.22,3.22,0,0,1,3.42-3h5.13a3.22,3.22,0,0,1,3.42,3v3.12Z" style="fill:#fdbb30;fill-rule:evenodd" id="svg_120"/></g></g></svg>