<svg xmlns="http://www.w3.org/2000/svg" xmlns:xlink="http://www.w3.org/1999/xlink" version="1.1" style="enable-background:new 0 0 616 363;" xml:space="preserve" width="616" height="363"><rect id="backgroundrect" width="100%" height="100%" x="0" y="0" fill="none" stroke="none"/>
<style type="text/css">
	.st0{display:none;}
	.st1{display:inline;fill:#F99BAB;}
	.st2{fill:#FFFFFF;}
	.st3{fill:none;stroke:#000000;stroke-miterlimit:10;}
	.st4{fill:none;}
	.st5{fill:#00543C;}
	.st6{fill:#FDBB30;}
	.st7{fill:#FCFCFC;}
	.st8{enable-background:new    ;}
	.st9{fill:#114A37;}
	.st10{fill:#898A89;}
	.st11{fill:#FDBB2F;}
	.st12{fill:#353535;}
	.st13{fill:#2A2A2A;}
	.st14{fill:#FCBB30;}
	.st15{fill:#A8228E;}
	.st16{fill:#007EA5;}
	.st17{fill:#008575;}
	.st18{fill:#008800;}
	.st19{fill:#BB3304;}
	.st20{fill:#687E31;}
	.st21{fill:#C55500;}
	.st22{fill:#CCAF74;}
	.st23{fill:#DED5B4;}
	.st24{fill:#124A37;}
	.st25{opacity:0.8;fill:#6B6B6B;enable-background:new    ;}
	.st26{fill:#6B6B6B;}
	.st27{fill:#FFB819;}
	.st28{fill:#FFB71B;}
</style>

<g id="Layer_5" style="">
	<g id="svg_1">
		<path class="st2" d="M467.2,275c-0.6-0.7-1.7-1.2-2.8-1.2c-1.9,0-3.3,1.6-3.3,3.4c0,1.8,1.3,3.4,3.3,3.4c1.3,0,2.7-1.1,2.9-2.3h-3    v-2h5.4v1.5c0,2.1-1.8,5.1-5.5,5.1c-3.2,0-5.5-2.5-5.5-5.6c0-3,2.3-5.6,5.5-5.6c1.5,0,3.1,0.4,4.4,1.7L467.2,275z" id="svg_2"/>
	</g>
	<g id="svg_3">
		<path class="st2" d="M493.2,296.6c-0.6-0.7-1.8-1.3-3.1-1.3c-2.1,0-3.6,1.7-3.6,3.7c0,2,1.5,3.7,3.6,3.7c1.5,0,2.9-1.2,3.2-2.5    H490V298h5.9v1.6c0,2.3-2,5.6-6,5.6c-3.5,0-6-2.8-6-6.1c0-3.3,2.5-6.1,6-6.1c1.6,0,3.4,0.5,4.9,1.8L493.2,296.6z" id="svg_4"/>
	</g>
	<title>icons</title>
	<g id="svg_5">
		<path class="st2" d="M453.3,159.2c-0.8,0-1.5,0.7-1.5,1.5v19.1c0,0.8,0.7,1.5,1.5,1.5v-19.2c0-0.9,0.7-1.4,1.3-1.4h14.7    c0-0.8-0.7-1.5-1.5-1.5L453.3,159.2L453.3,159.2z" id="svg_6"/>
		<path class="st2" d="M470.6,175.9c-0.1,0.1-0.2,0.2-0.4,0.2l-5.2,1.1c0,0-0.1,0-0.1,0c-0.4,0-0.8-0.4-0.8-0.8l0.3-5.3    c0-0.2,0.1-0.3,0.2-0.4l6.9-7.9c0,0-0.1,0-0.1,0v0h-14.5c-0.8,0-1.5,0.7-1.5,1.5v19.1c0,0.8,0.7,1.5,1.5,1.5h14.5    c0.8,0,1.5-0.7,1.5-1.5v-10.2L470.6,175.9z" id="svg_7"/>
		<g id="svg_8">
			<path class="st2" d="M478.8,163.4l-2.9-2.4c-0.2-0.2-0.5-0.1-0.6,0.1l-1.1,1.3l3.6,3l1.1-1.3C479,163.8,478.9,163.5,478.8,163.4z     " id="svg_9"/>
			<path class="st2" d="M473.3,163.3L473.3,163.3l-7.4,8.5c-0.1,0.1-0.1,0.2-0.1,0.3l-0.2,3.1c0,0.2,0.2,0.5,0.5,0.5c0,0,0,0,0.1,0     l3.1-0.7c0.1,0,0.2-0.1,0.2-0.1l7.4-8.5L473.3,163.3z M466.4,174.7L466.4,174.7l0.2-2.6l2.4,2L466.4,174.7z" id="svg_10"/>
		</g>
	</g>
	<path class="st2" d="M533.2,108.3c0-0.8-0.7-1.5-1.5-1.5H526c1.1-0.4,1.8-0.7,2.5-1c0.5-0.2,1.7-0.8,1.7-2c0-1.6-2.9-4.5-4.5-4.5   c-1.1,0-2.3,1.2-4.5,3.7c-2.2-2.5-3.4-3.7-4.5-3.7c-1.6,0-4.5,2.9-4.5,4.5c0,1.2,1.2,1.8,1.7,2c0.7,0.3,1.4,0.6,2.5,1h-5.7   c-0.8,0-1.5,0.7-1.5,1.5v3h24V108.3z M510.7,121.8c0,0.8,0.7,1.5,1.5,1.5h18c0.8,0,1.5-0.7,1.5-1.5v-9h-21V121.8z" id="svg_11"/>
	<path class="st2" d="M539.8,170.6C539.8,170.6,539.8,170.5,539.8,170.6c0-1-0.8-1.7-1.7-1.7c-0.8,0-1.5,0.5-1.6,1.3h0v0.8   c0,0.3-0.2,0.5-0.5,0.5c-0.3,0-0.5-0.2-0.5-0.5v-0.8h0V169h0c0,0,0,0,0,0c0-0.9-0.8-1.7-1.7-1.7c-0.9,0-1.7,0.8-1.7,1.7   c0,0,0,0,0,0h0v0.1h0v0.6c0,0.3-0.2,0.5-0.5,0.5s-0.5-0.2-0.5-0.5V167c0-0.9-0.8-1.7-1.7-1.7c-0.9,0-1.7,0.8-1.7,1.7c0,0,0,0,0,0h0   v0h0v1.5c0,0.3-0.2,0.5-0.5,0.5c-0.3,0-0.5-0.2-0.5-0.5v-1.5h0v-9.1h0c0,0,0,0,0,0c0-0.9-0.8-1.7-1.7-1.7c-0.9,0-1.7,0.8-1.7,1.7   c0,0,0,0,0,0h0v9.6v6h0v0.6h0c0,0.2-0.2,0.4-0.5,0.4c-0.1,0-0.2,0-0.3-0.1v0l-2.4-2c-1.1-0.8-2.7-1.4-3.5-0.6   c-1,0.9-0.1,1.6,1.5,3.6l5.8,7.8c0,0,0,0,0,0.1c0.4,0.5,1,0.9,1.7,1c0,0,0,0,0,0c0.1,0,0.3,0,0.4,0l0,0c0.1,0,0.1,0,0.2,0l9.4,0   c1.7,0,2.9-1.3,2.9-3l0.3-2.6l0,0l0.1-1.1l0.5-5.1c0-0.1,0-0.1,0-0.2L539.8,170.6L539.8,170.6z" id="svg_12"/>
	<g id="svg_13">
		<g id="svg_14">
			<path class="st2" d="M587.8,214.5c0.7,0.6,1,1.6,0.7,2.5l0,0l4.2-8.9l-7.7,6.1l0.1,0.1C586,213.9,587.1,213.9,587.8,214.5z" id="svg_15"/>
			<circle class="st2" cx="586.2999877929688" cy="216.1999969482422" r="1.100000023841858" id="svg_16"/>
			<path class="st2" d="M584.9,218.1c-0.9-0.7-1.1-2-0.5-2.9l0,0l-4.2,8.8l7.1-5.6C586.5,218.8,585.5,218.7,584.9,218.1z" id="svg_17"/>
		</g>
		<g id="svg_18">
			<path class="st2" d="M586.4,201.3c-8.2,0-14.8,6.6-14.8,14.8c0,8.2,6.6,14.8,14.8,14.8c8.2,0,14.8-6.6,14.8-14.8     C601.3,207.9,594.6,201.3,586.4,201.3z M586.4,228.8c-7,0-12.7-5.7-12.7-12.7c0-7,5.7-12.7,12.7-12.7c7,0,12.7,5.7,12.7,12.7     C599.1,223.1,593.4,228.8,586.4,228.8z" id="svg_19"/>
		</g>
		<g id="svg_20">
			<path class="st2" d="M587.8,214.5c0.7,0.6,1,1.6,0.7,2.5l0,0l4.2-8.9l-7.7,6.1l0.1,0.1C586,213.9,587.1,213.9,587.8,214.5z" id="svg_21"/>
			<circle class="st2" cx="586.2999877929688" cy="216.1999969482422" r="1.100000023841858" id="svg_22"/>
			<path class="st2" d="M584.9,218.1c-0.9-0.7-1.1-2-0.5-2.9l0,0l-4.2,8.8l7.1-5.6C586.5,218.8,585.5,218.7,584.9,218.1z" id="svg_23"/>
		</g>
	</g>
	<path class="st3" d="M126.1,89.4" id="svg_24"/>
	<g id="svg_25">
		<path class="st2" d="M190.6,141.5l-0.6-0.6l1.1-1.1l0.6,0.6c1.8,1.8,1.8,4.8,0,6.6l-1.1-1.1C191.8,144.6,191.8,142.7,190.6,141.5z    " id="svg_26"/>
		<path class="st2" d="M188.9,144.8c-0.3,0-0.6-0.1-0.8-0.3c-0.5-0.5-0.5-1.2,0-1.7c0.2-0.2,0.5-0.3,0.8-0.3c0.3,0,0.6,0.1,0.8,0.3    c0.5,0.5,0.5,1.2,0,1.7C189.5,144.7,189.2,144.8,188.9,144.8z" id="svg_27"/>
		<path class="st2" d="M187.2,145.9l-1.1,1.1c-1.8-1.8-1.8-4.8,0-6.6l0.6-0.6l1.1,1.1l-0.6,0.6C186,142.7,186,144.6,187.2,145.9z" id="svg_28"/>
		<path class="st2" d="M184.5,137.6l1.1,1.1l-0.6,0.6c-2.4,2.4-2.4,6.4,0,8.8l-1.1,1.1c-3-3-3-8,0-11L184.5,137.6L184.5,137.6z" id="svg_29"/>
		<path class="st2" d="M192.8,139.2l-0.6-0.6l1.1-1.1l0.6,0.6c3,3,3,8,0,11l-1.1-1.1C195.2,145.6,195.2,141.7,192.8,139.2z" id="svg_30"/>
	</g>
	<polyline class="st4" points="164,136.1 170.9,139.1 164.1,141.8 156.8,139  " id="svg_31"/>
	<g id="svg_32">
		<polygon class="st2" points="133.8,85.5 126.8,81.8 119.5,85.5 126.8,89.1   " id="svg_33"/>
		<polygon class="st2" points="126.7,91.3 122,89.1 122,90.5 126.7,92.8 126.7,92.7 131.4,90.5 131.4,89 126.7,91.3   " id="svg_34"/>
	</g>
	<path class="st2" d="M170,85.2c0-0.4-0.3-0.8-0.8-0.8h-2.9c0.6-0.2,0.9-0.3,1.3-0.5c0.3-0.1,0.8-0.4,0.8-1c0-0.8-1.4-2.3-2.3-2.3   c-0.6,0-1.2,0.6-2.3,1.9c-1.1-1.2-1.7-1.9-2.3-1.9c-0.8,0-2.3,1.4-2.3,2.3c0,0.6,0.6,0.9,0.8,1c0.3,0.2,0.7,0.3,1.3,0.5h-2.9   c-0.4,0-0.8,0.3-0.8,0.8v1.5H170V85.2z M158.6,92c0,0.4,0.3,0.8,0.8,0.8h9.1c0.4,0,0.8-0.3,0.8-0.8v-4.5h-10.6L158.6,92L158.6,92z" id="svg_35"/>
	<g id="svg_36">
		<circle class="st2" cx="108.69999694824219" cy="83" r="3.5" id="svg_37"/>
		<path class="st2" d="M103,93.8L103,93.8c-0.7-0.4-0.9-1.4-0.4-2.2l2.4-5.5c0,0,0.6,0.9,1.3,1.3l0,0c0.7,0.4,2.1,0.5,2.1,0.5    l-3.2,5C104.7,93.8,103.7,94.2,103,93.8z" id="svg_38"/>
	</g>
	<g id="svg_39">
		<path class="st2" d="M152.4,85.4l-5.9-3.9c-0.2-0.1-0.4-0.2-0.6-0.2s-0.4,0.1-0.6,0.2l-5.9,3.9c-0.2,0.1-0.2,0.3-0.2,0.4    c0,0.1,0,0.1,0.1,0.2c0.1,0.2,0.4,0.3,0.8,0.3h0.8H151h0.8c0.3,0,0.6-0.1,0.8-0.3c0-0.1,0.1-0.1,0.1-0.2    C152.7,85.6,152.6,85.5,152.4,85.4z" id="svg_40"/>
		<path class="st2" d="M139.5,92.4L139.5,92.4c0-0.4,0.3-0.6,0.6-0.6h11.8c0.4,0,0.6,0.3,0.6,0.6l0,0v0.8h-13.1L139.5,92.4z" id="svg_41"/>
		<rect x="141.60000610351562" y="85.5999984741211" class="st2" width="1.399999976158142" height="5.400000095367432" id="svg_42"/>
		<rect x="149.5" y="85.5999984741211" class="st2" width="1.399999976158142" height="5.400000095367432" id="svg_43"/>
		<rect x="145.60000610351562" y="85.5999984741211" class="st2" width="1.399999976158142" height="5.400000095367432" id="svg_44"/>
	</g>
	<path id="navigateright-5_15_" class="st5" d="M173.3,154.1c0-0.1,0-0.2-0.1-0.3c-0.1-0.1-0.3-0.1-0.3-0.1l-16,0c0,0-0.2,0-0.3,0.1   c-0.2,0.1-0.1,0.5,0,0.6l8,10c0.1,0.2,0.4,0.2,0.5,0l8-10C173.2,154.3,173.3,154.3,173.3,154.1L173.3,154.1z"/>
	<path id="navigateright-5_14_" class="st6" d="M196.1,154.1c0-0.1,0-0.2-0.1-0.3c-0.1-0.1-0.3-0.1-0.3-0.1l-16,0c0,0-0.2,0-0.3,0.1   c-0.2,0.1-0.1,0.5,0,0.6l8,10c0.1,0.2,0.4,0.2,0.5,0l8-10C196.1,154.3,196.1,154.3,196.1,154.1L196.1,154.1z"/>
	<path class="st2" d="M323.2,149.3c-12.9,0-23.3,10.4-23.3,23.3c0,12.9,10.4,23.3,23.3,23.3c12.9,0,23.3-10.4,23.3-23.3   C346.5,159.8,336.1,149.3,323.2,149.3z M331.4,173.6c0,0-9.6,7.9-11.1,9.1S319,182,319,182v-19c0-2.2,1.5-0.6,1.5-0.6   s9.7,8.2,10.9,9.3S331.4,173.6,331.4,173.6z" id="svg_45"/>
	<path class="st2" d="M543.3,200.8c-8.5,0-15.3,6.9-15.3,15.3c0,8.5,6.9,15.3,15.3,15.3c8.5,0,15.3-6.9,15.3-15.3   C558.6,207.7,551.8,200.8,543.3,200.8z M548.7,216.8c0,0-6.3,5.2-7.3,5.9c-1,0.7-0.9-0.5-0.9-0.5v-12.5c0-1.5,1-0.4,1-0.4   s6.4,5.4,7.2,6.1C549.6,216.2,548.7,216.8,548.7,216.8z" id="svg_46"/>
	<path class="st2" d="M502.8,160.5h-9c-5,0-9.1,4.1-9.1,9.1v1.4c0,4.3,3.1,8,7.1,8.9v5.1c0,0,0.5,1.9,2.5,0.1   c1.2-1.1,3.6-3.4,5.2-4.9h3.3c5,0,9.1-4.1,9.1-9.1v-1.4C511.9,164.6,507.8,160.5,502.8,160.5z" id="svg_47"/>
	<path class="st2" d="M569.8,154.5c-8.5,0-15.3,6.9-15.3,15.3s6.9,15.3,15.3,15.3c8.5,0,15.3-6.9,15.3-15.3S578.3,154.5,569.8,154.5   z M572.9,179.3h-6.2v-11.2h6.2V179.3z M569.8,167c-1.7,0-3.1-1.4-3.1-3.1s1.4-3.1,3.1-3.1s3.1,1.4,3.1,3.1S571.5,167,569.8,167z" id="svg_48"/>
	<g id="svg_49">
		<g id="svg_50">
			<path class="st7" d="M190.2,85v1.5h-2.3v-0.3h-1.6v1h1.7v0.9h-1.7v1.2l0.7,0.3v1.3l-4-1.6v-1.3l0.7,0.3v-2H183V85L190.2,85     L190.2,85z" id="svg_51"/>
		</g>
		<g id="svg_52">
			<path class="st7" d="M189.9,81.2h-2.5V81h-1.6v0.8h2.9c0.5,0,0.8,0.1,1.1,0.2c0.3,0.1,0.4,0.3,0.4,0.5v1.2c0,0.2-0.2,0.4-0.5,0.5     s-0.7,0.2-1.2,0.2H183v-1.3h2.7v0.3h1.6v-0.8h-2.8c-0.5,0-0.9-0.1-1.2-0.3s-0.5-0.4-0.5-0.6v-1.1c0-0.2,0.2-0.4,0.6-0.5     c0.4-0.1,0.8-0.2,1.3-0.2h5.1L189.9,81.2L189.9,81.2z" id="svg_53"/>
		</g>
		<path class="st7" d="M191.9,79.9c0,0-0.6,0-0.6,0.5c0,1.6,0,6.7,0,7.5c0,0.8-0.2,1.8-1.2,2.3c-1.7,0.8-3.1,1.5-3.6,1.5    c-0.5,0-1.9-0.7-3.6-1.5c-1-0.5-1.2-1.4-1.2-2.3c0-0.7,0-5.9,0-7.5c0-0.5-0.6-0.5-0.6-0.5h-2.5v2.2h0.5c0,0,0.5-0.1,0.4,0.4    c0,0.4,0,5.2,0,5.2c0,1.5,0.3,3.6,3.2,4.7c2.3,0.8,3.2,1.5,3.8,1.5c0.6,0,1.5-0.6,3.8-1.5c2.9-1.1,3.2-3.2,3.2-4.7    c0,0,0-4.8,0-5.2c0-0.5,0.4-0.4,0.4-0.4h0.5v-2.2H191.9z" id="svg_54"/>
	</g>
	<g id="svg_55">
		<g class="st8" id="svg_56">
			<path class="st2" d="M499.5,296h1.4v2h2v1.5h-2v2h-1.4v-2h-2V298h2V296z" id="svg_57"/>
		</g>
	</g>
	<path class="st2" d="M440,276.5c0,2.8,1.7,5.1,4.1,6.1c-0.1-0.5-0.1-1.3,0-1.9c0.1-0.5,0.8-3.2,0.8-3.2s-0.2-0.4-0.2-1   c0-0.9,0.5-1.6,1.2-1.6c0.6,0,0.8,0.4,0.8,0.9c0,0.6-0.4,1.4-0.5,2.2c-0.2,0.6,0.3,1.2,1,1.2c1.2,0,2-1.2,2-3   c0-1.6-1.1-2.6-2.7-2.6c-1.9,0-2.9,1.4-2.9,2.8c0,0.6,0.2,1.2,0.5,1.5c0.1,0.1,0.1,0.1,0,0.2c-0.1,0.2-0.2,0.6-0.2,0.7   c0,0.1-0.1,0.1-0.2,0.1c-0.8-0.4-1.3-1.6-1.3-2.5c0-2,1.5-3.9,4.3-3.9c2.3,0,4,1.6,4,3.8c0,2.2-1.4,4-3.4,4c-0.7,0-1.3-0.3-1.5-0.7   l-0.4,1.5c-0.1,0.6-0.5,1.3-0.8,1.7c0.6,0.2,1.3,0.3,1.9,0.3c3.6,0,6.5-2.9,6.5-6.5s-2.9-6.5-6.5-6.5S440,272.9,440,276.5   L440,276.5z" id="svg_58"/>
	<g id="svg_59">
		<g class="st8" id="svg_60">
			<path class="st2" d="M473.1,274.4h1.3v1.8h1.8v1.3h-1.8v1.8h-1.3v-1.8h-1.8v-1.3h1.8V274.4z" id="svg_61"/>
		</g>
	</g>
	<g id="svg_62">
		<g id="svg_63">
			<path id="Fill-9_2_" class="st9" d="M56.3,217.8c-3.5,0-5.7-2.3-5.7-6v-9.4h2v9.1c0,2.6,1.1,4.4,3.7,4.4c2.5,0,3.7-1.6,3.7-4.3     v-9.2h2v9.3C62,215.5,59.8,217.8,56.3,217.8"/>
			<path id="Fill-10_2_" class="st9" d="M77.6,217.5l-8-11.7v11.7h-1.8v-15.1h1.8l7.7,11.3v-11.3h1.8v15.1H77.6"/>
			<path id="Fill-11_2_" class="st9" d="M85.1,202.4h2v15.1h-2V202.4z"/>
			<path id="Fill-12_2_" class="st9" d="M98.9,217.5h-1.8l-5.6-14.8l2-0.4l4.5,12.5l4.5-12.4h2.1L98.9,217.5"/>
			<path id="Fill-13_8_" class="st9" d="M109,217.5v-15.1h7.9v1.9H111v4.4h4.6l0.3,1.9H111v5.1h6.1v1.9L109,217.5"/>
			<path id="Fill-14_8_" class="st9" d="M126.1,204.2h-1.9v5.2h1.7c1.9,0,3.2-0.9,3.2-2.6C129,205.2,128,204.2,126.1,204.2     L126.1,204.2z M132.1,217.2l-2,0.5l-4.5-6.5h-1.5v6.4h-2v-15.1h4c3,0,4.8,1.5,4.8,4.3c0,2.3-1.3,3.6-3.2,4.2L132.1,217.2     L132.1,217.2z"/>
			<path id="Fill-15_8_" class="st9" d="M140,217.6c-1.6,0-3-0.4-4.1-1l0.3-2.1c1,0.7,2.4,1.3,3.8,1.3c1.5,0,2.6-0.8,2.6-2.3     c0-1.4-0.6-1.9-2.8-3c-2.8-1.3-3.8-2.2-3.8-4.4c0-2.4,1.8-4,4.4-4c1.4,0,2.5,0.4,3.3,0.9l-0.3,2.1c-0.8-0.6-1.9-1.1-3.1-1.1     c-1.7,0-2.4,0.9-2.4,2c0,1.2,0.6,1.7,2.8,2.8c2.8,1.3,3.8,2.3,3.8,4.6C144.6,216,142.7,217.6,140,217.6"/>
			<path id="Fill-16_8_" class="st9" d="M149.9,202.4h2v15.1h-2V202.4z"/>
			<path id="Fill-17_8_" class="st9" d="M162.9,204.3v13.2h-2v-13.2h-4.7v-1.9h11.1l0.3,1.9H162.9"/>
			<path id="Fill-18_8_" class="st9" d="M177,211.5v6h-2v-6l-5.2-8.8l2-0.4l4.2,7.4l4.1-7.2h2.2L177,211.5"/>
			<path id="Fill-19_8_" class="st9" d="M197.2,204c-2.9,0-4.7,2.3-4.7,5.9s1.8,5.9,4.7,5.9c2.9,0,4.7-2.3,4.7-5.9     C201.9,206.3,200.1,204,197.2,204L197.2,204z M197.2,217.8c-4.1,0-6.7-3.1-6.7-7.8c0-4.7,2.6-7.8,6.8-7.8c4.1,0,6.7,3.1,6.7,7.8     C203.9,214.6,201.3,217.8,197.2,217.8L197.2,217.8z"/>
			<path id="Fill-20_8_" class="st9" d="M210.9,204.3v4.6h4.4l0.3,1.9h-4.7v6.7h-2v-15.1h7.6v1.9L210.9,204.3"/>
			<path id="Fill-21_2_" class="st9" d="M229.6,217.6c-1.6,0-3-0.4-4.1-1l0.3-2.1c1,0.7,2.4,1.3,3.8,1.3c1.5,0,2.6-0.8,2.6-2.3     c0-1.4-0.6-1.9-2.8-3c-2.8-1.3-3.8-2.2-3.8-4.4c0-2.4,1.8-4,4.4-4c1.4,0,2.5,0.4,3.3,0.9l-0.3,2.1c-0.8-0.6-1.9-1.1-3.1-1.1     c-1.7,0-2.4,0.9-2.4,2c0,1.2,0.6,1.7,2.8,2.8c2.8,1.3,3.8,2.3,3.8,4.6C234.2,216,232.4,217.6,229.6,217.6"/>
			<path id="Fill-22_2_" class="st9" d="M244,204.8l-2.3,6.4h4.7L244,204.8L244,204.8z M248.8,217.6l-1.7-4.7h-6l-1.6,4.5h-2     l5.7-15.1h2l5.6,14.8L248.8,217.6L248.8,217.6L248.8,217.6z"/>
			<path id="Fill-23_2_" class="st9" d="M264.5,217.5l-8-11.7v11.7h-1.8v-15.1h1.8l7.7,11.3v-11.3h1.8v15.1H264.5"/>
			<path id="Fill-24_2_" class="st9" d="M280.1,204.3v4.6h4.4l0.3,1.9h-4.7v6.7h-2v-15.1h7.6v1.9L280.1,204.3"/>
			<path id="Fill-25_2_" class="st9" d="M294.6,204.2h-1.9v5.2h1.7c1.9,0,3.2-0.9,3.2-2.6C297.5,205.2,296.5,204.2,294.6,204.2     L294.6,204.2z M300.6,217.2l-2,0.5l-4.5-6.5h-1.5v6.4h-2v-15.1h4c3,0,4.8,1.5,4.8,4.3c0,2.3-1.3,3.6-3.2,4.2L300.6,217.2     L300.6,217.2z"/>
			<path id="Fill-26_2_" class="st9" d="M310.3,204.8l-2.3,6.4h4.7L310.3,204.8L310.3,204.8L310.3,204.8z M315,217.6l-1.7-4.7h-6     l-1.6,4.5h-2l5.7-15.1h2l5.6,14.8L315,217.6z"/>
			<path id="Fill-27_2_" class="st9" d="M331.2,217.5l-8-11.7v11.7h-1.8v-15.1h1.8l7.7,11.3v-11.3h1.8v15.1H331.2"/>
			<path id="Fill-28_2_" class="st9" d="M344.4,217.8c-4.1,0-6.8-3.1-6.8-7.8c0-4.7,2.7-7.8,6.8-7.8c1.7,0,3,0.5,4.1,1.2l-0.3,2.1     c-1.1-0.8-2.3-1.5-3.9-1.5c-3,0-4.7,2.3-4.7,5.9s1.8,5.9,4.7,5.9c1.6,0,2.9-0.6,4.1-1.5l0.3,1.9     C347.7,217.1,346,217.8,344.4,217.8"/>
			<path id="Fill-29_2_" class="st9" d="M353.5,202.4h2v15.1h-2V202.4z"/>
			<path id="Fill-30_2_" class="st9" d="M364.2,217.6c-1.6,0-3-0.4-4.1-1l0.3-2.1c1,0.7,2.4,1.3,3.8,1.3c1.5,0,2.6-0.8,2.6-2.3     c0-1.4-0.6-1.9-2.8-3c-2.8-1.3-3.8-2.2-3.8-4.4c0-2.4,1.8-4,4.4-4c1.4,0,2.5,0.4,3.3,0.9l-0.3,2.1c-0.8-0.6-1.9-1.1-3.1-1.1     c-1.7,0-2.4,0.9-2.4,2c0,1.2,0.6,1.7,2.8,2.8c2.8,1.3,3.8,2.3,3.8,4.6C368.9,216,367,217.6,364.2,217.6"/>
			<path id="Fill-31_2_" class="st9" d="M379.2,217.8c-4.1,0-6.7-3.1-6.7-7.8c0-4.7,2.7-7.8,6.8-7.8c1.7,0,3,0.5,4.1,1.2l-0.3,2.1     c-1.1-0.8-2.3-1.5-3.9-1.5c-3,0-4.7,2.3-4.7,5.9s1.8,5.9,4.7,5.9c1.6,0,2.9-0.6,4.1-1.5l0.3,1.9     C382.5,217.1,380.9,217.8,379.2,217.8"/>
			<path id="Fill-32_2_" class="st9" d="M393.2,204c-2.9,0-4.7,2.3-4.7,5.9s1.8,5.9,4.7,5.9c2.9,0,4.7-2.3,4.7-5.9     C397.9,206.3,396.1,204,393.2,204L393.2,204z M393.2,217.8c-4.1,0-6.7-3.1-6.7-7.8c0-4.7,2.6-7.8,6.7-7.8c4.1,0,6.7,3.1,6.7,7.8     C400,214.6,397.3,217.8,393.2,217.8L393.2,217.8z"/>
			<path id="Fill-33_2_" class="st10" d="M55.5,244.4c-3,0-4.9-2.3-4.9-5.7c0-3.4,2-5.7,5-5.7c1.3,0,2.2,0.3,3,0.9l-0.2,1.5     c-0.8-0.6-1.7-1.1-2.8-1.1c-2.2,0-3.5,1.7-3.5,4.4c0,2.7,1.3,4.3,3.5,4.3c1.2,0,2.2-0.5,3-1.1l0.2,1.4     C57.9,243.9,56.7,244.4,55.5,244.4"/>
			<path id="Fill-34_2_" class="st10" d="M72.6,244.2v-5.1h-5.4v5.1h-1.5v-11h1.5v4.6h5.4v-4.6h1.5v11L72.6,244.2"/>
			<path id="Fill-35_2_" class="st10" d="M85,234.9l-1.7,4.7h3.4L85,234.9L85,234.9z M88.5,244.3l-1.3-3.4h-4.4l-1.2,3.3h-1.5     l4.2-11.1h1.5l4.1,10.9L88.5,244.3L88.5,244.3z"/>
			<path id="Fill-36_2_" class="st10" d="M103.3,244.2l-5.9-8.6v8.6h-1.3v-11h1.3l5.7,8.3v-8.3h1.3v11L103.3,244.2"/>
			<path id="Fill-37_2_" class="st10" d="M116.5,244.4c-3.4,0-5.2-2.3-5.2-5.7c0-3.4,1.9-5.7,5.1-5.7c1.4,0,2.4,0.4,3.3,0.9     l-0.2,1.5c-0.8-0.6-1.8-1.1-3-1.1c-2.3,0-3.6,1.7-3.6,4.4c0,2.7,1.3,4.3,3.7,4.3c0.9,0,1.6-0.2,2.2-0.5v-2.9h-2.5l-0.2-1.4h4.1     v5.2C119.2,243.9,117.9,244.4,116.5,244.4"/>
			<path id="Fill-38_2_" class="st10" d="M127.4,244.2v-11h5.8v1.4h-4.3v3.2h3.4l0.2,1.4h-3.6v3.7h4.5v1.4L127.4,244.2"/>
			<path id="Fill-39_2_" class="st10" d="M151.9,234.5v9.7h-1.5v-9.7H147v-1.4h8.1l0.2,1.4H151.9"/>
			<path id="Fill-40_2_" class="st10" d="M168.2,244.2v-5.1h-5.4v5.1h-1.5v-11h1.5v4.6h5.4v-4.6h1.5v11L168.2,244.2"/>
			<path id="Fill-41_2_" class="st10" d="M177.3,244.2v-11h5.8v1.4h-4.3v3.2h3.3l0.2,1.4h-3.6v3.7h4.5v1.4L177.3,244.2"/>
			<path id="Fill-42_2_" class="st10" d="M207.9,244.2h-1.2l-2.9-8.9l-2.9,8.9h-1.2l-3.2-10.8l1.4-0.3l2.4,8.8l2.7-8.7h1.5l2.7,8.7     l2.4-8.7h1.5L207.9,244.2"/>
			<path id="Fill-43_2_" class="st10" d="M221.6,234.3c-2.1,0-3.4,1.7-3.4,4.4c0,2.7,1.3,4.4,3.4,4.4c2.1,0,3.4-1.7,3.4-4.4     C225,236,223.7,234.3,221.6,234.3z M221.5,244.4c-3,0-4.9-2.3-4.9-5.7c0-3.4,1.9-5.7,4.9-5.7c3,0,4.9,2.3,4.9,5.7     C226.5,242.1,224.6,244.4,221.5,244.4L221.5,244.4z"/>
			<path id="Fill-44_2_" class="st10" d="M236.3,234.5h-1.4v3.8h1.2c1.4,0,2.3-0.7,2.3-1.9C238.5,235.2,237.7,234.5,236.3,234.5z      M240.8,244l-1.5,0.3l-3.3-4.8h-1.1v4.7h-1.5v-11h2.9c2.2,0,3.6,1.1,3.6,3.1c0,1.7-0.9,2.7-2.3,3.1L240.8,244L240.8,244z"/>
			<path id="Fill-45_2_" class="st10" d="M247.2,244.2v-11h1.5v9.7h3.9l0.2,1.4L247.2,244.2"/>
			<path id="Fill-46_2_" class="st10" d="M262.4,234.5h-1.7v8.3h1.6c2.6,0,4.1-1.3,4.1-4.2C266.5,235.9,264.9,234.5,262.4,234.5     L262.4,234.5z M262.3,244.2h-3v-11h3.1c3.7,0,5.6,2.3,5.6,5.5C268,241.9,266,244.2,262.3,244.2L262.3,244.2z"/>
			<path id="Fill-47_2_" class="st10" d="M284.3,234.5v3.4h3.2l0.2,1.4h-3.4v4.9h-1.5v-11h5.6v1.4H284.3"/>
			<path id="Fill-48_2_" class="st10" d="M297.9,234.5h-1.4v3.8h1.2c1.4,0,2.3-0.7,2.3-1.9C300,235.2,299.3,234.5,297.9,234.5     L297.9,234.5z M302.3,244l-1.5,0.3l-3.3-4.8h-1.1v4.7H295v-11h2.9c2.2,0,3.5,1.1,3.5,3.1c0,1.7-0.9,2.7-2.3,3.1L302.3,244     L302.3,244z"/>
			<path id="Fill-49_2_" class="st10" d="M313,234.3c-2.1,0-3.4,1.7-3.4,4.4c0,2.7,1.3,4.4,3.4,4.4c2.1,0,3.4-1.7,3.4-4.4     C316.5,236,315.2,234.3,313,234.3z M313,244.4c-3,0-4.9-2.3-4.9-5.7c0-3.4,1.9-5.7,4.9-5.7c3,0,4.9,2.3,4.9,5.7     C318,242.1,316.1,244.4,313,244.4L313,244.4z"/>
			<path id="Fill-50_2_" class="st10" d="M335.2,244.2l-0.7-8.8l-3.4,8.8H330l-3.4-8.8l-0.6,8.8h-1.4l0.9-11h1.8l3.3,9.1l3.3-9.1     h1.8l0.8,11H335.2"/>
			<path id="Fill-51_2_" class="st10" d="M358.4,244.2v-5.1H353v5.1h-1.5v-11h1.5v4.6h5.4v-4.6h1.5v11L358.4,244.2"/>
			<path id="Fill-52_2_" class="st10" d="M367.4,244.2v-11h5.8v1.4h-4.3v3.2h3.3l0.2,1.4h-3.6v3.7h4.5v1.4L367.4,244.2"/>
			<path id="Fill-53_2_" class="st10" d="M383,234.5h-1.4v3.8h1.2c1.4,0,2.3-0.7,2.3-1.9C385.2,235.2,384.4,234.5,383,234.5z      M387.5,244l-1.5,0.3l-3.3-4.8h-1.1v4.7h-1.5v-11h2.9c2.2,0,3.5,1.1,3.5,3.1c0,1.7-0.9,2.7-2.3,3.1L387.5,244L387.5,244z"/>
			<path id="Fill-54_2_" class="st10" d="M393.9,244.2v-11h5.8v1.4h-4.3v3.2h3.3l0.2,1.4h-3.6v3.7h4.5v1.4L393.9,244.2"/>
			<path id="Fill-55_2_" class="st10" d="M50.6,225h349.2v0.7H50.6V225z"/>
		</g>
		<g id="svg_64">
			<path class="st11" d="M310.5,100.2c0-0.1,0-0.2-0.1-0.2c-0.1,0-0.2,0-0.3,0.1l-1.7,1.7c-0.9-0.8-2.1-1.3-3.4-1.3     c-2.8,0-5,2.3-5,5s2.3,5,5,5c1.3,0,2.5-0.5,3.4-1.3c0,0,0,0,0,0c0,0,0.1-0.1,0.1-0.2c0-0.1,0-0.1-0.1-0.2v0l-1-1     c-0.1-0.1-0.2-0.1-0.3,0c-0.6,0.5-1.3,0.8-2.1,0.8c-1.8,0-3.2-1.4-3.2-3.2s1.4-3.2,3.2-3.2c0.8,0,1.5,0.3,2.1,0.8l-1.3,1.3     c-0.1,0.1-0.1,0.2-0.1,0.3c0,0.1,0.1,0.1,0.2,0.1h4.4c0.1,0,0.2-0.1,0.2-0.2L310.5,100.2L310.5,100.2L310.5,100.2z" id="svg_65"/>
			<path class="st6" d="M333,110c-0.8,0-1.5,0.3-2.1,0.8l-4.9-2.5c0-0.1,0-0.2,0-0.4s0-0.2,0-0.4l4.9-2.5c0.5,0.5,1.3,0.8,2.1,0.8     c1.7,0,3-1.3,3-3s-1.3-3-3-3s-3,1.3-3,3c0,0.1,0,0.2,0,0.4l-4.9,2.5c-0.5-0.5-1.3-0.8-2.1-0.8c-1.7,0-3,1.3-3,3s1.3,3,3,3     c0.8,0,1.5-0.3,2.1-0.8l4.9,2.5c0,0.1,0,0.2,0,0.4c0,1.7,1.3,3,3,3s3-1.3,3-3S334.7,110,333,110z" id="svg_66"/>
		</g>
		<g id="svg_67">
			<path id="instagram_1_" class="st2" d="M16.4,100H2.8c-1.6,0-2.8,1.3-2.8,2.8v13.6c0,1.6,1.3,2.8,2.8,2.8h13.6     c1.6,0,2.8-1.3,2.8-2.8v-13.6C19.3,101.3,18,100,16.4,100L16.4,100z M9.6,106c2,0,3.6,1.6,3.6,3.6c0,2-1.6,3.6-3.6,3.6     c-2,0-3.6-1.6-3.6-3.6C6,107.6,7.6,106,9.6,106z M17.3,116.9c0,0.2-0.2,0.4-0.4,0.4H2.4c-0.2,0-0.4-0.2-0.4-0.4v-8.4h2.1     c-0.1,0.4-0.1,0.8-0.1,1.2c0,3.1,2.5,5.6,5.6,5.6c3.1,0,5.6-2.5,5.6-5.6c0-0.4,0-0.8-0.1-1.2h2.1V116.9z M17.3,104.8     c0,0.2-0.2,0.4-0.4,0.4h-2.4c-0.2,0-0.4-0.2-0.4-0.4v-2.4c0-0.2,0.2-0.4,0.4-0.4h2.4c0.2,0,0.4,0.2,0.4,0.4V104.8L17.3,104.8z"/>
			<path class="st2" d="M49.3,101.2c0-0.7-0.5-1.2-1.2-1.2H31.2c-0.7,0-1.2,0.5-1.2,1.2v16.9c0,0.7,0.5,1.2,1.2,1.2h9.1v-7.5h-2.4     V109h2.4v-2.4c0-2.2,1.3-3.7,4-3.7c1.2,0,2,0.1,2,0.1v2.5h-1.8c-0.8,0-1.2,0.4-1.2,1.2v2.2h2.8l-0.4,2.8h-2.4v7.5h4.8     c0.7,0,1.2-0.5,1.2-1.2L49.3,101.2L49.3,101.2z M68.8,110.4c0-2.4-2-4.4-4.4-4.4c-2.4,0-4.4,2-4.4,4.4c0,2.4,2,4.4,4.4,4.4     C66.8,114.8,68.8,112.8,68.8,110.4z M79.3,110.4c0-2.4-2-4.4-4.4-4.4c-2.4,0-4.4,2-4.4,4.4c0,2.4,2,4.4,4.4,4.4     C77.3,114.8,79.3,112.8,79.3,110.4z" id="svg_68"/>
			<path id="twitter_1_" class="st2" d="M109.3,103.8c-0.7,0.3-1.5,0.5-2.3,0.6c0.8-0.5,1.4-1.3,1.7-2.2c-0.8,0.4-1.6,0.8-2.5,1     c-0.7-0.8-1.8-1.2-2.9-1.2c-2.2,0-3.9,1.8-3.9,3.9c0,0.3,0,0.6,0.1,0.9c-3.3-0.2-6.2-1.7-8.1-4.1c-0.3,0.6-0.5,1.2-0.5,1.9     c0,1.4,0.7,2.6,1.8,3.3c-0.7,0-1.2-0.2-1.8-0.5v0c0,1.9,1.4,3.5,3.2,3.9c-0.3,0.1-0.7,0.1-1.1,0.1c-0.2,0-0.5,0-0.7-0.1     c0.5,1.6,2,2.7,3.7,2.7c-1.3,1.1-3.1,1.9-4.9,1.9c-0.3,0-0.6,0-0.9-0.1c1.7,1.1,3.8,1.6,6.1,1.6c7.3,0,11.2-6,11.2-11.2v-0.5     C108.1,105.3,108.7,104.7,109.3,103.8L109.3,103.8z"/>
			<path id="youtube_1_" class="st2" d="M129.6,103c-9.6,0-9.6,0-9.6,6.8s0,6.8,9.6,6.8s9.6,0,9.6-6.8     C139.3,103,139.3,103,129.6,103z M127.2,113.4v-7.2l6,3.6L127.2,113.4L127.2,113.4z"/>
			<path class="st2" d="M150.4,106.4v12.4h4v-12.4H150.4z M160.8,111.6c0-1.6,1-2.4,2.2-2.4s2.2,0.8,2.2,2.8v6.8h4v-7.2     c0-3.6-2-5.6-4.8-5.6c-1.6,0-2.8,0.9-3.6,2.1l-0.1-1.7h-3.9c0,0.4,0.1,2.8,0.1,2.8v9.6h4L160.8,111.6L160.8,111.6z M152.4,104.4     c1.5,0,2.4-1,2.4-2.2c0-1.2-0.9-2.2-2.4-2.2c-1.5,0-2.4,1-2.4,2.2C150,103.4,150.9,104.4,152.4,104.4L152.4,104.4z" id="svg_69"/>
		</g>
		<g id="svg_70">
			<path class="st2" d="M211.2,115.8l-5.3-5.3c0.6-1,1-2.3,1-3.5c0-3.8-3.1-7-7-7c-3.8,0-7,3.1-7,7c0,3.8,3.1,7,7,7     c1.3,0,2.5-0.4,3.5-1l5.3,5.3c0.2,0.2,0.5,0.3,0.8,0.3c0.3,0,0.6-0.1,0.8-0.3l0.8-0.8C211.7,117,211.7,116.2,211.2,115.8     L211.2,115.8z M195.3,107c0-2.6,2.1-4.6,4.6-4.6c2.6,0,4.6,2.1,4.6,4.6s-2.1,4.6-4.6,4.6S195.3,109.5,195.3,107L195.3,107z" id="svg_71"/>
			<path class="st5" d="M255.6,117l-5.7-5.7c0.7-1.1,1-2.4,1-3.8c0-4.1-3.4-7.5-7.5-7.5c-4.1,0-7.5,3.4-7.5,7.5s3.4,7.5,7.5,7.5     c1.4,0,2.7-0.4,3.8-1l5.7,5.7c0.2,0.2,0.6,0.4,0.9,0.4c0.3,0,0.7-0.1,0.9-0.4l0.9-0.9C256.1,118.3,256.1,117.5,255.6,117     L255.6,117L255.6,117z M238.5,107.5c0-2.8,2.2-5,5-5s5,2.2,5,5s-2.2,5-5,5S238.5,110.3,238.5,107.5z" id="svg_72"/>
			<path class="st12" d="M279.6,117l-5.7-5.7c0.7-1.1,1-2.4,1-3.8c0-4.1-3.4-7.5-7.5-7.5s-7.5,3.4-7.5,7.5s3.4,7.5,7.5,7.5     c1.4,0,2.7-0.4,3.8-1l5.7,5.7c0.2,0.2,0.6,0.4,0.9,0.4c0.3,0,0.7-0.1,0.9-0.4l0.9-0.9C280.1,118.3,280.1,117.5,279.6,117     L279.6,117z M262.5,107.5c0-2.8,2.2-5,5-5c2.8,0,5,2.2,5,5s-2.2,5-5,5C264.7,112.5,262.5,110.3,262.5,107.5L262.5,107.5z" id="svg_73"/>
			<path class="st6" d="M232.7,115.8l-5.3-5.3c0.6-1,1-2.3,1-3.5c0-3.8-3.1-7-7-7s-7,3.1-7,7c0,3.8,3.1,7,7,7c1.3,0,2.5-0.4,3.5-1     l5.3,5.3c0.2,0.2,0.5,0.3,0.8,0.3c0.3,0,0.6-0.1,0.8-0.3l0.8-0.8C233.1,117,233.1,116.2,232.7,115.8L232.7,115.8z M216.8,107     c0-2.6,2.1-4.6,4.6-4.6c2.6,0,4.6,2.1,4.6,4.6s-2.1,4.6-4.6,4.6C218.8,111.6,216.8,109.5,216.8,107L216.8,107z" id="svg_74"/>
		</g>
		<g id="svg_75">
			<g id="svg_76">
				<path id="up_3_" class="st2" d="M260,174.1l1.1,1.1c0.1,0.1,0.2,0.1,0.2,0l2.4-2.4l2.4,2.4c0.1,0.1,0.2,0.1,0.2,0l1.1-1.1      c0.1-0.1,0.1-0.2,0-0.2l-3.6-3.6c-0.1-0.1-0.2-0.1-0.2,0l-3.6,3.6c0,0,0,0.1,0,0.1C260,174,260,174,260,174.1L260,174.1z"/>
				<path id="down_3_" class="st2" d="M247.4,171.1l-1.1-1.1c-0.1-0.1-0.2-0.1-0.2,0l-2.4,2.4l-2.4-2.4c-0.1-0.1-0.2-0.1-0.2,0      l-1.1,1.1c-0.1,0.1-0.1,0.2,0,0.2l3.6,3.6c0.1,0.1,0.2,0.1,0.2,0l3.6-3.6c0,0,0-0.1,0-0.1C247.4,171.2,247.4,171.2,247.4,171.1      L247.4,171.1z"/>
				<path id="right_3_" class="st2" d="M221.1,170l-1.1,1.1c-0.1,0.1-0.1,0.2,0,0.2l2.4,2.4l-2.4,2.4c-0.1,0.1-0.1,0.2,0,0.2      l1.1,1.1c0.1,0.1,0.2,0.1,0.2,0l3.6-3.6c0.1-0.1,0.1-0.2,0-0.2l-3.6-3.6c0,0-0.1,0-0.1,0C221.2,170,221.2,170,221.1,170      L221.1,170z"/>
				<path id="left_3_" class="st2" d="M203.9,170c0,0,0.1,0,0.1,0l1.1,1.1c0.1,0.1,0.1,0.2,0,0.2l-2.4,2.4l2.4,2.4      c0.1,0.1,0.1,0.2,0,0.2l-1.1,1.1c-0.1,0.1-0.2,0.1-0.2,0l-3.6-3.6c-0.1-0.1-0.1-0.2,0-0.2l3.6-3.6      C203.9,170,203.9,170,203.9,170L203.9,170z"/>
			</g>
			<g id="svg_77">
				<path id="up_2_" class="st13" d="M260,154.1l1.1,1.1c0.1,0.1,0.2,0.1,0.2,0l2.4-2.4l2.4,2.4c0.1,0.1,0.2,0.1,0.2,0l1.1-1.1      c0.1-0.1,0.1-0.2,0-0.2l-3.6-3.6c-0.1-0.1-0.2-0.1-0.2,0l-3.6,3.6c0,0,0,0.1,0,0.1C260,154,260,154,260,154.1L260,154.1z"/>
				<path id="down_2_" class="st13" d="M247.4,151.1l-1.1-1.1c-0.1-0.1-0.2-0.1-0.2,0l-2.4,2.4l-2.4-2.4c-0.1-0.1-0.2-0.1-0.2,0      l-1.1,1.1c-0.1,0.1-0.1,0.2,0,0.2l3.6,3.6c0.1,0.1,0.2,0.1,0.2,0l3.6-3.6c0,0,0-0.1,0-0.1C247.4,151.2,247.4,151.2,247.4,151.1      L247.4,151.1z"/>
				<path id="right_2_" class="st13" d="M221.1,150l-1.1,1.1c-0.1,0.1-0.1,0.2,0,0.2l2.4,2.4l-2.4,2.4c-0.1,0.1-0.1,0.2,0,0.2      l1.1,1.1c0.1,0.1,0.2,0.1,0.2,0l3.6-3.6c0.1-0.1,0.1-0.2,0-0.2l-3.6-3.6c0,0-0.1,0-0.1,0C221.2,150,221.2,150,221.1,150      L221.1,150z"/>
				<path id="left_2_" class="st13" d="M203.9,150c0,0,0.1,0,0.1,0l1.1,1.1c0.1,0.1,0.1,0.2,0,0.2l-2.4,2.4l2.4,2.4      c0.1,0.1,0.1,0.2,0,0.2l-1.1,1.1c-0.1,0.1-0.2,0.1-0.2,0l-3.6-3.6c-0.1-0.1-0.1-0.2,0-0.2l3.6-3.6      C203.9,150,203.9,150,203.9,150L203.9,150z"/>
			</g>
			<g id="svg_78">
				<path class="st14" d="M260,134.1l1.1,1.1c0.1,0.1,0.2,0.1,0.2,0l2.4-2.4l2.4,2.4c0.1,0.1,0.2,0.1,0.2,0l1.1-1.1      c0.1-0.1,0.1-0.2,0-0.2l-3.6-3.6c-0.1-0.1-0.2-0.1-0.2,0l-3.6,3.6c0,0,0,0.1,0,0.1C260,134,260,134,260,134.1L260,134.1z       M247.4,131.1l-1.1-1.1c-0.1-0.1-0.2-0.1-0.2,0l-2.4,2.4l-2.4-2.4c-0.1-0.1-0.2-0.1-0.2,0l-1.1,1.1c-0.1,0.1-0.1,0.2,0,0.2      l3.6,3.6c0.1,0.1,0.2,0.1,0.2,0l3.6-3.6c0,0,0-0.1,0-0.1C247.4,131.2,247.4,131.2,247.4,131.1L247.4,131.1z M221.1,130l-1.1,1.1      c-0.1,0.1-0.1,0.2,0,0.2l2.4,2.4l-2.4,2.4c-0.1,0.1-0.1,0.2,0,0.2l1.1,1.1c0.1,0.1,0.2,0.1,0.2,0l3.6-3.6c0.1-0.1,0.1-0.2,0-0.2      l-3.6-3.6c0,0-0.1,0-0.1,0C221.2,130,221.2,130,221.1,130L221.1,130z M203.9,130c0,0,0.1,0,0.1,0l1.1,1.1c0.1,0.1,0.1,0.2,0,0.2      l-2.4,2.4l2.4,2.4c0.1,0.1,0.1,0.2,0,0.2l-1.1,1.1c-0.1,0.1-0.2,0.1-0.2,0l-3.6-3.6c-0.1-0.1-0.1-0.2,0-0.2l3.6-3.6      C203.9,130,203.9,130,203.9,130L203.9,130z" id="svg_79"/>
			</g>
		</g>
		<g id="svg_80">
			<g id="svg_81">
				<path id="navigateright-4_23_" class="st2" d="M87.1,143.4c0.1,0,0.1,0,0.2-0.1l2-2c0.1-0.1,0.1-0.3,0-0.4l-4.3-4.3l4.3-4.3      c0.1-0.1,0.1-0.3,0-0.4l-2-2c-0.1-0.1-0.3-0.1-0.4,0l-6.4,6.4c-0.1,0.1-0.1,0.3,0,0.4l6.4,6.4C87,143.3,87,143.4,87.1,143.4      L87.1,143.4z"/>
				<path class="st2" d="M160,136.9c0,0.1,0,0.1,0.1,0.2l2,2c0.1,0.1,0.3,0.1,0.4,0l4.3-4.3l4.3,4.3c0.1,0.1,0.3,0.1,0.4,0l2-2      c0.1-0.1,0.1-0.3,0-0.4l-6.4-6.4c-0.1-0.1-0.3-0.1-0.4,0l-6.4,6.4C160,136.8,160,136.8,160,136.9L160,136.9L160,136.9z" id="svg_82"/>
				<path id="navigateright-5_27_" class="st2" d="M102.2,130c-0.1,0-0.1,0-0.2,0.1l-2,2c-0.1,0.1-0.1,0.3,0,0.4l4.3,4.3l-4.3,4.3      c-0.1,0.1-0.1,0.3,0,0.4l2,2c0.1,0.1,0.3,0.1,0.4,0l6.4-6.4c0.1-0.1,0.1-0.3,0-0.4l-6.4-6.4C102.4,130,102.3,130,102.2,130      L102.2,130z"/>
			</g>
			<g id="svg_83">
				<path id="navigateright-4_22_" class="st13" d="M47.1,143.4c0.1,0,0.1,0,0.2-0.1l2-2c0.1-0.1,0.1-0.3,0-0.4l-4.3-4.3l4.3-4.3      c0.1-0.1,0.1-0.3,0-0.4l-2-2c-0.1-0.1-0.3-0.1-0.4,0l-6.4,6.4c-0.1,0.1-0.1,0.3,0,0.4l6.4,6.4C47,143.3,47,143.4,47.1,143.4      L47.1,143.4z"/>
				<path id="navigateright-5_26_" class="st13" d="M62.2,130c-0.1,0-0.1,0-0.2,0.1l-2,2c-0.1,0.1-0.1,0.3,0,0.4l4.3,4.3l-4.3,4.3      c-0.1,0.1-0.1,0.3,0,0.4l2,2c0.1,0.1,0.3,0.1,0.4,0l6.4-6.4c0.1-0.1,0.1-0.3,0-0.4l-6.4-6.4C62.4,130,62.3,130,62.2,130      L62.2,130z"/>
			</g>
			<g id="svg_84">
				<path id="navigateright-4_21_" class="st6" d="M7.1,143.4c0.1,0,0.1,0,0.2-0.1l2-2c0.1-0.1,0.1-0.3,0-0.4L5,136.7l4.3-4.3      c0.1-0.1,0.1-0.3,0-0.4l-2-2c-0.1-0.1-0.3-0.1-0.4,0l-6.4,6.4c-0.1,0.1-0.1,0.3,0,0.4l6.4,6.4C7,143.3,7,143.4,7.1,143.4z"/>
				<path id="navigateright-5_25_" class="st6" d="M22.2,130c-0.1,0-0.1,0-0.2,0.1l-2,2c-0.1,0.1-0.1,0.3,0,0.4l4.3,4.3l-4.3,4.3      c-0.1,0.1-0.1,0.3,0,0.4l2,2c0.1,0.1,0.3,0.1,0.4,0l6.4-6.4c0.1-0.1,0.1-0.3,0-0.4l-6.4-6.4C22.4,130,22.3,130,22.2,130      L22.2,130z"/>
			</g>
			<g id="svg_85">
				<path id="navigateright-4_20_" class="st5" d="M127.1,143.4c0.1,0,0.1,0,0.2-0.1l2-2c0.1-0.1,0.1-0.3,0-0.4l-4.3-4.3l4.3-4.3      c0.1-0.1,0.1-0.3,0-0.4l-2-2c-0.1-0.1-0.3-0.1-0.4,0l-6.4,6.4c-0.1,0.1-0.1,0.3,0,0.4l6.4,6.4C127,143.3,127,143.4,127.1,143.4      L127.1,143.4z"/>
				<path id="navigateright-5_24_" class="st5" d="M142.2,130c-0.1,0-0.1,0-0.2,0.1l-2,2c-0.1,0.1-0.1,0.3,0,0.4l4.3,4.3l-4.3,4.3      c-0.1,0.1-0.1,0.3,0,0.4l2,2c0.1,0.1,0.3,0.1,0.4,0l6.4-6.4c0.1-0.1,0.1-0.3,0-0.4l-6.4-6.4C142.4,130,142.3,130,142.2,130      L142.2,130z"/>
			</g>
			<g id="svg_86">
				<path id="navigateright-4_19_" class="st15" d="M7.1,163.4c0.1,0,0.1,0,0.2-0.1l2-2c0.1-0.1,0.1-0.3,0-0.4L5,156.7l4.3-4.3      c0.1-0.1,0.1-0.3,0-0.4l-2-2c-0.1-0.1-0.3-0.1-0.4,0l-6.4,6.4c-0.1,0.1-0.1,0.3,0,0.4l6.4,6.4C7,163.3,7,163.4,7.1,163.4z"/>
				<path id="navigateright-5_23_" class="st15" d="M22.2,150c-0.1,0-0.1,0-0.2,0.1l-2,2c-0.1,0.1-0.1,0.3,0,0.4l4.3,4.3l-4.3,4.3      c-0.1,0.1-0.1,0.3,0,0.4l2,2c0.1,0.1,0.3,0.1,0.4,0l6.4-6.4c0.1-0.1,0.1-0.3,0-0.4l-6.4-6.4C22.4,150,22.3,150,22.2,150      L22.2,150z"/>
			</g>
			<g id="svg_87">
				<path id="navigateright-4_18_" class="st16" d="M47.1,163.4c0.1,0,0.1,0,0.2-0.1l2-2c0.1-0.1,0.1-0.3,0-0.4l-4.3-4.3l4.3-4.3      c0.1-0.1,0.1-0.3,0-0.4l-2-2c-0.1-0.1-0.3-0.1-0.4,0l-6.4,6.4c-0.1,0.1-0.1,0.3,0,0.4l6.4,6.4C47,163.3,47,163.4,47.1,163.4      L47.1,163.4z"/>
				<path id="navigateright-5_22_" class="st16" d="M62.2,150c-0.1,0-0.1,0-0.2,0.1l-2,2c-0.1,0.1-0.1,0.3,0,0.4l4.3,4.3l-4.3,4.3      c-0.1,0.1-0.1,0.3,0,0.4l2,2c0.1,0.1,0.3,0.1,0.4,0l6.4-6.4c0.1-0.1,0.1-0.3,0-0.4l-6.4-6.4C62.4,150,62.3,150,62.2,150      L62.2,150z"/>
			</g>
			<g id="svg_88">
				<path id="navigateright-4_17_" class="st17" d="M87.1,163.4c0.1,0,0.1,0,0.2-0.1l2-2c0.1-0.1,0.1-0.3,0-0.4l-4.3-4.3l4.3-4.3      c0.1-0.1,0.1-0.3,0-0.4l-2-2c-0.1-0.1-0.3-0.1-0.4,0l-6.4,6.4c-0.1,0.1-0.1,0.3,0,0.4l6.4,6.4C87,163.3,87,163.4,87.1,163.4      L87.1,163.4z"/>
				<path id="navigateright-5_21_" class="st17" d="M102.2,150c-0.1,0-0.1,0-0.2,0.1l-2,2c-0.1,0.1-0.1,0.3,0,0.4l4.3,4.3l-4.3,4.3      c-0.1,0.1-0.1,0.3,0,0.4l2,2c0.1,0.1,0.3,0.1,0.4,0l6.4-6.4c0.1-0.1,0.1-0.3,0-0.4l-6.4-6.4C102.4,150,102.3,150,102.2,150      L102.2,150z"/>
			</g>
			<g id="svg_89">
				<path id="navigateright-4_16_" class="st18" d="M127.1,163.4c0.1,0,0.1,0,0.2-0.1l2-2c0.1-0.1,0.1-0.3,0-0.4l-4.3-4.3l4.3-4.3      c0.1-0.1,0.1-0.3,0-0.4l-2-2c-0.1-0.1-0.3-0.1-0.4,0l-6.4,6.4c-0.1,0.1-0.1,0.3,0,0.4l6.4,6.4C127,163.3,127,163.4,127.1,163.4      L127.1,163.4z"/>
				<path id="navigateright-5_20_" class="st18" d="M142.2,150c-0.1,0-0.1,0-0.2,0.1l-2,2c-0.1,0.1-0.1,0.3,0,0.4l4.3,4.3l-4.3,4.3      c-0.1,0.1-0.1,0.3,0,0.4l2,2c0.1,0.1,0.3,0.1,0.4,0l6.4-6.4c0.1-0.1,0.1-0.3,0-0.4l-6.4-6.4C142.4,150,142.3,150,142.2,150      L142.2,150z"/>
			</g>
			<g id="svg_90">
				<path id="navigateright-4_15_" class="st19" d="M7.1,183.4c0.1,0,0.1,0,0.2-0.1l2-2c0.1-0.1,0.1-0.3,0-0.4L5,176.7l4.3-4.3      c0.1-0.1,0.1-0.3,0-0.4l-2-2c-0.1-0.1-0.3-0.1-0.4,0l-6.4,6.4c-0.1,0.1-0.1,0.3,0,0.4l6.4,6.4C7,183.3,7,183.4,7.1,183.4z"/>
				<path id="navigateright-5_19_" class="st19" d="M22.2,170c-0.1,0-0.1,0-0.2,0.1l-2,2c-0.1,0.1-0.1,0.3,0,0.4l4.3,4.3l-4.3,4.3      c-0.1,0.1-0.1,0.3,0,0.4l2,2c0.1,0.1,0.3,0.1,0.4,0l6.4-6.4c0.1-0.1,0.1-0.3,0-0.4l-6.4-6.4C22.4,170,22.3,170,22.2,170      L22.2,170z"/>
			</g>
			<g id="svg_91">
				<path id="navigateright-4_14_" class="st20" d="M47.1,183.4c0.1,0,0.1,0,0.2-0.1l2-2c0.1-0.1,0.1-0.3,0-0.4l-4.3-4.3l4.3-4.3      c0.1-0.1,0.1-0.3,0-0.4l-2-2c-0.1-0.1-0.3-0.1-0.4,0l-6.4,6.4c-0.1,0.1-0.1,0.3,0,0.4l6.4,6.4C47,183.3,47,183.4,47.1,183.4      L47.1,183.4z"/>
				<path id="navigateright-5_18_" class="st20" d="M62.2,170c-0.1,0-0.1,0-0.2,0.1l-2,2c-0.1,0.1-0.1,0.3,0,0.4l4.3,4.3l-4.3,4.3      c-0.1,0.1-0.1,0.3,0,0.4l2,2c0.1,0.1,0.3,0.1,0.4,0l6.4-6.4c0.1-0.1,0.1-0.3,0-0.4l-6.4-6.4C62.4,170,62.3,170,62.2,170      L62.2,170z"/>
			</g>
			<g id="svg_92">
				<path id="navigateright-4_13_" class="st21" d="M87.1,183.4c0.1,0,0.1,0,0.2-0.1l2-2c0.1-0.1,0.1-0.3,0-0.4l-4.3-4.3l4.3-4.3      c0.1-0.1,0.1-0.3,0-0.4l-2-2c-0.1-0.1-0.3-0.1-0.4,0l-6.4,6.4c-0.1,0.1-0.1,0.3,0,0.4l6.4,6.4C87,183.3,87,183.4,87.1,183.4      L87.1,183.4z"/>
				<path id="navigateright-5_17_" class="st21" d="M102.2,170c-0.1,0-0.1,0-0.2,0.1l-2,2c-0.1,0.1-0.1,0.3,0,0.4l4.3,4.3l-4.3,4.3      c-0.1,0.1-0.1,0.3,0,0.4l2,2c0.1,0.1,0.3,0.1,0.4,0l6.4-6.4c0.1-0.1,0.1-0.3,0-0.4l-6.4-6.4C102.4,170,102.3,170,102.2,170      L102.2,170z"/>
			</g>
			<g id="svg_93">
				<path id="navigateright-4_12_" class="st22" d="M127.1,183.4c0.1,0,0.1,0,0.2-0.1l2-2c0.1-0.1,0.1-0.3,0-0.4l-4.3-4.3l4.3-4.3      c0.1-0.1,0.1-0.3,0-0.4l-2-2c-0.1-0.1-0.3-0.1-0.4,0l-6.4,6.4c-0.1,0.1-0.1,0.3,0,0.4l6.4,6.4C127,183.3,127,183.4,127.1,183.4      L127.1,183.4z"/>
				<path id="navigateright-5_16_" class="st22" d="M142.2,170c-0.1,0-0.1,0-0.2,0.1l-2,2c-0.1,0.1-0.1,0.3,0,0.4l4.3,4.3l-4.3,4.3      c-0.1,0.1-0.1,0.3,0,0.4l2,2c0.1,0.1,0.3,0.1,0.4,0l6.4-6.4c0.1-0.1,0.1-0.3,0-0.4l-6.4-6.4C142.4,170,142.3,170,142.2,170      L142.2,170z"/>
			</g>
			<g id="svg_94">
				<path class="st23" d="M167.1,183.4c0.1,0,0.1,0,0.2-0.1l2-2c0.1-0.1,0.1-0.3,0-0.4l-4.3-4.3l4.3-4.3c0.1-0.1,0.1-0.3,0-0.4l-2-2      c-0.1-0.1-0.3-0.1-0.4,0l-6.4,6.4c-0.1,0.1-0.1,0.3,0,0.4l6.4,6.4C167,183.3,167,183.4,167.1,183.4L167.1,183.4L167.1,183.4z       M182.2,170c-0.1,0-0.1,0-0.2,0.1l-2,2c-0.1,0.1-0.1,0.3,0,0.4l4.3,4.3l-4.3,4.3c-0.1,0.1-0.1,0.3,0,0.4l2,2      c0.1,0.1,0.3,0.1,0.4,0l6.4-6.4c0.1-0.1,0.1-0.3,0-0.4l-6.4-6.4C182.4,170,182.3,170,182.2,170L182.2,170z" id="svg_95"/>
			</g>
		</g>
		<g id="svg_96">
			<path id="tag_1_" class="st2" d="M0.2,68.2l4.5,4.5c0.3,0.3,0.8,0.3,1.2,0l7-7c0,0,0.1-0.1,0.1-0.2v-4.8c0-0.5-0.4-0.8-0.8-0.8     H7.4c-0.1,0-0.1,0-0.2,0.1l-7,7C-0.1,67.4-0.1,67.9,0.2,68.2z M8.9,62.8c0-0.7,0.5-1.2,1.2-1.2c0.7,0,1.2,0.5,1.2,1.2     c0,0.7-0.5,1.2-1.2,1.2C9.5,64.1,8.9,63.5,8.9,62.8L8.9,62.8z"/>
			<path class="st2" d="M51.1,60h-9.2c-1,0-1.9,0.8-1.9,1.9v9.2c0,1,0.8,1.9,1.9,1.9h9.2c1,0,1.9-0.8,1.9-1.9v-9.2     C53,60.8,52.2,60,51.1,60z M46.5,64.1c1.3,0,2.4,1.1,2.4,2.4c0,1.3-1.1,2.4-2.4,2.4s-2.4-1.1-2.4-2.4S45.2,64.1,46.5,64.1     L46.5,64.1z M51.6,71.4c0,0.2-0.1,0.3-0.3,0.3h-9.8c-0.2,0-0.3-0.1-0.3-0.3v-5.7h1.4c-0.1,0.3-0.1,0.5-0.1,0.8     c0,2.1,1.7,3.8,3.8,3.8s3.8-1.7,3.8-3.8c0-0.3,0-0.6-0.1-0.8h1.4L51.6,71.4L51.6,71.4z M51.6,63.2c0,0.2-0.1,0.3-0.3,0.3h-1.6     c-0.2,0-0.3-0.1-0.3-0.3v-1.6c0-0.2,0.1-0.3,0.3-0.3h1.6c0.2,0,0.3,0.1,0.3,0.3V63.2z M66.5,61.9c-6.5,0-6.5,0-6.5,4.6     s0,4.6,6.5,4.6s6.5,0,6.5-4.6S73,61.9,66.5,61.9z M64.9,68.9v-4.9l4.1,2.4L64.9,68.9L64.9,68.9z M92.2,61.6H80.8     c-0.4,0-0.8,0.4-0.8,0.8v8.1c0,0.4,0.4,0.8,0.8,0.8h11.4c0.4,0,0.8-0.4,0.8-0.8v-8.1C93,62,92.6,61.6,92.2,61.6L92.2,61.6z      M82.8,63.2c0.7,0,1.2,0.5,1.2,1.2c0,0.7-0.5,1.2-1.2,1.2s-1.2-0.5-1.2-1.2C81.6,63.8,82.2,63.2,82.8,63.2z M91.4,69.8h-9.8     l1.6-2.4l1.9,1.4l3-3.8L91.4,69.8L91.4,69.8z M111.5,62.7c0.6-0.3,1-0.9,1.2-1.5c-0.5,0.3-1.1,0.5-1.7,0.6     c-0.5-0.5-1.2-0.8-2-0.8c-1.5,0-2.7,1.2-2.7,2.7c0,0.2,0,0.4,0.1,0.6c-2.2-0.1-4.2-1.1-5.5-2.7c-0.2,0.4-0.4,0.8-0.4,1.3     c0,0.9,0.5,1.7,1.2,2.2c-0.4,0-0.8-0.1-1.2-0.3v0c0,1.3,0.9,2.4,2.1,2.6c-0.2,0.1-0.5,0.1-0.7,0.1c-0.2,0-0.3,0-0.5-0.1     c0.3,1.1,1.3,1.8,2.5,1.9c-0.9,0.7-2.1,1.3-3.3,1.3c-0.2,0-0.4,0-0.6,0c1.2,0.8,2.6,1.1,4.1,1.1c4.9,0,7.6-4.1,7.6-7.6v-0.3     c0.5-0.4,1-0.8,1.3-1.4C112.5,62.5,112,62.6,111.5,62.7z M133,60.8v11.4c0,0.2-0.1,0.4-0.2,0.6c-0.2,0.2-0.4,0.2-0.6,0.2h-3.2     v-5.1h1.6l0.3-1.9h-1.9v-1.5c0-0.3,0.1-0.5,0.2-0.6c0.1-0.1,0.3-0.2,0.6-0.2h1.2v-1.7c-0.4-0.1-0.8-0.1-1.3-0.1     c-0.9,0-1.5,0.2-2,0.7s-0.7,1-0.7,1.8v1.6h-1.6v1.9h1.6V73h-6.1c-0.2,0-0.4-0.1-0.6-0.2c-0.2-0.2-0.2-0.4-0.2-0.6V60.8     c0-0.2,0.1-0.4,0.2-0.6c0.2-0.2,0.4-0.2,0.6-0.2h11.4c0.2,0,0.4,0.1,0.6,0.2C132.9,60.4,133,60.6,133,60.8L133,60.8z M146,66.5     c0,0.5-0.1,1-0.4,1.5c-0.3,0.5-0.6,0.8-1.1,1.1c-0.5,0.3-1,0.4-1.5,0.4s-1-0.1-1.5-0.4c-0.5-0.3-0.8-0.6-1.1-1.1     c-0.3-0.5-0.4-1-0.4-1.5c0-0.5,0.1-1,0.4-1.5c0.3-0.5,0.6-0.8,1.1-1.1c0.5-0.3,1-0.4,1.5-0.4s1,0.1,1.5,0.4     c0.5,0.3,0.8,0.6,1.1,1.1C145.8,65.5,146,66,146,66.5z M153,66.5c0,0.5-0.1,1-0.4,1.5c-0.3,0.5-0.6,0.8-1.1,1.1     c-0.5,0.3-1,0.4-1.5,0.4s-1-0.1-1.5-0.4c-0.5-0.3-0.8-0.6-1.1-1.1c-0.3-0.5-0.4-1-0.4-1.5c0-0.5,0.1-1,0.4-1.5     c0.3-0.5,0.6-0.8,1.1-1.1c0.5-0.3,1-0.4,1.5-0.4s1,0.1,1.5,0.4c0.5,0.3,0.8,0.6,1.1,1.1C152.9,65.5,153,66,153,66.5z M160.3,64.5     h2.7v8.4h-2.7V64.5z M164.6,72.9v-6.5l0-1.9h2.7l0.1,1.2c0.3-0.4,0.6-0.8,1-1c0.4-0.3,0.9-0.4,1.4-0.4c1,0,1.8,0.3,2.4,1     c0.6,0.7,0.9,1.6,0.9,2.8v4.9h-2.7v-4.6c0-0.6-0.1-1.1-0.4-1.4c-0.3-0.3-0.6-0.5-1.1-0.5c-0.4,0-0.8,0.1-1.1,0.4     c-0.3,0.3-0.4,0.7-0.4,1.2v4.9L164.6,72.9L164.6,72.9L164.6,72.9z M161.6,63.1L161.6,63.1c-0.5,0-0.9-0.1-1.2-0.4     c-0.3-0.3-0.4-0.6-0.4-1.1c0-0.4,0.1-0.8,0.5-1.1c0.3-0.3,0.7-0.4,1.2-0.4c0.5,0,0.9,0.1,1.2,0.4c0.3,0.3,0.4,0.6,0.5,1.1     c0,0.4-0.1,0.8-0.4,1.1C162.5,63,162.1,63.1,161.6,63.1L161.6,63.1z M192.9,63.9l-6.2,6.2c-0.1,0.1-0.2,0.1-0.3,0.1h0     c0,0,0,0-0.1,0c-0.1,0-0.2,0-0.3-0.1l-3.4-3.4c-0.1-0.1-0.1-0.2-0.1-0.3c0-0.1,0-0.2,0.1-0.3l1-1c0.1-0.1,0.2-0.1,0.3-0.1     c0.1,0,0.2,0,0.3,0.1l2.1,2.1l4.9-4.8c0.1-0.1,0.2-0.1,0.3-0.1c0.1,0,0.2,0,0.3,0.1l1,1c0.1,0.1,0.1,0.2,0.1,0.3     S193,63.8,192.9,63.9L192.9,63.9z M192.5,67.6l-5,5c-0.3,0.3-0.7,0.4-1.1,0.4c-0.4,0-0.8-0.1-1.1-0.4l-5-5     c-0.3-0.3-0.4-0.7-0.4-1.1s0.1-0.8,0.4-1.1l5-5c0.3-0.3,0.7-0.4,1.1-0.4c0.4,0,0.8,0.1,1.1,0.4l2.2,2.2l-3.4,3.4l-1.6-1.6     c-0.2-0.2-0.5-0.3-0.8-0.3c-0.3,0-0.6,0.1-0.8,0.3l-1,1c-0.2,0.2-0.3,0.5-0.3,0.8c0,0.3,0.1,0.6,0.3,0.8l3.4,3.4     c0.2,0.2,0.4,0.3,0.6,0.3l0.1,0l0.2,0c0.3,0,0.6-0.1,0.8-0.3l5.2-5.2l0,0c0.3,0.3,0.4,0.7,0.4,1.1S192.8,67.3,192.5,67.6     L192.5,67.6z" id="svg_97"/>
			<path id="rss_1_" class="st5" d="M24.1,91c0-1.1-0.9-2-2-2s-2,0.9-2,2s0.9,2,2,2C23.2,93,24.1,92.1,24.1,91L24.1,91z M33,92.7     c0-7-5.7-12.7-12.7-12.7c-0.2,0-0.3,0.1-0.3,0.3v1.9c0,0.2,0.1,0.3,0.3,0.3c5.7,0,10.3,4.6,10.3,10.3c0,0.2,0.1,0.3,0.3,0.3h1.9     C32.9,93,33,92.9,33,92.7L33,92.7z M28.9,92.7c0-4.8-3.9-8.7-8.7-8.7c-0.2,0-0.3,0.1-0.3,0.3v1.9c0,0.2,0.1,0.3,0.3,0.3     c3.4,0,6.2,2.8,6.2,6.2c0,0.2,0.1,0.3,0.3,0.3h1.9C28.8,93,28.9,92.9,28.9,92.7L28.9,92.7z"/>
			<path class="st24" d="M0.2,88.2l4.5,4.5c0.3,0.3,0.8,0.3,1.2,0l7-7c0,0,0.1-0.1,0.1-0.2v-4.8c0-0.4-0.4-0.8-0.8-0.8H7.4     c-0.1,0-0.1,0-0.2,0.1l-7,7C-0.1,87.4-0.1,87.9,0.2,88.2z M8.9,82.8c0-0.7,0.5-1.2,1.2-1.2c0.7,0,1.2,0.5,1.2,1.2     c0,0.7-0.5,1.2-1.2,1.2C9.5,84.1,8.9,83.5,8.9,82.8L8.9,82.8z" id="svg_98"/>
			<path class="st25" d="M71.8,85.5l-5.2-5.2C66.4,80.1,66.2,80,66,80s-0.4,0.1-0.5,0.2l-5.2,5.2C60.1,85.6,60,85.8,60,86     c0,0.1,0,0.2,0.1,0.3c0.1,0.3,0.4,0.5,0.7,0.5h0.8v4.5c0,0.4,0.3,0.8,0.8,0.8h2.2v-3.8h3V92h2.2c0.4,0,0.8-0.3,0.8-0.8v-4.5h0.8     c0.3,0,0.6-0.2,0.7-0.5c0-0.1,0.1-0.2,0.1-0.3C72,85.8,71.9,85.6,71.8,85.5z" id="svg_99"/>
			<path class="st2" d="M91.8,85.5l-5.2-5.2C86.4,80.1,86.2,80,86,80s-0.4,0.1-0.5,0.2l-5.2,5.2C80.1,85.6,80,85.8,80,86     c0,0.1,0,0.2,0.1,0.3c0.1,0.3,0.4,0.5,0.7,0.5h0.8v4.5c0,0.4,0.3,0.8,0.8,0.8h2.2v-3.8h3V92h2.2c0.4,0,0.8-0.3,0.8-0.8v-4.5h0.8     c0.3,0,0.6-0.2,0.7-0.5c0-0.1,0.1-0.2,0.1-0.3C92,85.8,91.9,85.6,91.8,85.5z" id="svg_100"/>
		</g>
		<path class="st2" d="M53.1,80H40.9c-0.5,0-0.9,0.4-0.9,0.9v12.2c0,0.5,0.4,0.9,0.9,0.9h12.2c0.5,0,0.9-0.4,0.9-0.9V80.9    C54,80.4,53.6,80,53.1,80L53.1,80z M51.4,92.2h-1.7v-0.9c0-3.9-3.1-7-7-7h-0.9v-1.7h0.9c4.8,0,8.7,3.9,8.7,8.7L51.4,92.2    L51.4,92.2z M47.9,92.2h-1.8v-0.9c0-1.9-1.6-3.5-3.5-3.5h-0.9v-1.8h0.9c2.9,0,5.2,2.4,5.2,5.2V92.2L47.9,92.2z M43.1,92.2    c-0.7,0-1.3-0.6-1.3-1.3c0-0.7,0.6-1.3,1.3-1.3c0.7,0,1.3,0.6,1.3,1.3C44.4,91.6,43.8,92.2,43.1,92.2z" id="svg_101"/>
		<g id="svg_102">
			<path d="M415.2,106.3c0.1-0.1,0.1-0.2,0.1-0.3c-0.1-0.1-0.2-0.2-0.3-0.2h-4.9l-2.1-5.5c-0.1-0.1-0.2-0.2-0.3-0.2     c-0.1,0-0.2,0.1-0.3,0.2l-2.1,5.5h-4.9c-0.1,0-0.3,0.1-0.3,0.2c0,0.1,0,0.3,0.1,0.4l3.7,3.7l-0.9,4.9c0,0.1,0,0.2,0.1,0.3     c0.1,0.1,0.2,0.1,0.4,0l4.3-2.8l4.3,2.8c0.1,0,0.1,0.1,0.2,0.1c0.1,0,0.1,0,0.2-0.1c0.1-0.1,0.2-0.2,0.1-0.3l-0.9-4.9     L415.2,106.3L415.2,106.3z M427.6,110.3v2.9c0,0.1-0.1,0.2-0.2,0.3c-0.1,0-0.1,0-0.1,0c-0.1,0-0.1,0-0.2-0.1l-7-5.4     c-0.1-0.1-0.1-0.1-0.1-0.2c0-0.1,0-0.2,0.1-0.2l7-5.4c0.1-0.1,0.2-0.1,0.3,0c0.1,0.1,0.2,0.2,0.2,0.3v2.9c4.8,0,7.5,2.7,7.6,7     c0,0.1-0.1,0.3-0.2,0.3H435c-0.1,0-0.2-0.1-0.3-0.2C433.5,110.9,430.8,110.3,427.6,110.3L427.6,110.3z M443.3,113.1     c0-0.1,0-0.2,0.1-0.2l1.9-1.9c0.1-0.1,0.1-0.1,0.2-0.1h4.9c0.2,0,0.3-0.1,0.3-0.3v-2.9h-1.6c-0.1,0-0.2-0.1-0.3-0.2     c0-0.1,0-0.3,0.1-0.3l2.9-2.9c0.1-0.1,0.3-0.1,0.5,0l2.9,2.9c0.1,0.1,0.1,0.2,0.1,0.3c-0.1,0.1-0.2,0.2-0.3,0.2h-1.6v2.9     c0,1.6-1.3,2.9-2.9,2.9h-6.8C443.5,113.5,443.3,113.3,443.3,113.1L443.3,113.1L443.3,113.1z M440.1,108.3     c-0.1-0.1-0.1-0.2-0.1-0.3c0.1-0.1,0.2-0.2,0.3-0.2h1.6v-2.9c0-1.6,1.3-2.9,2.9-2.9h6.8c0.2,0,0.3,0.1,0.3,0.3     c0,0.1,0,0.2-0.1,0.2l-1.9,1.9c0,0.1-0.1,0.1-0.2,0.1h-4.9c-0.2,0-0.3,0.1-0.3,0.3v2.9h1.6c0.1,0,0.2,0.1,0.3,0.2     c0,0.1,0,0.3-0.1,0.4l-2.9,2.9c-0.1,0.1-0.1,0.1-0.2,0.1s-0.2,0-0.2-0.1L440.1,108.3L440.1,108.3z" id="svg_103"/>
		</g>
		<g id="svg_104">
			<g id="svg_105">
				<path id="location_1_" class="st26" d="M268,60c-3.3,0-6,2.7-6,6c0,4.4,5.1,9.5,5.3,9.7c0.2,0.2,0.5,0.3,0.7,0.3      s0.5-0.1,0.7-0.3c0.2-0.2,5.3-5.3,5.3-9.7C274,62.7,271.3,60,268,60z M265,66c0-1.7,1.3-3,3-3s3,1.3,3,3s-1.3,3-3,3      S265,67.7,265,66z"/>
				<path id="fax_1_" class="st26" d="M253,63v-2c0-0.6-0.4-1-1-1h-8c-0.6,0-1,0.4-1,1v2H253z M253,66c0-0.6,0.4-1,1-1s1,0.4,1,1      s-0.4,1-1,1S253,66.6,253,66z M255,64h-14c-0.6,0-1,0.4-1,1v7c0,0.6,0.4,1,1,1h1v-4h12v4h1c0.6,0,1-0.4,1-1v-7      C256,64.4,255.6,64,255,64z M243,70v5c0,0.6,0.4,1,1,1h8c0.6,0,1-0.4,1-1v-5H243z"/>
				<path id="phone_1_" class="st26" d="M220,63c1,5,8,12,13,13c1,0,3-2,3-3c-1-1-3-2.5-4-3c-0.5,0-2,1.5-2.5,1.5      c-1.5-0.5-4.5-3.5-5-5c0-0.5,1.5-2,1.5-2.5c-0.5-1-2-3.5-3-4C222,60,220,62,220,63z"/>
				<path id="email_1_" class="st26" d="M208,68.4l8-5V63c0-0.6-0.4-1-1-1h-14c-0.6,0-1,0.4-1,1v0.4L208,68.4z M208.3,69.4      c-0.1,0.1-0.2,0.1-0.3,0.1c-0.1,0-0.2,0-0.3-0.1l-7.7-4.8V73c0,0.6,0.4,1,1,1h14c0.6,0,1-0.4,1-1v-8.4L208.3,69.4z"/>
			</g>
			<g id="svg_106">
				<path class="st6" d="M268,80c-3.3,0-6,2.7-6,6c0,4.4,5.1,9.5,5.3,9.7c0.2,0.2,0.5,0.3,0.7,0.3s0.5-0.1,0.7-0.3      c0.2-0.2,5.3-5.3,5.3-9.7C274,82.7,271.3,80,268,80z M265,86c0-1.7,1.3-3,3-3s3,1.3,3,3s-1.3,3-3,3S265,87.7,265,86z M253,83v-2      c0-0.6-0.4-1-1-1h-8c-0.6,0-1,0.4-1,1v2H253z M253,86c0-0.6,0.4-1,1-1s1,0.4,1,1s-0.4,1-1,1S253,86.6,253,86z M255,84h-14      c-0.6,0-1,0.4-1,1v7c0,0.6,0.4,1,1,1h1v-4h12v4h1c0.6,0,1-0.4,1-1v-7C256,84.4,255.6,84,255,84z M243,90v5c0,0.6,0.4,1,1,1h8      c0.6,0,1-0.4,1-1v-5H243z M220,83c1,5,8,12,13,13c1,0,3-2,3-3c-1-1-3-2.5-4-3c-0.5,0-2,1.5-2.5,1.5c-1.5-0.5-4.5-3.5-5-5      c0-0.5,1.5-2,1.5-2.5c-0.5-1-2-3.5-3-4C222,80,220,82,220,83z M208,88.4l8-5V83c0-0.6-0.4-1-1-1h-14c-0.6,0-1,0.4-1,1v0.4      L208,88.4z M208.3,89.4c-0.1,0.1-0.2,0.1-0.3,0.1c-0.1,0-0.2,0-0.3-0.1l-7.7-4.8V93c0,0.6,0.4,1,1,1h14c0.6,0,1-0.4,1-1v-8.4      L208.3,89.4z" id="svg_107"/>
			</g>
		</g>
		<g id="svg_108">
			<path class="st13" d="M304.7,60c-2.6,0-4.7,2.1-4.7,4.7c0,0.8,0.2,1.6,0.6,2.3l3.8,6.9c0,0.1,0.1,0.1,0.3,0.1     c0.1,0,0.2-0.1,0.3-0.1l3.8-6.9c0.4-0.7,0.6-1.5,0.6-2.3C309.3,62.1,307.2,60,304.7,60L304.7,60z M304.7,66.4     c-1,0-1.8-0.8-1.8-1.8c0-1,0.8-1.8,1.8-1.8c1,0,1.8,0.8,1.8,1.8C306.4,65.6,305.6,66.4,304.7,66.4z" id="svg_109"/>
			<path class="st2" d="M304.7,80c-2.6,0-4.7,2.1-4.7,4.7c0,0.8,0.2,1.6,0.6,2.3l3.8,6.9c0,0.1,0.1,0.1,0.3,0.1     c0.1,0,0.2-0.1,0.3-0.1l3.8-6.9c0.4-0.7,0.6-1.5,0.6-2.3C309.3,82.1,307.2,80,304.7,80L304.7,80z M304.7,86.4     c-1,0-1.8-0.8-1.8-1.8c0-1,0.8-1.8,1.8-1.8c1,0,1.8,0.8,1.8,1.8C306.4,85.6,305.6,86.4,304.7,86.4z" id="svg_110"/>
			<path class="st5" d="M330.9,60c-6,0-10.9,4.9-10.9,10.9c0,7.9,9.2,17.2,9.6,17.6c0.4,0.4,0.8,0.5,1.3,0.5c0.5,0,0.9-0.2,1.3-0.5     c0.4-0.4,9.6-9.7,9.6-17.6C341.8,64.9,336.9,60,330.9,60z M325.4,70.9c0-3,2.4-5.4,5.4-5.4s5.4,2.4,5.4,5.4s-2.4,5.4-5.4,5.4     S325.4,73.9,325.4,70.9z" id="svg_111"/>
			<path class="st13" d="M379,69.4l-9.1-9.1c-0.2-0.2-0.4-0.3-0.6-0.3s-0.5,0.1-0.6,0.3c-1.1,1.1-1.3,2.9-0.6,4.2l-5.3,5.3     c-1-0.5-2.5-0.8-3.9-0.8c-2,0-4.2,0.9-4.2,2c0,0.2,0.1,0.5,0.3,0.6l5,5l-9,10.8l-0.9,1.8l1.8-0.9l10.8-9l5,5     c0.2,0.2,0.4,0.3,0.6,0.3c1.1,0,2-2.3,2-4.2c0-1.4-0.3-2.9-0.8-3.9l5.3-5.3c1.3,0.8,3.1,0.6,4.2-0.6c0.2-0.2,0.3-0.4,0.3-0.6     C379.3,69.8,379.2,69.6,379,69.4L379,69.4z" id="svg_112"/>
		</g>
		<g id="Group_1_">
			<path class="st5" d="M301.1,130l-1.1,1.1c-0.1,0.1-0.1,0.2,0,0.2l2.4,2.4l-2.4,2.4c-0.1,0.1-0.1,0.2,0,0.2l1.1,1.1     c0.1,0.1,0.2,0.1,0.2,0l3.6-3.6c0.1-0.1,0.1-0.2,0-0.2l-3.6-3.6c0,0-0.1,0-0.1,0C301.2,130,301.2,130,301.1,130L301.1,130z" id="svg_113"/>
			<path class="st15" d="M311.1,130l-1.1,1.1c-0.1,0.1-0.1,0.2,0,0.2l2.4,2.4l-2.4,2.4c-0.1,0.1-0.1,0.2,0,0.2l1.1,1.1     c0.1,0.1,0.2,0.1,0.2,0l3.6-3.6c0.1-0.1,0.1-0.2,0-0.2l-3.6-3.6c0,0-0.1,0-0.1,0C311.2,130,311.2,130,311.1,130L311.1,130z" id="svg_114"/>
			<path class="st17" d="M321.1,130l-1.1,1.1c-0.1,0.1-0.1,0.2,0,0.2l2.4,2.4l-2.4,2.4c-0.1,0.1-0.1,0.2,0,0.2l1.1,1.1     c0.1,0.1,0.2,0.1,0.2,0l3.6-3.6c0.1-0.1,0.1-0.2,0-0.2l-3.6-3.6c0,0-0.1,0-0.1,0C321.2,130,321.2,130,321.1,130L321.1,130z" id="svg_115"/>
			<path class="st16" d="M331.1,130l-1.1,1.1c-0.1,0.1-0.1,0.2,0,0.2l2.4,2.4l-2.4,2.4c-0.1,0.1-0.1,0.2,0,0.2l1.1,1.1     c0.1,0.1,0.2,0.1,0.2,0l3.6-3.6c0.1-0.1,0.1-0.2,0-0.2l-3.6-3.6c0,0-0.1,0-0.1,0C331.2,130,331.2,130,331.1,130L331.1,130z" id="svg_116"/>
			<path class="st19" d="M341.1,130l-1.1,1.1c-0.1,0.1-0.1,0.2,0,0.2l2.4,2.4l-2.4,2.4c-0.1,0.1-0.1,0.2,0,0.2l1.1,1.1     c0.1,0.1,0.2,0.1,0.2,0l3.6-3.6c0.1-0.1,0.1-0.2,0-0.2l-3.6-3.6c0,0-0.1,0-0.1,0C341.2,130,341.2,130,341.1,130L341.1,130z" id="svg_117"/>
			<path class="st21" d="M351.1,130l-1.1,1.1c-0.1,0.1-0.1,0.2,0,0.2l2.4,2.4l-2.4,2.4c-0.1,0.1-0.1,0.2,0,0.2l1.1,1.1     c0.1,0.1,0.2,0.1,0.2,0l3.6-3.6c0.1-0.1,0.1-0.2,0-0.2l-3.6-3.6c0,0-0.1,0-0.1,0C351.2,130,351.2,130,351.1,130L351.1,130z" id="svg_118"/>
			<path class="st22" d="M361.1,130l-1.1,1.1c-0.1,0.1-0.1,0.2,0,0.2l2.4,2.4l-2.4,2.4c-0.1,0.1-0.1,0.2,0,0.2l1.1,1.1     c0.1,0.1,0.2,0.1,0.2,0l3.6-3.6c0.1-0.1,0.1-0.2,0-0.2l-3.6-3.6c0,0-0.1,0-0.1,0C361.2,130,361.2,130,361.1,130L361.1,130z" id="svg_119"/>
			<path class="st20" d="M371.1,130l-1.1,1.1c-0.1,0.1-0.1,0.2,0,0.2l2.4,2.4l-2.4,2.4c-0.1,0.1-0.1,0.2,0,0.2l1.1,1.1     c0.1,0.1,0.2,0.1,0.2,0l3.6-3.6c0.1-0.1,0.1-0.2,0-0.2l-3.6-3.6c0,0-0.1,0-0.1,0C371.2,130,371.2,130,371.1,130L371.1,130z" id="svg_120"/>
			<path class="st5" d="M304.1,140l1.1,1.1c0.1,0.1,0.1,0.2,0,0.2l-2.4,2.4l2.4,2.4c0.1,0.1,0.1,0.2,0,0.2l-1.1,1.1     c-0.1,0.1-0.2,0.1-0.2,0l-3.6-3.6c-0.1-0.1-0.1-0.2,0-0.2l3.6-3.6c0,0,0.1,0,0.1,0C304,140,304,140,304.1,140L304.1,140z" id="svg_121"/>
			<path class="st15" d="M314.1,140l1.1,1.1c0.1,0.1,0.1,0.2,0,0.2l-2.4,2.4l2.4,2.4c0.1,0.1,0.1,0.2,0,0.2l-1.1,1.1     c-0.1,0.1-0.2,0.1-0.2,0l-3.6-3.6c-0.1-0.1-0.1-0.2,0-0.2l3.6-3.6c0,0,0.1,0,0.1,0C314,140,314,140,314.1,140L314.1,140z" id="svg_122"/>
			<path class="st17" d="M323.8,140l1.1,1.1c0.1,0.1,0.1,0.2,0,0.2l-2.4,2.4l2.4,2.4c0.1,0.1,0.1,0.2,0,0.2l-1.1,1.1     c-0.1,0.1-0.2,0.1-0.2,0l-3.6-3.6c-0.1-0.1-0.1-0.2,0-0.2l3.6-3.6c0,0,0.1,0,0.1,0C323.8,140,323.8,140,323.8,140L323.8,140z" id="svg_123"/>
			<path class="st16" d="M334.1,140l1.1,1.1c0.1,0.1,0.1,0.2,0,0.2l-2.4,2.4l2.4,2.4c0.1,0.1,0.1,0.2,0,0.2l-1.1,1.1     c-0.1,0.1-0.2,0.1-0.2,0l-3.6-3.6c-0.1-0.1-0.1-0.2,0-0.2l3.6-3.6c0,0,0.1,0,0.1,0C334,140,334,140,334.1,140L334.1,140z" id="svg_124"/>
			<path class="st19" d="M344.1,140l1.1,1.1c0.1,0.1,0.1,0.2,0,0.2l-2.4,2.4l2.4,2.4c0.1,0.1,0.1,0.2,0,0.2l-1.1,1.1     c-0.1,0.1-0.2,0.1-0.2,0l-3.6-3.6c-0.1-0.1-0.1-0.2,0-0.2l3.6-3.6c0,0,0.1,0,0.1,0C344,140,344,140,344.1,140L344.1,140z" id="svg_125"/>
			<path class="st21" d="M354.1,140l1.1,1.1c0.1,0.1,0.1,0.2,0,0.2l-2.4,2.4l2.4,2.4c0.1,0.1,0.1,0.2,0,0.2l-1.1,1.1     c-0.1,0.1-0.2,0.1-0.2,0l-3.6-3.6c-0.1-0.1-0.1-0.2,0-0.2l3.6-3.6c0,0,0.1,0,0.1,0C354,140,354,140,354.1,140L354.1,140z" id="svg_126"/>
			<path class="st22" d="M364.1,140l1.1,1.1c0.1,0.1,0.1,0.2,0,0.2l-2.4,2.4l2.4,2.4c0.1,0.1,0.1,0.2,0,0.2l-1.1,1.1     c-0.1,0.1-0.2,0.1-0.2,0l-3.6-3.6c-0.1-0.1-0.1-0.2,0-0.2l3.6-3.6c0,0,0.1,0,0.1,0C364,140,364,140,364.1,140L364.1,140z" id="svg_127"/>
			<path class="st20" d="M374.1,140l1.1,1.1c0.1,0.1,0.1,0.2,0,0.2l-2.4,2.4l2.4,2.4c0.1,0.1,0.1,0.2,0,0.2l-1.1,1.1     c-0.1,0.1-0.2,0.1-0.2,0l-3.6-3.6c-0.1-0.1-0.1-0.2,0-0.2l3.6-3.6c0,0,0.1,0,0.1,0C374,140,374,140,374.1,140L374.1,140z" id="svg_128"/>
		</g>
		<g id="svg_129">
			<path class="st2" d="M374.2,168.8h6.9l-6.9-6.9V168.8z M365.5,160h10l7.5,7.5v15c0,1.4-1.1,2.5-2.5,2.5h-15     c-1.4,0-2.5-1.1-2.5-2.5v-20C363,161.1,364.1,160,365.5,160z M376.8,180v-2.5h-11.2v2.5H376.8z M380.5,175v-2.5h-15v2.5H380.5z" id="svg_130"/>
		</g>
		<g id="svg_131">
			<path class="st24" d="M77.6,285.3c-4.5,0-7.2-2.8-7.2-7.4v-11.5H73v11.2c0,3.2,1.4,5.4,4.6,5.4c3.1,0,4.7-1.9,4.7-5.3v-11.3h2.5     v11.4C84.9,282.5,82.1,285.3,77.6,285.3 M104.9,285l-10.2-14.4V285h-2.3v-18.5h2.3l9.8,13.9v-13.9h2.3V285H104.9 M114.9,266.5     h2.5V285h-2.5V266.5L114.9,266.5z M132.9,285.1h-2.3l-7.1-18.3l2.5-0.5l5.8,15.4l5.7-15.2h2.7L132.9,285.1" id="svg_132"/>
			<path id="Fill-13_7_" class="st24" d="M145.7,285v-18.5h10v2.3h-7.5v5.4h5.8l0.4,2.3h-6.2v6.2h7.7v2.3H145.7"/>
			<path id="Fill-14_7_" class="st24" d="M167.9,268.7h-2.4v6.4h2.1c2.4,0,4-1.1,4-3.2C171.6,269.9,170.3,268.7,167.9,268.7     L167.9,268.7z M175.6,284.6l-2.6,0.6l-5.7-8h-1.9v7.8h-2.5v-18.5h5c3.8,0,6.1,1.9,6.1,5.3c0,2.8-1.6,4.5-4.1,5.1L175.6,284.6     L175.6,284.6z"/>
			<path id="Fill-15_7_" class="st24" d="M185.8,285.2c-2,0-3.8-0.5-5.2-1.2l0.4-2.6c1.3,0.8,3,1.6,4.9,1.6c1.9,0,3.3-1,3.3-2.8     c0-1.7-0.8-2.4-3.5-3.6c-3.5-1.6-4.8-2.7-4.8-5.4c0-3,2.3-4.9,5.6-4.9c1.8,0,3.1,0.4,4.2,1l-0.4,2.5c-1-0.8-2.4-1.4-3.9-1.4     c-2.1,0-3.1,1.1-3.1,2.5c0,1.4,0.7,2.1,3.5,3.4c3.6,1.6,4.8,2.9,4.8,5.7C191.7,283.2,189.3,285.2,185.8,285.2"/>
			<path id="Fill-16_7_" class="st24" d="M198.7,266.5h2.5V285h-2.5V266.5L198.7,266.5z"/>
			<path id="Fill-17_7_" class="st24" d="M215.8,268.8V285h-2.5v-16.2h-5.9v-2.3h14.1l0.4,2.3L215.8,268.8"/>
			<path id="Fill-18_7_" class="st24" d="M234.9,277.6v7.4h-2.5v-7.4l-6.6-10.8l2.5-0.5l5.3,9l5.2-8.9h2.8L234.9,277.6"/>
			<path id="Fill-19_7_" class="st24" d="M264.4,268.4c-3.7,0-5.9,2.8-5.9,7.3c0,4.5,2.3,7.3,5.9,7.3c3.7,0,5.9-2.8,5.9-7.3     S268.1,268.4,264.4,268.4L264.4,268.4z M264.4,285.3c-5.2,0-8.5-3.9-8.5-9.6c0-5.7,3.4-9.6,8.6-9.6c5.2,0,8.5,3.9,8.5,9.6     C273,281.4,269.6,285.3,264.4,285.3L264.4,285.3L264.4,285.3z"/>
			<path id="Fill-20_7_" class="st24" d="M282.1,268.8v5.7h5.6l0.4,2.3h-6v8.2h-2.5v-18.5h9.6v2.3L282.1,268.8"/>
			<path class="st24" d="M75,318.2c-2,0-3.8-0.5-5.2-1.2l0.4-2.6c1.3,0.8,3,1.6,4.9,1.6c1.9,0,3.3-1,3.3-2.8c0-1.7-0.8-2.4-3.5-3.7     c-3.5-1.6-4.8-2.7-4.8-5.4c0-3,2.3-4.9,5.6-4.9c1.8,0,3.1,0.4,4.2,1l-0.4,2.5c-1-0.8-2.4-1.4-3.9-1.4c-2.1,0-3.1,1.1-3.1,2.5     c0,1.4,0.7,2.1,3.5,3.4c3.6,1.6,4.8,2.9,4.8,5.7C80.9,316.2,78.5,318.2,75,318.2 M93.3,302.4l-3,7.8h5.9L93.3,302.4z M99.3,318.2     l-2.2-5.7h-7.7l-2.1,5.6h-2.6l7.2-18.6h2.5l7.1,18.3L99.3,318.2L99.3,318.2L99.3,318.2z M119.4,318l-10.2-14.4V318h-2.3v-18.5     h2.3l9.8,13.9v-13.9h2.3V318L119.4,318 M138.9,301.8v5.7h5.6l0.4,2.3h-6v8.2h-2.5v-18.5h9.6v2.3L138.9,301.8 M156.8,301.7h-2.4     v6.4h2.1c2.4,0,4-1.1,4-3.2C160.6,302.9,159.3,301.7,156.8,301.7L156.8,301.7z M164.5,317.6l-2.6,0.6l-5.7-8h-1.9v7.8h-2.5v-18.5     h5c3.8,0,6.1,1.9,6.1,5.3c0,2.8-1.6,4.5-4.1,5.1L164.5,317.6L164.5,317.6z M176,302.4l-3,7.8h5.9L176,302.4L176,302.4z      M182,318.2l-2.2-5.7h-7.7l-2.1,5.6h-2.6l7.2-18.6h2.5l7.1,18.3L182,318.2L182,318.2z M201.7,318l-10.2-14.4V318h-2.3v-18.5h2.3     l9.8,13.9v-13.9h2.3V318L201.7,318 M218.1,318.4c-5.2,0-8.6-3.9-8.6-9.6c0-5.7,3.4-9.6,8.6-9.6c2.2,0,3.8,0.6,5.3,1.5l-0.4,2.6     c-1.3-1-2.9-1.8-4.9-1.8c-3.8,0-6,2.8-6,7.3s2.3,7.3,6,7.3c2,0,3.7-0.8,5.2-1.9l0.4,2.4C222.3,317.6,220.3,318.4,218.1,318.4      M230.1,299.5h2.5V318h-2.5L230.1,299.5L230.1,299.5z M244.2,318.2c-2,0-3.8-0.5-5.2-1.2l0.4-2.6c1.3,0.8,3,1.6,4.9,1.6     c1.9,0,3.3-1,3.3-2.8c0-1.7-0.8-2.4-3.5-3.7c-3.5-1.6-4.8-2.7-4.8-5.4c0-3,2.3-4.9,5.6-4.9c1.8,0,3.1,0.4,4.2,1l-0.4,2.5     c-1-0.8-2.4-1.4-3.9-1.4c-2.1,0-3.1,1.1-3.1,2.5c0,1.4,0.7,2.1,3.5,3.4c3.6,1.6,4.8,2.9,4.8,5.7     C250,316.2,247.6,318.2,244.2,318.2 M263,318.4c-5.2,0-8.6-3.9-8.6-9.6c0-5.7,3.4-9.6,8.6-9.6c2.2,0,3.8,0.6,5.3,1.5l-0.4,2.6     c-1.3-1-2.9-1.8-4.9-1.8c-3.8,0-6,2.8-6,7.3s2.3,7.3,6,7.3c2,0,3.7-0.8,5.2-1.9l0.4,2.4C267.2,317.6,265.1,318.4,263,318.4      M280.7,301.4c-3.7,0-5.9,2.8-5.9,7.3s2.3,7.3,5.9,7.3c3.7,0,5.9-2.8,5.9-7.3S284.3,301.4,280.7,301.4L280.7,301.4z M280.7,318.4     c-5.2,0-8.5-3.9-8.5-9.6c0-5.7,3.4-9.6,8.6-9.6c5.2,0,8.5,3.9,8.5,9.6C289.2,314.4,285.9,318.4,280.7,318.4z" id="svg_133"/>
			<path class="st10" d="M6,360.7c-3.2,0-5.3-2.4-5.3-5.9c0-3.6,2.1-6,5.3-6c1.4,0,2.4,0.4,3.3,0.9l-0.2,1.6c-0.8-0.6-1.8-1.1-3-1.1     c-2.3,0-3.7,1.8-3.7,4.5s1.4,4.5,3.7,4.5c1.2,0,2.3-0.5,3.2-1.1l0.2,1.5C8.6,360.3,7.3,360.7,6,360.7 M20.9,360.5v-5.3h-5.8v5.3     h-1.6V349h1.6v4.8h5.8V349h1.6v11.5L20.9,360.5 M30.9,350.8l-1.8,4.8h3.7L30.9,350.8z M34.6,360.6l-1.3-3.6h-4.7l-1.3,3.4h-1.6     l4.5-11.5h1.6l4.4,11.3L34.6,360.6L34.6,360.6z M47.2,360.5l-6.3-8.9v8.9h-1.5V349h1.4l6.1,8.6V349h1.4v11.5L47.2,360.5      M58,360.7c-3.6,0-5.6-2.4-5.6-5.9c0-3.6,2-6,5.5-6c1.5,0,2.6,0.4,3.5,1l-0.2,1.6c-0.8-0.7-1.9-1.1-3.3-1.1     c-2.5,0-3.8,1.8-3.8,4.5c0,2.8,1.3,4.5,4,4.5c1,0,1.7-0.2,2.3-0.6v-3h-2.6l-0.2-1.4h4.4v5.4C60.9,360.3,59.5,360.7,58,360.7      M66.2,360.5V349h6.2v1.4h-4.6v3.3h3.6l0.2,1.4h-3.8v3.9h4.8v1.4L66.2,360.5 M85.7,350.5v10.1h-1.6v-10.1h-3.7V349h8.8l0.2,1.4     H85.7 M99.8,360.5v-5.3H94v5.3h-1.6V349H94v4.8h5.8V349h1.6v11.5L99.8,360.5 M105.9,360.5V349h6.2v1.4h-4.6v3.3h3.6l0.2,1.4h-3.8     v3.9h4.8v1.4L105.9,360.5 M132.2,360.5h-1.3l-3.1-9.3l-3.1,9.3h-1.3l-3.4-11.3l1.5-0.3l2.6,9.1l2.9-9h1.6l2.9,9l2.5-9h1.6     L132.2,360.5 M143.4,350.2c-2.3,0-3.7,1.8-3.7,4.5c0,2.8,1.4,4.5,3.7,4.5c2.3,0,3.7-1.8,3.7-4.5     C147.1,352,145.7,350.2,143.4,350.2L143.4,350.2z M143.4,360.7c-3.2,0-5.3-2.4-5.3-5.9c0-3.6,2.1-6,5.3-6c3.2,0,5.3,2.4,5.3,5.9     C148.7,358.3,146.6,360.7,143.4,360.7L143.4,360.7z M155.8,350.4h-1.5v3.9h1.3c1.5,0,2.5-0.7,2.5-2     C158.1,351.1,157.3,350.4,155.8,350.4L155.8,350.4z M160.6,360.3l-1.6,0.3l-3.5-5h-1.2v4.8h-1.6V349h3.1c2.3,0,3.8,1.2,3.8,3.3     c0,1.7-1,2.8-2.5,3.2L160.6,360.3L160.6,360.3z M164,360.5V349h1.6v10.1h4.1l0.2,1.4L164,360.5 M176.9,350.4h-1.8v8.7h1.8     c2.8,0,4.4-1.4,4.4-4.3C181.3,351.9,179.5,350.4,176.9,350.4L176.9,350.4z M176.8,360.5h-3.3V349h3.3c4,0,6,2.4,6,5.7     C182.9,358.2,180.7,360.5,176.8,360.5L176.8,360.5z M193.5,350.5v3.5h3.5l0.2,1.4h-3.7v5.1H192V349h6v1.4H193.5 M204.7,350.4     h-1.5v3.9h1.3c1.5,0,2.5-0.7,2.5-2C207.1,351.1,206.3,350.4,204.7,350.4L204.7,350.4z M209.5,360.3l-1.6,0.3l-3.5-5h-1.2v4.8     h-1.6V349h3.1c2.3,0,3.8,1.2,3.8,3.3c0,1.7-1,2.8-2.5,3.2L209.5,360.3L209.5,360.3z M217.4,350.2c-2.3,0-3.7,1.8-3.7,4.5     c0,2.8,1.4,4.5,3.7,4.5c2.3,0,3.7-1.8,3.7-4.5C221.1,352,219.7,350.2,217.4,350.2L217.4,350.2z M217.4,360.7     c-3.2,0-5.3-2.4-5.3-5.9c0-3.6,2.1-6,5.3-6c3.2,0,5.3,2.4,5.3,5.9C222.7,358.3,220.7,360.7,217.4,360.7L217.4,360.7z      M237.5,360.5l-0.7-9.1l-3.6,9.2H232l-3.6-9.2l-0.7,9.1h-1.5l0.9-11.5h1.9l3.6,9.4l3.6-9.4h1.9l0.9,11.5L237.5,360.5      M255.6,360.5v-5.3h-5.8v5.3h-1.6V349h1.6v4.8h5.8V349h1.6v11.5L255.6,360.5 M261.7,360.5V349h6.2v1.4h-4.6v3.3h3.6l0.2,1.4h-3.8     v3.9h4.8v1.4L261.7,360.5 M274.9,350.4h-1.5v3.9h1.3c1.5,0,2.5-0.7,2.5-2C277.2,351.1,276.4,350.4,274.9,350.4L274.9,350.4z      M279.6,360.3l-1.6,0.3l-3.5-5h-1.2v4.8h-1.6V349h3.1c2.3,0,3.8,1.2,3.8,3.3c0,1.7-1,2.8-2.5,3.2L279.6,360.3L279.6,360.3     L279.6,360.3z M283,360.5V349h6.2v1.4h-4.6v3.3h3.6l0.2,1.4h-3.8v3.9h4.8v1.4L283,360.5 M0.7,334h288.6v0.7H0.7L0.7,334L0.7,334z     " id="svg_134"/>
		</g>
		<g id="svg_135">
			<path id="Fill-13_6_" class="st6" d="M53.5,281.1c0,0-1-0.9-2.1,0.2c-1.1,1.1-0.2,2.1-0.2,2.1l9.1,9.1l-9.1,9.1     c0,0-0.9,1,0.2,2.1c1.1,1.1,2.1,0.2,2.1,0.2L65,292.5L53.5,281.1"/>
			<path id="Fill-14_6_" class="st6" d="M4.8,292.5l9.1-9.1c0,0,0.9-1-0.2-2.1c-1.1-1.1-2.1-0.2-2.1-0.2L0,292.5l0,0l0,0l11.4,11.4     c0,0,1,0.9,2.1-0.2c1.1-1.1,0.2-2.1,0.2-2.1L4.8,292.5"/>
			<path id="Fill-15_6_" class="st6" d="M43.7,311.4c-1.1-1.1-2.1-0.2-2.1-0.2l-9.1,9.1l-9.1-9.1c0,0-1-0.9-2.1,0.2     c-1.1,1.1-0.2,2.1-0.2,2.1L32.5,325l0,0l0,0l11.4-11.4C43.9,313.5,44.8,312.5,43.7,311.4"/>
			<path id="Fill-16_6_" class="st6" d="M43.9,271.4L32.5,260l0,0l0,0l-11.4,11.4c0,0-0.9,1,0.2,2.1c1.1,1.1,2.1,0.2,2.1,0.2     l9.1-9.1l9.1,9.1c0,0,1,0.9,2.1-0.2C44.8,272.5,43.9,271.4,43.9,271.4"/>
			<path id="Fill-17_6_" class="st6" d="M51.8,296.3c1-1.1,0.8-2.3,0.8-2.3H34v18.6c0,0,1.1,0.3,2.3-0.8c1.2-1.1,1.1-2.4,1.1-2.4     v-9.7l9.6,9.6c0,0,1,0.9,2.1-0.2c1.1-1.1,0.2-2.1,0.2-2.1l-9.6-9.6h9.7C49.5,297.4,50.8,297.5,51.8,296.3"/>
			<path id="Fill-18_6_" class="st6" d="M31,294H12.4c0,0-0.3,1.1,0.8,2.3c1.1,1.2,2.4,1.1,2.4,1.1h9.7l-9.6,9.6c0,0-0.9,1,0.2,2.1     c1.1,1.1,2.1,0.2,2.1,0.2l9.6-9.6v9.7c0,0-0.1,1.3,1.1,2.4c1.1,1,2.3,0.8,2.3,0.8L31,294"/>
			<path id="Fill-19_6_" class="st6" d="M28.7,273.1c-1.2,1.1-1.1,2.4-1.1,2.4v9.7l-9.6-9.6c0,0-1-0.9-2.1,0.2     c-1.1,1.1-0.2,2.1-0.2,2.1l9.6,9.6h-9.7c0,0-1.3-0.1-2.4,1.1c-1,1.1-0.8,2.3-0.8,2.3H31v-18.6C31,272.4,29.8,272.1,28.7,273.1"/>
			<path id="Fill-20_6_" class="st6" d="M51.8,288.7c-1.1-1.2-2.4-1.1-2.4-1.1h-9.7l9.6-9.6c0,0,0.9-1-0.2-2.1     c-1.1-1.1-2.1-0.2-2.1-0.2l-9.6,9.6v-9.7c0,0,0.1-1.3-1.1-2.4c-1.1-1-2.3-0.8-2.3-0.8V291h18.6C52.6,291,52.9,289.8,51.8,288.7"/>
		</g>
		<path class="st2" d="M350.1,100.1l-3.6,3.6l-3.6-3.6c-0.2-0.2-0.5-0.2-0.7,0l-2,2c-0.2,0.2-0.2,0.5,0,0.7l3.6,3.6l-3.6,3.6    c-0.2,0.2-0.2,0.5,0,0.7l2,2c0.2,0.2,0.5,0.2,0.7,0l3.6-3.6l3.6,3.6c0.2,0.2,0.5,0.2,0.7,0l2-2c0.2-0.2,0.2-0.5,0-0.7l-3.6-3.6    l3.6-3.6c0.2-0.2,0.2-0.5,0-0.7l-2-2C350.6,100,350.3,100,350.1,100.1L350.1,100.1z" id="svg_136"/>
		<path class="st16" d="M444.8,131c-2.7,0-4.8,2.2-4.8,4.8c0,2.4,1.7,4.3,3.9,4.7v1.8c0,0.5,0.4,0.9,0.9,0.9c0.2,0,0.5-0.1,0.6-0.3    l2.4-2.4h1.3c2.7,0,4.8-2.2,4.8-4.8c0-2.7-2.2-4.8-4.8-4.8H444.8L444.8,131z M430,131.8l-1.4-0.4c0,0,0-0.1,0-0.1    c0-0.7-0.6-1.3-1.3-1.3c-0.7,0-1.3,0.6-1.3,1.3c0,0,0,0.1,0,0.1l-1.4,0.4c-0.2,0-0.3,0.2-0.3,0.4l0,0.9c0,0.2,0.2,0.4,0.4,0.4h5.2    c0.2,0,0.4-0.2,0.4-0.4v-0.9C430.3,132,430.2,131.8,430,131.8L430,131.8z M427.2,132.2c-0.5,0-0.9-0.4-0.9-0.9s0.4-0.9,0.9-0.9    s0.9,0.4,0.9,0.9C428.1,131.8,427.7,132.2,427.2,132.2z M432.1,132.6h-0.9v0.4c0,0.7-0.6,1.3-1.3,1.3h-5.2c-0.7,0-1.3-0.6-1.3-1.3    v-0.4h-0.9c-0.2,0-0.4,0.2-0.4,0.4v10.5c0,0.2,0.2,0.4,0.4,0.4h9.6c0.2,0,0.4-0.2,0.4-0.4v-10.5    C432.5,132.8,432.3,132.6,432.1,132.6L432.1,132.6z M414,132h-10.5v1.8H414V132z M400.9,132c-0.5,0-0.9,0.4-0.9,0.9    s0.4,0.9,0.9,0.9s0.9-0.4,0.9-0.9S401.4,132,400.9,132z M400.9,135.5c-0.5,0-0.9,0.4-0.9,0.9s0.4,0.9,0.9,0.9s0.9-0.4,0.9-0.9    S401.4,135.5,400.9,135.5z M414,135.5h-10.5v1.8H414V135.5z M400.9,139c-0.5,0-0.9,0.4-0.9,0.9s0.4,0.9,0.9,0.9s0.9-0.4,0.9-0.9    S401.4,139,400.9,139z M414,139h-10.5v1.8H414V139z M487,130c-3.9,0-7,3.1-7,7s3.1,7,7,7s7-3.1,7-7S490.9,130,487,130z M487,135.5    c-0.8,0-1.5-0.7-1.5-1.5c0-0.8,0.7-1.5,1.5-1.5c0.8,0,1.5,0.7,1.5,1.5C488.5,134.8,487.8,135.5,487,135.5L487,135.5z M488.3,141    c0,0.2-0.2,0.4-0.4,0.4h-1.8c-0.2,0-0.4-0.2-0.4-0.4v-4.4c0-0.2,0.2-0.4,0.4-0.4h1.8c0.2,0,0.4,0.2,0.4,0.4V141L488.3,141z     M473.9,132.8l-2.6-2.6c-0.2-0.2-0.4-0.2-0.6,0l-1.2,1.2l3.2,3.2l1.2-1.2C474,133.2,474,132.9,473.9,132.8z M468.8,132l-8.2,8.2    c-0.1,0.1-0.1,0.1-0.1,0.2l-0.4,3.1c0,0.2,0.2,0.5,0.4,0.5c0,0,0,0,0.1,0l3.1-0.4c0.1,0,0.2-0.1,0.2-0.1l8.2-8.2L468.8,132    L468.8,132z M460.9,143.1l0.4-2.6l2.2,2.2L460.9,143.1L460.9,143.1z" id="svg_137"/>
		<path class="st2" d="M32.7,61h-10c-0.2,0-0.3,0.1-0.3,0.3v9.2c0,0.3-0.2,0.5-0.5,0.5c-0.3,0-0.5-0.2-0.5-0.5v-7.9h-1.1    c-0.1,0-0.3,0.1-0.3,0.3v7.9c0,0.9,0.7,1.6,1.6,1.6h9.8c0.9,0,1.6-0.7,1.6-1.6v-9.5C33,61.1,32.9,61,32.7,61z M31.4,65.9h-4.9    v-2.4h4.9V65.9z" id="svg_138"/>
		<g id="svg_139">
			<path class="st14" d="M483,217.7c0,0-0.8-0.7-1.7,0.2c-0.9,0.9-0.2,1.8-0.2,1.8l7.2,7.5l-7.2,7.5c0,0-0.7,0.8,0.2,1.8     c0.8,0.9,1.7,0.2,1.7,0.2l9-9.5L483,217.7 M444.7,227.2l7.2-7.5c0,0,0.7-0.8-0.2-1.8c-0.8-0.9-1.7-0.2-1.7-0.2l-9,9.5l0,0l0,0     l9,9.5c0,0,0.8,0.7,1.7-0.2c0.9-0.9,0.2-1.8,0.2-1.8L444.7,227.2 M475.2,243c-0.8-0.9-1.7-0.2-1.7-0.2l-7.2,7.5l-7.2-7.5     c0,0-0.8-0.7-1.7,0.2c-0.9,0.9-0.2,1.8-0.2,1.8l9,9.5l0,0l0,0l9-9.5C475.4,244.8,476.1,243.9,475.2,243 M475.4,209.5l-9-9.5l0,0     v0l-9,9.5c0,0-0.7,0.8,0.2,1.8c0.8,0.9,1.7,0.2,1.7,0.2l7.2-7.5l7.2,7.5c0,0,0.8,0.7,1.7-0.2     C476.1,210.4,475.4,209.5,475.4,209.5" id="svg_140"/>
			<path class="st14" d="M481.6,229.9c0.8-0.9,0.6-1.9,0.6-1.9h-14.7v15.4c0,0,0.9,0.2,1.8-0.6c0.9-0.9,0.9-2,0.9-2v-8.1l7.6,7.9     c0,0,0.8,0.7,1.7-0.2c0.9-0.9,0.2-1.8,0.2-1.8l-7.6-7.9h7.7C479.8,230.8,480.8,230.9,481.6,229.9 M465.2,228h-14.7     c0,0-0.2,1,0.6,1.9c0.9,1,1.9,0.9,1.9,0.9h7.7l-7.6,7.9c0,0-0.7,0.8,0.2,1.8c0.8,0.9,1.7,0.2,1.7,0.2l7.6-7.9v8.1     c0,0-0.1,1.1,0.9,2c0.9,0.9,1.8,0.6,1.8,0.6L465.2,228 M463.4,211.3c-0.9,0.9-0.9,2-0.9,2v8.1l-7.6-7.9c0,0-0.8-0.7-1.7,0.2     c-0.9,0.9-0.2,1.8-0.2,1.8l7.6,7.9l-7.7,0c0,0-1-0.1-1.9,0.9c-0.8,0.9-0.6,1.9-0.6,1.9h14.7v-15.4     C465.2,210.7,464.3,210.4,463.4,211.3 M479.7,223.3h-7.7l7.6-7.9c0,0,0.7-0.8-0.2-1.8c-0.8-0.9-1.7-0.2-1.7-0.2l-7.6,7.9v-8.1     c0,0,0.1-1.1-0.9-2c-0.9-0.9-1.8-0.6-1.8-0.6v15.4l14.7,0c0,0,0.2-1-0.6-1.9C480.8,223.2,479.7,223.3,479.7,223.3L479.7,223.3z" id="svg_141"/>
		</g>
		<path class="st17" d="M494,109c0-0.8-0.7-1.5-1.5-1.5h-5.7c1.1-0.4,1.8-0.7,2.5-1c0.5-0.2,1.7-0.8,1.7-2c0-1.6-2.9-4.5-4.5-4.5    c-1.1,0-2.3,1.2-4.5,3.7c-2.2-2.5-3.4-3.7-4.5-3.7c-1.6,0-4.5,2.9-4.5,4.5c0,1.2,1.2,1.8,1.7,2c0.7,0.3,1.4,0.6,2.5,1h-5.7    c-0.8,0-1.5,0.7-1.5,1.5v3h24V109z M471.5,122.5c0,0.8,0.7,1.5,1.5,1.5h18c0.8,0,1.5-0.7,1.5-1.5v-9h-21V122.5z" id="svg_142"/>
		<path class="st26" d="M395.9,65.1l-5-5c-0.1-0.1-0.2-0.1-0.4-0.1s-0.3,0-0.4,0.1c-0.6,0.6-0.7,1.6-0.3,2.3l-2.9,2.9    c-0.5-0.3-1.3-0.4-2.1-0.4c-1.1,0-2.3,0.5-2.3,1.1c0,0.1,0,0.3,0.1,0.4l2.8,2.8l-4.9,5.9l-0.5,1l1-0.5l5.9-4.9l2.8,2.8    c0.1,0.1,0.2,0.1,0.4,0.1c0.6,0,1.1-1.2,1.1-2.3c0-0.8-0.2-1.6-0.4-2.1l2.9-2.9c0.7,0.4,1.7,0.3,2.3-0.3c0.1-0.1,0.1-0.2,0.1-0.4    S396,65.2,395.9,65.1L395.9,65.1L395.9,65.1z" id="svg_143"/>
		<path class="st5" d="M461.4,65.2h-2.2v-4.4c0-0.5-0.4-0.9-0.9-0.9h-2.6c-0.5,0-0.9,0.4-0.9,0.9v4.4h-2.2c-0.5,0-0.9,0.4-0.9,0.9    c0,0.2,0.1,0.4,0.3,0.6l4.4,4.4c0.2,0.2,0.4,0.3,0.6,0.3s0.5-0.1,0.6-0.3l4.4-4.4c0.2-0.2,0.3-0.4,0.3-0.6    C462.2,65.6,461.8,65.2,461.4,65.2z M462.2,72.2h-10.5v-3.5H450v3.5c0,1,0.8,1.8,1.8,1.8h10.5c1,0,1.8-0.8,1.8-1.8v-3.5h-1.8V72.2    z" id="svg_144"/>
		<g id="svg_145">
			<path class="st2" d="M410.5,164c-0.8,0-1.5,0.7-1.5,1.5v15.1c0,0.8,0.7,1.5,1.5,1.5v-15.2c0-0.9,0.7-1.4,1.3-1.4h20.7     c0-0.8-0.7-1.5-1.5-1.5H410.5L410.5,164z" id="svg_146"/>
			<path class="st2" d="M434.5,167.6H414c-0.8,0-1.5,0.7-1.5,1.5v15.1c0,0.8,0.7,1.5,1.5,1.5h20.5c0.8,0,1.5-0.7,1.5-1.5v-15.1     C436,168.3,435.3,167.6,434.5,167.6L434.5,167.6z M430.1,170.7c1.6,0,2.9,1.4,2.9,3c0,1.7-1.3,3-2.9,3c-1.6,0-2.9-1.4-2.9-3     C427.2,172,428.5,170.7,430.1,170.7L430.1,170.7z M429.3,182.8h-14.4c0.2-0.4,5-10.2,5-10.2c0.1-0.2,0.3-0.4,0.6-0.4h0     c0.2,0,0.5,0.1,0.6,0.3l2.4,3.8l0.8-0.9c0.1-0.1,0.3-0.2,0.5-0.2c0,0,0.1,0,0.1,0c0.2,0,0.4,0.2,0.5,0.4     C425.6,175.6,429,181.9,429.3,182.8L429.3,182.8L429.3,182.8z" id="svg_147"/>
		</g>
		<g id="svg_148">
			<path class="st6" d="M38.7,215.2c0,0-0.7-0.6-1.5,0.2c-0.8,0.8-0.2,1.5-0.2,1.5l6.6,6.6L37,230c0,0-0.6,0.7,0.2,1.5     c0.8,0.8,1.5,0.2,1.5,0.2l8.3-8.3L38.7,215.2 M3.4,223.5l6.6-6.6c0,0,0.6-0.7-0.2-1.5c-0.8-0.8-1.5-0.2-1.5-0.2L0,223.5l0,0l0,0     l8.3,8.3c0,0,0.7,0.6,1.5-0.2c0.8-0.8,0.2-1.5,0.2-1.5L3.4,223.5 M31.6,237.2c-0.8-0.8-1.5-0.2-1.5-0.2l-6.6,6.6l-6.5-6.6     c0,0-0.7-0.6-1.5,0.2c-0.8,0.8-0.2,1.6-0.2,1.6l8.3,8.3l0,0l0,0l8.3-8.3C31.8,238.7,32.4,238,31.6,237.2 M31.8,208.3l-8.3-8.3v0     l0,0l-8.3,8.3c0,0-0.6,0.7,0.2,1.5c0.8,0.8,1.5,0.2,1.5,0.2l6.5-6.6L30,210c0,0,0.7,0.6,1.5-0.2C32.4,209,31.8,208.3,31.8,208.3" id="svg_149"/>
			<path class="st6" d="M37.5,226.3c0.7-0.8,0.6-1.6,0.6-1.6H24.6V238c0,0,0.8,0.2,1.6-0.6c0.9-0.8,0.8-1.7,0.8-1.7v-7l6.9,6.9     c0,0,0.7,0.6,1.5-0.2c0.8-0.8,0.2-1.6,0.2-1.6l-6.9-6.9h7C35.8,227,36.7,227.1,37.5,226.3 M22.4,224.6H8.9c0,0-0.2,0.8,0.6,1.6     c0.8,0.9,1.7,0.8,1.7,0.8h7l-6.9,6.9c0,0-0.6,0.7,0.2,1.5c0.8,0.8,1.5,0.2,1.5,0.2l6.9-6.9v7c0,0-0.1,0.9,0.8,1.7     c0.8,0.7,1.6,0.6,1.6,0.6L22.4,224.6 M20.7,209.5c-0.9,0.8-0.8,1.7-0.8,1.7v7l-6.9-6.9c0,0-0.7-0.6-1.6,0.2     c-0.8,0.8-0.2,1.5-0.2,1.5l6.9,6.9h-7c0,0-0.9-0.1-1.7,0.8c-0.7,0.8-0.6,1.6-0.6,1.6h13.4v-13.4     C22.4,208.9,21.5,208.8,20.7,209.5 M37.5,220.7c-0.8-0.9-1.7-0.8-1.7-0.8h-7l6.9-6.9c0,0,0.6-0.7-0.2-1.6     c-0.8-0.8-1.5-0.2-1.5-0.2l-6.9,6.9v-7c0,0,0.1-0.9-0.8-1.7c-0.8-0.7-1.6-0.6-1.6-0.6v13.4H38C38,222.4,38.2,221.6,37.5,220.7" id="svg_150"/>
		</g>
		<path class="st2" d="M428.1,283c-2.8,0-3.8-2-3.8-3.5v-4.2H423v-1.7c2-0.7,2.4-2.5,2.6-3.5c0-0.1,0.1-0.1,0.1-0.1h1.9v3.3h2.6v2    h-2.6v4c0,0.5,0.2,1.3,1.2,1.3c0,0,0,0,0.1,0c0.3,0,0.8-0.1,1-0.2l0.6,1.9C430.2,282.6,429.2,283,428.1,283L428.1,283 M440,276.5    c0,2.8,1.7,5.1,4.1,6.1c-0.1-0.5-0.1-1.3,0-1.9c0.1-0.5,0.8-3.2,0.8-3.2s-0.2-0.4-0.2-1c0-0.9,0.5-1.6,1.2-1.6    c0.6,0,0.8,0.4,0.8,0.9c0,0.6-0.4,1.4-0.5,2.2c-0.2,0.6,0.3,1.2,1,1.2c1.2,0,2-1.2,2-3c0-1.6-1.1-2.6-2.7-2.6    c-1.9,0-2.9,1.4-2.9,2.8c0,0.6,0.2,1.2,0.5,1.5c0.1,0.1,0.1,0.1,0,0.2c-0.1,0.2-0.2,0.6-0.2,0.7c0,0.1-0.1,0.1-0.2,0.1    c-0.8-0.4-1.3-1.6-1.3-2.5c0-2,1.5-3.9,4.3-3.9c2.3,0,4,1.6,4,3.8c0,2.2-1.4,4-3.4,4c-0.7,0-1.3-0.3-1.5-0.7l-0.4,1.5    c-0.1,0.6-0.5,1.3-0.8,1.7c0.6,0.2,1.3,0.3,1.9,0.3c3.6,0,6.5-2.9,6.5-6.5s-2.9-6.5-6.5-6.5S440,272.9,440,276.5L440,276.5z     M413,273.6c-0.1,1.3-0.9,3-2.6,5.2c-1.8,2.3-3.3,3.4-4.5,3.4c-0.8,0-1.4-0.7-1.9-2.1l-1-3.8c-0.4-1.4-0.8-2.1-1.2-2.1    c-0.1,0-0.4,0.2-1,0.6L400,274c0.6-0.6,1.3-1.1,1.9-1.7c0.9-0.7,1.5-1.1,1.9-1.2c1-0.1,1.6,0.6,1.9,2.1c0.3,1.6,0.4,2.6,0.5,3    c0.3,1.3,0.6,2,1,2c0.3,0,0.7-0.4,1.2-1.3c0.5-0.9,0.8-1.5,0.9-2c0.1-0.7-0.2-1.1-0.9-1.1c-0.3,0-0.6,0.1-1,0.2    c0.6-2.1,1.9-3.1,3.7-3.1C412.4,271,413.1,271.9,413,273.6 M441.6,309.2c-4.1,0-5.6-3-5.6-5.1v-6.3h-1.9v-2.5    c2.9-1,3.6-3.7,3.8-5.2c0-0.1,0.1-0.1,0.1-0.1h2.8v4.9h3.8v2.9h-3.9v6c0,0.8,0.3,1.9,1.8,1.9h0.1c0.5,0,1.2-0.2,1.5-0.3l0.9,2.7    c-0.3,0.5-1.9,1.1-3.3,1.1H441.6 M460,299.6c0,4.1,2.5,7.6,6.1,9c-0.1-0.8-0.2-1.9,0-2.8c0.2-0.8,1.1-4.8,1.1-4.8    s-0.3-0.6-0.3-1.4c0-1.3,0.8-2.3,1.7-2.3c0.8,0,1.2,0.6,1.2,1.4c0,0.8-0.5,2.1-0.8,3.2c-0.2,1,0.5,1.7,1.4,1.7c1.7,0,3-1.8,3-4.4    c0-2.3-1.7-3.9-4-3.9c-2.7,0-4.4,2.1-4.4,4.2c0,0.8,0.3,1.7,0.7,2.2c0.1,0.1,0.1,0.2,0.1,0.3c-0.1,0.3-0.2,1-0.3,1.1    c0,0.2-0.1,0.2-0.3,0.1c-1.2-0.6-2-2.3-2-3.7c0-3,2.2-5.8,6.4-5.8c3.3,0,5.9,2.4,5.9,5.6c0,3.3-2.1,6-5,6c-1,0-1.9-0.5-2.2-1.1    c0,0-0.5,1.8-0.6,2.3c-0.2,0.8-0.8,1.9-1.2,2.5c0.9,0.3,1.9,0.4,2.9,0.4c5.3,0,9.6-4.3,9.6-9.6c0-5.3-4.3-9.6-9.6-9.6    C464.3,290,460,294.3,460,299.6L460,299.6z M419.2,295.3c-0.1,1.9-1.4,4.4-3.9,7.7c-2.6,3.4-4.8,5.1-6.6,5.1c-1.1,0-2.1-1-2.9-3.1    l-1.6-5.7c-0.6-2.1-1.2-3.1-1.9-3.1c-0.1,0-0.6,0.3-1.5,0.9L400,296c1-0.8,1.9-1.7,2.8-2.5c1.3-1.1,2.2-1.7,2.9-1.7    c1.5-0.1,2.4,0.9,2.8,3.1c0.4,2.4,0.6,3.8,0.8,4.4c0.4,2,0.9,2.9,1.4,2.9c0.4,0,1-0.6,1.8-1.9c0.8-1.3,1.2-2.2,1.3-2.9    c0.1-1.1-0.3-1.6-1.3-1.6c-0.5,0-0.9,0.1-1.4,0.3c0.9-3.1,2.8-4.6,5.4-4.5C418.4,291.5,419.4,292.8,419.2,295.3" id="svg_151"/>
		<g id="svg_152">
			<g id="svg_153">
				<path class="st2" d="M428.2,73.1v3.4h-5.4v-0.7h-3.6V78h4.1v2.2h-4.1v2.7l1.5,0.6v2.9l-9.3-3.7v-2.9l1.6,0.6v-4.6h-1.6v-2.6      H428.2z" id="svg_154"/>
			</g>
			<g id="svg_155">
				<path class="st2" d="M427.3,64.3h-5.8v-0.6h-3.8v1.9h6.8c1.1,0,2,0.2,2.7,0.5c0.7,0.3,1,0.8,1,1.2v2.8c0,0.5-0.4,0.8-1.1,1.2      c-0.8,0.3-1.7,0.5-2.7,0.5h-13v-3h6.4v0.7h3.8v-1.9H415c-1.2,0-2.1-0.2-2.9-0.6s-1.1-0.8-1.1-1.3V63c0-0.5,0.5-0.8,1.4-1.1      c0.9-0.3,1.9-0.4,3.1-0.4h11.9L427.3,64.3L427.3,64.3z" id="svg_156"/>
			</g>
			<path class="st27" d="M432,61.2c0,0-1.3,0-1.3,1.2c0,3.8,0,15.6,0,17.4c0,1.9-0.4,4.2-2.8,5.3c-3.9,1.8-7.1,3.5-8.3,3.5     c-1.2,0-4.5-1.6-8.3-3.5c-2.4-1.1-2.8-3.4-2.8-5.3c0-1.7,0-13.6,0-17.4c0-1.2-1.3-1.2-1.3-1.2h-5.9v5.2h1.1c0,0,1.1-0.1,1,0.9     c0,0.8,0,12,0,12c-0.1,3.5,0.7,8.3,7.4,10.8c5.2,2,7.4,3.4,8.8,3.4c1.4,0,3.6-1.4,8.8-3.4c6.7-2.5,7.5-7.3,7.4-10.8     c0,0,0-11.2,0-12c0-1.1,1-0.9,1-0.9h1.1v-5.2L432,61.2z" id="svg_157"/>
		</g>
		<g id="svg_158">
			<g id="svg_159">
				<g id="svg_160">
					<g id="svg_161">
						<path class="st28" d="M45.8,18.6c0,0-0.9-0.7-1.8,0.2c-0.9,0.9-0.2,1.7-0.2,1.7l7.6,7.3L43.8,35c0,0-0.7,0.8,0.2,1.7        c0.9,0.9,1.8,0.2,1.8,0.2l9.6-9.2L45.8,18.6z" id="svg_162"/>
						<path class="st28" d="M5,27.7l7.6-7.3c0,0,0.7-0.8-0.2-1.7c-0.9-0.9-1.8-0.2-1.8-0.2L1,27.7l0,0l0,0l9.6,9.1        c0,0,0.9,0.7,1.8-0.2c0.9-0.9,0.2-1.7,0.2-1.7L5,27.7z" id="svg_163"/>
					</g>
					<g id="svg_164">
						<path class="st28" d="M37.5,42.9c-0.9-0.9-1.8-0.2-1.8-0.2l-7.6,7.3l-7.6-7.3c0,0-0.9-0.7-1.8,0.2c-0.9,0.9-0.2,1.7-0.2,1.7        l9.5,9.2l0,0l0,0l9.6-9.2C37.7,44.6,38.5,43.8,37.5,42.9z" id="svg_165"/>
						<path class="st28" d="M37.7,10.9l-9.6-9.2l0,0l0,0l-9.6,9.2c0,0-0.7,0.8,0.2,1.7c0.9,0.9,1.8,0.2,1.8,0.2l7.6-7.3l7.6,7.3        c0,0,0.9,0.7,1.8-0.2C38.5,11.7,37.7,10.9,37.7,10.9z" id="svg_166"/>
					</g>
				</g>
				<g id="svg_167">
					<path class="st28" d="M44.4,30.8C45.2,29.9,45,29,45,29H29.5v14.9c0,0,1,0.2,1.9-0.6c1-0.9,0.9-1.9,0.9-1.9v-7.8l8,7.7       c0,0,0.9,0.7,1.8-0.2c0.9-0.9,0.2-1.7,0.2-1.7l-8-7.7h8.1C42.4,31.7,43.5,31.7,44.4,30.8z" id="svg_168"/>
					<path class="st28" d="M26.9,29H11.4c0,0-0.2,0.9,0.6,1.8c0.9,0.9,2,0.9,2,0.9h8.1l-8,7.7c0,0-0.7,0.8,0.2,1.7       c0.9,0.9,1.8,0.2,1.8,0.2l8-7.7v7.8c0,0-0.1,1,0.9,1.9c0.9,0.8,1.9,0.6,1.9,0.6V29z" id="svg_169"/>
					<path class="st28" d="M25,12.2c-1,0.9-0.9,1.9-0.9,1.9v7.8l-8-7.7c0,0-0.9-0.7-1.8,0.2c-0.9,0.9-0.2,1.7-0.2,1.7l8,7.7l-8.1,0       c0,0-1.1-0.1-2,0.9c-0.9,0.9-0.6,1.8-0.6,1.8h15.5V11.6C26.9,11.6,25.9,11.4,25,12.2z" id="svg_170"/>
					<path class="st28" d="M44.4,24.7c-0.9-0.9-2-0.9-2-0.9h-8.1l8-7.7c0,0,0.7-0.8-0.2-1.7c-0.9-0.9-1.8-0.2-1.8-0.2l-8,7.7v-7.8       c0,0,0.1-1-0.9-1.9c-0.9-0.8-1.9-0.6-1.9-0.6v14.9l15.5,0C45,26.5,45.2,25.6,44.4,24.7z" id="svg_171"/>
				</g>
			</g>
			<g id="svg_172">
				<g id="svg_173">
					<path class="st2" d="M69.6,21.6c-4.3,0-6.9-2.6-6.9-6.8V4.3h2.4v10.3c0,3,1.4,4.9,4.5,4.9c3,0,4.5-1.8,4.5-4.9V4.3h2.4v10.5       C76.6,19,73.9,21.6,69.6,21.6z" id="svg_174"/>
					<path class="st2" d="M95.6,21.3L85.8,8v13.3h-2.2v-17h2.2L95.1,17V4.3h2.2v17H95.6z" id="svg_175"/>
					<path class="st2" d="M104.8,21.3v-17h2.4v17H104.8z" id="svg_176"/>
					<path class="st2" d="M121.6,21.4h-2.2l-6.9-16.8l2.4-0.5l5.5,14.2l5.4-14h2.6L121.6,21.4z" id="svg_177"/>
					<path class="st2" d="M133.9,21.3v-17h9.6v2.1h-7.2v4.9h5.6l0.4,2.1h-5.9v5.7h7.4v2.1H133.9z" id="svg_178"/>
					<path class="st2" d="M162.1,21l-2.5,0.5l-5.4-7.4h-1.8v7.2h-2.4v-17h4.8c3.6,0,5.9,1.7,5.9,4.8c0,2.6-1.6,4.1-3.9,4.7L162.1,21       z M154.7,6.3h-2.3v5.9h2.1c2.3,0,3.8-1,3.8-2.9C158.3,7.4,157.1,6.3,154.7,6.3z" id="svg_179"/>
					<path class="st2" d="M171.7,21.5c-1.9,0-3.7-0.4-5-1.1l0.4-2.4c1.2,0.8,2.9,1.5,4.7,1.5c1.9,0,3.2-0.9,3.2-2.6       c0-1.6-0.7-2.2-3.4-3.4c-3.4-1.5-4.6-2.5-4.6-5c0-2.7,2.2-4.5,5.4-4.5c1.7,0,3,0.4,4.1,1L176,7.3c-1-0.7-2.3-1.3-3.7-1.3       c-2,0-2.9,1-2.9,2.3c0,1.3,0.7,1.9,3.4,3.1c3.5,1.5,4.6,2.6,4.6,5.2C177.3,19.6,175,21.5,171.7,21.5z" id="svg_180"/>
					<path class="st2" d="M183.7,21.3v-17h2.4v17H183.7z" id="svg_181"/>
					<path class="st2" d="M199.6,6.4v14.9h-2.4V6.4h-5.7V4.3H205l0.4,2.1H199.6z" id="svg_182"/>
					<path class="st2" d="M216.7,14.5v6.8h-2.4v-6.8l-6.3-10l2.4-0.5l5.1,8.3l5-8.2h2.7L216.7,14.5z" id="svg_183"/>
					<path class="st2" d="M241.4,21.6c-5,0-8.2-3.6-8.2-8.8c0-5.3,3.2-8.9,8.2-8.9c5,0,8.2,3.6,8.2,8.8       C249.6,18,246.4,21.6,241.4,21.6z M241.4,6.1c-3.5,0-5.7,2.6-5.7,6.7c0,4.1,2.2,6.7,5.7,6.7c3.5,0,5.7-2.6,5.7-6.7       C247.1,8.7,244.9,6.1,241.4,6.1z" id="svg_184"/>
					<path class="st2" d="M258,6.4v5.2h5.4l0.4,2.1H258v7.6h-2.4v-17h9.3v2.1H258z" id="svg_185"/>
					<path class="st2" d="M280.9,21.5c-1.9,0-3.7-0.4-5-1.1l0.4-2.4c1.2,0.8,2.9,1.5,4.7,1.5c1.9,0,3.2-0.9,3.2-2.6       c0-1.6-0.7-2.2-3.4-3.4c-3.4-1.5-4.6-2.5-4.6-5c0-2.7,2.2-4.5,5.4-4.5c1.7,0,3,0.4,4,1l-0.4,2.3c-1-0.7-2.3-1.3-3.7-1.3       c-2,0-2.9,1-2.9,2.3c0,1.3,0.7,1.9,3.4,3.1c3.5,1.5,4.6,2.6,4.6,5.2C286.6,19.6,284.3,21.5,280.9,21.5z" id="svg_186"/>
					<path class="st2" d="M304.3,21.5l-2.1-5.3h-7.4l-2,5.1h-2.5l7-17.1h2.4l6.9,16.8L304.3,21.5z M298.5,6.9l-2.8,7.2h5.7       L298.5,6.9z" id="svg_187"/>
					<path class="st2" d="M323.5,21.3L313.7,8v13.3h-2.2v-17h2.2l9.4,12.8V4.3h2.2v17H323.5z" id="svg_188"/>
					<path class="st2" d="M342.5,6.4v5.2h5.4l0.4,2.1h-5.7v7.6H340v-17h9.3v2.1H342.5z" id="svg_189"/>
					<path class="st2" d="M367.5,21l-2.5,0.5l-5.4-7.4h-1.8v7.2h-2.4v-17h4.8c3.6,0,5.9,1.7,5.9,4.8c0,2.6-1.6,4.1-3.9,4.7L367.5,21       z M360.1,6.3h-2.3v5.9h2.1c2.3,0,3.8-1,3.8-2.9C363.7,7.4,362.5,6.3,360.1,6.3z" id="svg_190"/>
					<path class="st2" d="M385,21.5l-2.1-5.3h-7.4l-2,5.1h-2.5l7-17.1h2.4l6.9,16.8L385,21.5z M379.2,6.9l-2.8,7.2h5.7L379.2,6.9z" id="svg_191"/>
					<path class="st2" d="M404.7,21.3L394.9,8v13.3h-2.2v-17h2.2l9.4,12.8V4.3h2.2v17H404.7z" id="svg_192"/>
					<path class="st2" d="M420.8,21.6c-5,0-8.2-3.6-8.2-8.8c0-5.3,3.3-8.9,8.3-8.9c2.1,0,3.7,0.5,5.1,1.4l-0.4,2.4       c-1.3-0.9-2.8-1.7-4.7-1.7c-3.6,0-5.8,2.6-5.8,6.7c0,4.1,2.2,6.7,5.8,6.7c1.9,0,3.6-0.7,5-1.7l0.4,2.2       C424.8,20.9,422.8,21.6,420.8,21.6z" id="svg_193"/>
					<path class="st2" d="M431.9,21.3v-17h2.4v17H431.9z" id="svg_194"/>
					<path class="st2" d="M445,21.5c-1.9,0-3.7-0.4-5-1.1l0.4-2.4c1.2,0.8,2.9,1.5,4.7,1.5c1.9,0,3.2-0.9,3.2-2.6       c0-1.6-0.7-2.2-3.4-3.4c-3.4-1.5-4.6-2.5-4.6-5c0-2.7,2.2-4.5,5.4-4.5c1.7,0,3,0.4,4.1,1l-0.4,2.3c-1-0.7-2.3-1.3-3.7-1.3       c-2,0-2.9,1-2.9,2.3c0,1.3,0.7,1.9,3.4,3.1c3.5,1.5,4.6,2.6,4.6,5.2C450.7,19.6,448.4,21.5,445,21.5z" id="svg_195"/>
					<path class="st2" d="M463.2,21.6c-5,0-8.2-3.6-8.2-8.8c0-5.3,3.3-8.9,8.3-8.9c2.1,0,3.7,0.5,5.1,1.4L468,7.7       c-1.3-0.9-2.8-1.7-4.7-1.7c-3.6,0-5.8,2.6-5.8,6.7c0,4.1,2.2,6.7,5.8,6.7c1.9,0,3.6-0.7,5-1.7l0.4,2.2       C467.3,20.9,465.3,21.6,463.2,21.6z" id="svg_196"/>
					<path class="st2" d="M480.3,21.6c-5,0-8.2-3.6-8.2-8.8c0-5.3,3.2-8.9,8.2-8.9c5,0,8.2,3.6,8.2,8.8       C488.6,18,485.4,21.6,480.3,21.6z M480.4,6.1c-3.5,0-5.7,2.6-5.7,6.7c0,4.1,2.2,6.7,5.7,6.7c3.5,0,5.7-2.6,5.7-6.7       C486.1,8.7,483.9,6.1,480.4,6.1z" id="svg_197"/>
				</g>
				<g id="svg_198">
					<path class="st2" d="M68.7,51.8c-3.7,0-6-2.6-6-6.5c0-3.9,2.4-6.5,6.1-6.5c1.5,0,2.7,0.4,3.7,1l-0.3,1.7       c-0.9-0.7-2.1-1.2-3.5-1.2c-2.6,0-4.2,1.9-4.2,4.9c0,3,1.6,4.9,4.2,4.9c1.4,0,2.6-0.5,3.7-1.2l0.3,1.6       C71.6,51.3,70.2,51.8,68.7,51.8z" id="svg_199"/>
					<path class="st2" d="M89.5,51.5v-5.8h-6.6v5.8h-1.8V39h1.8v5.2h6.6V39h1.8v12.5H89.5z" id="svg_200"/>
					<path class="st2" d="M108.9,51.7l-1.5-3.9H102l-1.5,3.7h-1.8l5.1-12.5h1.8l5,12.3L108.9,51.7z M104.7,41l-2.1,5.3h4.2L104.7,41       z" id="svg_201"/>
					<path class="st2" d="M127,51.5l-7.2-9.7v9.7h-1.6V39h1.6l6.9,9.4V39h1.6v12.5H127z" id="svg_202"/>
					<path class="st2" d="M143,51.8c-4.1,0-6.3-2.6-6.3-6.5c0-3.9,2.3-6.5,6.2-6.5c1.7,0,2.9,0.4,4,1.1l-0.3,1.7       c-1-0.7-2.2-1.2-3.7-1.2c-2.9,0-4.3,1.9-4.3,4.9c0,3,1.5,4.9,4.5,4.9c1.1,0,1.9-0.2,2.6-0.6v-3.3h-3l-0.2-1.6h5v5.8       C146.3,51.2,144.8,51.8,143,51.8z" id="svg_203"/>
					<path class="st2" d="M156.3,51.5V39h7v1.6H158v3.6h4.1l0.3,1.6H158V50h5.4v1.6H156.3z" id="svg_204"/>
					<path class="st2" d="M186.2,40.6v10.9h-1.8V40.6h-4.2V39h9.9l0.3,1.6H186.2z" id="svg_205"/>
					<path class="st2" d="M206.1,51.5v-5.8h-6.6v5.8h-1.8V39h1.8v5.2h6.6V39h1.8v12.5H206.1z" id="svg_206"/>
					<path class="st2" d="M217.2,51.5V39h7v1.6h-5.3v3.6h4.1l0.3,1.6h-4.3V50h5.4v1.6H217.2z" id="svg_207"/>
					<path class="st2" d="M254.5,51.5H253l-3.5-10.1l-3.5,10.1h-1.5l-3.9-12.3l1.7-0.4l2.9,9.9l3.3-9.8h1.8l3.3,9.8l2.9-9.8h1.8       L254.5,51.5z" id="svg_208"/>
					<path class="st2" d="M271.1,51.8c-3.7,0-6-2.6-6-6.5c0-3.9,2.4-6.5,6-6.5c3.7,0,6,2.6,6,6.5C277.1,49.1,274.8,51.8,271.1,51.8z        M271.1,40.4c-2.6,0-4.2,1.9-4.2,4.9c0,3,1.6,4.9,4.2,4.9c2.6,0,4.2-1.9,4.2-4.9C275.3,42.3,273.7,40.4,271.1,40.4z" id="svg_209"/>
					<path class="st2" d="M294.5,51.3l-1.8,0.4l-4-5.4h-1.3v5.3h-1.8V39h3.6c2.7,0,4.3,1.3,4.3,3.5c0,1.9-1.2,3-2.9,3.5L294.5,51.3z        M289.1,40.5h-1.7v4.3h1.5c1.7,0,2.8-0.7,2.8-2.2C291.7,41.3,290.8,40.5,289.1,40.5z" id="svg_210"/>
					<path class="st2" d="M302.3,51.5V39h1.8V50h4.7l0.2,1.6H302.3z" id="svg_211"/>
					<path class="st2" d="M320.8,51.5H317V39h3.8c4.5,0,6.9,2.6,6.9,6.2C327.7,49,325.2,51.5,320.8,51.5z M320.9,40.6h-2.1V50h2       c3.1,0,5-1.5,5-4.7C325.9,42.2,323.9,40.6,320.9,40.6z" id="svg_212"/>
					<path class="st2" d="M347.5,40.6v3.8h3.9l0.3,1.6h-4.2v5.6h-1.8V39h6.8v1.6H347.5z" id="svg_213"/>
					<path class="st2" d="M369.6,51.3l-1.8,0.4l-4-5.4h-1.3v5.3h-1.8V39h3.6c2.7,0,4.3,1.3,4.3,3.5c0,1.9-1.2,3-2.9,3.5L369.6,51.3z        M364.1,40.5h-1.7v4.3h1.5c1.7,0,2.8-0.7,2.8-2.2C366.8,41.3,365.9,40.5,364.1,40.5z" id="svg_214"/>
					<path class="st2" d="M382.6,51.8c-3.7,0-6-2.6-6-6.5c0-3.9,2.4-6.5,6-6.5c3.7,0,6,2.6,6,6.5C388.6,49.1,386.3,51.8,382.6,51.8z        M382.6,40.4c-2.6,0-4.2,1.9-4.2,4.9c0,3,1.6,4.9,4.2,4.9c2.6,0,4.2-1.9,4.2-4.9C386.8,42.3,385.2,40.4,382.6,40.4z" id="svg_215"/>
					<path class="st2" d="M409.6,51.5l-0.8-9.9l-4.1,10h-1.3l-4.1-10l-0.8,9.9h-1.7l1-12.5h2.2l4.1,10.2l4.1-10.2h2.2l1,12.5H409.6z       " id="svg_216"/>
					<path class="st2" d="M437.9,51.5v-5.8h-6.6v5.8h-1.8V39h1.8v5.2h6.6V39h1.8v12.5H437.9z" id="svg_217"/>
					<path class="st2" d="M448.9,51.5V39h7v1.6h-5.3v3.6h4.1l0.3,1.6h-4.3V50h5.4v1.6H448.9z" id="svg_218"/>
					<path class="st2" d="M473.3,51.3l-1.8,0.4l-4-5.4h-1.3v5.3h-1.8V39h3.6c2.7,0,4.3,1.3,4.3,3.5c0,1.9-1.2,3-2.9,3.5L473.3,51.3z        M467.9,40.5h-1.7v4.3h1.5c1.7,0,2.8-0.7,2.8-2.2C470.5,41.3,469.7,40.5,467.9,40.5z" id="svg_219"/>
					<path class="st2" d="M481.2,51.5V39h7v1.6H483v3.6h4.1l0.3,1.6H483V50h5.4v1.6H481.2z" id="svg_220"/>
				</g>
				<rect x="62.70000076293945" y="29.799999237060547" class="st2" width="425.70001220703125" height="0.699999988079071" id="svg_221"/>
			</g>
		</g>
		<g id="svg_222">
			<path class="st14" d="M428.5,214.3c0,0-0.4-0.4-0.9,0.1c-0.5,0.5-0.1,1-0.1,1l3.9,4.1l-3.9,4.1c0,0-0.4,0.5,0.1,1     c0.5,0.5,0.9,0.1,0.9,0.1l4.9-5.2L428.5,214.3 M407.8,219.4l3.9-4.1c0,0,0.4-0.5-0.1-1c-0.5-0.5-0.9-0.1-0.9-0.1l-4.9,5.2l0,0     l0,0l4.9,5.2c0,0,0.4,0.4,0.9-0.1c0.5-0.5,0.1-1,0.1-1L407.8,219.4 M424.3,228c-0.5-0.5-0.9-0.1-0.9-0.1l-3.9,4.1l-3.9-4.1     c0,0-0.4-0.4-0.9,0.1c-0.5,0.5-0.1,1-0.1,1l4.9,5.2l0,0l0,0l4.9-5.2C424.4,229,424.8,228.5,424.3,228 M424.4,209.8l-4.9-5.2l0,0     v0l-4.9,5.2c0,0-0.4,0.5,0.1,1c0.5,0.5,0.9,0.1,0.9,0.1l3.9-4.1l3.9,4.1c0,0,0.4,0.4,0.9-0.1     C424.8,210.3,424.4,209.8,424.4,209.8" id="svg_223"/>
			<path class="st14" d="M427.8,220.9c0.4-0.5,0.3-1,0.3-1h-8v8.4c0,0,0.5,0.1,1-0.4c0.5-0.5,0.5-1.1,0.5-1.1v-4.4l4.1,4.3     c0,0,0.4,0.4,0.9-0.1c0.5-0.5,0.1-1,0.1-1l-4.1-4.3h4.2C426.8,221.4,427.3,221.5,427.8,220.9 M418.9,219.9h-8c0,0-0.1,0.5,0.3,1     c0.5,0.5,1,0.5,1,0.5h4.2l-4.1,4.3c0,0-0.4,0.5,0.1,1c0.5,0.5,0.9,0.1,0.9,0.1l4.1-4.3v4.4c0,0,0,0.6,0.5,1.1     c0.5,0.5,1,0.4,1,0.4V219.9 M417.9,210.8c-0.5,0.5-0.5,1.1-0.5,1.1v4.4l-4.1-4.3c0,0-0.4-0.4-0.9,0.1c-0.5,0.5-0.1,1-0.1,1     l4.1,4.3l-4.2,0c0,0-0.5,0-1,0.5c-0.4,0.5-0.3,1-0.3,1h8v-8.4C418.9,210.5,418.4,210.4,417.9,210.8 M426.8,217.3h-4.2l4.1-4.3     c0,0,0.4-0.5-0.1-1c-0.5-0.5-0.9-0.1-0.9-0.1l-4.1,4.3v-4.4c0,0,0-0.6-0.5-1.1c-0.5-0.5-1-0.4-1-0.4v8.4l8,0c0,0,0.1-0.5-0.3-1     C427.3,217.3,426.8,217.3,426.8,217.3L426.8,217.3z" id="svg_224"/>
		</g>
	</g>
	<g id="svg_225">
		<g id="svg_226">
			<path class="st6" d="M406.4,333.2c0,0-0.6-0.5-1.2,0.1c-0.6,0.6-0.1,1.2-0.1,1.2l4.9,4.9l-4.9,4.9c0,0-0.5,0.6,0.1,1.2     c0.6,0.6,1.2,0.1,1.2,0.1l6.2-6.2L406.4,333.2z" id="svg_227"/>
			<path class="st6" d="M379.9,339.4l4.9-4.9c0,0,0.5-0.6-0.1-1.2c-0.6-0.6-1.2-0.1-1.2-0.1l-6.2,6.2l0,0l0,0l6.2,6.2     c0,0,0.6,0.5,1.2-0.1c0.6-0.6,0.1-1.2,0.1-1.2L379.9,339.4z" id="svg_228"/>
		</g>
		<path class="st6" d="M401.1,349.7c-0.6-0.6-1.2-0.1-1.2-0.1l-4.9,4.9l-4.9-4.9c0,0-0.6-0.5-1.2,0.1c-0.6,0.6-0.1,1.2-0.1,1.2    l6.2,6.2l0,0l0,0l6.2-6.2C401.2,350.9,401.7,350.3,401.1,349.7z" id="svg_229"/>
		<path class="st6" d="M401.2,328l-6.2-6.2l0,0l0,0l-6.2,6.2c0,0-0.5,0.6,0.1,1.2c0.6,0.6,1.2,0.1,1.2,0.1l4.9-4.9l4.9,4.9    c0,0,0.6,0.5,1.2-0.1C401.7,328.6,401.2,328,401.2,328z" id="svg_230"/>
		<path class="st6" d="M405.5,341.5c0.6-0.6,0.4-1.2,0.4-1.2h-10.1v10.1c0,0,0.6,0.1,1.2-0.4c0.6-0.6,0.6-1.3,0.6-1.3v-5.3l5.2,5.2    c0,0,0.6,0.5,1.2-0.1c0.6-0.6,0.1-1.2,0.1-1.2l-5.2-5.2h5.3C404.2,342.1,404.9,342.1,405.5,341.5z" id="svg_231"/>
		<path class="st6" d="M394.2,340.3h-10.1c0,0-0.1,0.6,0.4,1.2c0.6,0.6,1.3,0.6,1.3,0.6h5.3l-5.2,5.2c0,0-0.5,0.6,0.1,1.2    c0.6,0.6,1.2,0.1,1.2,0.1l5.2-5.2v5.3c0,0,0,0.7,0.6,1.3c0.6,0.6,1.2,0.4,1.2,0.4V340.3z" id="svg_232"/>
		<path class="st6" d="M392.9,328.9c-0.6,0.6-0.6,1.3-0.6,1.3v5.3l-5.2-5.2c0,0-0.6-0.5-1.2,0.1c-0.6,0.6-0.1,1.2-0.1,1.2l5.2,5.2    l-5.3,0c0,0-0.7,0-1.3,0.6c-0.6,0.6-0.4,1.2-0.4,1.2h10.1v-10.1C394.2,328.5,393.5,328.4,392.9,328.9z" id="svg_233"/>
		<path class="st6" d="M405.5,337.4c-0.6-0.6-1.3-0.6-1.3-0.6H399l5.2-5.2c0,0,0.5-0.6-0.1-1.2c-0.6-0.6-1.2-0.1-1.2-0.1l-5.2,5.2    l0-5.3c0,0,0-0.7-0.6-1.3c-0.6-0.6-1.2-0.4-1.2-0.4v10.1l10.1,0C405.9,338.6,406.1,338,405.5,337.4z" id="svg_234"/>
	</g>
	<g id="svg_235">
		<g id="svg_236">
			<path class="st2" d="M454.1,348.3c-4.4,0-7.1-2.8-7.1-7.3v-11.4h2.6v11c0,3.3,1.6,5.2,4.5,5.2c3,0,4.6-1.8,4.6-5.1v-11.1h2.6     v11.2C461.2,345.5,458.5,348.3,454.1,348.3z" id="svg_237"/>
		</g>
		<g id="svg_238">
			<path class="st2" d="M468.5,348.2c-1.8,0-3.7-0.4-5.1-1.2l0,0l0.4-2.7l0.1,0.1c0.9,0.6,2.6,1.5,4.7,1.5c1.9,0,3.2-1,3.2-2.7     c0-1.6-0.6-2.2-3.4-3.5c-3.3-1.5-4.8-2.6-4.8-5.4c0-2.9,2.3-4.9,5.6-4.9c1.6,0,3,0.3,4.2,1l0,0l-0.4,2.7l-0.1-0.1     c-1.1-0.8-2.5-1.3-3.8-1.3c-1.8,0-2.9,0.9-2.9,2.4c0,1.4,0.7,2,3.4,3.2c3.7,1.7,4.8,2.9,4.8,5.6     C474.3,346.1,472,348.2,468.5,348.2z" id="svg_239"/>
		</g>
		<g id="svg_240">
			<path class="st2" d="M479.8,348h-2.6v-18.3h9.6v2.4h-7v5.4h5.5l0.4,2.4h-5.9V348z" id="svg_241"/>
		</g>
		<path class="st2" d="M431.3,347.7v-7.1c0-1.1-0.4-1.8-1.5-1.8c-1,0-2,0.7-3,1.7v7.2h-2v-7.1c0-1.1-0.4-1.8-1.5-1.8    c-1,0-2,0.7-3,1.7v7.2h-2v-10.5h1.6l0.2,1.5c1-0.9,2.2-1.7,3.6-1.7c1.5,0,2.4,0.7,2.8,1.7c0.9-0.9,2.2-1.7,3.7-1.7    c2,0,3,1.2,3,3.1v7.6H431.3z" id="svg_242"/>
		<path class="st2" d="M440.3,348.8c-0.9,2.3-2,2.9-3.5,2.9c-0.4,0-0.6,0-0.8-0.1l-0.3-1.8c0.3,0.1,0.7,0.2,1,0.2    c0.9,0,1.5-0.4,1.9-1.5l0.3-0.7l-3.8-10.4l2-0.3l2.8,8.3l2.7-8.1h2L440.3,348.8z" id="svg_243"/>
	</g>
</g>

<g class="currentLayer" style=""><title>Layer 1</title><g id="Layer_2" class="st0">
	<rect class="st1" width="616" height="362" id="svg_244"/>
</g><g id="Layer_6">
	<g id="svg_245">
		<g id="svg_246">
			
				<rect x="549.5999755859375" y="266.8999938964844" transform="matrix(1.769944e-7,-1,1,1.769944e-7,278.8991,824.3968) " class="st2" width="4.099999904632568" height="11.699999809265137" id="svg_247"/>
			
				<rect x="547.7999877929688" y="260" transform="matrix(0.7071,-0.7071,0.7071,0.7071,-27.8449,467.0219) " class="st2" width="4.099999904632568" height="14.100000381469727" id="svg_248"/>
			<rect x="553.4000244140625" y="263.1000061035156" class="st2" width="4.099999904632568" height="11.699999809265137" id="svg_249"/>
		</g>
		<g id="svg_250">
			
				<rect x="532.7999877929688" y="242.89999389648438" transform="matrix(-0.00001403772,1,-1,-0.00001403772,783.6412,-286.1354) " class="st2" width="4.099999904632568" height="11.699999809265137" id="svg_251"/>
			
				<rect x="534.5999755859375" y="247.3000030517578" transform="matrix(-0.7071,0.7071,-0.7071,-0.7071,1096.0951,54.7353) " class="st2" width="4.099999904632568" height="14.100000381469727" id="svg_252"/>
			
				<rect x="529" y="246.6999969482422" transform="matrix(-1,0.000004770963,-0.000004770963,-1,1062.1727,505.0932) " class="st2" width="4.099999904632568" height="11.699999809265137" id="svg_253"/>
		</g>
	</g>
	<g id="svg_254">
		<g id="svg_255">
			
				<rect x="587.7000122070312" y="257.79998779296875" transform="matrix(-0.00001403772,1,-1,-0.00001403772,853.3837,-326.138) " class="st2" width="4.099999904632568" height="11.699999809265137" id="svg_256"/>
			
				<rect x="589" y="262.3999938964844" transform="matrix(0.7071,-0.7071,0.7071,0.7071,-16.9075,496.6671) " class="st2" width="4.099999904632568" height="12.699999809265137" id="svg_257"/>
			
				<rect x="583.9000244140625" y="261.6000061035156" transform="matrix(-1,0.000004770963,-0.000004770963,-1,1171.9174,534.8318) " class="st2" width="4.099999904632568" height="11.699999809265137" id="svg_258"/>
		</g>
	</g>
	<g id="svg_259">
		
			<rect x="574" y="252.10000610351562" transform="matrix(1.769944e-7,-1,1,1.769944e-7,318.1396,834.0023) " class="st2" width="4.099999904632568" height="11.699999809265137" id="svg_260"/>
		
			<rect x="572.7000122070312" y="246.39999389648438" transform="matrix(0.7071,-0.7071,0.7071,0.7071,-10.4212,480.4516) " class="st2" width="4.099999904632568" height="12.699999809265137" id="svg_261"/>
		<rect x="577.7999877929688" y="248.3000030517578" class="st2" width="4.099999904632568" height="11.699999809265137" id="svg_262"/>
	</g>
</g></g></svg>