<svg xmlns="http://www.w3.org/2000/svg" data-name="color bg copy" width="209" height="82.14" style=""><rect id="backgroundrect" width="100%" height="100%" x="0" y="0" fill="none" stroke="none"/><defs><style>.cls-1{fill:#eb821e;}.cls-2{fill:#fff;}.cls-3{fill:#3b5998;}.cls-4{fill:#1da1f2;}.cls-5{fill:#b00;}.cls-6{fill:#007bb6;}.cls-7{fill:#dd5044;}.cls-8{isolation:isolate;}.cls-9{fill:#35465c;}.cls-10{fill:#bd081c;}.cls-11{fill:#1ab7ea;}.cls-12{fill:#a8228e;}</style></defs><title>myusf-icons</title><g class="currentLayer" style=""><title>Layer 1</title><rect class="cls-1" width="40" height="40" id="svg_1"/><path class="cls-2" d="M20,14 a6,6 0 1 0 6,6 A6,6 0 0 0 20,14 zm0,9.94 A3.91,3.91 0 1 1 23.91,20 A3.91,3.91 0 0 1 20,23.91 z" id="svg_2"/><circle class="cls-2" cx="26.270000457763672" cy="13.739999771118164" r="1.409999966621399" id="svg_3"/><rect class="cls-3" x="42.31999969482422" width="40" height="40" id="svg_6"/><path id="svg_4" data-name="svg 4" class="cls-2" d="M73,10.64 A1.35,1.35 0 0 0 71.68,9.3 H53 a1.35,1.35 0 0 0 -1.34,1.34 V29.37 A1.34,1.34 0 0 0 53,30.7 h10.1 V22.38 H60.39 V19.3 h2.67 V16.64 c0,-2.44 1.49,-4.07 4.42,-4.07 a14.79,14.79 0 0 1 2.2,0.15000000000000002 V15.5 h-2 a1.22,1.22 0 0 0 -1.34,1.3800000000000001 V19.3 h3.13 L69,22.38 H66.33 V30.7 h5.35 A1.35,1.35 0 0 0 73,29.36 V10.64 z"/><rect class="cls-4" x="84.63999938964844" width="40" height="40" id="svg_7"/><path id="twitter" class="cls-2" d="M116.45,13.36 a9,9 0 0 1 -2.5300000000000002,0.7000000000000001 a4.38,4.38 0 0 0 1.9300000000000002,-2.44 a8.77,8.77 0 0 1 -2.77,1.07 a4.5,4.5 0 0 0 -3.22,-1.3800000000000001 a4.37,4.37 0 0 0 -4.38,4.38 a4.75,4.75 0 0 0 0.09000000000000002,1 a12.52,12.52 0 0 1 -9,-4.5 a4.19,4.19 0 0 0 -0.5900000000000001,2.13 a4.36,4.36 0 0 0 2,3.63 a4.4,4.4 0 0 1 -2,-0.54 v0 a4.38,4.38 0 0 0 3.52,4.3100000000000005 a4.47,4.47 0 0 1 -2,0.07 a4.39,4.39 0 0 0 4.09,3 A8.89,8.89 0 0 1 96.09,27 a7.17,7.17 0 0 1 -1,-0.07 a12.71,12.71 0 0 0 19.22,-10.7 v-0.5800000000000001 a8.9,8.9 0 0 0 2.18,-2.27 z"/><rect class="cls-5" x="126.7699966430664" width="40" height="40" id="svg_8"/><path id="youtube" class="cls-2" d="M146.77,12.43 c-10.7,0 -10.7,0 -10.7,7.57 s0,7.58 10.7,7.58 s10.7,0 10.7,-7.58 S157.47,12.43 146.77,12.43 zM144.1,24 V16 l6.69,4 l-6.69,4 z"/><rect class="cls-6" y="42.130001068115234" width="40" height="40" id="svg_9"/><path id="svg_5" data-name="svg 5" class="cls-2" d="M9.75,58.79 V72.61 H14.2 V58.79 zm11.59,5.8 a2.42,2.42 0 0 1 2.48,-2.68 c1.33,0 2.42,0.8900000000000001 2.42,3.12 v7.58 H30.7 v-8 c0,-4 -2.22,-6.24 -5.35,-6.24 a4.77,4.77 0 0 0 -4,2.35 l-0.15000000000000002,-1.9100000000000001 H16.8 c0,0.47000000000000003 0.08000000000000002,3.12 0.08000000000000002,3.12 v10.7 h4.46 v-8 zm-9.38,-8 a2.46,2.46 0 1 0 0,-4.9 a2.46,2.46 0 1 0 -0.08000000000000002,4.9 z"/><rect class="cls-7" x="169" y="42.130001068115234" width="40" height="40" id="svg_10"/><path class="cls-2" d="M189.79,58.47 a6.35,6.35 0 0 0 -4.57,-1.94 a5.51,5.51 0 0 0 0,11 A5,5 0 0 0 190,63.78 h-4.9 V60.49 h8.83 v2.4 a8.76,8.76 0 0 1 -9,8.39 a9.15,9.15 0 0 1 0,-18.29 a10.23,10.23 0 0 1 7.25,2.7600000000000002 z" id="svg_11"/><g class="cls-8" id="svg_12"><path class="cls-2" d="M199.19,57.62 h2.17 v3 h3 v2.17 h-3 v3 h-2.17 v-3 h-3 V60.57 h3 z" id="svg_13"/></g><rect class="cls-9" x="84.63999938964844" y="42.130001068115234" width="40" height="40" id="svg_14"/><path class="cls-2" d="M106.92,72.81 c-4.54,0 -6.26,-3.34 -6.26,-5.7 v-7 H98.5 V57.37 a6.52,6.52 0 0 0 4.2,-5.75 a0.16000000000000003,0.16000000000000003 0 0 1 0.16000000000000003,-0.16000000000000003 H106 V56.9 h4.28 v3.23 H106 v6.65 a1.87,1.87 0 0 0 2,2.1 H108 a5.19,5.19 0 0 0 1.7200000000000002,-0.36000000000000004 l1,3 c-0.39000000000000007,0.5700000000000001 -2.13,1.23 -3.7,1.25 h-0.16000000000000003 " id="svg_15"/><rect class="cls-10" x="126.7699966430664" y="42.130001068115234" width="40" height="40" id="svg_16"/><path class="cls-2" d="M136.07,62.14 a10.69,10.69 0 0 0 6.8100000000000005,10 a10.22,10.22 0 0 1 0,-3.07 c0.2,-0.8300000000000001 1.26,-5.32 1.26,-5.32 a3.8600000000000003,3.8600000000000003 0 0 1 -0.32000000000000006,-1.59 c0,-1.48 0.8600000000000001,-2.6 1.9300000000000002,-2.6 A1.35,1.35 0 0 1 147.14,61 a21.66,21.66 0 0 1 -0.8900000000000001,3.56 a1.56,1.56 0 0 0 1.59,1.94 c1.9,0 3.36,-2 3.36,-4.9 a4.22,4.22 0 0 0 -4.47,-4.36 a4.63,4.63 0 0 0 -4.83,4.65 a4.15,4.15 0 0 0 0.79,2.44 a0.3400000000000001,0.3400000000000001 0 0 1 0.08000000000000002,0.31000000000000005 c-0.08000000000000002,0.33000000000000007 -0.26,1.06 -0.30000000000000004,1.21 s-0.16000000000000003,0.24000000000000002 -0.36000000000000004,0.14 c-1.34,-0.6200000000000001 -2.17,-2.5700000000000003 -2.17,-4.14 c0,-3.38 2.45,-6.48 7.07,-6.48 a6.29,6.29 0 0 1 6.6,6.18 c0,3.6900000000000004 -2.33,6.66 -5.5600000000000005,6.66 A2.8600000000000003,2.8600000000000003 0 0 1 145.6,67 s-0.53,2 -0.6700000000000002,2.54 a12.14,12.14 0 0 1 -1.32,2.81 a10.7,10.7 0 1 0 -7.54,-10.22 z" id="svg_17"/><rect class="cls-11" x="169" width="40" height="40" id="svg_18"/><path class="cls-2" d="M198.58,15 q-0.15000000000000002,3.12 -4.37,8.56 q-4.36,5.67 -7.38,5.67 q-1.87,0 -3.17,-3.46 l-1.73,-6.33 c-0.6400000000000001,-2.3 -1.32,-3.46 -2.06,-3.46 a6.58,6.58 0 0 0 -1.6800000000000002,1 l-1,-1.31 c1.05,-0.92 2.09,-1.85 3.12,-2.7800000000000002 c1.4100000000000001,-1.22 2.47,-1.86 3.17,-1.92 c1.6700000000000002,-0.16000000000000003 2.6900000000000004,1 3.08,3.41 c0.41000000000000003,2.63 0.7000000000000001,4.27 0.8600000000000001,4.91 q0.7200000000000001,3.27 1.59,3.27 c0.44000000000000006,0 1.12,-0.7100000000000001 2,-2.13 a8.4,8.4 0 0 0 1.45,-3.23 c0.12000000000000001,-1.22 -0.36000000000000004,-1.83 -1.45,-1.83 a4,4 0 0 0 -1.58,0.35000000000000003 c1.05,-3.44 3.06,-5.12 6,-5 c2.2,0.06000000000000001 3.23,1.49 3.11,4.28 " id="svg_19"/><rect class="cls-12" x="42.31999969482422" y="42.130001068115234" width="40" height="40" id="svg_20"/><path class="cls-2" d="M61.43,63.25 a4.91,4.91 0 1 0 -4.91,4.9 A4.91,4.91 0 0 0 61.43,63.25 z" id="svg_21"/><path class="cls-2" d="M73,63.25 a4.91,4.91 0 1 0 -4.9,4.9 A4.91,4.91 0 0 0 73,63.25 z" id="svg_22"/><path class="cls-2" d="M20,10.38 c3.14,0 3.51,0 4.75,0.07 a6.42,6.42 0 0 1 2.17,0.4 a3.59,3.59 0 0 1 1.35,0.8800000000000001 a3.48,3.48 0 0 1 0.8800000000000001,1.35 a6.63,6.63 0 0 1 0.41000000000000003,2.18 c0.05000000000000001,1.24 0.07,1.61 0.07,4.74 s0,3.51 -0.07,4.75 a6.61,6.61 0 0 1 -0.41000000000000003,2.17 a3.91,3.91 0 0 1 -2.23,2.23 a6.61,6.61 0 0 1 -2.17,0.41000000000000003 c-1.24,0.05000000000000001 -1.61,0.07 -4.75,0.07 s-3.5,0 -4.74,-0.07 a6.63,6.63 0 0 1 -2.18,-0.41000000000000003 a3.48,3.48 0 0 1 -1.35,-0.8800000000000001 a3.59,3.59 0 0 1 -0.8800000000000001,-1.35 a6.42,6.42 0 0 1 -0.4,-2.17 c-0.06000000000000001,-1.24 -0.07,-1.61 -0.07,-4.75 s0,-3.5 0.07,-4.74 a6.44,6.44 0 0 1 0.4,-2.18 a3.91,3.91 0 0 1 2.23,-2.23 a6.44,6.44 0 0 1 2.18,-0.4 c1.24,-0.06000000000000001 1.61,-0.07 4.74,-0.07 m0,-2.12 c-3.19,0 -3.59,0 -4.84,0.07 a8.7,8.7 0 0 0 -2.85,0.55 a6,6 0 0 0 -3.43,3.43 a8.7,8.7 0 0 0 -0.55,2.85 c-0.05000000000000001,1.25 -0.07,1.6500000000000001 -0.07,4.84 s0,3.59 0.07,4.84 a8.7,8.7 0 0 0 0.55,2.85 a5.77,5.77 0 0 0 1.35,2.08 a5.86,5.86 0 0 0 2.08,1.35 a8.7,8.7 0 0 0 2.85,0.55 c1.25,0.06000000000000001 1.6500000000000001,0.07 4.84,0.07 s3.59,0 4.84,-0.07 a8.7,8.7 0 0 0 2.85,-0.55 a6,6 0 0 0 3.43,-3.43 a8.7,8.7 0 0 0 0.55,-2.85 c0.06000000000000001,-1.25 0.07,-1.6500000000000001 0.07,-4.84 s0,-3.59 -0.07,-4.84 a8.7,8.7 0 0 0 -0.55,-2.85 a5.86,5.86 0 0 0 -1.35,-2.08 a5.77,5.77 0 0 0 -2.08,-1.35 a8.7,8.7 0 0 0 -2.85,-0.55 c-1.25,-0.05000000000000001 -1.6500000000000001,-0.07 -4.84,-0.07 z" id="svg_23"/></g></svg>