<svg xmlns="http://www.w3.org/2000/svg" xmlns:xlink="http://www.w3.org/1999/xlink" version="1.1" style="" xml:space="preserve" width="123.0999984741211" height="31.5"><rect id="backgroundrect" width="100%" height="100%" x="0" y="0" fill="none" stroke="none"/>
<style type="text/css">
	.st0{fill:#FDB71B;}
	.st1{fill:#FFFFFF;}
</style>


<g class="currentLayer" style=""><title>Layer 1</title><g id="svg_1">
	<g id="svg_2">
		<g id="svg_3">
			<g id="svg_4">
				<g id="svg_5">
					<g id="svg_6">
						<path class="st0" d="M113.8,8.7c0,0-0.4-0.3-0.8,0.1c-0.4,0.4-0.1,0.8-0.1,0.8l3.4,3.4l-3.4,3.4c0,0-0.3,0.4,0.1,0.8        c0.4,0.4,0.8,0.1,0.8,0.1L118,13L113.8,8.7z" id="svg_7"/>
						<path class="st0" d="M95.7,13L99,9.6c0,0,0.3-0.4-0.1-0.8c-0.4-0.4-0.8-0.1-0.8-0.1L93.9,13l0,0l0,0l4.2,4.2        c0,0,0.4,0.3,0.8-0.1c0.4-0.4,0.1-0.8,0.1-0.8L95.7,13z" id="svg_8"/>
					</g>
					<g id="svg_9">
						<path class="st0" d="M110.1,20c-0.4-0.4-0.8-0.1-0.8-0.1l-3.4,3.4l-3.4-3.4c0,0-0.4-0.3-0.8,0.1c-0.4,0.4-0.1,0.8-0.1,0.8        L106,25l0,0l0,0l4.2-4.2C110.2,20.8,110.5,20.4,110.1,20z" id="svg_10"/>
						<path class="st0" d="M110.2,5.2L106,0.9l0,0l0,0l-4.2,4.2c0,0-0.3,0.4,0.1,0.8c0.4,0.4,0.8,0.1,0.8,0.1l3.4-3.4l3.4,3.4        c0,0,0.4,0.3,0.8-0.1C110.5,5.5,110.2,5.2,110.2,5.2z" id="svg_11"/>
					</g>
				</g>
				<g id="svg_12">
					<path class="st0" d="M113.1,14.4c0.4-0.4,0.3-0.8,0.3-0.8h-6.9v6.9c0,0,0.4,0.1,0.8-0.3c0.4-0.4,0.4-0.9,0.4-0.9v-3.6l3.5,3.5       c0,0,0.4,0.3,0.8-0.1c0.4-0.4,0.1-0.8,0.1-0.8l-3.5-3.5h3.6C112.3,14.8,112.7,14.8,113.1,14.4z" id="svg_13"/>
					<path class="st0" d="M105.4,13.5h-6.9c0,0-0.1,0.4,0.3,0.8c0.4,0.4,0.9,0.4,0.9,0.4h3.6l-3.5,3.5c0,0-0.3,0.4,0.1,0.8       c0.4,0.4,0.8,0.1,0.8,0.1l3.5-3.5v3.6c0,0,0,0.5,0.4,0.9c0.4,0.4,0.8,0.3,0.8,0.3V13.5z" id="svg_14"/>
					<path class="st0" d="M104.5,5.8c-0.4,0.4-0.4,0.9-0.4,0.9v3.6l-3.5-3.5c0,0-0.4-0.3-0.8,0.1c-0.4,0.4-0.1,0.8-0.1,0.8l3.5,3.5       l-3.6,0c0,0-0.5,0-0.9,0.4c-0.4,0.4-0.3,0.8-0.3,0.8h6.9V5.5C105.4,5.5,105,5.4,104.5,5.8z" id="svg_15"/>
					<path class="st0" d="M113.1,11.5c-0.4-0.4-0.9-0.4-0.9-0.4h-3.6l3.5-3.5c0,0,0.3-0.4-0.1-0.8c-0.4-0.4-0.8-0.1-0.8-0.1       l-3.5,3.5l0-3.6c0,0,0-0.5-0.4-0.9c-0.4-0.4-0.8-0.3-0.8-0.3v6.9l6.9,0C113.4,12.4,113.5,12,113.1,11.5z" id="svg_16"/>
				</g>
			</g>
		</g>
	</g>
</g><g id="svg_17">
	<path class="st1" d="M19.3,24V13.8c0-1.5-0.6-2.6-2.2-2.6c-1.5,0-2.9,1-4.2,2.4V24h-2.8V13.8c0-1.5-0.6-2.6-2.2-2.6   c-1.5,0-2.9,1-4.2,2.4V24H0.9V9.1h2.2l0.3,2.2C4.9,10,6.6,8.8,8.7,8.8c2.2,0,3.4,0.9,3.9,2.5c1.3-1.3,3.1-2.5,5.2-2.5   c2.8,0,4.2,1.7,4.2,4.4V24H19.3z" id="svg_18"/>
	<path class="st1" d="M32.2,25.5c-1.2,3.3-2.8,4.1-5,4.1c-0.6,0-0.9-0.1-1.2-0.1L25.6,27c0.5,0.1,1,0.2,1.5,0.2   c1.2,0,2.1-0.6,2.7-2.2l0.4-1L24.7,9.3l2.8-0.4l4,11.8l3.9-11.6h2.9L32.2,25.5z" id="svg_19"/>
	<path class="st1" d="M49.7,24.4c-5.2,0-8.3-3.3-8.3-8.5V2.4h2.9v13c0,3.7,1.7,6.2,5.4,6.2c3.6,0,5.5-2.2,5.5-6.1V2.4h2.9v13.2   C58.1,21.1,54.9,24.4,49.7,24.4z" id="svg_20"/>
	<path class="st1" d="M68.2,24.2c-2.3,0-4.4-0.6-6-1.4l0.4-3c1.5,1,3.5,1.8,5.6,1.8c2.2,0,3.8-1.2,3.8-3.3c0-2-0.9-2.8-4.1-4.2   c-4.1-1.8-5.6-3.2-5.6-6.3c0-3.5,2.7-5.7,6.5-5.7c2.1,0,3.6,0.5,4.9,1.2l-0.5,2.9c-1.2-0.9-2.8-1.6-4.5-1.6c-2.5,0-3.6,1.3-3.6,2.9   c0,1.7,0.8,2.4,4.1,3.9c4.2,1.9,5.6,3.3,5.6,6.6C75,21.9,72.2,24.2,68.2,24.2z" id="svg_21"/>
	<path class="st1" d="M82,5.1v6.6h6.5l0.4,2.7H82V24H79V2.4h11.2v2.7H82z" id="svg_22"/>
</g></g></svg>