<svg xmlns="http://www.w3.org/2000/svg" xmlns:xlink="http://www.w3.org/1999/xlink" version="1.1" enable-background="new -38 143.333 282 74.667" xml:space="preserve" width="282" height="74.667"><rect id="backgroundrect" width="100%" height="100%" x="0" y="0" fill="none" stroke="none"/>


<g id="icons" display="none" style="">
	<title>Layer 1</title>
	<g id="Layer_1_1_">
		<rect id="svg_1" x="-38" y="143.33299255371094" display="inline" fill="#F99BAB" width="282" height="74.66699981689453"/>
	</g>
	<path id="svg_4" display="inline" fill="#FFFFFF" d="M29.405,152.908c0-0.66-0.546-1.204-1.204-1.204H11.349   c-0.66,0-1.204,0.545-1.204,1.204v16.852c0,0.658,0.545,1.203,1.204,1.203h9.093v-7.486h-2.407v-2.773h2.407v-2.398   c0-2.192,1.336-3.66,3.978-3.66c1.166,0,1.975,0.133,1.975,0.133v2.502h-1.806c-0.8,0-1.203,0.45-1.203,1.24v2.183h2.813   l-0.405,2.774h-2.409v7.485h4.816c0.658,0,1.203-0.546,1.203-1.204L29.405,152.908L29.405,152.908z"/>
	<path id="twitter_1_" display="inline" fill="#FFFFFF" d="M70.18,155.352c-0.716,0.32-1.468,0.536-2.277,0.63   c0.828-0.49,1.448-1.27,1.74-2.19c-0.752,0.45-1.608,0.78-2.492,0.958c-0.742-0.75-1.767-1.24-2.905-1.24   c-2.18,0-3.94,1.76-3.94,3.94c0,0.31,0.02,0.63,0.085,0.912c-3.273-0.178-6.17-1.664-8.135-4.053   c-0.33,0.582-0.536,1.184-0.536,1.918c0,1.354,0.695,2.558,1.767,3.272c-0.65-0.02-1.25-0.197-1.786-0.49v0.048   c0,1.92,1.364,3.517,3.17,3.875c-0.34,0.094-0.696,0.14-1.054,0.14c-0.244,0-0.49-0.028-0.733-0.075   c0.49,1.56,1.965,2.728,3.677,2.746c-1.336,1.072-3.056,1.872-4.9,1.872c-0.32,0-0.63-0.02-0.94-0.066   c1.74,1.12,3.837,1.608,6.065,1.608c7.26,0,11.23-6.02,11.23-11.238v-0.517C68.976,156.847,69.644,156.162,70.18,155.352   L70.18,155.352z"/>
	<path id="youtube_1_" display="inline" fill="#FFFFFF" d="M99.325,154.515c-9.63,0-9.63,0-9.63,6.818s0,6.818,9.63,6.818   s9.63,0,9.63-6.818S108.955,154.515,99.325,154.515z M96.917,164.945v-7.223l6.02,3.61L96.917,164.945L96.917,164.945z"/>
	<path id="svg_5" display="inline" fill="#FFFFFF" d="M-29.225,196.986v12.442h4.006v-12.442H-29.225z M-18.795,202.206   c0-1.608,1.024-2.408,2.228-2.408s2.182,0.8,2.182,2.812v6.818h4.015v-7.222c0-3.61-2.004-5.614-4.816-5.614   c-1.608,0-2.81,0.91-3.61,2.114l-0.132-1.72h-3.95c0,0.423,0.066,2.81,0.066,2.81v9.63h4.015v-7.22H-18.795z M-27.24,194.983   c1.484,0,2.425-0.978,2.425-2.21c-0.02-1.24-0.94-2.2-2.39-2.2c-1.466,0-2.425,0.96-2.425,2.2c0,1.232,0.94,2.21,2.36,2.21H-27.24z   "/>
	<g display="inline" id="svg_3">
		<g id="svg_7">
			<path fill="#FFFFFF" d="M139.817,196.704c-0.864-0.977-2.455-1.75-4.114-1.75c-2.862,0-4.839,2.296-4.839,4.954     c0,2.66,1.977,4.954,4.839,4.954c1.977,0,3.933-1.567,4.251-3.386h-4.408v-2.955h7.953v2.16c0,3.136-2.725,7.546-8.066,7.546     c-4.752,0-8.116-3.751-8.116-8.227c0-4.478,3.363-8.229,8.116-8.229c2.203,0,4.613,0.637,6.522,2.479L139.817,196.704z" id="svg_8"/>
		</g>
		<g id="svg_9">
			<g enable-background="new    " id="svg_10">
				<path fill="#FFFFFF" d="M148.274,195.932h1.948v2.661h2.662v1.95h-2.662v2.661h-1.948v-2.661l-2.662,0v-1.949h2.662V195.932z" id="svg_11"/>
			</g>
		</g>
	</g>
	<path display="inline" fill="#FFFFFF" d="M61.601,209.61c-4.08,0-5.631-3.01-5.631-5.134v-6.279h-1.944v-2.483   c2.915-1.05,3.617-3.681,3.782-5.181c0.01-0.103,0.092-0.143,0.138-0.143h2.815v4.897h3.847v2.91h-3.86v5.981   c0.014,0.8,0.3,1.896,1.769,1.896h0.082c0.51-0.014,1.193-0.162,1.55-0.332l0.926,2.742c-0.348,0.51-1.916,1.103-3.328,1.126   L61.601,209.61" id="svg_12"/>
	<path display="inline" fill="#FFFFFF" d="M89.698,200.001c0,4.08,2.538,7.564,6.12,8.967c-0.084-0.76-0.16-1.93,0.034-2.762   c0.175-0.752,1.13-4.787,1.13-4.787s-0.29-0.577-0.29-1.43c0-1.338,0.777-2.338,1.744-2.338c0.819,0,1.218,0.616,1.218,1.356   c0,0.826-0.526,2.062-0.797,3.206c-0.228,0.958,0.479,1.74,1.425,1.74c1.71,0,3.027-1.806,3.027-4.41   c0-2.306-1.657-3.918-4.023-3.918c-2.74,0-4.35,2.056-4.35,4.181c0,0.826,0.319,1.715,0.718,2.196   c0.078,0.095,0.09,0.181,0.065,0.276c-0.072,0.304-0.234,0.96-0.267,1.092c-0.042,0.177-0.14,0.214-0.322,0.13   c-1.203-0.56-1.955-2.319-1.955-3.732c0-3.037,2.207-5.828,6.363-5.828c3.34,0,5.938,2.381,5.938,5.563   c0,3.32-2.094,5.99-4.997,5.99c-0.977,0-1.894-0.507-2.207-1.106c0,0-0.483,1.838-0.601,2.29c-0.218,0.835-0.805,1.885-1.196,2.523   c0.9,0.28,1.857,0.43,2.85,0.43c5.32,0,9.63-4.31,9.63-9.63c0-5.318-4.309-9.63-9.63-9.63c-5.318,0-9.63,4.311-9.63,9.63   L89.698,200.001z" id="svg_13"/>
	<path display="inline" fill="#FFFFFF" d="M147.72,156.859c-0.085,1.875-1.394,4.44-3.927,7.7c-2.62,3.402-4.835,5.104-6.646,5.104   c-1.123,0-2.073-1.037-2.85-3.109l-1.554-5.7c-0.576-2.07-1.194-3.11-1.856-3.11c-0.144,0-0.648,0.305-1.51,0.91l-0.907-1.17   c0.95-0.835,1.888-1.67,2.81-2.507c1.268-1.094,2.221-1.67,2.855-1.73c1.498-0.143,2.42,0.881,2.767,3.074   c0.374,2.365,0.635,3.837,0.78,4.413c0.43,1.963,0.907,2.942,1.426,2.942c0.403,0,1.009-0.635,1.816-1.909   c0.806-1.273,1.238-2.242,1.296-2.908c0.116-1.101-0.317-1.65-1.296-1.65c-0.46,0-0.938,0.107-1.426,0.317   c0.946-3.1,2.755-4.605,5.425-4.52c1.979,0.058,2.912,1.34,2.798,3.85" id="svg_14"/>
	<g display="inline" id="svg_15">
		<path fill="#FFFFFF" d="M18.975,201c0-2.426-1.984-4.41-4.42-4.41c-2.426,0-4.41,1.984-4.41,4.41c0,2.427,1.984,4.41,4.41,4.41    C16.991,205.41,18.975,203.427,18.975,201z" id="svg_16"/>
		<path fill="#FFFFFF" d="M29.405,201c0-2.426-1.985-4.41-4.41-4.41c-2.437,0-4.42,1.984-4.42,4.41c0,2.427,1.983,4.41,4.42,4.41    C27.42,205.41,29.405,203.427,29.405,201z" id="svg_17"/>
	</g>
	<g display="inline" id="svg_18">
		<path fill="#FFFFFF" d="M178.802,152.673c2.821,0,3.155,0.011,4.269,0.062c1.03,0.047,1.589,0.219,1.962,0.364    c0.493,0.192,0.845,0.421,1.215,0.79c0.37,0.37,0.599,0.722,0.79,1.215c0.145,0.372,0.317,0.932,0.364,1.961    c0.051,1.114,0.062,1.448,0.062,4.269c0,2.821-0.011,3.155-0.062,4.269c-0.047,1.03-0.219,1.589-0.364,1.962    c-0.192,0.493-0.421,0.845-0.79,1.215c-0.37,0.37-0.722,0.599-1.215,0.79c-0.372,0.145-0.932,0.317-1.962,0.364    c-1.114,0.051-1.448,0.062-4.269,0.062s-3.155-0.011-4.269-0.062c-1.03-0.047-1.589-0.219-1.962-0.364    c-0.493-0.192-0.845-0.421-1.215-0.79c-0.37-0.37-0.599-0.722-0.79-1.215c-0.145-0.372-0.317-0.932-0.364-1.961    c-0.051-1.114-0.062-1.448-0.062-4.269c0-2.821,0.011-3.155,0.062-4.269c0.047-1.03,0.219-1.589,0.364-1.962    c0.192-0.493,0.421-0.845,0.79-1.215c0.37-0.37,0.722-0.599,1.215-0.79c0.372-0.145,0.932-0.317,1.961-0.364    C175.647,152.684,175.981,152.673,178.802,152.673 M178.802,150.77c-2.869,0-3.229,0.012-4.355,0.064    c-1.124,0.051-1.892,0.23-2.564,0.491c-0.695,0.27-1.284,0.631-1.871,1.218c-0.587,0.587-0.948,1.176-1.218,1.871    c-0.261,0.672-0.44,1.44-0.491,2.564c-0.051,1.127-0.064,1.486-0.064,4.355s0.012,3.229,0.064,4.355    c0.051,1.124,0.23,1.892,0.491,2.564c0.27,0.695,0.631,1.284,1.218,1.871c0.587,0.587,1.176,0.948,1.871,1.218    c0.672,0.261,1.44,0.44,2.564,0.491c1.127,0.051,1.486,0.064,4.355,0.064s3.229-0.012,4.355-0.064    c1.124-0.051,1.892-0.23,2.564-0.491c0.695-0.27,1.284-0.631,1.871-1.218s0.948-1.176,1.218-1.871    c0.261-0.672,0.44-1.44,0.491-2.564c0.051-1.127,0.064-1.486,0.064-4.355s-0.012-3.229-0.064-4.355    c-0.051-1.124-0.23-1.892-0.491-2.564c-0.27-0.695-0.631-1.284-1.218-1.871c-0.587-0.587-1.176-0.948-1.871-1.218    c-0.672-0.261-1.44-0.44-2.564-0.491C182.031,150.782,181.671,150.77,178.802,150.77L178.802,150.77z" id="svg_19"/>
		<path fill="#FFFFFF" d="M178.802,155.909c-2.996,0-5.424,2.429-5.424,5.424s2.429,5.424,5.424,5.424s5.424-2.429,5.424-5.424    S181.798,155.909,178.802,155.909z M178.802,164.854c-1.945,0-3.521-1.576-3.521-3.521s1.576-3.521,3.521-3.521    s3.521,1.576,3.521,3.521S180.747,164.854,178.802,164.854z" id="svg_20"/>
		<circle fill="#FFFFFF" cx="184.4409942626953" cy="155.69400024414062" r="1.2680000066757202" id="svg_21"/>
	</g>
	<path display="inline" fill="#FFFFFF" d="M-20,152.673c2.821,0,3.155,0.011,4.269,0.062c1.03,0.047,1.589,0.219,1.961,0.364   c0.493,0.192,0.845,0.421,1.215,0.79c0.37,0.37,0.599,0.722,0.79,1.215c0.145,0.372,0.317,0.932,0.364,1.961   c0.051,1.114,0.062,1.448,0.062,4.269c0,2.821-0.011,3.155-0.062,4.269c-0.047,1.03-0.219,1.589-0.364,1.962   c-0.192,0.493-0.421,0.845-0.79,1.215c-0.37,0.37-0.722,0.599-1.215,0.79c-0.372,0.145-0.932,0.317-1.961,0.364   c-1.114,0.051-1.448,0.062-4.269,0.062s-3.155-0.011-4.269-0.062c-1.03-0.047-1.589-0.219-1.961-0.364   c-0.493-0.192-0.845-0.421-1.215-0.79c-0.37-0.37-0.599-0.722-0.79-1.215c-0.145-0.372-0.317-0.932-0.364-1.961   c-0.051-1.114-0.062-1.448-0.062-4.269c0-2.821,0.011-3.155,0.062-4.269c0.047-1.03,0.219-1.589,0.364-1.962   c0.192-0.493,0.421-0.845,0.79-1.215c0.37-0.37,0.722-0.599,1.215-0.79c0.372-0.145,0.932-0.317,1.961-0.364   C-23.155,152.684-22.821,152.673-20,152.673 M-20,150.77c-2.869,0-3.229,0.012-4.355,0.064c-1.124,0.051-1.892,0.23-2.564,0.491   c-0.695,0.27-1.284,0.631-1.871,1.218c-0.587,0.587-0.948,1.176-1.218,1.871c-0.261,0.672-0.44,1.44-0.491,2.564   c-0.051,1.127-0.064,1.486-0.064,4.355s0.012,3.229,0.064,4.355c0.051,1.124,0.23,1.892,0.491,2.564   c0.27,0.695,0.631,1.284,1.218,1.871c0.587,0.587,1.176,0.948,1.871,1.218c0.672,0.261,1.44,0.44,2.564,0.491   c1.127,0.051,1.486,0.064,4.355,0.064s3.229-0.012,4.355-0.064c1.124-0.051,1.892-0.23,2.564-0.491   c0.695-0.27,1.284-0.631,1.871-1.218c0.587-0.587,0.948-1.176,1.218-1.871c0.261-0.672,0.44-1.44,0.491-2.564   c0.051-1.127,0.064-1.486,0.064-4.355s-0.012-3.229-0.064-4.355c-0.051-1.124-0.23-1.892-0.491-2.564   c-0.27-0.695-0.631-1.284-1.218-1.871c-0.587-0.587-1.176-0.948-1.871-1.218c-0.672-0.261-1.44-0.44-2.564-0.491   C-16.771,150.782-17.131,150.77-20,150.77L-20,150.77z" id="svg_22"/>
</g>

<g id="icons_copy" display="none" style="">
	<title>Layer 1</title>
	<g id="Layer_1_2_">
		<rect id="svg_1_1_" x="-38" y="143.33299255371094" display="inline" fill="#F99BAB" width="282" height="74.66699981689453"/>
	</g>
</g>

<g class="currentLayer" style=""><title>Layer 2</title><g id="Layer_2_1_" display="none">
	<rect x="-38" y="143.33299255371094" display="inline" fill="#FC9A9A" stroke="#000000" stroke-miterlimit="10" width="282" height="74.66699981689453" id="svg_23"/>
</g><g id="color_bg" display="none">
	<rect x="-38" y="143.33299255371094" display="inline" fill="#D93175" width="36" height="36" id="svg_24"/>
	<g id="_x31_qmUve_1_" display="inline">
		
			<image overflow="visible" width="40" height="40" id="_x31_qmUve" transform="matrix(0.9,0,0,0.9,160.802,143.333) " xlink:href="38FC949E6DE34687.jpg">
		</image>
	</g>
	<path display="inline" fill="#FFFFFF" d="M-20,155.909c-2.996,0-5.424,2.429-5.424,5.424s2.429,5.424,5.424,5.424   s5.424-2.429,5.424-5.424S-17.004,155.909-20,155.909z M-20,164.854c-1.945,0-3.521-1.576-3.521-3.521s1.576-3.521,3.521-3.521   s3.521,1.576,3.521,3.521S-18.055,164.854-20,164.854z" id="svg_25"/>
	<circle display="inline" fill="#FFFFFF" cx="-14.361000061035156" cy="155.69400024414062" r="1.2680000066757202" id="svg_26"/>
	<rect x="1.774999976158142" y="143.33299255371094" display="inline" fill="#3B5998" width="36" height="36" id="svg_27"/>
	<rect x="41.54999923706055" y="143.33299255371094" display="inline" fill="#00ACED" width="36" height="36" id="svg_28"/>
	<rect x="81.32499694824219" y="143.33299255371094" display="inline" fill="#BB0000" width="36" height="36" id="svg_29"/>
	<rect x="-38" y="182" display="inline" fill="#007BB6" width="36" height="36" id="svg_30"/>
	<rect x="121.10099792480469" y="182" display="inline" fill="#DD5044" width="36" height="36" id="svg_31"/>
	<rect x="41.54999923706055" y="182" display="inline" fill="#35465C" width="36" height="36" id="svg_32"/>
	<rect x="81.32499694824219" y="182" display="inline" fill="#CB2027" width="36" height="36" id="svg_33"/>
	<rect x="121.10099792480469" y="143.33299255371094" display="inline" fill="#1AB7EA" width="36" height="36" id="svg_34"/>
	<rect x="1.774999976158142" y="182" display="inline" fill="#A8228E" width="36" height="36" id="svg_35"/>
</g><g id="color_bg_copy" class="">
	<rect x="0" y="0" fill="#EB821E" width="36" height="36" id="svg_36"/>
	<path fill="#FFFFFF" d="M18,12.576007446289054 c-2.996,0 -5.424,2.4290000000000003 -5.424,5.424 s2.4290000000000003,5.424 5.424,5.424 s5.424,-2.4290000000000003 5.424,-5.424 S20.996,12.576007446289054 18,12.576007446289054 zM18,21.521007446289076 c-1.945,0 -3.521,-1.576 -3.521,-3.521 s1.576,-3.521 3.521,-3.521 s3.521,1.576 3.521,3.521 S19.945,21.521007446289076 18,21.521007446289076 z" id="svg_37"/>
	<circle fill="#FFFFFF" cx="23.638999938964844" cy="12.361007690429688" r="1.2680000066757202" id="svg_38"/>
	<rect x="39.77499997615814" y="0" fill="#3B5998" width="36" height="36" id="svg_39"/>
	<rect x="79.54999923706055" y="0" fill="#1DA1F2" width="36" height="36" id="svg_40"/>
	<rect x="119.32499694824219" y="0" fill="#BB0000" width="36" height="36" id="svg_41"/>
	<rect x="0" y="38.66700744628906" fill="#007BB6" width="36" height="36" id="svg_42"/>
	<rect x="159.1009979248047" y="38.66700744628906" fill="#DD5044" width="36" height="36" id="svg_43"/>
	<rect x="79.54999923706055" y="38.66700744628906" fill="#35465C" width="36" height="36" id="svg_44"/>
	<rect x="119.32499694824219" y="38.66700744628906" fill="#BD081C" width="36" height="36" id="svg_45"/>
	<rect x="159.1009979248047" y="0" fill="#1AB7EA" width="36" height="36" id="svg_46"/>
	<rect x="39.77499997615814" y="38.66700744628906" fill="#A8228E" width="36" height="36" id="svg_47"/>
	<path id="svg_4_1_" fill="#FFFFFF" d="M67.405,9.57500744628905 c0,-0.6600000000000003 -0.546,-1.204 -1.204,-1.204 H49.349000000000004 c-0.6600000000000003,0 -1.204,0.545 -1.204,1.204 v16.852 c0,0.6580000000000003 0.545,1.203 1.204,1.203 h9.093 v-7.486 h-2.407 v-2.773 h2.407 v-2.398 c0,-2.192 1.336,-3.66 3.9779999999999998,-3.66 c1.166,0 1.975,0.133 1.975,0.133 v2.502 h-1.806 c-0.8,0 -1.203,0.45 -1.203,1.24 v2.183 h2.813 l-0.405,2.774 h-2.409 v7.485 h4.816 c0.6580000000000003,0 1.203,-0.546 1.203,-1.204 L67.405,9.57500744628905 L67.405,9.57500744628905 z"/>
	<path id="twitter_2_" fill="#FFFFFF" d="M108.18,12.019007446289066 c-0.7160000000000002,0.3200000000000001 -1.468,0.536 -2.277,0.6300000000000002 c0.8280000000000002,-0.4900000000000001 1.448,-1.27 1.7400000000000002,-2.19 c-0.7520000000000002,0.45 -1.608,0.78 -2.492,0.9580000000000002 c-0.7420000000000002,-0.7500000000000002 -1.7670000000000003,-1.24 -2.9050000000000002,-1.24 c-2.18,0 -3.94,1.7600000000000002 -3.94,3.94 c0,0.3100000000000001 0.020000000000000007,0.6300000000000002 0.08500000000000003,0.912 c-3.273,-0.17800000000000005 -6.17,-1.6640000000000001 -8.135,-4.053 c-0.3300000000000001,0.5820000000000002 -0.536,1.184 -0.536,1.9180000000000001 c0,1.354 0.6950000000000004,2.558 1.7670000000000003,3.2720000000000002 c-0.6500000000000002,-0.020000000000000007 -1.25,-0.19700000000000006 -1.786,-0.4900000000000001 v0.048000000000000015 c0,1.92 1.364,3.517 3.17,3.875 c-0.3400000000000002,0.09400000000000006 -0.6960000000000004,0.14 -1.054,0.14 c-0.24400000000000005,0 -0.4900000000000001,-0.028000000000000008 -0.7330000000000002,-0.07500000000000002 c0.4900000000000001,1.56 1.965,2.728 3.677,2.746 c-1.336,1.072 -3.056,1.872 -4.9,1.872 c-0.3200000000000001,0 -0.6300000000000002,-0.020000000000000007 -0.9400000000000002,-0.06600000000000003 c1.7400000000000002,1.12 3.837,1.608 6.065,1.608 c7.26,0 11.23,-6.02 11.23,-11.238 v-0.517 C106.976,13.514007446289071 107.644,12.829007446289069 108.18,12.019007446289066 L108.18,12.019007446289066 z"/>
	<path id="youtube_2_" fill="#FFFFFF" d="M137.325,11.182007446289049 c-9.63,0 -9.63,0 -9.63,6.818 s0,6.818 9.63,6.818 s9.63,0 9.63,-6.818 S146.95499999999998,11.182007446289049 137.325,11.182007446289049 zM134.917,21.612007446289056 v-7.223 l6.02,3.6100000000000003 L134.917,21.612007446289056 L134.917,21.612007446289056 z"/>
	<path id="svg_5_1_" fill="#FFFFFF" d="M8.774999999999999,53.65300744628905 v12.442 h4.006 v-12.442 H8.774999999999999 zM19.205,58.87300744628905 c0,-1.608 1.024,-2.408 2.228,-2.408 s2.182,0.8 2.182,2.8120000000000003 v6.818 h4.015 v-7.222 c0,-3.6100000000000003 -2.004,-5.614 -4.816,-5.614 c-1.608,0 -2.81,0.91 -3.6100000000000003,2.114 l-0.132,-1.7200000000000002 h-3.95 c0,0.4230000000000001 0.06600000000000003,2.81 0.06600000000000003,2.81 v9.63 h4.015 v-7.22 H19.205 zM10.760000000000002,51.65000744628907 c1.484,0 2.425,-0.978 2.425,-2.21 c-0.020000000000000007,-1.24 -0.9400000000000002,-2.2 -2.39,-2.2 c-1.466,0 -2.425,0.9600000000000002 -2.425,2.2 c0,1.232 0.9400000000000002,2.21 2.36,2.21 H10.760000000000002 z"/>
	<g id="svg_48">
		<g id="svg_49">
			<path fill="#FFFFFF" d="M177.817,53.37100744628907 c-0.8640000000000002,-0.977 -2.455,-1.75 -4.114,-1.75 c-2.862,0 -4.839,2.2960000000000003 -4.839,4.954 c0,2.66 1.9769999999999999,4.954 4.839,4.954 c1.9769999999999999,0 3.933,-1.5670000000000002 4.251,-3.386 h-4.408 v-2.955 h7.953 v2.16 c0,3.136 -2.725,7.546 -8.066,7.546 c-4.752,0 -8.116,-3.7510000000000003 -8.116,-8.227 c0,-4.478 3.363,-8.229 8.116,-8.229 c2.203,0 4.613,0.6370000000000002 6.522,2.479 L177.817,53.37100744628907 z" id="svg_50"/>
		</g>
		<g id="svg_51">
			<g enable-background="new    " id="svg_52">
				<path fill="#FFFFFF" d="M186.274,52.59900744628905 h1.948 v2.661 h2.662 v1.9500000000000002 h-2.662 v2.661 h-1.948 v-2.661 l-2.662,0 v-1.949 h2.662 V52.59900744628905 z" id="svg_53"/>
			</g>
		</g>
	</g>
	<path fill="#FFFFFF" d="M99.601,66.27700744628908 c-4.08,0 -5.631,-3.01 -5.631,-5.134 v-6.279 h-1.944 v-2.483 c2.915,-1.05 3.617,-3.681 3.782,-5.181 c0.010000000000000004,-0.10300000000000002 0.09200000000000005,-0.14300000000000004 0.138,-0.14300000000000004 h2.815 v4.897 h3.847 v2.91 h-3.8600000000000003 v5.981 c0.014000000000000004,0.8 0.3000000000000001,1.8960000000000004 1.7690000000000001,1.8960000000000004 h0.08200000000000003 c0.51,-0.014000000000000004 1.193,-0.16200000000000006 1.55,-0.3320000000000002 l0.926,2.742 c-0.3480000000000002,0.51 -1.916,1.103 -3.3280000000000003,1.126 L99.601,66.27700744628908 " id="svg_54"/>
	<path fill="#FFFFFF" d="M127.698,56.66800744628907 c0,4.08 2.5380000000000003,7.564 6.12,8.967 c-0.08400000000000003,-0.7600000000000002 -0.16000000000000006,-1.9300000000000002 0.034000000000000016,-2.762 c0.17500000000000004,-0.7520000000000002 1.13,-4.787 1.13,-4.787 s-0.2900000000000001,-0.5770000000000002 -0.2900000000000001,-1.4300000000000002 c0,-1.338 0.777,-2.338 1.7440000000000002,-2.338 c0.8190000000000002,0 1.218,0.6160000000000002 1.218,1.356 c0,0.8260000000000002 -0.526,2.062 -0.797,3.206 c-0.22800000000000006,0.9580000000000002 0.4790000000000001,1.7400000000000002 1.425,1.7400000000000002 c1.71,0 3.027,-1.806 3.027,-4.41 c0,-2.306 -1.657,-3.918 -4.023,-3.918 c-2.74,0 -4.35,2.056 -4.35,4.181 c0,0.8260000000000002 0.3190000000000001,1.715 0.7180000000000002,2.196 c0.07800000000000003,0.09500000000000006 0.09000000000000004,0.18100000000000005 0.06500000000000003,0.276 c-0.07200000000000002,0.3040000000000001 -0.234,0.9600000000000002 -0.267,1.092 c-0.042000000000000016,0.17700000000000005 -0.14,0.21400000000000005 -0.3220000000000001,0.13 c-1.203,-0.56 -1.955,-2.319 -1.955,-3.732 c0,-3.037 2.207,-5.828 6.363,-5.828 c3.34,0 5.938,2.3810000000000002 5.938,5.563 c0,3.3200000000000003 -2.094,5.99 -4.997,5.99 c-0.977,0 -1.8940000000000001,-0.507 -2.207,-1.106 c0,0 -0.4830000000000001,1.838 -0.6010000000000002,2.29 c-0.21800000000000005,0.8350000000000002 -0.805,1.8850000000000002 -1.196,2.523 c0.9,0.28 1.8570000000000002,0.4300000000000001 2.85,0.4300000000000001 c5.32,0 9.63,-4.3100000000000005 9.63,-9.63 c0,-5.318 -4.309,-9.63 -9.63,-9.63 c-5.318,0 -9.63,4.311 -9.63,9.63 L127.698,56.66800744628907 z" id="svg_55"/>
	<path fill="#FFFFFF" d="M185.72,13.526007446289071 c-0.08500000000000003,1.875 -1.3940000000000001,4.44 -3.927,7.7 c-2.62,3.402 -4.835,5.104 -6.646,5.104 c-1.123,0 -2.073,-1.037 -2.85,-3.109 l-1.554,-5.7 c-0.5760000000000002,-2.07 -1.194,-3.11 -1.856,-3.11 c-0.14400000000000004,0 -0.6480000000000002,0.3050000000000001 -1.51,0.91 l-0.907,-1.17 c0.9500000000000002,-0.8350000000000002 1.8880000000000003,-1.6700000000000004 2.81,-2.507 c1.268,-1.094 2.221,-1.6700000000000004 2.855,-1.73 c1.498,-0.14300000000000004 2.42,0.8810000000000002 2.7670000000000003,3.074 c0.3740000000000001,2.365 0.6350000000000002,3.837 0.78,4.413 c0.4300000000000001,1.963 0.907,2.942 1.4260000000000002,2.942 c0.403,0 1.009,-0.6350000000000002 1.816,-1.909 c0.806,-1.2730000000000001 1.238,-2.242 1.296,-2.908 c0.11600000000000003,-1.101 -0.3170000000000001,-1.6500000000000004 -1.296,-1.6500000000000004 c-0.46,0 -0.9380000000000002,0.10700000000000003 -1.4260000000000002,0.3170000000000001 c0.9460000000000002,-3.1 2.755,-4.605 5.425,-4.52 c1.979,0.05800000000000002 2.912,1.34 2.798,3.85 " id="svg_56"/>
	<g id="svg_57">
		<path fill="#FFFFFF" d="M56.975,57.66700744628906 c0,-2.426 -1.984,-4.41 -4.42,-4.41 c-2.426,0 -4.41,1.984 -4.41,4.41 c0,2.427 1.984,4.41 4.41,4.41 C54.991,62.07700744628906 56.975,60.094007446289055 56.975,57.66700744628906 z" id="svg_58"/>
		<path fill="#FFFFFF" d="M67.405,57.66700744628906 c0,-2.426 -1.9849999999999999,-4.41 -4.41,-4.41 c-2.4370000000000003,0 -4.42,1.984 -4.42,4.41 c0,2.427 1.983,4.41 4.42,4.41 C65.42,62.07700744628906 67.405,60.094007446289055 67.405,57.66700744628906 z" id="svg_59"/>
	</g>
	<path fill="#FFFFFF" d="M18,9.340007446289064 c2.821,0 3.1550000000000002,0.011000000000000006 4.269,0.06200000000000002 c1.03,0.047000000000000014 1.589,0.21900000000000006 1.961,0.3640000000000001 c0.4930000000000001,0.19200000000000006 0.8450000000000002,0.4210000000000001 1.215,0.79 c0.3700000000000001,0.3700000000000001 0.5990000000000002,0.7220000000000002 0.79,1.215 c0.14500000000000005,0.3720000000000001 0.3170000000000001,0.932 0.3640000000000001,1.961 c0.05100000000000002,1.114 0.06200000000000002,1.448 0.06200000000000002,4.269 c0,2.821 -0.011000000000000006,3.1550000000000002 -0.06200000000000002,4.269 c-0.047000000000000014,1.03 -0.21900000000000006,1.589 -0.3640000000000001,1.9620000000000002 c-0.19200000000000006,0.4930000000000001 -0.4210000000000001,0.8450000000000002 -0.79,1.215 c-0.3700000000000001,0.3700000000000001 -0.7220000000000002,0.5990000000000002 -1.215,0.79 c-0.3720000000000001,0.14500000000000005 -0.932,0.3170000000000001 -1.961,0.3640000000000001 c-1.114,0.05100000000000002 -1.448,0.06200000000000002 -4.269,0.06200000000000002 s-3.1550000000000002,-0.011000000000000006 -4.269,-0.06200000000000002 c-1.03,-0.047000000000000014 -1.589,-0.21900000000000006 -1.961,-0.3640000000000001 c-0.4930000000000001,-0.19200000000000006 -0.8450000000000002,-0.4210000000000001 -1.215,-0.79 c-0.3700000000000001,-0.3700000000000001 -0.5990000000000002,-0.7220000000000002 -0.79,-1.215 c-0.14500000000000005,-0.3720000000000001 -0.3170000000000001,-0.932 -0.3640000000000001,-1.961 c-0.05100000000000002,-1.114 -0.06200000000000002,-1.448 -0.06200000000000002,-4.269 c0,-2.821 0.011000000000000006,-3.1550000000000002 0.06200000000000002,-4.269 c0.047000000000000014,-1.03 0.21900000000000006,-1.589 0.3640000000000001,-1.9620000000000002 c0.19200000000000006,-0.4930000000000001 0.4210000000000001,-0.8450000000000002 0.79,-1.215 c0.3700000000000001,-0.3700000000000001 0.7220000000000002,-0.5990000000000002 1.215,-0.79 c0.3720000000000001,-0.14500000000000005 0.932,-0.3170000000000001 1.961,-0.3640000000000001 C14.844999999999999,9.35100744628906 15.178999999999998,9.340007446289064 18,9.340007446289064 M18,7.437007446289073 c-2.869,0 -3.229,0.012000000000000004 -4.355,0.06400000000000003 c-1.124,0.05100000000000002 -1.8920000000000003,0.23 -2.564,0.4910000000000001 c-0.6950000000000004,0.27 -1.284,0.6310000000000002 -1.871,1.218 c-0.5870000000000002,0.5870000000000002 -0.9480000000000002,1.176 -1.218,1.871 c-0.261,0.6720000000000004 -0.4400000000000001,1.44 -0.4910000000000001,2.564 c-0.05100000000000002,1.127 -0.06400000000000003,1.486 -0.06400000000000003,4.355 s0.012000000000000004,3.229 0.06400000000000003,4.355 c0.05100000000000002,1.124 0.23,1.8920000000000003 0.4910000000000001,2.564 c0.27,0.6950000000000004 0.6310000000000002,1.284 1.218,1.871 c0.5870000000000002,0.5870000000000002 1.176,0.9480000000000002 1.871,1.218 c0.6720000000000004,0.261 1.44,0.4400000000000001 2.564,0.4910000000000001 c1.127,0.05100000000000002 1.486,0.06400000000000003 4.355,0.06400000000000003 s3.229,-0.012000000000000004 4.355,-0.06400000000000003 c1.124,-0.05100000000000002 1.8920000000000003,-0.23 2.564,-0.4910000000000001 c0.6950000000000004,-0.27 1.284,-0.6310000000000002 1.871,-1.218 c0.5870000000000002,-0.5870000000000002 0.9480000000000002,-1.176 1.218,-1.871 c0.261,-0.6720000000000004 0.4400000000000001,-1.44 0.4910000000000001,-2.564 c0.05100000000000002,-1.127 0.06400000000000003,-1.486 0.06400000000000003,-4.355 s-0.012000000000000004,-3.229 -0.06400000000000003,-4.355 c-0.05100000000000002,-1.124 -0.23,-1.8920000000000003 -0.4910000000000001,-2.564 c-0.27,-0.6950000000000004 -0.6310000000000002,-1.284 -1.218,-1.871 c-0.5870000000000002,-0.5870000000000002 -1.176,-0.9480000000000002 -1.871,-1.218 c-0.6720000000000004,-0.261 -1.44,-0.4400000000000001 -2.564,-0.4910000000000001 C21.229,7.449007446289073 20.869,7.437007446289073 18,7.437007446289073 L18,7.437007446289073 z" id="svg_60"/>
</g><g id="smaller_icons" display="none">
	<path id="svg_2" display="inline" fill="#FFFFFF" d="M-13.903,156.666h-9.204c-1.048,0-1.898,0.85-1.898,1.898v9.204   c0,1.048,0.85,1.898,1.898,1.898h9.204c1.048,0,1.898-0.85,1.898-1.898v-9.204C-12.005,157.516-12.855,156.666-13.903,156.666z    M-18.505,160.729c1.346,0,2.438,1.09,2.438,2.437c0,1.346-1.092,2.438-2.438,2.438s-2.438-1.092-2.438-2.438   C-20.943,161.82-19.851,160.728-18.505,160.729L-18.505,160.729z M-13.357,168.041c0,0.152-0.12,0.273-0.273,0.273h-9.75   c-0.152,0-0.273-0.12-0.273-0.273v-5.688h1.44c-0.056,0.26-0.082,0.534-0.082,0.813c0,2.095,1.695,3.79,3.79,3.79   s3.79-1.695,3.79-3.79c0-0.28-0.026-0.552-0.083-0.813h1.44L-13.357,168.041L-13.357,168.041z M-13.357,159.916   c0,0.152-0.12,0.273-0.273,0.273h-1.625c-0.152,0-0.273-0.12-0.273-0.273v-1.625c0-0.152,0.12-0.273,0.273-0.273h1.625   c0.152,0,0.273,0.12,0.273,0.273V159.916z M92.435,158.564c-6.5,0-6.5,0-6.5,4.602c0,4.602,0,4.602,6.5,4.602s6.5,0,6.5-4.602   C98.935,158.564,98.935,158.564,92.435,158.564z M90.81,165.604v-4.878l4.063,2.438l-4.063,2.438V165.604z M70.519,159.336   c0.558-0.33,0.977-0.858,1.174-1.48c-0.508,0.305-1.085,0.527-1.682,0.648c-0.5-0.508-1.193-0.838-1.96-0.838   c-1.474,0-2.66,1.187-2.66,2.66c0,0.21,0.012,0.425,0.056,0.615c-2.21-0.12-4.164-1.123-5.49-2.735   c-0.223,0.393-0.362,0.8-0.362,1.294c0,0.915,0.47,1.727,1.193,2.21c-0.438-0.013-0.844-0.134-1.206-0.33v0.03   c0,1.296,0.92,2.375,2.14,2.616c-0.23,0.064-0.47,0.096-0.712,0.096c-0.165,0-0.33-0.02-0.495-0.05   c0.33,1.052,1.327,1.84,2.482,1.852c-0.9,0.724-2.063,1.263-3.307,1.263c-0.216,0-0.426-0.01-0.635-0.043   c1.174,0.755,2.59,1.085,4.094,1.085c4.9,0,7.58-4.062,7.58-7.585v-0.35c0.513-0.374,0.964-0.837,1.326-1.383   C71.573,159.127,71.065,159.273,70.519,159.336z M16.667,157.479v11.374c0,0.22-0.08,0.41-0.24,0.572   c-0.162,0.16-0.352,0.24-0.572,0.24h-3.25v-5.053h1.625l0.272-1.872h-1.898v-1.473c0-0.27,0.07-0.478,0.207-0.622   s0.34-0.216,0.606-0.216h1.22v-1.688c-0.365-0.06-0.81-0.09-1.334-0.09c-0.872,0-1.537,0.222-1.997,0.664   c-0.46,0.442-0.69,1.044-0.69,1.806v1.62H8.992v1.87h1.625v5.055H4.479c-0.22,0-0.41-0.08-0.57-0.24   c-0.162-0.162-0.242-0.352-0.242-0.573v-11.374c0-0.22,0.08-0.41,0.24-0.572c0.162-0.16,0.352-0.24,0.573-0.24h11.374   c0.22,0,0.41,0.08,0.572,0.24C16.586,157.069,16.666,157.259,16.667,157.479L16.667,157.479z M38.627,163.166   c0,0.537-0.133,1.035-0.4,1.492c-0.266,0.457-0.63,0.82-1.088,1.085c-0.46,0.267-0.958,0.4-1.495,0.4s-1.035-0.133-1.492-0.4   c-0.457-0.266-0.818-0.628-1.085-1.085s-0.4-0.955-0.4-1.492c0-0.537,0.133-1.035,0.4-1.492s0.628-0.82,1.085-1.085   c0.457-0.267,0.955-0.4,1.492-0.4s1.036,0.133,1.495,0.4c0.46,0.266,0.822,0.628,1.09,1.085   C38.494,162.131,38.627,162.629,38.627,163.166z M45.667,163.166c0,0.537-0.133,1.035-0.4,1.492s-0.628,0.82-1.085,1.085   c-0.457,0.267-0.955,0.4-1.492,0.4s-1.036-0.133-1.495-0.4c-0.46-0.266-0.822-0.628-1.09-1.085   c-0.265-0.457-0.398-0.955-0.398-1.492c0-0.537,0.133-1.035,0.4-1.492c0.266-0.457,0.63-0.82,1.088-1.085   c0.46-0.267,0.958-0.4,1.495-0.4s1.035,0.133,1.492,0.4c0.457,0.266,0.818,0.628,1.085,1.085S45.667,162.629,45.667,163.166z    M113.172,161.132h2.704v8.399h-2.704V161.132z M117.502,169.53v-6.5l-0.045-1.899h2.666l0.09,1.16   c0.286-0.435,0.635-0.782,1.046-1.04c0.41-0.258,0.874-0.387,1.39-0.387c0.973,0,1.758,0.332,2.355,1   c0.597,0.665,0.895,1.595,0.895,2.79v4.873h-2.71v-4.601c0-0.642-0.137-1.12-0.41-1.43c-0.273-0.31-0.627-0.466-1.063-0.466   c-0.432,0-0.79,0.14-1.076,0.422c-0.285,0.28-0.428,0.682-0.428,1.203v4.873h-2.71L117.502,169.53L117.502,169.53z M114.512,159.78   h-0.02c-0.47,0-0.852-0.143-1.15-0.43c-0.295-0.285-0.443-0.64-0.443-1.062c0-0.428,0.15-0.782,0.454-1.063   c0.302-0.283,0.697-0.424,1.184-0.424c0.478,0,0.864,0.14,1.158,0.423c0.294,0.28,0.446,0.634,0.454,1.062   c0,0.427-0.15,0.783-0.45,1.066c-0.3,0.284-0.697,0.426-1.188,0.426L114.512,159.78z"/>
	<path id="svg_6" display="inline" fill="#FFFFFF" d="M164.978,170.639c-2.753,0-3.8-2.029-3.8-3.465v-4.24h-1.312v-1.675   c1.968-0.71,2.44-2.485,2.553-3.495c0.007-0.07,0.061-0.098,0.094-0.098h1.899v3.305h2.596v1.963h-2.605v4.041   c0.01,0.539,0.203,1.279,1.194,1.279c0.017,0,0.036,0,0.055-0.002c0.344-0.01,0.806-0.109,1.047-0.225l0.624,1.851   c-0.235,0.345-1.293,0.744-2.246,0.761H164.978 M178.866,164.166c0,2.754,1.713,5.105,4.13,6.053   c-0.056-0.514-0.107-1.303,0.024-1.865c0.118-0.506,0.762-3.229,0.762-3.229s-0.194-0.39-0.194-0.966   c0-0.904,0.523-1.578,1.177-1.578c0.554,0,0.821,0.416,0.821,0.915c0,0.558-0.355,1.39-0.538,2.163   c-0.152,0.648,0.324,1.175,0.962,1.175c1.156,0,2.044-1.218,2.044-2.976c0-1.558-1.119-2.646-2.715-2.646   c-1.85,0-2.935,1.388-2.935,2.82c0,0.56,0.215,1.159,0.483,1.483c0.054,0.066,0.062,0.123,0.046,0.189   c-0.051,0.205-0.16,0.647-0.181,0.737c-0.029,0.119-0.094,0.144-0.218,0.086c-0.81-0.377-1.32-1.564-1.32-2.518   c0-2.05,1.49-3.933,4.296-3.933c2.256,0,4.008,1.607,4.008,3.754c0,2.24-1.412,4.043-3.372,4.043c-0.66,0-1.278-0.342-1.49-0.746   l-0.405,1.546c-0.146,0.565-0.543,1.272-0.808,1.704c0.609,0.188,1.255,0.29,1.925,0.29c3.59,0,6.5-2.91,6.5-6.5s-2.91-6.5-6.5-6.5   s-6.5,2.91-6.5,6.5L178.866,164.166z M149.86,161.266c-0.059,1.267-0.942,3-2.65,5.198c-1.77,2.298-3.265,3.445-4.486,3.445   c-0.761,0-1.4-0.7-1.925-2.099l-1.05-3.847c-0.388-1.4-0.805-2.1-1.25-2.1c-0.1,0-0.439,0.206-1.021,0.614l-0.61-0.789   c0.642-0.563,1.274-1.127,1.897-1.691c0.855-0.74,1.498-1.128,1.927-1.167c1.01-0.097,1.634,0.595,1.867,2.074   c0.254,1.596,0.43,2.59,0.526,2.978c0.292,1.325,0.613,1.987,0.963,1.987c0.273,0,0.681-0.431,1.227-1.29   c0.544-0.859,0.836-1.512,0.875-1.962c0.08-0.742-0.213-1.113-0.874-1.113c-0.311,0-0.632,0.07-0.962,0.214   c0.64-2.093,1.859-3.111,3.66-3.051c1.337,0.038,1.967,0.905,1.89,2.598"/>
	<path display="inline" fill="#FFFFFF" d="M210.165,161.835c-0.643-0.727-1.826-1.302-3.061-1.302c-2.129,0-3.6,1.708-3.6,3.686   c0,1.979,1.471,3.686,3.6,3.686c1.471,0,2.926-1.166,3.162-2.519h-3.279v-2.198h5.916v1.606c0,2.333-2.027,5.613-6,5.613   c-3.535,0-6.037-2.79-6.037-6.12c0-3.331,2.502-6.121,6.037-6.121c1.639,0,3.432,0.474,4.852,1.844L210.165,161.835z" id="svg_61"/>
	<path display="inline" fill="#FFFFFF" d="M216.456,161.261h1.449v1.979h1.98v1.45h-1.98v1.979h-1.449v-1.979h-1.98v-1.45h1.98   V161.261z" id="svg_62"/>
</g></g></svg>