<svg xmlns="http://www.w3.org/2000/svg" data-name="color bg copy" width="283" height="158.5" style=""><rect id="backgroundrect" width="100%" height="100%" x="0" y="0" fill="none" stroke="none"/>
  <defs>
    <style>
      .cls-1 {
        fill: #007bb6;
      }

      .cls-2 {
        fill: #fff;
      }

      .cls-3 {
        fill: #eb821e;
      }

      .cls-4 {
        fill: #6b6b6b;
      }

      .cls-5 {
        fill: #b00;
      }

      .cls-6 {
        fill: #bd081c;
      }

      .cls-7 {
        fill: #a8228e;
      }

      .cls-8 {
        fill: #1ab7ea;
      }

      .cls-9 {
        fill: #35465c;
      }

      .cls-10 {
        fill: #3b5998;
      }
    </style>
  </defs>
  
  
  
  
  
  
  
  
  
  
  
  
  
  
  
  
  
  
  
  
  
  
  
  
  
<g class="currentLayer" style=""><title>Layer 1</title><g id="svg_1">
    <rect class="cls-3" x="0.5" y="0.5" width="40" height="40" id="svg_2"/>
    <path class="cls-2" d="M20.5,14.47c-3.33,0-6.03,2.7-6.03,6.03s2.7,6.03,6.03,6.03,6.03-2.7,6.03-6.03-2.7-6.03-6.03-6.03Zm0,9.94c-2.16,0-3.91-1.75-3.91-3.91s1.75-3.91,3.91-3.91,3.91,1.75,3.91,3.91-1.75,3.91-3.91,3.91Z" id="svg_3"/>
  </g><circle class="cls-2" cx="26.770000457763672" cy="14.239999771118164" r="1.409999966621399" id="svg_6"/><g id="svg_7">
    <rect class="cls-10" x="42.81999969482422" y="0.5" width="40" height="40" id="svg_8"/>
    <path id="svg_4" data-name="svg 4" class="cls-2" d="M73.52,11.14c0-.73-.61-1.34-1.34-1.34h-18.73c-.73,0-1.34,.61-1.34,1.34V29.87c0,.73,.61,1.34,1.34,1.34h10.1v-8.32h-2.67v-3.08h2.67v-2.66c0-2.44,1.48-4.07,4.42-4.07,1.3,0,2.19,.15,2.19,.15v2.78h-2.01c-.89,0-1.34,.5-1.34,1.38v2.43h3.13l-.45,3.08h-2.68v8.32h5.35c.73,0,1.34-.61,1.34-1.34V11.14h0Z"/>
  </g><g id="svg_9">
    <rect x="85.13999938964844" y="0.5" width="40" height="40" id="svg_10"/>
    <path class="cls-2" d="M107.62,18.66l7.88-9.01h-1.91l-6.87,7.88-5.52-7.88h-6.2l8.34,11.83-8.34,9.46h1.91l7.21-8.34,5.74,8.34h6.31m-18.59-19.94h2.82l13.29,18.59h-2.82" id="svg_11"/>
    <path class="cls-2" d="M108.62,18.66l7.88-9.01h-1.91l-6.87,7.88-5.52-7.88h-6.2l8.34,11.83-8.34,9.46h1.91l7.21-8.34,5.74,8.34h6.31m-18.59-19.94h2.82l13.29,18.59h-2.82" id="svg_12"/>
  </g><g id="svg_13">
    <rect class="cls-5" x="127.2699966430664" y="0.5" width="40" height="40" id="svg_14"/>
    <path id="youtube" class="cls-2" d="M147.27,12.93q-10.7,0-10.7,7.58t10.7,7.58,10.7-7.58-10.7-7.58Zm-2.68,11.59v-8.03l6.69,4.01-6.69,4.01h0Z"/>
  </g><g id="svg_15">
    <rect class="cls-1" x="0.5" y="42.630001068115234" width="40" height="40" id="svg_16"/>
    <path id="svg_5" data-name="svg 5" class="cls-2" d="M10.25,59.29v13.83h4.45v-13.83h-4.45Zm11.59,5.8c0-1.79,1.14-2.68,2.48-2.68s2.42,.89,2.42,3.12v7.58h4.46v-8.03c0-4.01-2.23-6.24-5.35-6.24-1.79,0-3.12,1.01-4.01,2.35l-.15-1.91h-4.39c0,.47,.07,3.12,.07,3.12v10.7h4.46v-8.02h0Zm-9.38-8.03c1.65,0,2.69-1.09,2.69-2.46-.02-1.38-1.04-2.44-2.66-2.44s-2.69,1.07-2.69,2.44,1.04,2.46,2.62,2.46h.03Z"/>
  </g><g id="svg_17">
    <rect x="169.5" y="42.630001068115234" width="40" height="40" id="svg_18"/>
    <path class="cls-2" d="M187.44,59.76c-3.66,.08-6.61,3.12-6.61,6.87,0,1.86,.73,3.57,1.92,4.8,1.22,1.27,2.93,2.07,4.84,2.07,3.74,0,6.76-3.08,6.76-6.87v-7.58c1.43,1.04,3.19,1.66,5.1,1.66v-3.73c-.37,0-.72-.03-1.07-.11-1.05-.23-2-.79-2.7-1.59-.73-.81-1.22-1.86-1.31-3.03v-.48h-3.69v14.86c0,1.72-1.39,3.14-3.1,3.14-1.01,0-1.89-.48-2.46-1.24-.41-.54-.63-1.21-.63-1.91,0-1.74,1.39-3.14,3.1-3.14,.32,0,.64,.05,.93,.14v-3.79c-.37-.05-.72-.08-1.08-.06" id="svg_19"/>
  </g><g id="svg_20">
    <rect class="cls-9" x="85.13999938964844" y="42.630001068115234" width="40" height="40" id="svg_21"/>
    <path class="cls-2" d="M107.42,73.31c-4.53,0-6.26-3.34-6.26-5.7v-6.98h-2.16v-2.76c3.24-1.17,4.02-4.09,4.2-5.76,.01-.11,.1-.16,.15-.16h3.13v5.44h4.27v3.23h-4.29v6.65c.02,.89,.33,2.11,1.97,2.11h.09c.57-.02,1.33-.18,1.72-.37l1.03,3.05c-.39,.57-2.13,1.23-3.7,1.25h-.16" id="svg_22"/>
  </g><g id="svg_23">
    <rect class="cls-6" x="127.2699966430664" y="42.630001068115234" width="40" height="40" id="svg_24"/>
    <path class="cls-2" d="M136.57,62.64c0,4.53,2.82,8.41,6.8,9.96-.09-.84-.18-2.14,.04-3.07,.19-.84,1.26-5.32,1.26-5.32,0,0-.32-.64-.32-1.59,0-1.49,.86-2.6,1.94-2.6,.91,0,1.35,.68,1.35,1.51,0,.92-.58,2.29-.89,3.56-.25,1.06,.53,1.93,1.58,1.93,1.9,0,3.36-2.01,3.36-4.9,0-2.56-1.84-4.35-4.47-4.35-3.04,0-4.83,2.28-4.83,4.65,0,.92,.35,1.91,.8,2.44,.09,.11,.1,.2,.07,.31-.08,.34-.26,1.07-.3,1.21-.05,.2-.16,.24-.36,.14-1.34-.62-2.17-2.58-2.17-4.15,0-3.37,2.45-6.48,7.07-6.48,3.71,0,6.6,2.65,6.6,6.18s-2.33,6.66-5.55,6.66c-1.09,0-2.1-.56-2.45-1.23,0,0-.54,2.04-.67,2.54-.24,.93-.89,2.09-1.33,2.8,1,.31,2.06,.48,3.17,.48,5.91,0,10.7-4.79,10.7-10.7s-4.79-10.7-10.7-10.7-10.7,4.79-10.7,10.7h0Z" id="svg_25"/>
  </g><g id="svg_26">
    <rect class="cls-8" x="169.5" y="0.5" width="40" height="40" id="svg_27"/>
    <path class="cls-2" d="M199.08,15.53c-.09,2.08-1.55,4.93-4.36,8.56-2.91,3.78-5.37,5.67-7.39,5.67-1.25,0-2.3-1.15-3.17-3.45l-1.73-6.33c-.64-2.3-1.33-3.46-2.06-3.46-.16,0-.72,.34-1.68,1.01l-1.01-1.3c1.06-.93,2.1-1.86,3.12-2.79,1.41-1.22,2.47-1.86,3.17-1.92,1.66-.16,2.69,.98,3.07,3.42,.42,2.63,.71,4.26,.87,4.9,.48,2.18,1.01,3.27,1.58,3.27,.45,0,1.12-.71,2.02-2.12,.9-1.41,1.38-2.49,1.44-3.23,.13-1.22-.35-1.83-1.44-1.83-.51,0-1.04,.12-1.58,.35,1.05-3.44,3.06-5.12,6.03-5.02,2.2,.06,3.24,1.49,3.11,4.28" id="svg_28"/>
  </g><g id="svg_29">
    <rect class="cls-7" x="42.81999969482422" y="42.630001068115234" width="40" height="40" id="svg_30"/>
    <g id="svg_31">
      <path class="cls-2" d="M61.93,63.75c0-2.7-2.2-4.9-4.91-4.9s-4.9,2.2-4.9,4.9,2.2,4.9,4.9,4.9,4.91-2.2,4.91-4.9Z" id="svg_32"/>
      <path class="cls-2" d="M73.52,63.75c0-2.7-2.21-4.9-4.9-4.9s-4.91,2.2-4.91,4.9,2.2,4.9,4.91,4.9,4.9-2.2,4.9-4.9Z" id="svg_33"/>
    </g>
  </g><path class="cls-2" d="M20.5,10.88c3.13,0,3.51,.01,4.74,.07,1.14,.05,1.77,.24,2.18,.4,.55,.21,.94,.47,1.35,.88,.41,.41,.67,.8,.88,1.35,.16,.41,.35,1.04,.4,2.18,.06,1.24,.07,1.61,.07,4.74s-.01,3.51-.07,4.74c-.05,1.14-.24,1.77-.4,2.18-.21,.55-.47,.94-.88,1.35s-.8,.67-1.35,.88c-.41,.16-1.04,.35-2.18,.4-1.24,.06-1.61,.07-4.74,.07s-3.51-.01-4.74-.07c-1.14-.05-1.77-.24-2.18-.4-.55-.21-.94-.47-1.35-.88-.41-.41-.67-.8-.88-1.35-.16-.41-.35-1.04-.4-2.18-.06-1.24-.07-1.61-.07-4.74s.01-3.51,.07-4.74c.05-1.14,.24-1.77,.4-2.18,.21-.55,.47-.94,.88-1.35s.8-.67,1.35-.88c.41-.16,1.04-.35,2.18-.4,1.24-.06,1.61-.07,4.74-.07m0-2.12c-3.19,0-3.59,.01-4.84,.07-1.25,.06-2.1,.26-2.85,.55-.77,.3-1.43,.7-2.08,1.35-.65,.65-1.05,1.31-1.35,2.08-.29,.75-.49,1.6-.55,2.85-.06,1.25-.07,1.65-.07,4.84s.01,3.59,.07,4.84c.06,1.25,.26,2.1,.55,2.85,.3,.77,.7,1.43,1.35,2.08,.65,.65,1.31,1.05,2.08,1.35,.75,.29,1.6,.49,2.85,.55,1.25,.06,1.65,.07,4.84,.07s3.59-.01,4.84-.07c1.25-.06,2.1-.26,2.85-.55,.77-.3,1.43-.7,2.08-1.35,.65-.65,1.05-1.31,1.35-2.08,.29-.75,.49-1.6,.55-2.85,.06-1.25,.07-1.65,.07-4.84s-.01-3.59-.07-4.84c-.06-1.25-.26-2.1-.55-2.85-.3-.77-.7-1.43-1.35-2.08-.65-.65-1.31-1.05-2.08-1.35-.75-.29-1.6-.49-2.85-.55-1.25-.06-1.65-.07-4.84-.07h0Z" id="svg_34"/><path class="cls-4" d="M20.5,99.47c-3.33,0-6.03,2.7-6.03,6.03s2.7,6.03,6.03,6.03,6.03-2.7,6.03-6.03-2.7-6.03-6.03-6.03Zm0,9.94c-2.16,0-3.91-1.75-3.91-3.91s1.75-3.91,3.91-3.91,3.91,1.75,3.91,3.91-1.75,3.91-3.91,3.91Z" id="svg_35"/><circle class="cls-4" cx="26.770000457763672" cy="99.23999786376953" r="1.409999966621399" id="svg_36"/><path id="svg_4-2" data-name="svg 4" class="cls-4" d="M73.52,96.14c0-.73-.61-1.34-1.34-1.34h-18.73c-.73,0-1.34,.61-1.34,1.34v18.73c0,.73,.61,1.34,1.34,1.34h10.1v-8.32h-2.67v-3.08h2.67v-2.66c0-2.44,1.48-4.07,4.42-4.07,1.3,0,2.19,.15,2.19,.15v2.78h-2.01c-.89,0-1.34,.5-1.34,1.38v2.43h3.13l-.45,3.08h-2.68v8.32h5.35c.73,0,1.34-.61,1.34-1.34v-18.72h0Z"/><path id="youtube-2" data-name="youtube" class="cls-4" d="M147.27,97.93q-10.7,0-10.7,7.58t10.7,7.58,10.7-7.58-10.7-7.58Zm-2.68,11.59v-8.03l6.69,4.01-6.69,4.01h0Z"/><path id="svg_5-2" data-name="svg 5" class="cls-4" d="M10.25,144.29v13.83h4.45v-13.83h-4.45Zm11.59,5.8c0-1.79,1.14-2.68,2.48-2.68s2.42,.89,2.42,3.12v7.58h4.46v-8.03c0-4.01-2.23-6.24-5.35-6.24-1.79,0-3.12,1.01-4.01,2.35l-.15-1.91h-4.39c0,.47,.07,3.12,.07,3.12v10.7h4.46v-8.02h0Zm-9.38-8.03c1.65,0,2.69-1.09,2.69-2.46-.02-1.38-1.04-2.44-2.66-2.44s-2.69,1.07-2.69,2.44,1.04,2.46,2.62,2.46h.03Z"/><path class="cls-4" d="M107.42,158.31c-4.53,0-6.26-3.34-6.26-5.7v-6.98h-2.16v-2.76c3.24-1.17,4.02-4.09,4.2-5.76,.01-.11,.1-.16,.15-.16h3.13v5.44h4.27v3.23h-4.29v6.65c.02,.89,.33,2.11,1.97,2.11h.09c.57-.02,1.33-.18,1.72-.37l1.03,3.05c-.39,.57-2.13,1.23-3.7,1.25h-.16" id="svg_37"/><path class="cls-4" d="M136.57,147.64c0,4.53,2.82,8.41,6.8,9.96-.09-.84-.18-2.14,.04-3.07,.19-.84,1.26-5.32,1.26-5.32,0,0-.32-.64-.32-1.59,0-1.49,.86-2.6,1.94-2.6,.91,0,1.35,.68,1.35,1.51,0,.92-.58,2.29-.89,3.56-.25,1.06,.53,1.93,1.58,1.93,1.9,0,3.36-2.01,3.36-4.9,0-2.56-1.84-4.35-4.47-4.35-3.04,0-4.83,2.28-4.83,4.65,0,.92,.35,1.91,.8,2.44,.09,.11,.1,.2,.07,.31-.08,.34-.26,1.07-.3,1.21-.05,.2-.16,.24-.36,.14-1.34-.62-2.17-2.58-2.17-4.15,0-3.37,2.45-6.48,7.07-6.48,3.71,0,6.6,2.65,6.6,6.18s-2.33,6.66-5.55,6.66c-1.09,0-2.1-.56-2.45-1.23,0,0-.54,2.04-.67,2.54-.24,.93-.89,2.09-1.33,2.8,1,.31,2.06,.48,3.17,.48,5.91,0,10.7-4.79,10.7-10.7s-4.79-10.7-10.7-10.7-10.7,4.79-10.7,10.7h0Z" id="svg_38"/><path class="cls-4" d="M199.08,100.53c-.09,2.08-1.55,4.93-4.36,8.56-2.91,3.78-5.37,5.67-7.39,5.67-1.25,0-2.3-1.15-3.17-3.45l-1.73-6.33c-.64-2.3-1.33-3.46-2.06-3.46-.16,0-.72,.34-1.68,1.01l-1.01-1.3c1.06-.93,2.1-1.86,3.12-2.79,1.41-1.22,2.47-1.86,3.17-1.92,1.66-.16,2.69,.98,3.07,3.42,.42,2.63,.71,4.26,.87,4.9,.48,2.18,1.01,3.27,1.58,3.27,.45,0,1.12-.71,2.02-2.12,.9-1.41,1.38-2.49,1.44-3.23,.13-1.22-.35-1.83-1.44-1.83-.51,0-1.04,.12-1.58,.35,1.05-3.44,3.06-5.12,6.03-5.02,2.2,.06,3.24,1.49,3.11,4.28" id="svg_39"/><g id="svg_40">
    <path class="cls-4" d="M61.93,148.75c0-2.7-2.2-4.9-4.91-4.9s-4.9,2.2-4.9,4.9,2.2,4.9,4.9,4.9,4.91-2.2,4.91-4.9Z" id="svg_41"/>
    <path class="cls-4" d="M73.52,148.75c0-2.7-2.21-4.9-4.9-4.9s-4.91,2.2-4.91,4.9,2.2,4.9,4.91,4.9,4.9-2.2,4.9-4.9Z" id="svg_42"/>
  </g><path class="cls-4" d="M20.5,95.88c3.13,0,3.51,.01,4.74,.07,1.14,.05,1.77,.24,2.18,.4,.55,.21,.94,.47,1.35,.88,.41,.41,.67,.8,.88,1.35,.16,.41,.35,1.04,.4,2.18,.06,1.24,.07,1.61,.07,4.74s-.01,3.51-.07,4.74c-.05,1.14-.24,1.77-.4,2.18-.21,.55-.47,.94-.88,1.35s-.8,.67-1.35,.88c-.41,.16-1.04,.35-2.18,.4-1.24,.06-1.61,.07-4.74,.07s-3.51-.01-4.74-.07c-1.14-.05-1.77-.24-2.18-.4-.55-.21-.94-.47-1.35-.88-.41-.41-.67-.8-.88-1.35-.16-.41-.35-1.04-.4-2.18-.06-1.24-.07-1.61-.07-4.74s.01-3.51,.07-4.74c.05-1.14,.24-1.77,.4-2.18,.21-.55,.47-.94,.88-1.35s.8-.67,1.35-.88c.41-.16,1.04-.35,2.18-.4,1.24-.06,1.61-.07,4.74-.07m0-2.12c-3.19,0-3.59,.01-4.84,.07-1.25,.06-2.1,.26-2.85,.55-.77,.3-1.43,.7-2.08,1.35-.65,.65-1.05,1.31-1.35,2.08-.29,.75-.49,1.6-.55,2.85-.06,1.25-.07,1.65-.07,4.84s.01,3.59,.07,4.84c.06,1.25,.26,2.1,.55,2.85,.3,.77,.7,1.43,1.35,2.08,.65,.65,1.31,1.05,2.08,1.35,.75,.29,1.6,.49,2.85,.55,1.25,.06,1.65,.07,4.84,.07s3.59-.01,4.84-.07c1.25-.06,2.1-.26,2.85-.55,.77-.3,1.43-.7,2.08-1.35,.65-.65,1.05-1.31,1.35-2.08,.29-.75,.49-1.6,.55-2.85,.06-1.25,.07-1.65,.07-4.84s-.01-3.59-.07-4.84c-.06-1.25-.26-2.1-.55-2.85-.3-.77-.7-1.43-1.35-2.08-.65-.65-1.31-1.05-2.08-1.35-.75-.29-1.6-.49-2.85-.55-1.25-.06-1.65-.07-4.84-.07h0Z" id="svg_43"/><path class="cls-4" d="M187.44,144.76c-3.66,.08-6.61,3.12-6.61,6.87,0,1.86,.73,3.57,1.92,4.8,1.22,1.27,2.93,2.07,4.84,2.07,3.74,0,6.76-3.08,6.76-6.87v-7.58c1.43,1.04,3.19,1.66,5.1,1.66v-3.73c-.37,0-.72-.03-1.07-.11-1.05-.23-2-.79-2.7-1.59-.73-.81-1.22-1.86-1.31-3.03v-.48h-3.69v14.86c0,1.72-1.39,3.14-3.1,3.14-1.01,0-1.89-.48-2.46-1.24-.41-.54-.63-1.21-.63-1.91,0-1.74,1.39-3.14,3.1-3.14,.32,0,.64,.05,.93,.14v-3.79c-.37-.05-.72-.08-1.08-.06" id="svg_44"/><path class="cls-4" d="M107.96,103.95l7.84-8.95h-1.9l-6.83,7.84-5.48-7.84h-6.16l8.28,11.75-8.28,9.4h1.9l7.16-8.28,5.71,8.28h6.27m-18.47-19.81h2.8l13.21,18.47h-2.8" id="svg_45"/><path class="cls-4" d="M108.96,103.95l7.84-8.95h-1.9l-6.83,7.84-5.48-7.84h-6.16l8.28,11.75-8.28,9.4h1.9l7.16-8.28,5.71,8.28h6.27m-18.47-19.81h2.8l13.21,18.47h-2.8" id="svg_46"/></g></svg>